<?xml version="1.0" encoding="UTF-8" standalone="no"?>
<!DOCTYPE svg PUBLIC "-//W3C//DTD SVG 1.1//EN"
 "http://www.w3.org/Graphics/SVG/1.1/DTD/svg11.dtd">
<!-- Generated by graphviz version 2.43.0 (0)
 -->
<!-- Title: FeatherFaceV2ECAArchitecture Pages: 1 -->
<svg width="1972pt" height="545pt"
 viewBox="0.00 0.00 1972.18 545.43" xmlns="http://www.w3.org/2000/svg" xmlns:xlink="http://www.w3.org/1999/xlink">
<g id="graph0" class="graph" transform="scale(1 1) rotate(0) translate(4 541.43)">
<title>FeatherFaceV2ECAArchitecture</title>
<polygon fill="#f8f9fa" stroke="transparent" points="-4,4 -4,-541.43 1968.18,-541.43 1968.18,4 -4,4"/>
<g id="clust1" class="cluster">
<title>cluster_main</title>
<path fill="#f8f9fa" stroke="#bdc3c7" d="M349.19,-259.43C349.19,-259.43 1944.18,-259.43 1944.18,-259.43 1950.18,-259.43 1956.18,-265.43 1956.18,-271.43 1956.18,-271.43 1956.18,-484.43 1956.18,-484.43 1956.18,-490.43 1950.18,-496.43 1944.18,-496.43 1944.18,-496.43 349.19,-496.43 349.19,-496.43 343.19,-496.43 337.19,-490.43 337.19,-484.43 337.19,-484.43 337.19,-271.43 337.19,-271.43 337.19,-265.43 343.19,-259.43 349.19,-259.43"/>
<text text-anchor="middle" x="1146.69" y="-481.23" font-family="Arial" font-size="14.00" fill="#34495e">(a) FeatherFace V2 ECA&#45;Net Architecture (515K parameters)</text>
</g>
<g id="clust2" class="cluster">
<title>cluster_backbone_eca</title>
<polygon fill="#f8f9fa" stroke="#e67e22" stroke-dasharray="5,2" points="642.18,-267.43 642.18,-465.43 796.58,-465.43 796.58,-267.43 642.18,-267.43"/>
<text text-anchor="middle" x="719.38" y="-452.63" font-family="Arial" font-size="11.00" fill="#34495e">Backbone ECA&#45;Net Modules</text>
</g>
<g id="clust3" class="cluster">
<title>cluster_fpn</title>
<polygon fill="#f8f9fa" stroke="#27ae60" stroke-dasharray="5,2" points="930.38,-318.43 930.38,-415.43 1328.38,-415.43 1328.38,-318.43 930.38,-318.43"/>
<text text-anchor="middle" x="1129.38" y="-402.63" font-family="Arial" font-size="11.00" fill="#34495e">BiFPN Multi&#45;scale Features</text>
</g>
<g id="clust4" class="cluster">
<title>cluster_bifpn_eca</title>
<polygon fill="#f8f9fa" stroke="#e67e22" stroke-dasharray="5,2" points="1385.11,-267.43 1385.11,-465.43 1524.45,-465.43 1524.45,-267.43 1385.11,-267.43"/>
<text text-anchor="middle" x="1454.78" y="-452.63" font-family="Arial" font-size="11.00" fill="#34495e">BiFPN ECA&#45;Net Modules</text>
</g>
<g id="clust5" class="cluster">
<title>cluster_eca_detail</title>
<path fill="#f8f9fa" stroke="#e67e22" d="M117.5,-22.43C117.5,-22.43 1701.18,-22.43 1701.18,-22.43 1707.18,-22.43 1713.18,-28.43 1713.18,-34.43 1713.18,-34.43 1713.18,-129.43 1713.18,-129.43 1713.18,-135.43 1707.18,-141.43 1701.18,-141.43 1701.18,-141.43 117.5,-141.43 117.5,-141.43 111.5,-141.43 105.5,-135.43 105.5,-129.43 105.5,-129.43 105.5,-34.43 105.5,-34.43 105.5,-28.43 111.5,-22.43 117.5,-22.43"/>
<text text-anchor="middle" x="909.34" y="-126.23" font-family="Arial" font-size="14.00" fill="#e67e22">(b) ECA&#45;Net Module (Wang et al. CVPR 2020)</text>
</g>
<g id="clust6" class="cluster">
<title>cluster_efficiency</title>
<path fill="#f8f9fa" stroke="#34495e" d="M20,-153.43C20,-153.43 281,-153.43 281,-153.43 287,-153.43 293,-159.43 293,-165.43 293,-165.43 293,-310.43 293,-310.43 293,-316.43 287,-322.43 281,-322.43 281,-322.43 20,-322.43 20,-322.43 14,-322.43 8,-316.43 8,-310.43 8,-310.43 8,-165.43 8,-165.43 8,-159.43 14,-153.43 20,-153.43"/>
<text text-anchor="middle" x="150.5" y="-307.23" font-family="Arial" font-size="14.00" fill="#34495e">(c) Efficiency Comparison (C=256 channels)</text>
</g>
<g id="clust7" class="cluster">
<title>cluster_math</title>
<path fill="#f8f9fa" stroke="#9b59b6" d="M47,-388.43C47,-388.43 254,-388.43 254,-388.43 260,-388.43 266,-394.43 266,-400.43 266,-400.43 266,-517.43 266,-517.43 266,-523.43 260,-529.43 254,-529.43 254,-529.43 47,-529.43 47,-529.43 41,-529.43 35,-523.43 35,-517.43 35,-517.43 35,-400.43 35,-400.43 35,-394.43 41,-388.43 47,-388.43"/>
<text text-anchor="middle" x="150.5" y="-514.23" font-family="Arial" font-size="14.00" fill="#9b59b6">(d) Mathematical Foundation</text>
</g>
<!-- title -->
<g id="node1" class="node">
<title>title</title>
<polygon fill="lightgrey" stroke="transparent" points="270,-378.43 31,-378.43 31,-334.43 270,-334.43 270,-378.43"/>
<text text-anchor="middle" x="150.5" y="-361.63" font-family="Arial" font-size="16.00" fill="#2c3e50">FeatherFace V2 Architecture</text>
<text text-anchor="middle" x="150.5" y="-343.63" font-family="Arial" font-size="16.00" fill="#2c3e50">(ECA&#45;Net Scientific Innovation)</text>
</g>
<!-- input -->
<g id="node2" class="node">
<title>input</title>
<polygon fill="#ecf0f1" stroke="#95a5a6" points="416.19,-374.43 345.19,-374.43 345.19,-338.43 416.19,-338.43 416.19,-374.43"/>
<text text-anchor="middle" x="380.69" y="-359.43" font-family="Arial" font-size="10.00">Input</text>
<text text-anchor="middle" x="380.69" y="-348.43" font-family="Arial" font-size="10.00">(640×640×3)</text>
</g>
<!-- title&#45;&gt;input -->
<!-- backbone -->
<g id="node3" class="node">
<title>backbone</title>
<polygon fill="#3498db" stroke="black" points="559.38,-374.43 476.38,-374.43 476.38,-338.43 559.38,-338.43 559.38,-374.43"/>
<text text-anchor="middle" x="517.88" y="-359.43" font-family="Arial" font-size="10.00" fill="white">MobileNet&#45;0.25</text>
<text text-anchor="middle" x="517.88" y="-348.43" font-family="Arial" font-size="10.00" fill="white">Backbone</text>
</g>
<!-- input&#45;&gt;backbone -->
<g id="edge5" class="edge">
<title>input&#45;&gt;backbone</title>
<path fill="none" stroke="black" d="M416.5,-356.43C431.54,-356.43 449.42,-356.43 465.9,-356.43"/>
<polygon fill="black" stroke="black" points="465.94,-359.93 475.94,-356.43 465.94,-352.93 465.94,-359.93"/>
</g>
<!-- eca_bb_0 -->
<g id="node4" class="node">
<title>eca_bb_0</title>
<ellipse fill="#e67e22" stroke="black" cx="719.38" cy="-296.43" rx="46.84" ry="21.43"/>
<text text-anchor="middle" x="719.38" y="-299.43" font-family="Arial" font-size="10.00" fill="white">ECA&#45;Net</text>
<text text-anchor="middle" x="719.38" y="-288.43" font-family="Arial" font-size="10.00" fill="white">(64ch, k=3)</text>
</g>
<!-- backbone&#45;&gt;eca_bb_0 -->
<g id="edge6" class="edge">
<title>backbone&#45;&gt;eca_bb_0</title>
<path fill="none" stroke="black" d="M559.56,-339.56C571.33,-334.98 584.27,-330.25 596.38,-326.43 619.29,-319.21 645.07,-312.65 667.01,-307.52"/>
<polygon fill="black" stroke="black" points="667.83,-310.92 676.79,-305.27 666.26,-304.1 667.83,-310.92"/>
</g>
<!-- eca_bb_1 -->
<g id="node5" class="node">
<title>eca_bb_1</title>
<ellipse fill="#e67e22" stroke="black" cx="719.38" cy="-356.43" rx="50.41" ry="21.43"/>
<text text-anchor="middle" x="719.38" y="-359.43" font-family="Arial" font-size="10.00" fill="white">ECA&#45;Net</text>
<text text-anchor="middle" x="719.38" y="-348.43" font-family="Arial" font-size="10.00" fill="white">(128ch, k=5)</text>
</g>
<!-- backbone&#45;&gt;eca_bb_1 -->
<g id="edge7" class="edge">
<title>backbone&#45;&gt;eca_bb_1</title>
<path fill="none" stroke="black" d="M559.73,-356.43C588.33,-356.43 626.99,-356.43 658.98,-356.43"/>
<polygon fill="black" stroke="black" points="659.12,-359.93 669.12,-356.43 659.12,-352.93 659.12,-359.93"/>
</g>
<!-- eca_bb_2 -->
<g id="node6" class="node">
<title>eca_bb_2</title>
<ellipse fill="#e67e22" stroke="black" cx="719.38" cy="-416.43" rx="50.41" ry="21.43"/>
<text text-anchor="middle" x="719.38" y="-419.43" font-family="Arial" font-size="10.00" fill="white">ECA&#45;Net</text>
<text text-anchor="middle" x="719.38" y="-408.43" font-family="Arial" font-size="10.00" fill="white">(256ch, k=5)</text>
</g>
<!-- backbone&#45;&gt;eca_bb_2 -->
<g id="edge8" class="edge">
<title>backbone&#45;&gt;eca_bb_2</title>
<path fill="none" stroke="black" d="M559.56,-373.3C571.33,-377.88 584.27,-382.62 596.38,-386.43 618.38,-393.36 643.02,-399.69 664.37,-404.72"/>
<polygon fill="black" stroke="black" points="663.71,-408.16 674.24,-407.02 665.29,-401.34 663.71,-408.16"/>
</g>
<!-- p3 -->
<g id="node7" class="node">
<title>p3</title>
<polygon fill="#e74c3c" stroke="black" points="992.38,-362.43 938.38,-362.43 938.38,-326.43 992.38,-326.43 992.38,-362.43"/>
<text text-anchor="middle" x="965.38" y="-341.93" font-family="Arial" font-size="10.00" fill="white">P3/8</text>
</g>
<!-- eca_bb_0&#45;&gt;p3 -->
<g id="edge9" class="edge">
<title>eca_bb_0&#45;&gt;p3</title>
<path fill="none" stroke="black" d="M762.6,-304.74C809.32,-313.93 883.84,-328.59 928.05,-337.29"/>
<polygon fill="black" stroke="black" points="927.59,-340.76 938.07,-339.26 928.94,-333.89 927.59,-340.76"/>
</g>
<!-- eca_input -->
<g id="node15" class="node">
<title>eca_input</title>
<polygon fill="#ecf0f1" stroke="#95a5a6" points="187.5,-98.43 113.5,-98.43 113.5,-62.43 187.5,-62.43 187.5,-98.43"/>
<text text-anchor="middle" x="150.5" y="-83.43" font-family="Arial" font-size="10.00">Input Feature</text>
<text text-anchor="middle" x="150.5" y="-72.43" font-family="Arial" font-size="10.00">[B, C, H, W]</text>
</g>
<!-- eca_bb_0&#45;&gt;eca_input -->
<!-- validation -->
<g id="node27" class="node">
<title>validation</title>
<polygon fill="#fff3cd" stroke="#856404" points="1038.38,-250.93 886.38,-250.93 886.38,-187.93 1044.38,-187.93 1044.38,-244.93 1038.38,-250.93"/>
<polyline fill="none" stroke="#856404" points="1038.38,-250.93 1038.38,-244.93 "/>
<polyline fill="none" stroke="#856404" points="1044.38,-244.93 1038.38,-244.93 "/>
<text text-anchor="middle" x="965.38" y="-238.93" font-family="Arial" font-size="10.00" fill="#856404">Scientific Validation:</text>
<text text-anchor="middle" x="965.38" y="-227.93" font-family="Arial" font-size="10.00" fill="#856404">✅ Wang et al. CVPR 2020</text>
<text text-anchor="middle" x="965.38" y="-216.93" font-family="Arial" font-size="10.00" fill="#856404">✅ 1,500+ citations</text>
<text text-anchor="middle" x="965.38" y="-205.93" font-family="Arial" font-size="10.00" fill="#856404">✅ ImageNet benchmark proven</text>
<text text-anchor="middle" x="965.38" y="-194.93" font-family="Arial" font-size="10.00" fill="#856404">✅ Superior to SE + CBAM</text>
</g>
<!-- eca_bb_0&#45;&gt;validation -->
<g id="edge31" class="edge">
<title>eca_bb_0&#45;&gt;validation</title>
<path fill="none" stroke="#856404" stroke-dasharray="5,2" d="M758.24,-284.48C789.78,-274.53 835.94,-259.96 876.59,-247.13"/>
<polygon fill="#856404" stroke="#856404" points="877.77,-250.43 886.25,-244.09 875.66,-243.76 877.77,-250.43"/>
</g>
<!-- p4 -->
<g id="node8" class="node">
<title>p4</title>
<polygon fill="#f39c12" stroke="black" points="1172.38,-375.43 1118.38,-375.43 1118.38,-339.43 1172.38,-339.43 1172.38,-375.43"/>
<text text-anchor="middle" x="1145.38" y="-354.93" font-family="Arial" font-size="10.00" fill="white">P4/16</text>
</g>
<!-- eca_bb_1&#45;&gt;p4 -->
<g id="edge10" class="edge">
<title>eca_bb_1&#45;&gt;p4</title>
<path fill="none" stroke="black" d="M768.25,-361.91C801.37,-365.41 846.49,-369.63 886.38,-371.43 956.53,-374.59 974.22,-374.48 1044.38,-371.43 1065.66,-370.51 1089.27,-367.31 1108.2,-364.2"/>
<polygon fill="black" stroke="black" points="1108.92,-367.63 1118.19,-362.5 1107.74,-360.73 1108.92,-367.63"/>
</g>
<!-- p5 -->
<g id="node9" class="node">
<title>p5</title>
<polygon fill="#9b59b6" stroke="black" points="1320.38,-387.43 1266.38,-387.43 1266.38,-351.43 1320.38,-351.43 1320.38,-387.43"/>
<text text-anchor="middle" x="1293.38" y="-366.93" font-family="Arial" font-size="10.00" fill="white">P5/32</text>
</g>
<!-- eca_bb_2&#45;&gt;p5 -->
<g id="edge11" class="edge">
<title>eca_bb_2&#45;&gt;p5</title>
<path fill="none" stroke="black" d="M769.76,-414.88C857.63,-411.75 1046.8,-403.28 1205.38,-384.43 1222.07,-382.45 1240.43,-379.41 1255.97,-376.59"/>
<polygon fill="black" stroke="black" points="1257.02,-379.95 1266.22,-374.68 1255.74,-373.07 1257.02,-379.95"/>
</g>
<!-- p3&#45;&gt;p4 -->
<g id="edge1" class="edge">
<title>p3&#45;&gt;p4</title>
<path fill="none" stroke="#27ae60" d="M992.59,-343.65C1013,-343.3 1042.04,-343.34 1067.38,-345.43 1080.79,-346.54 1095.39,-348.59 1108.25,-350.7"/>
<polygon fill="#27ae60" stroke="#27ae60" points="1107.68,-354.15 1118.12,-352.37 1108.85,-347.25 1107.68,-354.15"/>
<text text-anchor="middle" x="1064.88" y="-348.23" font-family="Arial" font-size="9.00">↓</text>
</g>
<!-- eca_bif_0 -->
<g id="node10" class="node">
<title>eca_bif_0</title>
<ellipse fill="#e67e22" stroke="black" cx="1454.78" cy="-296.43" rx="46.84" ry="21.43"/>
<text text-anchor="middle" x="1454.78" y="-299.43" font-family="Arial" font-size="10.00" fill="white">ECA&#45;Net</text>
<text text-anchor="middle" x="1454.78" y="-288.43" font-family="Arial" font-size="10.00" fill="white">(56ch, k=3)</text>
</g>
<!-- p3&#45;&gt;eca_bif_0 -->
<g id="edge12" class="edge">
<title>p3&#45;&gt;eca_bif_0</title>
<path fill="none" stroke="black" d="M992.83,-341.13C1016.93,-338.16 1053.52,-333.78 1085.38,-330.43 1196.34,-318.79 1326.34,-307.29 1398.45,-301.1"/>
<polygon fill="black" stroke="black" points="1398.99,-304.57 1408.66,-300.23 1398.4,-297.59 1398.99,-304.57"/>
</g>
<!-- p4&#45;&gt;p3 -->
<g id="edge4" class="edge">
<title>p4&#45;&gt;p3</title>
<path fill="none" stroke="#27ae60" d="M1118.13,-357.39C1102.03,-357.22 1080.99,-356.72 1062.38,-355.43 1042.51,-354.05 1020.43,-351.59 1002.46,-349.34"/>
<polygon fill="#27ae60" stroke="#27ae60" points="1002.76,-345.85 992.4,-348.05 1001.87,-352.79 1002.76,-345.85"/>
<text text-anchor="middle" x="1064.88" y="-358.23" font-family="Arial" font-size="9.00">↑</text>
</g>
<!-- p4&#45;&gt;p5 -->
<g id="edge2" class="edge">
<title>p4&#45;&gt;p5</title>
<path fill="none" stroke="#27ae60" d="M1172.67,-349.24C1188.8,-345.29 1209.83,-342.07 1228.38,-345.43 1237.81,-347.14 1247.66,-350.16 1256.73,-353.5"/>
<polygon fill="#27ae60" stroke="#27ae60" points="1255.62,-356.82 1266.21,-357.19 1258.16,-350.3 1255.62,-356.82"/>
<text text-anchor="middle" x="1225.88" y="-348.23" font-family="Arial" font-size="9.00">↓</text>
</g>
<!-- eca_bif_1 -->
<g id="node11" class="node">
<title>eca_bif_1</title>
<ellipse fill="#e67e22" stroke="black" cx="1454.78" cy="-356.43" rx="46.84" ry="21.43"/>
<text text-anchor="middle" x="1454.78" y="-359.43" font-family="Arial" font-size="10.00" fill="white">ECA&#45;Net</text>
<text text-anchor="middle" x="1454.78" y="-348.43" font-family="Arial" font-size="10.00" fill="white">(56ch, k=3)</text>
</g>
<!-- p4&#45;&gt;eca_bif_1 -->
<g id="edge13" class="edge">
<title>p4&#45;&gt;eca_bif_1</title>
<path fill="none" stroke="black" d="M1172.52,-350.18C1187.31,-346.45 1206.23,-342.3 1223.38,-340.43 1284.1,-333.81 1354.13,-340.73 1400.9,-347.43"/>
<polygon fill="black" stroke="black" points="1400.4,-350.89 1410.8,-348.89 1401.42,-343.97 1400.4,-350.89"/>
</g>
<!-- p5&#45;&gt;p4 -->
<g id="edge3" class="edge">
<title>p5&#45;&gt;p4</title>
<path fill="none" stroke="#27ae60" d="M1266.01,-367.26C1242.72,-365.35 1208.52,-362.54 1182.65,-360.41"/>
<polygon fill="#27ae60" stroke="#27ae60" points="1182.73,-356.91 1172.48,-359.58 1182.16,-363.88 1182.73,-356.91"/>
<text text-anchor="middle" x="1225.88" y="-366.23" font-family="Arial" font-size="9.00">↑</text>
</g>
<!-- eca_bif_2 -->
<g id="node12" class="node">
<title>eca_bif_2</title>
<ellipse fill="#e67e22" stroke="black" cx="1454.78" cy="-416.43" rx="46.84" ry="21.43"/>
<text text-anchor="middle" x="1454.78" y="-419.43" font-family="Arial" font-size="10.00" fill="white">ECA&#45;Net</text>
<text text-anchor="middle" x="1454.78" y="-408.43" font-family="Arial" font-size="10.00" fill="white">(56ch, k=3)</text>
</g>
<!-- p5&#45;&gt;eca_bif_2 -->
<g id="edge14" class="edge">
<title>p5&#45;&gt;eca_bif_2</title>
<path fill="none" stroke="black" d="M1320.7,-377.19C1343.62,-383.95 1377.44,-393.92 1405.24,-402.12"/>
<polygon fill="black" stroke="black" points="1404.6,-405.58 1415.19,-405.05 1406.58,-398.87 1404.6,-405.58"/>
</g>
<!-- det_head -->
<g id="node13" class="node">
<title>det_head</title>
<polygon fill="#1abc9c" stroke="black" points="1699.68,-374.43 1614.68,-374.43 1614.68,-338.43 1699.68,-338.43 1699.68,-374.43"/>
<text text-anchor="middle" x="1657.18" y="-359.43" font-family="Arial" font-size="10.00" fill="white">Detection Head</text>
<text text-anchor="middle" x="1657.18" y="-348.43" font-family="Arial" font-size="10.00" fill="white">(SSH)</text>
</g>
<!-- eca_bif_0&#45;&gt;det_head -->
<g id="edge15" class="edge">
<title>eca_bif_0&#45;&gt;det_head</title>
<path fill="none" stroke="black" d="M1494.42,-308C1525.79,-317.39 1570.3,-330.72 1604.69,-341.01"/>
<polygon fill="black" stroke="black" points="1603.97,-344.45 1614.55,-343.97 1605.98,-337.75 1603.97,-344.45"/>
</g>
<!-- innovation -->
<g id="node28" class="node">
<title>innovation</title>
<polygon fill="#d4edda" stroke="#155724" points="1739.18,-250.93 1569.18,-250.93 1569.18,-187.93 1745.18,-187.93 1745.18,-244.93 1739.18,-250.93"/>
<polyline fill="none" stroke="#155724" points="1739.18,-250.93 1739.18,-244.93 "/>
<polyline fill="none" stroke="#155724" points="1745.18,-244.93 1739.18,-244.93 "/>
<text text-anchor="middle" x="1657.18" y="-238.93" font-family="Arial" font-size="10.00" fill="#155724">Innovation V2:</text>
<text text-anchor="middle" x="1657.18" y="-227.93" font-family="Arial" font-size="10.00" fill="#155724">• ECA&#45;Net replaces CBAM</text>
<text text-anchor="middle" x="1657.18" y="-216.93" font-family="Arial" font-size="10.00" fill="#155724">• 6 modules: 3 backbone + 3 BiFPN</text>
<text text-anchor="middle" x="1657.18" y="-205.93" font-family="Arial" font-size="10.00" fill="#155724">• Total: 22 parameters (ultra&#45;minimal)</text>
<text text-anchor="middle" x="1657.18" y="-194.93" font-family="Arial" font-size="10.00" fill="#155724">• Proven mobile efficiency</text>
</g>
<!-- eca_bif_0&#45;&gt;innovation -->
<g id="edge32" class="edge">
<title>eca_bif_0&#45;&gt;innovation</title>
<path fill="none" stroke="#155724" stroke-dasharray="5,2" d="M1488.27,-281.53C1506.35,-273.44 1529.35,-263.48 1550.18,-255.43 1553.22,-254.26 1556.31,-253.09 1559.44,-251.92"/>
<polygon fill="#155724" stroke="#155724" points="1560.74,-255.17 1568.92,-248.43 1558.33,-248.6 1560.74,-255.17"/>
</g>
<!-- eca_bif_1&#45;&gt;det_head -->
<g id="edge16" class="edge">
<title>eca_bif_1&#45;&gt;det_head</title>
<path fill="none" stroke="black" d="M1501.51,-356.43C1532.15,-356.43 1572.57,-356.43 1604.4,-356.43"/>
<polygon fill="black" stroke="black" points="1604.41,-359.93 1614.41,-356.43 1604.41,-352.93 1604.41,-359.93"/>
</g>
<!-- eca_bif_2&#45;&gt;det_head -->
<g id="edge17" class="edge">
<title>eca_bif_2&#45;&gt;det_head</title>
<path fill="none" stroke="black" d="M1494.42,-404.86C1525.79,-395.47 1570.3,-382.15 1604.69,-371.85"/>
<polygon fill="black" stroke="black" points="1605.98,-375.12 1614.55,-368.9 1603.97,-368.41 1605.98,-375.12"/>
</g>
<!-- outputs -->
<g id="node14" class="node">
<title>outputs</title>
<polygon fill="#34495e" stroke="black" points="1948.18,-374.43 1782.18,-374.43 1782.18,-338.43 1948.18,-338.43 1948.18,-374.43"/>
<text text-anchor="middle" x="1865.18" y="-359.43" font-family="Arial" font-size="10.00" fill="white">Detection Outputs</text>
<text text-anchor="middle" x="1865.18" y="-348.43" font-family="Arial" font-size="10.00" fill="white">[BBox, Classification, Landmarks]</text>
</g>
<!-- det_head&#45;&gt;outputs -->
<g id="edge18" class="edge">
<title>det_head&#45;&gt;outputs</title>
<path fill="none" stroke="black" d="M1699.87,-356.43C1720.64,-356.43 1746.64,-356.43 1771.79,-356.43"/>
<polygon fill="black" stroke="black" points="1772.12,-359.93 1782.12,-356.43 1772.12,-352.93 1772.12,-359.93"/>
</g>
<!-- comparison -->
<g id="node24" class="node">
<title>comparison</title>
<polygon fill="lightgrey" stroke="transparent" points="285,-291.43 16,-291.43 16,-215.43 285,-215.43 285,-291.43"/>
<polygon fill="#34495e" stroke="transparent" points="24.5,-270.43 24.5,-287.43 71.5,-287.43 71.5,-270.43 24.5,-270.43"/>
<polygon fill="none" stroke="black" points="24.5,-270.43 24.5,-287.43 71.5,-287.43 71.5,-270.43 24.5,-270.43"/>
<text text-anchor="start" x="30.5" y="-277.43" font-family="Arial" font-weight="bold" font-size="10.00" fill="white">Method</text>
<polygon fill="#34495e" stroke="transparent" points="71.5,-270.43 71.5,-287.43 130.5,-287.43 130.5,-270.43 71.5,-270.43"/>
<polygon fill="none" stroke="black" points="71.5,-270.43 71.5,-287.43 130.5,-287.43 130.5,-270.43 71.5,-270.43"/>
<text text-anchor="start" x="74.5" y="-277.43" font-family="Arial" font-weight="bold" font-size="10.00" fill="white">Parameters</text>
<polygon fill="#34495e" stroke="transparent" points="130.5,-270.43 130.5,-287.43 209.5,-287.43 209.5,-270.43 130.5,-270.43"/>
<polygon fill="none" stroke="black" points="130.5,-270.43 130.5,-287.43 209.5,-287.43 209.5,-270.43 130.5,-270.43"/>
<text text-anchor="start" x="133.5" y="-277.43" font-family="Arial" font-weight="bold" font-size="10.00" fill="white">ImageNet Top&#45;1</text>
<polygon fill="#34495e" stroke="transparent" points="209.5,-270.43 209.5,-287.43 277.5,-287.43 277.5,-270.43 209.5,-270.43"/>
<polygon fill="none" stroke="black" points="209.5,-270.43 209.5,-287.43 277.5,-287.43 277.5,-270.43 209.5,-270.43"/>
<text text-anchor="start" x="212.5" y="-277.43" font-family="Arial" font-weight="bold" font-size="10.00" fill="white">Mobile Score</text>
<polygon fill="none" stroke="black" points="24.5,-253.43 24.5,-270.43 71.5,-270.43 71.5,-253.43 24.5,-253.43"/>
<text text-anchor="start" x="31.5" y="-259.43" font-family="Arial" font-size="10.00">SE&#45;Net</text>
<polygon fill="#ffcccc" stroke="transparent" points="71.5,-253.43 71.5,-270.43 130.5,-270.43 130.5,-253.43 71.5,-253.43"/>
<polygon fill="none" stroke="black" points="71.5,-253.43 71.5,-270.43 130.5,-270.43 130.5,-253.43 71.5,-253.43"/>
<text text-anchor="start" x="88.5" y="-259.43" font-family="Arial" font-size="10.00">8,192</text>
<polygon fill="none" stroke="black" points="130.5,-253.43 130.5,-270.43 209.5,-270.43 209.5,-253.43 130.5,-253.43"/>
<text text-anchor="start" x="153" y="-259.43" font-family="Arial" font-size="10.00">77.42%</text>
<polygon fill="#ffcccc" stroke="transparent" points="209.5,-253.43 209.5,-270.43 277.5,-270.43 277.5,-253.43 209.5,-253.43"/>
<polygon fill="none" stroke="black" points="209.5,-253.43 209.5,-270.43 277.5,-270.43 277.5,-253.43 209.5,-253.43"/>
<text text-anchor="start" x="225" y="-259.43" font-family="Arial" font-size="10.00">❌ Poor</text>
<polygon fill="none" stroke="black" points="24.5,-236.43 24.5,-253.43 71.5,-253.43 71.5,-236.43 24.5,-236.43"/>
<text text-anchor="start" x="33" y="-242.43" font-family="Arial" font-size="10.00">CBAM</text>
<polygon fill="#ffcccc" stroke="transparent" points="71.5,-236.43 71.5,-253.43 130.5,-253.43 130.5,-236.43 71.5,-236.43"/>
<polygon fill="none" stroke="black" points="71.5,-236.43 71.5,-253.43 130.5,-253.43 130.5,-236.43 71.5,-236.43"/>
<text text-anchor="start" x="88.5" y="-242.43" font-family="Arial" font-size="10.00">8,290</text>
<polygon fill="none" stroke="black" points="130.5,-236.43 130.5,-253.43 209.5,-253.43 209.5,-236.43 130.5,-236.43"/>
<text text-anchor="start" x="153" y="-242.43" font-family="Arial" font-size="10.00">77.34%</text>
<polygon fill="#ffcccc" stroke="transparent" points="209.5,-236.43 209.5,-253.43 277.5,-253.43 277.5,-236.43 209.5,-236.43"/>
<polygon fill="none" stroke="black" points="209.5,-236.43 209.5,-253.43 277.5,-253.43 277.5,-236.43 209.5,-236.43"/>
<text text-anchor="start" x="225" y="-242.43" font-family="Arial" font-size="10.00">❌ Poor</text>
<polygon fill="#ccffcc" stroke="transparent" points="24.5,-219.43 24.5,-236.43 71.5,-236.43 71.5,-219.43 24.5,-219.43"/>
<polygon fill="none" stroke="black" points="24.5,-219.43 24.5,-236.43 71.5,-236.43 71.5,-219.43 24.5,-219.43"/>
<text text-anchor="start" x="27.5" y="-226.43" font-family="Arial" font-weight="bold" font-size="10.00">ECA&#45;Net</text>
<polygon fill="#ccffcc" stroke="transparent" points="71.5,-219.43 71.5,-236.43 130.5,-236.43 130.5,-219.43 71.5,-219.43"/>
<polygon fill="none" stroke="black" points="71.5,-219.43 71.5,-236.43 130.5,-236.43 130.5,-219.43 71.5,-219.43"/>
<text text-anchor="start" x="98" y="-226.43" font-family="Arial" font-weight="bold" font-size="10.00">5</text>
<polygon fill="#ccffcc" stroke="transparent" points="130.5,-219.43 130.5,-236.43 209.5,-236.43 209.5,-219.43 130.5,-219.43"/>
<polygon fill="none" stroke="black" points="130.5,-219.43 130.5,-236.43 209.5,-236.43 209.5,-219.43 130.5,-219.43"/>
<text text-anchor="start" x="153" y="-226.43" font-family="Arial" font-weight="bold" font-size="10.00">77.48%</text>
<polygon fill="#ccffcc" stroke="transparent" points="209.5,-219.43 209.5,-236.43 277.5,-236.43 277.5,-219.43 209.5,-219.43"/>
<polygon fill="none" stroke="black" points="209.5,-219.43 209.5,-236.43 277.5,-236.43 277.5,-219.43 209.5,-219.43"/>
<text text-anchor="start" x="214" y="-226.43" font-family="Arial" font-weight="bold" font-size="10.00">✅ Excellent</text>
</g>
<!-- det_head&#45;&gt;comparison -->
<!-- gap -->
<g id="node16" class="node">
<title>gap</title>
<ellipse fill="#3498db" stroke="black" cx="380.69" cy="-68.43" rx="58.88" ry="21.43"/>
<text text-anchor="middle" x="380.69" y="-71.43" font-family="Arial" font-size="10.00" fill="white">Global Average</text>
<text text-anchor="middle" x="380.69" y="-60.43" font-family="Arial" font-size="10.00" fill="white">Pooling</text>
</g>
<!-- eca_input&#45;&gt;gap -->
<g id="edge19" class="edge">
<title>eca_input&#45;&gt;gap</title>
<path fill="none" stroke="black" d="M187.66,-78.53C221.02,-76.78 271.42,-74.13 312.22,-71.98"/>
<polygon fill="black" stroke="black" points="312.56,-75.47 322.37,-71.45 312.2,-68.48 312.56,-75.47"/>
</g>
<!-- multiply -->
<g id="node22" class="node">
<title>multiply</title>
<polygon fill="#1abc9c" stroke="black" points="1524.09,-83.43 1489.43,-107.92 1420.13,-107.92 1385.48,-83.43 1420.13,-58.94 1489.43,-58.94 1524.09,-83.43"/>
<text text-anchor="middle" x="1454.78" y="-86.43" font-family="Arial" font-size="10.00" fill="white">Element&#45;wise</text>
<text text-anchor="middle" x="1454.78" y="-75.43" font-family="Arial" font-size="10.00" fill="white">Multiplication ⊗</text>
</g>
<!-- eca_input&#45;&gt;multiply -->
<g id="edge26" class="edge">
<title>eca_input&#45;&gt;multiply</title>
<path fill="none" stroke="#1abc9c" d="M187.68,-87.9C232.53,-96.49 311.4,-109.43 379.69,-109.43 379.69,-109.43 379.69,-109.43 578.38,-109.43 857.08,-109.43 926.75,-105.78 1205.38,-99.43 1265.39,-98.06 1280.49,-99.48 1340.38,-95.43 1354.9,-94.45 1370.44,-93.04 1385.21,-91.53"/>
<polygon fill="#1abc9c" stroke="#1abc9c" points="1385.71,-95 1395.29,-90.48 1384.98,-88.04 1385.71,-95"/>
<text text-anchor="middle" x="864.38" y="-110.23" font-family="Arial" font-size="9.00">⊗</text>
</g>
<!-- gap_output -->
<g id="node17" class="node">
<title>gap_output</title>
<polygon fill="#e74c3c" stroke="black" points="552.88,-83.43 482.88,-83.43 482.88,-47.43 552.88,-47.43 552.88,-83.43"/>
<text text-anchor="middle" x="517.88" y="-68.43" font-family="Arial" font-size="10.00" fill="white">GAP Output</text>
<text text-anchor="middle" x="517.88" y="-57.43" font-family="Arial" font-size="10.00" fill="white">[B, C]</text>
</g>
<!-- gap&#45;&gt;gap_output -->
<g id="edge20" class="edge">
<title>gap&#45;&gt;gap_output</title>
<path fill="none" stroke="black" d="M439.41,-67.15C450.5,-66.9 461.95,-66.65 472.54,-66.42"/>
<polygon fill="black" stroke="black" points="472.87,-69.91 482.79,-66.19 472.71,-62.91 472.87,-69.91"/>
</g>
<!-- kernel_calc -->
<g id="node18" class="node">
<title>kernel_calc</title>
<polygon fill="#9b59b6" stroke="black" points="719.38,-90.43 596.38,-60.43 719.38,-30.43 842.38,-60.43 719.38,-90.43"/>
<text text-anchor="middle" x="719.38" y="-63.43" font-family="Arial" font-size="10.00" fill="white">Adaptive Kernel</text>
<text text-anchor="middle" x="719.38" y="-52.43" font-family="Arial" font-size="10.00" fill="white">k = |log₂(C)/γ + b/γ|_odd</text>
</g>
<!-- gap_output&#45;&gt;kernel_calc -->
<g id="edge21" class="edge">
<title>gap_output&#45;&gt;kernel_calc</title>
<path fill="none" stroke="black" d="M553.17,-64.57C565.91,-64.25 581.19,-63.87 597.24,-63.47"/>
<polygon fill="black" stroke="black" points="597.41,-66.96 607.32,-63.21 597.24,-59.97 597.41,-66.96"/>
</g>
<!-- conv1d -->
<g id="node19" class="node">
<title>conv1d</title>
<polygon fill="#27ae60" stroke="black" points="1019.38,-78.43 911.38,-78.43 911.38,-42.43 1019.38,-42.43 1019.38,-78.43"/>
<text text-anchor="middle" x="965.38" y="-63.43" font-family="Arial" font-size="10.00" fill="white">Conv1D_k</text>
<text text-anchor="middle" x="965.38" y="-52.43" font-family="Arial" font-size="10.00" fill="white">Local Cross&#45;Channel</text>
</g>
<!-- kernel_calc&#45;&gt;conv1d -->
<g id="edge22" class="edge">
<title>kernel_calc&#45;&gt;conv1d</title>
<path fill="none" stroke="black" d="M842.38,-60.43C862.69,-60.43 883,-60.43 901.06,-60.43"/>
<polygon fill="black" stroke="black" points="901.13,-63.93 911.13,-60.43 901.13,-56.93 901.13,-63.93"/>
</g>
<!-- sigmoid -->
<g id="node20" class="node">
<title>sigmoid</title>
<polygon fill="#f39c12" stroke="black" points="1145.38,-90.43 1085.38,-60.43 1145.38,-30.43 1205.38,-60.43 1145.38,-90.43"/>
<text text-anchor="middle" x="1145.38" y="-63.43" font-family="Arial" font-size="10.00" fill="white">Sigmoid</text>
<text text-anchor="middle" x="1145.38" y="-52.43" font-family="Arial" font-size="10.00" fill="white">Activation</text>
</g>
<!-- conv1d&#45;&gt;sigmoid -->
<g id="edge23" class="edge">
<title>conv1d&#45;&gt;sigmoid</title>
<path fill="none" stroke="black" d="M1019.79,-60.43C1037.15,-60.43 1056.68,-60.43 1075.04,-60.43"/>
<polygon fill="black" stroke="black" points="1075.1,-63.93 1085.1,-60.43 1075.1,-56.93 1075.1,-63.93"/>
</g>
<!-- attention_weights -->
<g id="node21" class="node">
<title>attention_weights</title>
<polygon fill="#e67e22" stroke="black" points="1340.38,-86.43 1246.38,-86.43 1246.38,-50.43 1340.38,-50.43 1340.38,-86.43"/>
<text text-anchor="middle" x="1293.38" y="-71.43" font-family="Arial" font-size="10.00" fill="white">Attention Weights</text>
<text text-anchor="middle" x="1293.38" y="-60.43" font-family="Arial" font-size="10.00" fill="white">[B, C]</text>
</g>
<!-- sigmoid&#45;&gt;attention_weights -->
<g id="edge24" class="edge">
<title>sigmoid&#45;&gt;attention_weights</title>
<path fill="none" stroke="black" d="M1199.92,-63.36C1211.62,-64.01 1224.05,-64.69 1235.87,-65.34"/>
<polygon fill="black" stroke="black" points="1235.89,-68.84 1246.07,-65.89 1236.27,-61.85 1235.89,-68.84"/>
</g>
<!-- attention_weights&#45;&gt;multiply -->
<g id="edge25" class="edge">
<title>attention_weights&#45;&gt;multiply</title>
<path fill="none" stroke="black" d="M1340.49,-72.77C1353.73,-74.02 1368.49,-75.41 1382.86,-76.76"/>
<polygon fill="black" stroke="black" points="1382.95,-80.28 1393.23,-77.73 1383.6,-73.31 1382.95,-80.28"/>
</g>
<!-- eca_output -->
<g id="node23" class="node">
<title>eca_output</title>
<polygon fill="#1abc9c" stroke="black" points="1705.18,-101.43 1609.18,-101.43 1609.18,-65.43 1705.18,-65.43 1705.18,-101.43"/>
<text text-anchor="middle" x="1657.18" y="-86.43" font-family="Arial" font-size="10.00" fill="white">Enhanced Feature</text>
<text text-anchor="middle" x="1657.18" y="-75.43" font-family="Arial" font-size="10.00" fill="white">[B, C, H, W]</text>
</g>
<!-- multiply&#45;&gt;eca_output -->
<g id="edge27" class="edge">
<title>multiply&#45;&gt;eca_output</title>
<path fill="none" stroke="black" d="M1524.19,-83.43C1548.49,-83.43 1575.57,-83.43 1598.84,-83.43"/>
<polygon fill="black" stroke="black" points="1598.91,-86.93 1608.91,-83.43 1598.91,-79.93 1598.91,-86.93"/>
</g>
<!-- efficiency_note -->
<g id="node25" class="node">
<title>efficiency_note</title>
<polygon fill="#d5f4e6" stroke="#27ae60" points="264,-197.43 37,-197.43 37,-161.43 264,-161.43 264,-197.43"/>
<text text-anchor="middle" x="150.5" y="-182.43" font-family="Arial" font-size="10.00" fill="#27ae60">ECA&#45;Net: 1,638x fewer parameters than SE&#45;Net</text>
<text text-anchor="middle" x="150.5" y="-171.43" font-family="Arial" font-size="10.00" fill="#27ae60">with superior performance</text>
</g>
<!-- math_formula -->
<g id="node26" class="node">
<title>math_formula</title>
<polygon fill="#f3e5f5" stroke="transparent" points="258,-498.43 43,-498.43 43,-396.43 258,-396.43 258,-498.43"/>
<text text-anchor="start" x="99" y="-485.43" font-family="Arial" font-weight="bold" font-size="10.00">ECA&#45;Net Formulation:</text>
<text text-anchor="start" x="82" y="-470.43" font-family="Arial" font-size="10.00">1. GAP: y</text>
<text text-anchor="start" x="126" y="-470.43" font-family="Arial" baseline-shift="sub" font-size="10.00">c</text>
<text text-anchor="start" x="131" y="-470.43" font-family="Arial" font-size="10.00"> = (1/HW) ∑∑ x</text>
<text text-anchor="start" x="201" y="-470.43" font-family="Arial" baseline-shift="sub" font-size="10.00">c</text>
<text text-anchor="start" x="206" y="-470.43" font-family="Arial" font-size="10.00">(i,j)</text>
<text text-anchor="start" x="59" y="-455.43" font-family="Arial" font-size="10.00">2. Adaptive kernel: k = |log₂(C)/γ + b/γ|</text>
<text text-anchor="start" x="229" y="-455.43" font-family="Arial" baseline-shift="sub" font-size="10.00">odd</text>
<text text-anchor="start" x="80.5" y="-440.43" font-family="Arial" font-size="10.00">3. 1D Conv: w = σ(Conv1D</text>
<text text-anchor="start" x="201.5" y="-440.43" font-family="Arial" baseline-shift="sub" font-size="10.00">k</text>
<text text-anchor="start" x="206.5" y="-440.43" font-family="Arial" font-size="10.00">(y))</text>
<text text-anchor="start" x="91.5" y="-424.43" font-family="Arial" font-size="10.00">4. Recalibration: x̃ = x ⊗ w</text>
<text text-anchor="start" x="53.5" y="-406.43" font-family="Arial" font-weight="bold" font-size="10.00">Complexity: O(C×log(C)) vs O(C²/r) for SE</text>
</g>
</g>
</svg>
