<?xml version="1.0" encoding="UTF-8" standalone="no"?>
<!DOCTYPE svg PUBLIC "-//W3C//DTD SVG 1.1//EN"
 "http://www.w3.org/Graphics/SVG/1.1/DTD/svg11.dtd">
<!-- Generated by graphviz version 2.43.0 (0)
 -->
<!-- Title: FeatherFaceV2ECAClean Pages: 1 -->
<svg width="1717pt" height="472pt"
 viewBox="0.00 0.00 1717.49 471.85" xmlns="http://www.w3.org/2000/svg" xmlns:xlink="http://www.w3.org/1999/xlink">
<g id="graph0" class="graph" transform="scale(1 1) rotate(0) translate(4 467.85)">
<title>FeatherFaceV2ECAClean</title>
<polygon fill="#f8f9fa" stroke="transparent" points="-4,4 -4,-467.85 1713.49,-467.85 1713.49,4 -4,4"/>
<g id="clust1" class="cluster">
<title>cluster_main</title>
<path fill="#f8f9fa" stroke="#bdc3c7" d="M286.19,-218.85C286.19,-218.85 1689.49,-218.85 1689.49,-218.85 1695.49,-218.85 1701.49,-224.85 1701.49,-230.85 1701.49,-230.85 1701.49,-443.85 1701.49,-443.85 1701.49,-449.85 1695.49,-455.85 1689.49,-455.85 1689.49,-455.85 286.19,-455.85 286.19,-455.85 280.19,-455.85 274.19,-449.85 274.19,-443.85 274.19,-443.85 274.19,-230.85 274.19,-230.85 274.19,-224.85 280.19,-218.85 286.19,-218.85"/>
<text text-anchor="middle" x="987.84" y="-440.65" font-family="Arial" font-size="14.00" fill="#34495e">FeatherFace V2 Architecture (515K parameters)</text>
</g>
<g id="clust2" class="cluster">
<title>cluster_backbone_eca</title>
<polygon fill="#f8f9fa" stroke="#e67e22" stroke-dasharray="5,2" points="542.18,-226.85 542.18,-424.85 696.58,-424.85 696.58,-226.85 542.18,-226.85"/>
<text text-anchor="middle" x="619.38" y="-412.05" font-family="Arial" font-size="11.00" fill="#34495e">Backbone ECA&#45;Net Modules</text>
</g>
<g id="clust3" class="cluster">
<title>cluster_fpn</title>
<polygon fill="#f8f9fa" stroke="#27ae60" stroke-dasharray="5,2" points="771.38,-277.85 771.38,-374.85 1154.38,-374.85 1154.38,-277.85 771.38,-277.85"/>
<text text-anchor="middle" x="962.88" y="-362.05" font-family="Arial" font-size="11.00" fill="#34495e">BiFPN Multi&#45;scale Features</text>
</g>
<g id="clust4" class="cluster">
<title>cluster_bifpn_eca</title>
<polygon fill="#f8f9fa" stroke="#e67e22" stroke-dasharray="5,2" points="1210.76,-226.85 1210.76,-424.85 1350.1,-424.85 1350.1,-226.85 1210.76,-226.85"/>
<text text-anchor="middle" x="1280.43" y="-412.05" font-family="Arial" font-size="11.00" fill="#34495e">BiFPN ECA&#45;Net Modules</text>
</g>
<g id="clust5" class="cluster">
<title>cluster_eca_detail</title>
<path fill="#f8f9fa" stroke="#e67e22" d="M78,-19.85C78,-19.85 1486.49,-19.85 1486.49,-19.85 1492.49,-19.85 1498.49,-25.85 1498.49,-31.85 1498.49,-31.85 1498.49,-126.85 1498.49,-126.85 1498.49,-132.85 1492.49,-138.85 1486.49,-138.85 1486.49,-138.85 78,-138.85 78,-138.85 72,-138.85 66,-132.85 66,-126.85 66,-126.85 66,-31.85 66,-31.85 66,-25.85 72,-19.85 78,-19.85"/>
<text text-anchor="middle" x="782.24" y="-123.65" font-family="Arial" font-size="14.00" fill="#e67e22">ECA&#45;Net Module Detail</text>
</g>
<!-- title -->
<g id="node1" class="node">
<title>title</title>
<polygon fill="lightgrey" stroke="transparent" points="222,-337.85 0,-337.85 0,-293.85 222,-293.85 222,-337.85"/>
<text text-anchor="middle" x="111" y="-321.05" font-family="Arial" font-size="16.00" fill="#2c3e50">FeatherFace V2 Architecture</text>
<text text-anchor="middle" x="111" y="-303.05" font-family="Arial" font-size="16.00" fill="#2c3e50">(ECA&#45;Net Innovation)</text>
</g>
<!-- input -->
<g id="node2" class="node">
<title>input</title>
<polygon fill="#ecf0f1" stroke="#95a5a6" points="353.19,-333.85 282.19,-333.85 282.19,-297.85 353.19,-297.85 353.19,-333.85"/>
<text text-anchor="middle" x="317.69" y="-318.85" font-family="Arial" font-size="10.00">Input</text>
<text text-anchor="middle" x="317.69" y="-307.85" font-family="Arial" font-size="10.00">(640×640×3)</text>
</g>
<!-- title&#45;&gt;input -->
<!-- backbone -->
<g id="node3" class="node">
<title>backbone</title>
<polygon fill="#3498db" stroke="black" points="496.38,-333.85 413.38,-333.85 413.38,-297.85 496.38,-297.85 496.38,-333.85"/>
<text text-anchor="middle" x="454.88" y="-318.85" font-family="Arial" font-size="10.00" fill="white">MobileNet&#45;0.25</text>
<text text-anchor="middle" x="454.88" y="-307.85" font-family="Arial" font-size="10.00" fill="white">Backbone</text>
</g>
<!-- input&#45;&gt;backbone -->
<g id="edge5" class="edge">
<title>input&#45;&gt;backbone</title>
<path fill="none" stroke="black" d="M353.5,-315.85C368.54,-315.85 386.42,-315.85 402.9,-315.85"/>
<polygon fill="black" stroke="black" points="402.94,-319.35 412.94,-315.85 402.94,-312.35 402.94,-319.35"/>
</g>
<!-- eca_bb_0 -->
<g id="node4" class="node">
<title>eca_bb_0</title>
<ellipse fill="#e67e22" stroke="black" cx="619.38" cy="-255.85" rx="46.84" ry="21.43"/>
<text text-anchor="middle" x="619.38" y="-258.85" font-family="Arial" font-size="10.00" fill="white">ECA&#45;Net</text>
<text text-anchor="middle" x="619.38" y="-247.85" font-family="Arial" font-size="10.00" fill="white">(64ch, k=3)</text>
</g>
<!-- backbone&#45;&gt;eca_bb_0 -->
<g id="edge6" class="edge">
<title>backbone&#45;&gt;eca_bb_0</title>
<path fill="none" stroke="black" d="M496.42,-299.89C508.3,-295.29 521.34,-290.3 533.38,-285.85 545.77,-281.26 559.24,-276.44 571.72,-272.03"/>
<polygon fill="black" stroke="black" points="573.2,-275.22 581.47,-268.6 570.88,-268.62 573.2,-275.22"/>
</g>
<!-- eca_bb_1 -->
<g id="node5" class="node">
<title>eca_bb_1</title>
<ellipse fill="#e67e22" stroke="black" cx="619.38" cy="-315.85" rx="50.41" ry="21.43"/>
<text text-anchor="middle" x="619.38" y="-318.85" font-family="Arial" font-size="10.00" fill="white">ECA&#45;Net</text>
<text text-anchor="middle" x="619.38" y="-307.85" font-family="Arial" font-size="10.00" fill="white">(128ch, k=5)</text>
</g>
<!-- backbone&#45;&gt;eca_bb_1 -->
<g id="edge7" class="edge">
<title>backbone&#45;&gt;eca_bb_1</title>
<path fill="none" stroke="black" d="M496.47,-315.85C515.37,-315.85 538.23,-315.85 559.02,-315.85"/>
<polygon fill="black" stroke="black" points="559.04,-319.35 569.04,-315.85 559.04,-312.35 559.04,-319.35"/>
</g>
<!-- eca_bb_2 -->
<g id="node6" class="node">
<title>eca_bb_2</title>
<ellipse fill="#e67e22" stroke="black" cx="619.38" cy="-375.85" rx="50.41" ry="21.43"/>
<text text-anchor="middle" x="619.38" y="-378.85" font-family="Arial" font-size="10.00" fill="white">ECA&#45;Net</text>
<text text-anchor="middle" x="619.38" y="-367.85" font-family="Arial" font-size="10.00" fill="white">(256ch, k=5)</text>
</g>
<!-- backbone&#45;&gt;eca_bb_2 -->
<g id="edge8" class="edge">
<title>backbone&#45;&gt;eca_bb_2</title>
<path fill="none" stroke="black" d="M496.42,-331.8C508.3,-336.41 521.34,-341.39 533.38,-345.85 545.31,-350.26 558.23,-354.9 570.31,-359.17"/>
<polygon fill="black" stroke="black" points="569.19,-362.48 579.79,-362.5 571.52,-355.88 569.19,-362.48"/>
</g>
<!-- p3 -->
<g id="node7" class="node">
<title>p3</title>
<polygon fill="#e74c3c" stroke="black" points="833.38,-321.85 779.38,-321.85 779.38,-285.85 833.38,-285.85 833.38,-321.85"/>
<text text-anchor="middle" x="806.38" y="-301.35" font-family="Arial" font-size="10.00" fill="white">P3/8</text>
</g>
<!-- eca_bb_0&#45;&gt;p3 -->
<g id="edge9" class="edge">
<title>eca_bb_0&#45;&gt;p3</title>
<path fill="none" stroke="black" d="M660.52,-266.26C692.89,-274.66 738.01,-286.37 769.25,-294.47"/>
<polygon fill="black" stroke="black" points="768.72,-297.95 779.28,-297.08 770.48,-291.18 768.72,-297.95"/>
</g>
<!-- eca_input -->
<g id="node15" class="node">
<title>eca_input</title>
<polygon fill="#ecf0f1" stroke="#95a5a6" points="148,-95.85 74,-95.85 74,-59.85 148,-59.85 148,-95.85"/>
<text text-anchor="middle" x="111" y="-80.85" font-family="Arial" font-size="10.00">Input Feature</text>
<text text-anchor="middle" x="111" y="-69.85" font-family="Arial" font-size="10.00">[B, C, H, W]</text>
</g>
<!-- eca_bb_0&#45;&gt;eca_input -->
<!-- innovation -->
<g id="node24" class="node">
<title>innovation</title>
<polygon fill="#d4edda" stroke="#155724" points="864.38,-210.35 742.38,-210.35 742.38,-147.35 870.38,-147.35 870.38,-204.35 864.38,-210.35"/>
<polyline fill="none" stroke="#155724" points="864.38,-210.35 864.38,-204.35 "/>
<polyline fill="none" stroke="#155724" points="870.38,-204.35 864.38,-204.35 "/>
<text text-anchor="middle" x="806.38" y="-198.35" font-family="Arial" font-size="10.00" fill="#155724">Innovation: ECA&#45;Net</text>
<text text-anchor="middle" x="806.38" y="-187.35" font-family="Arial" font-size="10.00" fill="#155724">• Wang et al. CVPR 2020</text>
<text text-anchor="middle" x="806.38" y="-176.35" font-family="Arial" font-size="10.00" fill="#155724">• 6 modules total</text>
<text text-anchor="middle" x="806.38" y="-165.35" font-family="Arial" font-size="10.00" fill="#155724">• 22 parameters only</text>
<text text-anchor="middle" x="806.38" y="-154.35" font-family="Arial" font-size="10.00" fill="#155724">• Mobile&#45;optimized</text>
</g>
<!-- eca_bb_0&#45;&gt;innovation -->
<g id="edge30" class="edge">
<title>eca_bb_0&#45;&gt;innovation</title>
<path fill="none" stroke="#155724" stroke-dasharray="5,2" d="M654.31,-241.73C676.24,-232.6 705.63,-220.37 732.65,-209.12"/>
<polygon fill="#155724" stroke="#155724" points="734.21,-212.26 742.1,-205.19 731.52,-205.8 734.21,-212.26"/>
</g>
<!-- p4 -->
<g id="node8" class="node">
<title>p4</title>
<polygon fill="#f39c12" stroke="black" points="998.38,-334.85 944.38,-334.85 944.38,-298.85 998.38,-298.85 998.38,-334.85"/>
<text text-anchor="middle" x="971.38" y="-314.35" font-family="Arial" font-size="10.00" fill="white">P4/16</text>
</g>
<!-- eca_bb_1&#45;&gt;p4 -->
<g id="edge10" class="edge">
<title>eca_bb_1&#45;&gt;p4</title>
<path fill="none" stroke="black" d="M666.89,-322.92C689.6,-326.03 717.35,-329.32 742.38,-330.85 809.37,-334.95 826.75,-336.93 893.38,-328.85 906.73,-327.23 921.33,-325.06 934.19,-323.01"/>
<polygon fill="black" stroke="black" points="934.76,-326.46 944.07,-321.4 933.64,-319.55 934.76,-326.46"/>
</g>
<!-- p5 -->
<g id="node9" class="node">
<title>p5</title>
<polygon fill="#9b59b6" stroke="black" points="1146.38,-346.85 1092.38,-346.85 1092.38,-310.85 1146.38,-310.85 1146.38,-346.85"/>
<text text-anchor="middle" x="1119.38" y="-326.35" font-family="Arial" font-size="10.00" fill="white">P5/32</text>
</g>
<!-- eca_bb_2&#45;&gt;p5 -->
<g id="edge11" class="edge">
<title>eca_bb_2&#45;&gt;p5</title>
<path fill="none" stroke="black" d="M669.56,-373.5C746.82,-369.48 901.24,-360.1 1031.38,-343.85 1048.06,-341.77 1066.42,-338.71 1081.96,-335.91"/>
<polygon fill="black" stroke="black" points="1083.01,-339.27 1092.21,-334.02 1081.74,-332.39 1083.01,-339.27"/>
</g>
<!-- p3&#45;&gt;p4 -->
<g id="edge1" class="edge">
<title>p3&#45;&gt;p4</title>
<path fill="none" stroke="#27ae60" d="M833.39,-303.19C850.47,-302.99 873.29,-303.17 893.38,-304.85 906.78,-305.96 921.39,-308.02 934.24,-310.13"/>
<polygon fill="#27ae60" stroke="#27ae60" points="933.68,-313.58 944.12,-311.8 934.85,-306.68 933.68,-313.58"/>
<text text-anchor="middle" x="890.88" y="-307.65" font-family="Arial" font-size="9.00">↓</text>
</g>
<!-- eca_bif_0 -->
<g id="node10" class="node">
<title>eca_bif_0</title>
<ellipse fill="#e67e22" stroke="black" cx="1280.43" cy="-255.85" rx="46.84" ry="21.43"/>
<text text-anchor="middle" x="1280.43" y="-258.85" font-family="Arial" font-size="10.00" fill="white">ECA&#45;Net</text>
<text text-anchor="middle" x="1280.43" y="-247.85" font-family="Arial" font-size="10.00" fill="white">(56ch, k=3)</text>
</g>
<!-- p3&#45;&gt;eca_bif_0 -->
<g id="edge12" class="edge">
<title>p3&#45;&gt;eca_bif_0</title>
<path fill="none" stroke="black" d="M833.41,-300.04C854.43,-297.03 884.77,-292.87 911.38,-289.85 1022.14,-277.28 1152.05,-266.12 1224.12,-260.23"/>
<polygon fill="black" stroke="black" points="1224.64,-263.7 1234.33,-259.41 1224.08,-256.73 1224.64,-263.7"/>
</g>
<!-- p4&#45;&gt;p3 -->
<g id="edge4" class="edge">
<title>p4&#45;&gt;p3</title>
<path fill="none" stroke="#27ae60" d="M944.12,-316.95C928.01,-316.82 906.98,-316.33 888.38,-314.85 873.72,-313.68 857.67,-311.65 843.74,-309.66"/>
<polygon fill="#27ae60" stroke="#27ae60" points="843.97,-306.15 833.57,-308.15 842.95,-313.08 843.97,-306.15"/>
<text text-anchor="middle" x="890.88" y="-317.65" font-family="Arial" font-size="9.00">↑</text>
</g>
<!-- p4&#45;&gt;p5 -->
<g id="edge2" class="edge">
<title>p4&#45;&gt;p5</title>
<path fill="none" stroke="#27ae60" d="M998.67,-308.65C1014.8,-304.71 1035.83,-301.49 1054.38,-304.85 1063.81,-306.56 1073.66,-309.58 1082.73,-312.91"/>
<polygon fill="#27ae60" stroke="#27ae60" points="1081.62,-316.24 1092.21,-316.61 1084.16,-309.71 1081.62,-316.24"/>
<text text-anchor="middle" x="1051.88" y="-307.65" font-family="Arial" font-size="9.00">↓</text>
</g>
<!-- eca_bif_1 -->
<g id="node11" class="node">
<title>eca_bif_1</title>
<ellipse fill="#e67e22" stroke="black" cx="1280.43" cy="-315.85" rx="46.84" ry="21.43"/>
<text text-anchor="middle" x="1280.43" y="-318.85" font-family="Arial" font-size="10.00" fill="white">ECA&#45;Net</text>
<text text-anchor="middle" x="1280.43" y="-307.85" font-family="Arial" font-size="10.00" fill="white">(56ch, k=3)</text>
</g>
<!-- p4&#45;&gt;eca_bif_1 -->
<g id="edge13" class="edge">
<title>p4&#45;&gt;eca_bif_1</title>
<path fill="none" stroke="black" d="M998.52,-309.6C1013.31,-305.87 1032.23,-301.72 1049.38,-299.85 1109.88,-293.25 1179.64,-300.13 1226.34,-306.81"/>
<polygon fill="black" stroke="black" points="1226.12,-310.31 1236.52,-308.31 1227.14,-303.39 1226.12,-310.31"/>
</g>
<!-- p5&#45;&gt;p4 -->
<g id="edge3" class="edge">
<title>p5&#45;&gt;p4</title>
<path fill="none" stroke="#27ae60" d="M1092.01,-326.68C1068.72,-324.77 1034.52,-321.96 1008.65,-319.83"/>
<polygon fill="#27ae60" stroke="#27ae60" points="1008.73,-316.32 998.48,-318.99 1008.16,-323.3 1008.73,-316.32"/>
<text text-anchor="middle" x="1051.88" y="-325.65" font-family="Arial" font-size="9.00">↑</text>
</g>
<!-- eca_bif_2 -->
<g id="node12" class="node">
<title>eca_bif_2</title>
<ellipse fill="#e67e22" stroke="black" cx="1280.43" cy="-375.85" rx="46.84" ry="21.43"/>
<text text-anchor="middle" x="1280.43" y="-378.85" font-family="Arial" font-size="10.00" fill="white">ECA&#45;Net</text>
<text text-anchor="middle" x="1280.43" y="-367.85" font-family="Arial" font-size="10.00" fill="white">(56ch, k=3)</text>
</g>
<!-- p5&#45;&gt;eca_bif_2 -->
<g id="edge14" class="edge">
<title>p5&#45;&gt;eca_bif_2</title>
<path fill="none" stroke="black" d="M1146.64,-336.61C1169.51,-343.37 1203.25,-353.34 1231,-361.54"/>
<polygon fill="black" stroke="black" points="1230.34,-364.99 1240.92,-364.47 1232.32,-358.28 1230.34,-364.99"/>
</g>
<!-- det_head -->
<g id="node13" class="node">
<title>det_head</title>
<polygon fill="#1abc9c" stroke="black" points="1484.99,-333.85 1399.99,-333.85 1399.99,-297.85 1484.99,-297.85 1484.99,-333.85"/>
<text text-anchor="middle" x="1442.49" y="-318.85" font-family="Arial" font-size="10.00" fill="white">Detection Head</text>
<text text-anchor="middle" x="1442.49" y="-307.85" font-family="Arial" font-size="10.00" fill="white">(SSH)</text>
</g>
<!-- eca_bif_0&#45;&gt;det_head -->
<g id="edge15" class="edge">
<title>eca_bif_0&#45;&gt;det_head</title>
<path fill="none" stroke="black" d="M1316.95,-269.16C1338.49,-277.24 1366.32,-287.67 1390.21,-296.63"/>
<polygon fill="black" stroke="black" points="1389.24,-300 1399.83,-300.23 1391.7,-293.45 1389.24,-300"/>
</g>
<!-- eca_bif_1&#45;&gt;det_head -->
<g id="edge16" class="edge">
<title>eca_bif_1&#45;&gt;det_head</title>
<path fill="none" stroke="black" d="M1327.3,-315.85C1346.73,-315.85 1369.47,-315.85 1389.51,-315.85"/>
<polygon fill="black" stroke="black" points="1389.72,-319.35 1399.72,-315.85 1389.72,-312.35 1389.72,-319.35"/>
</g>
<!-- eca_bif_2&#45;&gt;det_head -->
<g id="edge17" class="edge">
<title>eca_bif_2&#45;&gt;det_head</title>
<path fill="none" stroke="black" d="M1316.95,-362.53C1338.49,-354.46 1366.32,-344.03 1390.21,-335.07"/>
<polygon fill="black" stroke="black" points="1391.7,-338.25 1399.83,-331.46 1389.24,-331.7 1391.7,-338.25"/>
</g>
<!-- outputs -->
<g id="node14" class="node">
<title>outputs</title>
<polygon fill="#34495e" stroke="black" points="1693.49,-333.85 1527.49,-333.85 1527.49,-297.85 1693.49,-297.85 1693.49,-333.85"/>
<text text-anchor="middle" x="1610.49" y="-318.85" font-family="Arial" font-size="10.00" fill="white">Detection Outputs</text>
<text text-anchor="middle" x="1610.49" y="-307.85" font-family="Arial" font-size="10.00" fill="white">[BBox, Classification, Landmarks]</text>
</g>
<!-- det_head&#45;&gt;outputs -->
<g id="edge18" class="edge">
<title>det_head&#45;&gt;outputs</title>
<path fill="none" stroke="black" d="M1485.38,-315.85C1495.23,-315.85 1506.12,-315.85 1517.23,-315.85"/>
<polygon fill="black" stroke="black" points="1517.48,-319.35 1527.48,-315.85 1517.48,-312.35 1517.48,-319.35"/>
</g>
<!-- gap -->
<g id="node16" class="node">
<title>gap</title>
<ellipse fill="#3498db" stroke="black" cx="317.69" cy="-65.85" rx="58.88" ry="21.43"/>
<text text-anchor="middle" x="317.69" y="-68.85" font-family="Arial" font-size="10.00" fill="white">Global Average</text>
<text text-anchor="middle" x="317.69" y="-57.85" font-family="Arial" font-size="10.00" fill="white">Pooling</text>
</g>
<!-- eca_input&#45;&gt;gap -->
<g id="edge19" class="edge">
<title>eca_input&#45;&gt;gap</title>
<path fill="none" stroke="black" d="M148.12,-75.73C176.1,-74.09 215.65,-71.77 249.41,-69.79"/>
<polygon fill="black" stroke="black" points="249.91,-73.27 259.68,-69.19 249.5,-66.28 249.91,-73.27"/>
</g>
<!-- multiply -->
<g id="node22" class="node">
<title>multiply</title>
<polygon fill="#1abc9c" stroke="black" points="1342.54,-80.85 1311.49,-105.34 1249.38,-105.34 1218.33,-80.85 1249.38,-56.36 1311.49,-56.36 1342.54,-80.85"/>
<text text-anchor="middle" x="1280.43" y="-83.85" font-family="Arial" font-size="10.00" fill="white">Element&#45;wise</text>
<text text-anchor="middle" x="1280.43" y="-72.85" font-family="Arial" font-size="10.00" fill="white">Multiplication</text>
</g>
<!-- eca_input&#45;&gt;multiply -->
<g id="edge26" class="edge">
<title>eca_input&#45;&gt;multiply</title>
<path fill="none" stroke="#1abc9c" d="M148.02,-86.08C188.73,-94.65 257.11,-106.85 316.69,-106.85 316.69,-106.85 316.69,-106.85 1120.38,-106.85 1154.69,-106.85 1192.63,-100.88 1222.85,-94.66"/>
<polygon fill="#1abc9c" stroke="#1abc9c" points="1223.73,-98.06 1232.78,-92.55 1222.27,-91.21 1223.73,-98.06"/>
</g>
<!-- gap_output -->
<g id="node17" class="node">
<title>gap_output</title>
<polygon fill="#e74c3c" stroke="black" points="494.38,-80.85 415.38,-80.85 415.38,-44.85 494.38,-44.85 494.38,-80.85"/>
<text text-anchor="middle" x="454.88" y="-65.85" font-family="Arial" font-size="10.00" fill="white">Channel Stats</text>
<text text-anchor="middle" x="454.88" y="-54.85" font-family="Arial" font-size="10.00" fill="white">[B, C]</text>
</g>
<!-- gap&#45;&gt;gap_output -->
<g id="edge20" class="edge">
<title>gap&#45;&gt;gap_output</title>
<path fill="none" stroke="black" d="M376.41,-64.57C385.9,-64.36 395.66,-64.14 404.91,-63.93"/>
<polygon fill="black" stroke="black" points="405.18,-67.43 415.1,-63.71 405.02,-60.43 405.18,-67.43"/>
</g>
<!-- kernel_calc -->
<g id="node18" class="node">
<title>kernel_calc</title>
<polygon fill="#9b59b6" stroke="black" points="619.38,-87.85 533.38,-57.85 619.38,-27.85 705.38,-57.85 619.38,-87.85"/>
<text text-anchor="middle" x="619.38" y="-60.85" font-family="Arial" font-size="10.00" fill="white">Adaptive Kernel</text>
<text text-anchor="middle" x="619.38" y="-49.85" font-family="Arial" font-size="10.00" fill="white">k = ψ(C)</text>
</g>
<!-- gap_output&#45;&gt;kernel_calc -->
<g id="edge21" class="edge">
<title>gap_output&#45;&gt;kernel_calc</title>
<path fill="none" stroke="black" d="M494.39,-61.66C505.28,-61.33 517.59,-60.95 530.14,-60.56"/>
<polygon fill="black" stroke="black" points="530.33,-64.06 540.22,-60.25 530.12,-57.06 530.33,-64.06"/>
</g>
<!-- conv1d -->
<g id="node19" class="node">
<title>conv1d</title>
<polygon fill="#27ae60" stroke="black" points="860.38,-75.85 752.38,-75.85 752.38,-39.85 860.38,-39.85 860.38,-75.85"/>
<text text-anchor="middle" x="806.38" y="-60.85" font-family="Arial" font-size="10.00" fill="white">Conv1D</text>
<text text-anchor="middle" x="806.38" y="-49.85" font-family="Arial" font-size="10.00" fill="white">Local Cross&#45;Channel</text>
</g>
<!-- kernel_calc&#45;&gt;conv1d -->
<g id="edge22" class="edge">
<title>kernel_calc&#45;&gt;conv1d</title>
<path fill="none" stroke="black" d="M705.57,-57.85C717.89,-57.85 730.39,-57.85 742.18,-57.85"/>
<polygon fill="black" stroke="black" points="742.33,-61.35 752.33,-57.85 742.33,-54.35 742.33,-61.35"/>
</g>
<!-- sigmoid -->
<g id="node20" class="node">
<title>sigmoid</title>
<polygon fill="#f39c12" stroke="black" points="971.38,-87.85 911.38,-57.85 971.38,-27.85 1031.38,-57.85 971.38,-87.85"/>
<text text-anchor="middle" x="971.38" y="-60.85" font-family="Arial" font-size="10.00" fill="white">Sigmoid</text>
<text text-anchor="middle" x="971.38" y="-49.85" font-family="Arial" font-size="10.00" fill="white">Activation</text>
</g>
<!-- conv1d&#45;&gt;sigmoid -->
<g id="edge23" class="edge">
<title>conv1d&#45;&gt;sigmoid</title>
<path fill="none" stroke="black" d="M860.75,-57.85C873.63,-57.85 887.57,-57.85 901.05,-57.85"/>
<polygon fill="black" stroke="black" points="901.25,-61.35 911.25,-57.85 901.25,-54.35 901.25,-61.35"/>
</g>
<!-- attention_weights -->
<g id="node21" class="node">
<title>attention_weights</title>
<polygon fill="#e67e22" stroke="black" points="1166.38,-83.85 1072.38,-83.85 1072.38,-47.85 1166.38,-47.85 1166.38,-83.85"/>
<text text-anchor="middle" x="1119.38" y="-68.85" font-family="Arial" font-size="10.00" fill="white">Attention Weights</text>
<text text-anchor="middle" x="1119.38" y="-57.85" font-family="Arial" font-size="10.00" fill="white">[B, C]</text>
</g>
<!-- sigmoid&#45;&gt;attention_weights -->
<g id="edge24" class="edge">
<title>sigmoid&#45;&gt;attention_weights</title>
<path fill="none" stroke="black" d="M1025.92,-60.78C1037.62,-61.42 1050.05,-62.1 1061.87,-62.75"/>
<polygon fill="black" stroke="black" points="1061.89,-66.26 1072.07,-63.31 1062.27,-59.27 1061.89,-66.26"/>
</g>
<!-- attention_weights&#45;&gt;multiply -->
<g id="edge25" class="edge">
<title>attention_weights&#45;&gt;multiply</title>
<path fill="none" stroke="black" d="M1166.38,-70.19C1181.5,-71.61 1198.6,-73.23 1214.84,-74.76"/>
<polygon fill="black" stroke="black" points="1214.53,-78.24 1224.81,-75.7 1215.19,-71.27 1214.53,-78.24"/>
</g>
<!-- eca_output -->
<g id="node23" class="node">
<title>eca_output</title>
<polygon fill="#1abc9c" stroke="black" points="1490.49,-98.85 1394.49,-98.85 1394.49,-62.85 1490.49,-62.85 1490.49,-98.85"/>
<text text-anchor="middle" x="1442.49" y="-83.85" font-family="Arial" font-size="10.00" fill="white">Enhanced Feature</text>
<text text-anchor="middle" x="1442.49" y="-72.85" font-family="Arial" font-size="10.00" fill="white">[B, C, H, W]</text>
</g>
<!-- multiply&#45;&gt;eca_output -->
<g id="edge27" class="edge">
<title>multiply&#45;&gt;eca_output</title>
<path fill="none" stroke="black" d="M1342.86,-80.85C1356.49,-80.85 1370.88,-80.85 1384.33,-80.85"/>
<polygon fill="black" stroke="black" points="1384.4,-84.35 1394.4,-80.85 1384.4,-77.35 1384.4,-84.35"/>
</g>
</g>
</svg>
