<?xml version="1.0" encoding="UTF-8" standalone="no"?>
<!DOCTYPE svg PUBLIC "-//W3C//DTD SVG 1.1//EN"
 "http://www.w3.org/Graphics/SVG/1.1/DTD/svg11.dtd">
<!-- Generated by graphviz version 2.43.0 (0)
 -->
<!-- Title: AttentionComparison Pages: 1 -->
<svg width="713pt" height="469pt"
 viewBox="0.00 0.00 713.00 469.00" xmlns="http://www.w3.org/2000/svg" xmlns:xlink="http://www.w3.org/1999/xlink">
<g id="graph0" class="graph" transform="scale(1 1) rotate(0) translate(4 465)">
<title>AttentionComparison</title>
<polygon fill="white" stroke="transparent" points="-4,4 -4,-465 709,-465 709,4 -4,4"/>
<g id="clust1" class="cluster">
<title>cluster_cbam</title>
<polygon fill="white" stroke="blue" points="8,-190 8,-417 287,-417 287,-190 8,-190"/>
<text text-anchor="middle" x="147.5" y="-403.4" font-family="Arial" font-size="12.00">CBAM Baseline</text>
</g>
<g id="clust2" class="cluster">
<title>cluster_eca</title>
<polygon fill="white" stroke="green" points="295,-190 295,-417 449,-417 449,-190 295,-190"/>
<text text-anchor="middle" x="372" y="-403.4" font-family="Arial" font-size="12.00">ECA&#45;Net</text>
</g>
<g id="clust3" class="cluster">
<title>cluster_ecacbam</title>
<polygon fill="white" stroke="orange" points="457,-190 457,-417 697,-417 697,-190 457,-190"/>
<text text-anchor="middle" x="577" y="-403.4" font-family="Arial" font-size="12.00">ECA&#45;CBAM Hybrid</text>
</g>
<!-- title -->
<g id="node1" class="node">
<title>title</title>
<ellipse fill="#e1f5fe" stroke="black" cx="372" cy="-443" rx="202.26" ry="18"/>
<text text-anchor="middle" x="372" y="-439.3" font-family="Arial" font-size="14.00">FeatherFace: Attention Mechanisms Comparison</text>
</g>
<!-- cbam_main -->
<g id="node2" class="node">
<title>cbam_main</title>
<polygon fill="#bbdefb" stroke="black" points="278.5,-388 159.5,-388 159.5,-347 278.5,-347 278.5,-388"/>
<text text-anchor="middle" x="219" y="-376" font-family="Arial" font-size="10.00">CBAM</text>
<text text-anchor="middle" x="219" y="-365" font-family="Arial" font-size="10.00">Sequential 2D Attention</text>
<text text-anchor="middle" x="219" y="-354" font-family="Arial" font-size="10.00">488,664 parameters</text>
</g>
<!-- title&#45;&gt;cbam_main -->
<g id="edge1" class="edge">
<title>title&#45;&gt;cbam_main</title>
<path fill="none" stroke="black" d="M311.96,-425.66C304.77,-423.06 297.64,-420.17 291,-417 277.76,-410.67 264.18,-402.14 252.43,-394"/>
<polygon fill="black" stroke="black" points="254.4,-391.11 244.22,-388.17 250.35,-396.82 254.4,-391.11"/>
</g>
<!-- eca_main -->
<g id="node6" class="node">
<title>eca_main</title>
<polygon fill="#a5d6a7" stroke="black" points="438,-388 306,-388 306,-347 438,-347 438,-388"/>
<text text-anchor="middle" x="372" y="-376" font-family="Arial" font-size="10.00">ECA&#45;Net</text>
<text text-anchor="middle" x="372" y="-365" font-family="Arial" font-size="10.00">Efficient Channel Attention</text>
<text text-anchor="middle" x="372" y="-354" font-family="Arial" font-size="10.00">O(C×log₂(C)) complexity</text>
</g>
<!-- title&#45;&gt;eca_main -->
<g id="edge2" class="edge">
<title>title&#45;&gt;eca_main</title>
<path fill="none" stroke="black" d="M372,-424.95C372,-417.03 372,-407.37 372,-398.29"/>
<polygon fill="black" stroke="black" points="375.5,-398.05 372,-388.05 368.5,-398.05 375.5,-398.05"/>
</g>
<!-- ecacbam_main -->
<g id="node9" class="node">
<title>ecacbam_main</title>
<polygon fill="#ffcc02" stroke="black" points="586.5,-388 465.5,-388 465.5,-347 586.5,-347 586.5,-388"/>
<text text-anchor="middle" x="526" y="-376" font-family="Arial" font-size="10.00">ECA&#45;CBAM</text>
<text text-anchor="middle" x="526" y="-365" font-family="Arial" font-size="10.00">Hybrid Attention Module</text>
<text text-anchor="middle" x="526" y="-354" font-family="Arial" font-size="10.00">449,017 parameters</text>
</g>
<!-- title&#45;&gt;ecacbam_main -->
<g id="edge3" class="edge">
<title>title&#45;&gt;ecacbam_main</title>
<path fill="none" stroke="black" d="M431.59,-425.77C438.92,-423.14 446.22,-420.22 453,-417 466.39,-410.65 480.15,-402.12 492.07,-393.98"/>
<polygon fill="black" stroke="black" points="494.2,-396.76 500.39,-388.15 490.19,-391.02 494.2,-396.76"/>
</g>
<!-- cbam_channel -->
<g id="node3" class="node">
<title>cbam_channel</title>
<polygon fill="#e8eaf6" stroke="black" points="141.5,-311 16.5,-311 16.5,-270 141.5,-270 141.5,-311"/>
<text text-anchor="middle" x="79" y="-299" font-family="Arial" font-size="10.00">Channel Attention (CAM)</text>
<text text-anchor="middle" x="79" y="-288" font-family="Arial" font-size="10.00">• MLP (FC layers)</text>
<text text-anchor="middle" x="79" y="-277" font-family="Arial" font-size="10.00">• Parameters: ~2,000</text>
</g>
<!-- cbam_main&#45;&gt;cbam_channel -->
<g id="edge4" class="edge">
<title>cbam_main&#45;&gt;cbam_channel</title>
<path fill="none" stroke="black" d="M182.58,-346.99C164.9,-337.52 143.46,-326.03 124.69,-315.98"/>
<polygon fill="black" stroke="black" points="126.19,-312.81 115.72,-311.17 122.88,-318.98 126.19,-312.81"/>
</g>
<!-- cbam_spatial -->
<g id="node4" class="node">
<title>cbam_spatial</title>
<polygon fill="#e8eaf6" stroke="black" points="278.5,-311 159.5,-311 159.5,-270 278.5,-270 278.5,-311"/>
<text text-anchor="middle" x="219" y="-299" font-family="Arial" font-size="10.00">Spatial Attention (SAM)</text>
<text text-anchor="middle" x="219" y="-288" font-family="Arial" font-size="10.00">• 7×7 convolution</text>
<text text-anchor="middle" x="219" y="-277" font-family="Arial" font-size="10.00">• Parameters: 98</text>
</g>
<!-- cbam_main&#45;&gt;cbam_spatial -->
<g id="edge5" class="edge">
<title>cbam_main&#45;&gt;cbam_spatial</title>
<path fill="none" stroke="black" d="M219,-346.79C219,-338.96 219,-329.77 219,-321.16"/>
<polygon fill="black" stroke="black" points="222.5,-321.07 219,-311.07 215.5,-321.07 222.5,-321.07"/>
</g>
<!-- cbam_flow -->
<g id="node5" class="node">
<title>cbam_flow</title>
<polygon fill="#c5cae9" stroke="black" points="279.5,-234 130.5,-234 130.5,-198 279.5,-198 279.5,-234"/>
<text text-anchor="middle" x="205" y="-219" font-family="Arial" font-size="10.00">Flow: F → CAM → SAM → F&#39;</text>
<text text-anchor="middle" x="205" y="-208" font-family="Arial" font-size="10.00">Sequential Processing</text>
</g>
<!-- cbam_channel&#45;&gt;cbam_flow -->
<g id="edge6" class="edge">
<title>cbam_channel&#45;&gt;cbam_flow</title>
<path fill="none" stroke="black" d="M113.1,-269.88C129.45,-260.47 149.13,-249.15 166.07,-239.4"/>
<polygon fill="black" stroke="black" points="168.24,-242.19 175.17,-234.17 164.75,-236.12 168.24,-242.19"/>
</g>
<!-- cbam_spatial&#45;&gt;cbam_flow -->
<g id="edge7" class="edge">
<title>cbam_spatial&#45;&gt;cbam_flow</title>
<path fill="none" stroke="black" d="M215.17,-269.69C213.65,-261.82 211.88,-252.64 210.25,-244.17"/>
<polygon fill="black" stroke="black" points="213.68,-243.47 208.34,-234.32 206.8,-244.8 213.68,-243.47"/>
</g>
<!-- comparison -->
<g id="node13" class="node">
<title>comparison</title>
<polygon fill="#c8e6c9" stroke="black" points="476,-162 286,-162 286,-110 476,-110 476,-162"/>
<text text-anchor="middle" x="381" y="-150" font-family="Arial" font-size="10.00">Performance Comparison</text>
<text text-anchor="middle" x="381" y="-139" font-family="Arial" font-size="10.00">CBAM: 78.3% Hard mAP</text>
<text text-anchor="middle" x="381" y="-128" font-family="Arial" font-size="10.00">ECA&#45;CBAM: 80.0% Hard mAP (+1.7%)</text>
<text text-anchor="middle" x="381" y="-117" font-family="Arial" font-size="10.00">Parameters: &#45;39,647 (&#45;8.1%)</text>
</g>
<!-- cbam_flow&#45;&gt;comparison -->
<g id="edge14" class="edge">
<title>cbam_flow&#45;&gt;comparison</title>
<path fill="none" stroke="black" d="M243.62,-197.88C264.53,-188.62 290.93,-176.92 314.98,-166.26"/>
<polygon fill="black" stroke="black" points="316.7,-169.33 324.42,-162.07 313.86,-162.93 316.7,-169.33"/>
</g>
<!-- eca_channel -->
<g id="node7" class="node">
<title>eca_channel</title>
<polygon fill="#c8e6c9" stroke="black" points="440.5,-311 303.5,-311 303.5,-270 440.5,-270 440.5,-311"/>
<text text-anchor="middle" x="372" y="-299" font-family="Arial" font-size="10.00">Channel Attention</text>
<text text-anchor="middle" x="372" y="-288" font-family="Arial" font-size="10.00">• 1D Conv (adaptive kernel)</text>
<text text-anchor="middle" x="372" y="-277" font-family="Arial" font-size="10.00">• Parameters: 22</text>
</g>
<!-- eca_main&#45;&gt;eca_channel -->
<g id="edge8" class="edge">
<title>eca_main&#45;&gt;eca_channel</title>
<path fill="none" stroke="black" d="M372,-346.79C372,-338.96 372,-329.77 372,-321.16"/>
<polygon fill="black" stroke="black" points="375.5,-321.07 372,-311.07 368.5,-321.07 375.5,-321.07"/>
</g>
<!-- eca_formula -->
<g id="node8" class="node">
<title>eca_formula</title>
<polygon fill="#c8e6c9" stroke="black" points="437,-234 307,-234 307,-198 437,-198 437,-234"/>
<text text-anchor="middle" x="372" y="-219" font-family="Arial" font-size="10.00">Mc = σ(Conv1D(GAP(X)))</text>
<text text-anchor="middle" x="372" y="-208" font-family="Arial" font-size="10.00">99% parameter reduction</text>
</g>
<!-- eca_channel&#45;&gt;eca_formula -->
<g id="edge9" class="edge">
<title>eca_channel&#45;&gt;eca_formula</title>
<path fill="none" stroke="black" d="M372,-269.69C372,-261.91 372,-252.84 372,-244.45"/>
<polygon fill="black" stroke="black" points="375.5,-244.32 372,-234.32 368.5,-244.32 375.5,-244.32"/>
</g>
<!-- ecacbam_eca -->
<g id="node10" class="node">
<title>ecacbam_eca</title>
<polygon fill="#ffe0b2" stroke="black" points="567,-311 465,-311 465,-270 567,-270 567,-311"/>
<text text-anchor="middle" x="516" y="-299" font-family="Arial" font-size="10.00">ECA Channel</text>
<text text-anchor="middle" x="516" y="-288" font-family="Arial" font-size="10.00">• 1D Conv adaptive</text>
<text text-anchor="middle" x="516" y="-277" font-family="Arial" font-size="10.00">• Parameters: 22</text>
</g>
<!-- ecacbam_main&#45;&gt;ecacbam_eca -->
<g id="edge10" class="edge">
<title>ecacbam_main&#45;&gt;ecacbam_eca</title>
<path fill="none" stroke="black" d="M523.37,-346.79C522.33,-338.96 521.1,-329.77 519.95,-321.16"/>
<polygon fill="black" stroke="black" points="523.4,-320.52 518.61,-311.07 516.46,-321.45 523.4,-320.52"/>
</g>
<!-- ecacbam_sam -->
<g id="node11" class="node">
<title>ecacbam_sam</title>
<polygon fill="#ffe0b2" stroke="black" points="689,-311 585,-311 585,-270 689,-270 689,-311"/>
<text text-anchor="middle" x="637" y="-299" font-family="Arial" font-size="10.00">CBAM SAM Spatial</text>
<text text-anchor="middle" x="637" y="-288" font-family="Arial" font-size="10.00">• 7×7 convolution</text>
<text text-anchor="middle" x="637" y="-277" font-family="Arial" font-size="10.00">• Parameters: 98</text>
</g>
<!-- ecacbam_main&#45;&gt;ecacbam_sam -->
<g id="edge11" class="edge">
<title>ecacbam_main&#45;&gt;ecacbam_sam</title>
<path fill="none" stroke="black" d="M554.87,-346.99C568.51,-337.77 584.96,-326.66 599.55,-316.81"/>
<polygon fill="black" stroke="black" points="601.56,-319.67 607.88,-311.17 597.64,-313.87 601.56,-319.67"/>
</g>
<!-- ecacbam_flow -->
<g id="node12" class="node">
<title>ecacbam_flow</title>
<polygon fill="#ffb74d" stroke="black" points="649.5,-234 464.5,-234 464.5,-198 649.5,-198 649.5,-234"/>
<text text-anchor="middle" x="557" y="-219" font-family="Arial" font-size="10.00">Flow: X → [ECA || SAM] → Combined</text>
<text text-anchor="middle" x="557" y="-208" font-family="Arial" font-size="10.00">Parallel Processing</text>
</g>
<!-- ecacbam_eca&#45;&gt;ecacbam_flow -->
<g id="edge12" class="edge">
<title>ecacbam_eca&#45;&gt;ecacbam_flow</title>
<path fill="none" stroke="black" d="M527.2,-269.69C531.85,-261.47 537.3,-251.83 542.27,-243.05"/>
<polygon fill="black" stroke="black" points="545.33,-244.75 547.21,-234.32 539.24,-241.3 545.33,-244.75"/>
</g>
<!-- ecacbam_sam&#45;&gt;ecacbam_flow -->
<g id="edge13" class="edge">
<title>ecacbam_sam&#45;&gt;ecacbam_flow</title>
<path fill="none" stroke="black" d="M615.14,-269.69C605.33,-260.8 593.68,-250.24 583.39,-240.92"/>
<polygon fill="black" stroke="black" points="585.61,-238.2 575.84,-234.08 580.9,-243.39 585.61,-238.2"/>
</g>
<!-- ecacbam_flow&#45;&gt;comparison -->
<g id="edge15" class="edge">
<title>ecacbam_flow&#45;&gt;comparison</title>
<path fill="none" stroke="black" d="M518.38,-197.88C497.47,-188.62 471.07,-176.92 447.02,-166.26"/>
<polygon fill="black" stroke="black" points="448.14,-162.93 437.58,-162.07 445.3,-169.33 448.14,-162.93"/>
</g>
<!-- advantages -->
<g id="node14" class="node">
<title>advantages</title>
<polygon fill="#e1bee7" stroke="black" points="465.5,-74 296.5,-74 296.5,0 465.5,0 465.5,-74"/>
<text text-anchor="middle" x="381" y="-62" font-family="Arial" font-size="10.00">Key Advantages</text>
<text text-anchor="middle" x="381" y="-51" font-family="Arial" font-size="10.00">ECA&#45;CBAM:</text>
<text text-anchor="middle" x="381" y="-40" font-family="Arial" font-size="10.00">• 99% channel parameter reduction</text>
<text text-anchor="middle" x="381" y="-29" font-family="Arial" font-size="10.00">• Parallel processing</text>
<text text-anchor="middle" x="381" y="-18" font-family="Arial" font-size="10.00">• Better accuracy</text>
<text text-anchor="middle" x="381" y="-7" font-family="Arial" font-size="10.00">• Mobile optimized</text>
</g>
<!-- comparison&#45;&gt;advantages -->
<g id="edge16" class="edge">
<title>comparison&#45;&gt;advantages</title>
<path fill="none" stroke="black" d="M381,-109.77C381,-101.94 381,-93.05 381,-84.26"/>
<polygon fill="black" stroke="black" points="384.5,-84.06 381,-74.06 377.5,-84.06 384.5,-84.06"/>
</g>
</g>
</svg>
