<?xml version="1.0" encoding="UTF-8" standalone="no"?>
<!DOCTYPE svg PUBLIC "-//W3C//DTD SVG 1.1//EN"
 "http://www.w3.org/Graphics/SVG/1.1/DTD/svg11.dtd">
<!-- Generated by graphviz version 2.43.0 (0)
 -->
<!-- Title: CBamBaseline Pages: 1 -->
<svg width="1568pt" height="266pt"
 viewBox="0.00 0.00 1568.00 266.00" xmlns="http://www.w3.org/2000/svg" xmlns:xlink="http://www.w3.org/1999/xlink">
<g id="graph0" class="graph" transform="scale(1 1) rotate(0) translate(4 262)">
<title>CBamBaseline</title>
<polygon fill="white" stroke="transparent" points="-4,4 -4,-262 1564,-262 1564,4 -4,4"/>
<text text-anchor="middle" x="780" y="-242.8" font-family="Arial Bold" font-size="14.00">FeatherFace CBAM Baseline Architecture (488,664 parameters)</text>
<g id="clust1" class="cluster">
<title>cluster_backbone</title>
<polygon fill="#fff3e0" stroke="#f57c00" points="232,-8 232,-191 433,-191 433,-8 232,-8"/>
<text text-anchor="middle" x="332.5" y="-175.8" font-family="Arial Bold" font-size="14.00">MobileNetV1&#45;0.25 Backbone</text>
</g>
<g id="clust2" class="cluster">
<title>cluster_fpn</title>
<polygon fill="#e8f5e8" stroke="#4caf50" points="453,-8 453,-191 672,-191 672,-8 453,-8"/>
<text text-anchor="middle" x="562.5" y="-175.8" font-family="Arial Bold" font-size="14.00">BiFPN Feature Pyramid</text>
</g>
<g id="clust3" class="cluster">
<title>cluster_cbam</title>
<polygon fill="#fde7f3" stroke="#e91e63" points="692,-46 692,-175 895,-175 895,-46 692,-46"/>
<text text-anchor="middle" x="793.5" y="-159.8" font-family="Arial Bold" font-size="14.00">CBAM Attention Mechanism</text>
</g>
<g id="clust4" class="cluster">
<title>cluster_ssh</title>
<polygon fill="#ede7f6" stroke="#673ab7" points="915,-26 915,-225 1069,-225 1069,-26 915,-26"/>
<text text-anchor="middle" x="992" y="-209.8" font-family="Arial Bold" font-size="14.00">SSH Detection Heads</text>
</g>
<g id="clust5" class="cluster">
<title>cluster_shuffle</title>
<polygon fill="#f3e5f5" stroke="#9c27b0" points="1089,-34 1089,-217 1295,-217 1295,-34 1089,-34"/>
<text text-anchor="middle" x="1192" y="-201.8" font-family="Arial Bold" font-size="14.00">Channel Shuffle Optimization</text>
</g>
<g id="clust6" class="cluster">
<title>cluster_outputs</title>
<polygon fill="#fff8e1" stroke="#ff9800" points="1315,-26 1315,-225 1449,-225 1449,-26 1315,-26"/>
<text text-anchor="middle" x="1382" y="-209.8" font-family="Arial Bold" font-size="14.00">Detection Outputs</text>
</g>
<g id="clust7" class="cluster">
<title>cluster_details</title>
<polygon fill="#f5f5f5" stroke="#757575" points="8,-124 8,-227 212,-227 212,-124 8,-124"/>
<text text-anchor="middle" x="110" y="-211.8" font-family="Arial Bold" font-size="14.00">Scientific Foundation</text>
</g>
<!-- input -->
<g id="node1" class="node">
<title>input</title>
<polygon fill="#e8f4fd" stroke="#1e88e5" points="144,-106 76,-106 76,-70 144,-70 144,-106"/>
<text text-anchor="middle" x="110" y="-91" font-family="Arial" font-size="10.00">Input Image</text>
<text text-anchor="middle" x="110" y="-80" font-family="Arial" font-size="10.00">640×640×3</text>
</g>
<!-- mobilenet -->
<g id="node2" class="node">
<title>mobilenet</title>
<polygon fill="#ffe0b2" stroke="black" points="335,-108.5 240,-108.5 240,-67.5 335,-67.5 335,-108.5"/>
<text text-anchor="middle" x="287.5" y="-96.5" font-family="Arial" font-size="10.00">MobileNetV1&#45;0.25</text>
<text text-anchor="middle" x="287.5" y="-85.5" font-family="Arial" font-size="10.00">213,072 params</text>
<text text-anchor="middle" x="287.5" y="-74.5" font-family="Arial" font-size="10.00">(43.6%)</text>
</g>
<!-- input&#45;&gt;mobilenet -->
<g id="edge1" class="edge">
<title>input&#45;&gt;mobilenet</title>
<path fill="none" stroke="black" d="M144.01,-88C168.06,-88 201.25,-88 229.55,-88"/>
<polygon fill="black" stroke="black" points="229.73,-91.5 239.73,-88 229.73,-84.5 229.73,-91.5"/>
</g>
<!-- stage1 -->
<g id="node3" class="node">
<title>stage1</title>
<polygon fill="#ffcc80" stroke="black" points="425,-52 371,-52 371,-16 425,-16 425,-52"/>
<text text-anchor="middle" x="398" y="-37" font-family="Arial" font-size="10.00">Stage 1</text>
<text text-anchor="middle" x="398" y="-26" font-family="Arial" font-size="10.00">P3/8</text>
</g>
<!-- mobilenet&#45;&gt;stage1 -->
<g id="edge2" class="edge">
<title>mobilenet&#45;&gt;stage1</title>
<path fill="none" stroke="black" d="M329.83,-67.43C340.37,-62.18 351.61,-56.59 361.82,-51.51"/>
<polygon fill="black" stroke="black" points="363.46,-54.6 370.85,-47.01 360.34,-48.34 363.46,-54.6"/>
</g>
<!-- stage2 -->
<g id="node4" class="node">
<title>stage2</title>
<polygon fill="#ffcc80" stroke="black" points="425,-106 371,-106 371,-70 425,-70 425,-106"/>
<text text-anchor="middle" x="398" y="-91" font-family="Arial" font-size="10.00">Stage 2</text>
<text text-anchor="middle" x="398" y="-80" font-family="Arial" font-size="10.00">P4/16</text>
</g>
<!-- mobilenet&#45;&gt;stage2 -->
<g id="edge3" class="edge">
<title>mobilenet&#45;&gt;stage2</title>
<path fill="none" stroke="black" d="M335.14,-88C343.61,-88 352.33,-88 360.45,-88"/>
<polygon fill="black" stroke="black" points="360.72,-91.5 370.72,-88 360.72,-84.5 360.72,-91.5"/>
</g>
<!-- stage3 -->
<g id="node5" class="node">
<title>stage3</title>
<polygon fill="#ffcc80" stroke="black" points="425,-160 371,-160 371,-124 425,-124 425,-160"/>
<text text-anchor="middle" x="398" y="-145" font-family="Arial" font-size="10.00">Stage 3</text>
<text text-anchor="middle" x="398" y="-134" font-family="Arial" font-size="10.00">P5/32</text>
</g>
<!-- mobilenet&#45;&gt;stage3 -->
<g id="edge4" class="edge">
<title>mobilenet&#45;&gt;stage3</title>
<path fill="none" stroke="black" d="M329.83,-108.57C340.37,-113.82 351.61,-119.41 361.82,-124.49"/>
<polygon fill="black" stroke="black" points="360.34,-127.66 370.85,-128.99 363.46,-121.4 360.34,-127.66"/>
</g>
<!-- bifpn -->
<g id="node6" class="node">
<title>bifpn</title>
<polygon fill="#c8e6c8" stroke="black" points="542,-108.5 461,-108.5 461,-67.5 542,-67.5 542,-108.5"/>
<text text-anchor="middle" x="501.5" y="-96.5" font-family="Arial" font-size="10.00">BiFPN</text>
<text text-anchor="middle" x="501.5" y="-85.5" font-family="Arial" font-size="10.00">77,916 params</text>
<text text-anchor="middle" x="501.5" y="-74.5" font-family="Arial" font-size="10.00">(15.9%)</text>
</g>
<!-- stage1&#45;&gt;bifpn -->
<g id="edge5" class="edge">
<title>stage1&#45;&gt;bifpn</title>
<path fill="none" stroke="black" d="M425.14,-47.91C433.6,-52.41 443.26,-57.55 452.77,-62.61"/>
<polygon fill="black" stroke="black" points="451.34,-65.81 461.81,-67.42 454.63,-59.63 451.34,-65.81"/>
</g>
<!-- stage2&#45;&gt;bifpn -->
<g id="edge6" class="edge">
<title>stage2&#45;&gt;bifpn</title>
<path fill="none" stroke="black" d="M425.14,-88C432.91,-88 441.69,-88 450.45,-88"/>
<polygon fill="black" stroke="black" points="450.65,-91.5 460.65,-88 450.65,-84.5 450.65,-91.5"/>
</g>
<!-- stage3&#45;&gt;bifpn -->
<g id="edge7" class="edge">
<title>stage3&#45;&gt;bifpn</title>
<path fill="none" stroke="black" d="M425.14,-128.09C433.6,-123.59 443.26,-118.45 452.77,-113.39"/>
<polygon fill="black" stroke="black" points="454.63,-116.37 461.81,-108.58 451.34,-110.19 454.63,-116.37"/>
</g>
<!-- p3_out -->
<g id="node7" class="node">
<title>p3_out</title>
<polygon fill="#a5d6a7" stroke="black" points="664,-52 578,-52 578,-16 664,-16 664,-52"/>
<text text-anchor="middle" x="621" y="-37" font-family="Arial" font-size="10.00">P3 Features</text>
<text text-anchor="middle" x="621" y="-26" font-family="Arial" font-size="10.00">out_channel=52</text>
</g>
<!-- bifpn&#45;&gt;p3_out -->
<g id="edge8" class="edge">
<title>bifpn&#45;&gt;p3_out</title>
<path fill="none" stroke="black" d="M542.28,-69.72C551.66,-65.41 561.77,-60.76 571.49,-56.29"/>
<polygon fill="black" stroke="black" points="573.03,-59.44 580.66,-52.08 570.11,-53.08 573.03,-59.44"/>
</g>
<!-- p4_out -->
<g id="node8" class="node">
<title>p4_out</title>
<polygon fill="#a5d6a7" stroke="black" points="664,-106 578,-106 578,-70 664,-70 664,-106"/>
<text text-anchor="middle" x="621" y="-91" font-family="Arial" font-size="10.00">P4 Features</text>
<text text-anchor="middle" x="621" y="-80" font-family="Arial" font-size="10.00">out_channel=52</text>
</g>
<!-- bifpn&#45;&gt;p4_out -->
<g id="edge9" class="edge">
<title>bifpn&#45;&gt;p4_out</title>
<path fill="none" stroke="black" d="M542.28,-88C550.42,-88 559.11,-88 567.61,-88"/>
<polygon fill="black" stroke="black" points="567.85,-91.5 577.85,-88 567.85,-84.5 567.85,-91.5"/>
</g>
<!-- p5_out -->
<g id="node9" class="node">
<title>p5_out</title>
<polygon fill="#a5d6a7" stroke="black" points="664,-160 578,-160 578,-124 664,-124 664,-160"/>
<text text-anchor="middle" x="621" y="-145" font-family="Arial" font-size="10.00">P5 Features</text>
<text text-anchor="middle" x="621" y="-134" font-family="Arial" font-size="10.00">out_channel=52</text>
</g>
<!-- bifpn&#45;&gt;p5_out -->
<g id="edge10" class="edge">
<title>bifpn&#45;&gt;p5_out</title>
<path fill="none" stroke="black" d="M542.28,-106.28C551.66,-110.59 561.77,-115.24 571.49,-119.71"/>
<polygon fill="black" stroke="black" points="570.11,-122.92 580.66,-123.92 573.03,-116.56 570.11,-122.92"/>
</g>
<!-- cbam_attention -->
<g id="node10" class="node">
<title>cbam_attention</title>
<polygon fill="#f8bbd9" stroke="black" points="795,-108.5 700,-108.5 700,-67.5 795,-67.5 795,-108.5"/>
<text text-anchor="middle" x="747.5" y="-96.5" font-family="Arial" font-size="10.00">CBAM Attention</text>
<text text-anchor="middle" x="747.5" y="-85.5" font-family="Arial" font-size="10.00">Channel + Spatial</text>
<text text-anchor="middle" x="747.5" y="-74.5" font-family="Arial" font-size="10.00">O(C²) complexity</text>
</g>
<!-- p3_out&#45;&gt;cbam_attention -->
<g id="edge11" class="edge">
<title>p3_out&#45;&gt;cbam_attention</title>
<path fill="none" stroke="black" d="M663.8,-52.13C672.4,-55.86 681.59,-59.84 690.59,-63.75"/>
<polygon fill="black" stroke="black" points="689.31,-67.01 699.88,-67.78 692.1,-60.59 689.31,-67.01"/>
</g>
<!-- p4_out&#45;&gt;cbam_attention -->
<g id="edge12" class="edge">
<title>p4_out&#45;&gt;cbam_attention</title>
<path fill="none" stroke="black" d="M664.15,-88C672.27,-88 680.91,-88 689.42,-88"/>
<polygon fill="black" stroke="black" points="689.69,-91.5 699.69,-88 689.69,-84.5 689.69,-91.5"/>
</g>
<!-- p5_out&#45;&gt;cbam_attention -->
<g id="edge13" class="edge">
<title>p5_out&#45;&gt;cbam_attention</title>
<path fill="none" stroke="black" d="M663.8,-123.87C672.4,-120.14 681.59,-116.16 690.59,-112.25"/>
<polygon fill="black" stroke="black" points="692.1,-115.41 699.88,-108.22 689.31,-108.99 692.1,-115.41"/>
</g>
<!-- channel_att -->
<g id="node11" class="node">
<title>channel_att</title>
<polygon fill="#f48fb1" stroke="black" points="887,-90 831,-90 831,-54 887,-54 887,-90"/>
<text text-anchor="middle" x="859" y="-75" font-family="Arial" font-size="10.00">Channel</text>
<text text-anchor="middle" x="859" y="-64" font-family="Arial" font-size="10.00">Attention</text>
</g>
<!-- cbam_attention&#45;&gt;channel_att -->
<g id="edge14" class="edge">
<title>cbam_attention&#45;&gt;channel_att</title>
<path fill="none" stroke="black" d="M795.26,-81.17C803.76,-79.93 812.52,-78.65 820.7,-77.45"/>
<polygon fill="black" stroke="black" points="821.31,-80.9 830.7,-75.99 820.29,-73.97 821.31,-80.9"/>
</g>
<!-- spatial_att -->
<g id="node12" class="node">
<title>spatial_att</title>
<polygon fill="#f48fb1" stroke="black" points="887,-144 831,-144 831,-108 887,-108 887,-144"/>
<text text-anchor="middle" x="859" y="-129" font-family="Arial" font-size="10.00">Spatial</text>
<text text-anchor="middle" x="859" y="-118" font-family="Arial" font-size="10.00">Attention</text>
</g>
<!-- cbam_attention&#45;&gt;spatial_att -->
<g id="edge15" class="edge">
<title>cbam_attention&#45;&gt;spatial_att</title>
<path fill="none" stroke="black" d="M795.26,-104.23C803.85,-107.21 812.72,-110.28 820.98,-113.15"/>
<polygon fill="black" stroke="black" points="820.1,-116.55 830.7,-116.52 822.4,-109.94 820.1,-116.55"/>
</g>
<!-- ssh1 -->
<g id="node13" class="node">
<title>ssh1</title>
<polygon fill="#d1c4e9" stroke="black" points="1032,-134.5 951,-134.5 951,-93.5 1032,-93.5 1032,-134.5"/>
<text text-anchor="middle" x="991.5" y="-122.5" font-family="Arial" font-size="10.00">SSH1</text>
<text text-anchor="middle" x="991.5" y="-111.5" font-family="Arial" font-size="10.00">64,185 params</text>
<text text-anchor="middle" x="991.5" y="-100.5" font-family="Arial" font-size="10.00">(13.1%)</text>
</g>
<!-- channel_att&#45;&gt;ssh1 -->
<g id="edge16" class="edge">
<title>channel_att&#45;&gt;ssh1</title>
<path fill="none" stroke="black" d="M887.04,-80.7C902.67,-85.73 922.82,-92.22 941.18,-98.13"/>
<polygon fill="black" stroke="black" points="940.27,-101.51 950.86,-101.24 942.42,-94.85 940.27,-101.51"/>
</g>
<!-- ssh2 -->
<g id="node14" class="node">
<title>ssh2</title>
<polygon fill="#d1c4e9" stroke="black" points="1032,-75.5 951,-75.5 951,-34.5 1032,-34.5 1032,-75.5"/>
<text text-anchor="middle" x="991.5" y="-63.5" font-family="Arial" font-size="10.00">SSH2</text>
<text text-anchor="middle" x="991.5" y="-52.5" font-family="Arial" font-size="10.00">64,185 params</text>
<text text-anchor="middle" x="991.5" y="-41.5" font-family="Arial" font-size="10.00">(13.1%)</text>
</g>
<!-- channel_att&#45;&gt;ssh2 -->
<g id="edge18" class="edge">
<title>channel_att&#45;&gt;ssh2</title>
<path fill="none" stroke="black" d="M887.04,-68.48C902.6,-66.45 922.63,-63.84 940.92,-61.46"/>
<polygon fill="black" stroke="black" points="941.4,-64.93 950.86,-60.16 940.49,-57.98 941.4,-64.93"/>
</g>
<!-- ssh3 -->
<g id="node15" class="node">
<title>ssh3</title>
<polygon fill="#d1c4e9" stroke="black" points="1032,-193.5 951,-193.5 951,-152.5 1032,-152.5 1032,-193.5"/>
<text text-anchor="middle" x="991.5" y="-181.5" font-family="Arial" font-size="10.00">SSH3</text>
<text text-anchor="middle" x="991.5" y="-170.5" font-family="Arial" font-size="10.00">64,185 params</text>
<text text-anchor="middle" x="991.5" y="-159.5" font-family="Arial" font-size="10.00">(13.1%)</text>
</g>
<!-- channel_att&#45;&gt;ssh3 -->
<g id="edge20" class="edge">
<title>channel_att&#45;&gt;ssh3</title>
<path fill="none" stroke="black" d="M886.56,-90.13C889.63,-92.88 892.53,-95.86 895,-99 908.52,-116.21 899.13,-128.93 915,-144 922.41,-151.03 931.7,-156.41 941.21,-160.51"/>
<polygon fill="black" stroke="black" points="940.14,-163.85 950.73,-164.19 942.67,-157.32 940.14,-163.85"/>
</g>
<!-- spatial_att&#45;&gt;ssh1 -->
<g id="edge17" class="edge">
<title>spatial_att&#45;&gt;ssh1</title>
<path fill="none" stroke="black" d="M887.04,-123.51C902.53,-122.09 922.45,-120.26 940.67,-118.58"/>
<polygon fill="black" stroke="black" points="941.23,-122.05 950.86,-117.64 940.58,-115.08 941.23,-122.05"/>
</g>
<!-- spatial_att&#45;&gt;ssh2 -->
<g id="edge19" class="edge">
<title>spatial_att&#45;&gt;ssh2</title>
<path fill="none" stroke="black" d="M883.8,-107.81C897.05,-97.76 911.57,-86.92 915,-85 923.32,-80.35 932.5,-76.07 941.51,-72.28"/>
<polygon fill="black" stroke="black" points="942.85,-75.52 950.8,-68.52 940.22,-69.03 942.85,-75.52"/>
</g>
<!-- spatial_att&#45;&gt;ssh3 -->
<g id="edge21" class="edge">
<title>spatial_att&#45;&gt;ssh3</title>
<path fill="none" stroke="black" d="M887.04,-135.74C902.74,-141.39 923,-148.69 941.43,-155.33"/>
<polygon fill="black" stroke="black" points="940.27,-158.63 950.86,-158.72 942.64,-152.04 940.27,-158.63"/>
</g>
<!-- cs1 -->
<g id="node16" class="node">
<title>cs1</title>
<polygon fill="#e1bee7" stroke="black" points="1220,-132 1163,-132 1163,-96 1220,-96 1220,-132"/>
<text text-anchor="middle" x="1191.5" y="-117" font-family="Arial" font-size="10.00">CS1</text>
<text text-anchor="middle" x="1191.5" y="-106" font-family="Arial" font-size="10.00">0 params</text>
</g>
<!-- ssh1&#45;&gt;cs1 -->
<g id="edge22" class="edge">
<title>ssh1&#45;&gt;cs1</title>
<path fill="none" stroke="black" d="M1032.09,-114C1067.17,-114 1118.04,-114 1152.6,-114"/>
<polygon fill="black" stroke="black" points="1152.77,-117.5 1162.77,-114 1152.77,-110.5 1152.77,-117.5"/>
</g>
<!-- cs2 -->
<g id="node17" class="node">
<title>cs2</title>
<polygon fill="#e1bee7" stroke="black" points="1220,-78 1163,-78 1163,-42 1220,-42 1220,-78"/>
<text text-anchor="middle" x="1191.5" y="-63" font-family="Arial" font-size="10.00">CS2</text>
<text text-anchor="middle" x="1191.5" y="-52" font-family="Arial" font-size="10.00">0 params</text>
</g>
<!-- ssh2&#45;&gt;cs2 -->
<g id="edge23" class="edge">
<title>ssh2&#45;&gt;cs2</title>
<path fill="none" stroke="black" d="M1032.09,-56C1067.17,-56.89 1118.04,-58.17 1152.6,-59.04"/>
<polygon fill="black" stroke="black" points="1152.68,-62.55 1162.77,-59.3 1152.86,-55.55 1152.68,-62.55"/>
</g>
<!-- cs3 -->
<g id="node18" class="node">
<title>cs3</title>
<polygon fill="#e1bee7" stroke="black" points="1220,-186 1163,-186 1163,-150 1220,-150 1220,-186"/>
<text text-anchor="middle" x="1191.5" y="-171" font-family="Arial" font-size="10.00">CS3</text>
<text text-anchor="middle" x="1191.5" y="-160" font-family="Arial" font-size="10.00">0 params</text>
</g>
<!-- ssh3&#45;&gt;cs3 -->
<g id="edge24" class="edge">
<title>ssh3&#45;&gt;cs3</title>
<path fill="none" stroke="black" d="M1032.09,-172C1067.17,-171.11 1118.04,-169.83 1152.6,-168.96"/>
<polygon fill="black" stroke="black" points="1152.86,-172.45 1162.77,-168.7 1152.68,-165.45 1152.86,-172.45"/>
</g>
<!-- class_head -->
<g id="node19" class="node">
<title>class_head</title>
<polygon fill="#ffecb3" stroke="black" points="1419.5,-75.5 1343.5,-75.5 1343.5,-34.5 1419.5,-34.5 1419.5,-75.5"/>
<text text-anchor="middle" x="1381.5" y="-63.5" font-family="Arial" font-size="10.00">Classification</text>
<text text-anchor="middle" x="1381.5" y="-52.5" font-family="Arial" font-size="10.00">684 params</text>
<text text-anchor="middle" x="1381.5" y="-41.5" font-family="Arial" font-size="10.00">(0.1%)</text>
</g>
<!-- cs1&#45;&gt;class_head -->
<g id="edge25" class="edge">
<title>cs1&#45;&gt;class_head</title>
<path fill="none" stroke="black" d="M1220.12,-107.52C1240.88,-102.46 1269.92,-94.97 1295,-87 1307.76,-82.94 1321.41,-78.08 1333.97,-73.38"/>
<polygon fill="black" stroke="black" points="1335.21,-76.65 1343.33,-69.84 1332.74,-70.11 1335.21,-76.65"/>
</g>
<!-- bbox_head -->
<g id="node20" class="node">
<title>bbox_head</title>
<polygon fill="#ffecb3" stroke="black" points="1428,-193.5 1335,-193.5 1335,-152.5 1428,-152.5 1428,-193.5"/>
<text text-anchor="middle" x="1381.5" y="-181.5" font-family="Arial" font-size="10.00">BBox Regression</text>
<text text-anchor="middle" x="1381.5" y="-170.5" font-family="Arial" font-size="10.00">1,368 params</text>
<text text-anchor="middle" x="1381.5" y="-159.5" font-family="Arial" font-size="10.00">(0.3%)</text>
</g>
<!-- cs1&#45;&gt;bbox_head -->
<g id="edge26" class="edge">
<title>cs1&#45;&gt;bbox_head</title>
<path fill="none" stroke="black" d="M1220.12,-120.48C1240.88,-125.54 1269.92,-133.03 1295,-141 1304.84,-144.13 1315.22,-147.74 1325.21,-151.38"/>
<polygon fill="black" stroke="black" points="1324.06,-154.69 1334.65,-154.87 1326.48,-148.12 1324.06,-154.69"/>
</g>
<!-- landmark_head -->
<g id="node21" class="node">
<title>landmark_head</title>
<polygon fill="#ffecb3" stroke="black" points="1419.5,-134.5 1343.5,-134.5 1343.5,-93.5 1419.5,-93.5 1419.5,-134.5"/>
<text text-anchor="middle" x="1381.5" y="-122.5" font-family="Arial" font-size="10.00">Landmarks</text>
<text text-anchor="middle" x="1381.5" y="-111.5" font-family="Arial" font-size="10.00">3,420 params</text>
<text text-anchor="middle" x="1381.5" y="-100.5" font-family="Arial" font-size="10.00">(0.7%)</text>
</g>
<!-- cs1&#45;&gt;landmark_head -->
<g id="edge27" class="edge">
<title>cs1&#45;&gt;landmark_head</title>
<path fill="none" stroke="black" d="M1220.24,-114C1249.9,-114 1297.45,-114 1333.07,-114"/>
<polygon fill="black" stroke="black" points="1333.24,-117.5 1343.24,-114 1333.24,-110.5 1333.24,-117.5"/>
</g>
<!-- cs2&#45;&gt;class_head -->
<g id="edge28" class="edge">
<title>cs2&#45;&gt;class_head</title>
<path fill="none" stroke="black" d="M1220.24,-59.26C1249.9,-58.47 1297.45,-57.21 1333.07,-56.26"/>
<polygon fill="black" stroke="black" points="1333.34,-59.76 1343.24,-55.99 1333.15,-52.76 1333.34,-59.76"/>
</g>
<!-- cs2&#45;&gt;bbox_head -->
<g id="edge29" class="edge">
<title>cs2&#45;&gt;bbox_head</title>
<path fill="none" stroke="black" d="M1220.24,-60.42C1243.01,-62.22 1274.72,-68.28 1295,-87 1314.73,-105.21 1296.78,-124.28 1315,-144 1318.26,-147.53 1322.02,-150.65 1326.06,-153.41"/>
<polygon fill="black" stroke="black" points="1324.31,-156.43 1334.68,-158.58 1327.91,-150.43 1324.31,-156.43"/>
</g>
<!-- cs2&#45;&gt;landmark_head -->
<g id="edge30" class="edge">
<title>cs2&#45;&gt;landmark_head</title>
<path fill="none" stroke="black" d="M1220.01,-66.86C1240.7,-72.12 1269.72,-79.68 1295,-87 1307.51,-90.62 1320.97,-94.76 1333.42,-98.69"/>
<polygon fill="black" stroke="black" points="1332.57,-102.09 1343.16,-101.78 1334.69,-95.42 1332.57,-102.09"/>
</g>
<!-- cs3&#45;&gt;class_head -->
<g id="edge31" class="edge">
<title>cs3&#45;&gt;class_head</title>
<path fill="none" stroke="black" d="M1220.21,-167.55C1242.97,-165.73 1274.67,-159.67 1295,-141 1314.47,-123.13 1297.14,-104.48 1315,-85 1320.35,-79.17 1327.06,-74.38 1334.12,-70.49"/>
<polygon fill="black" stroke="black" points="1335.77,-73.58 1343.19,-66.02 1332.67,-67.3 1335.77,-73.58"/>
</g>
<!-- cs3&#45;&gt;bbox_head -->
<g id="edge32" class="edge">
<title>cs3&#45;&gt;bbox_head</title>
<path fill="none" stroke="black" d="M1220.24,-168.74C1247.55,-169.46 1290.03,-170.59 1324.4,-171.51"/>
<polygon fill="black" stroke="black" points="1324.69,-175.02 1334.78,-171.78 1324.87,-168.02 1324.69,-175.02"/>
</g>
<!-- cs3&#45;&gt;landmark_head -->
<g id="edge33" class="edge">
<title>cs3&#45;&gt;landmark_head</title>
<path fill="none" stroke="black" d="M1220.01,-161.14C1240.7,-155.88 1269.72,-148.32 1295,-141 1307.51,-137.38 1320.97,-133.24 1333.42,-129.31"/>
<polygon fill="black" stroke="black" points="1334.69,-132.58 1343.16,-126.22 1332.57,-125.91 1334.69,-132.58"/>
</g>
<!-- output -->
<g id="node22" class="node">
<title>output</title>
<polygon fill="#ffcdd2" stroke="#f44336" points="1560,-132 1477,-132 1477,-96 1560,-96 1560,-132"/>
<text text-anchor="middle" x="1518.5" y="-117" font-family="Arial" font-size="10.00">Face Detection</text>
<text text-anchor="middle" x="1518.5" y="-106" font-family="Arial" font-size="10.00">Results</text>
</g>
<!-- class_head&#45;&gt;output -->
<g id="edge34" class="edge">
<title>class_head&#45;&gt;output</title>
<path fill="none" stroke="black" d="M1419.75,-71.28C1434.35,-77.66 1451.34,-85.09 1467.02,-91.94"/>
<polygon fill="black" stroke="black" points="1466.02,-95.32 1476.58,-96.12 1468.82,-88.91 1466.02,-95.32"/>
</g>
<!-- bbox_head&#45;&gt;output -->
<g id="edge35" class="edge">
<title>bbox_head&#45;&gt;output</title>
<path fill="none" stroke="black" d="M1428.29,-153.04C1435.23,-150.01 1442.31,-146.93 1449,-144 1455.07,-141.35 1461.45,-138.56 1467.77,-135.79"/>
<polygon fill="black" stroke="black" points="1469.18,-138.99 1476.94,-131.78 1466.37,-132.58 1469.18,-138.99"/>
</g>
<!-- landmark_head&#45;&gt;output -->
<g id="edge36" class="edge">
<title>landmark_head&#45;&gt;output</title>
<path fill="none" stroke="black" d="M1419.75,-114C1434.22,-114 1451.02,-114 1466.58,-114"/>
<polygon fill="black" stroke="black" points="1466.58,-117.5 1476.58,-114 1466.58,-110.5 1466.58,-117.5"/>
</g>
<!-- details -->
<g id="node23" class="node">
<title>details</title>
<polygon fill="#eeeeee" stroke="black" points="198,-195.5 16,-195.5 16,-132.5 204,-132.5 204,-189.5 198,-195.5"/>
<polyline fill="none" stroke="black" points="198,-195.5 198,-189.5 "/>
<polyline fill="none" stroke="black" points="204,-189.5 198,-189.5 "/>
<text text-anchor="middle" x="110" y="-183.5" font-family="Arial" font-size="10.00">CBAM Baseline</text>
<text text-anchor="middle" x="110" y="-172.5" font-family="Arial" font-size="10.00">• Total: 488,664 parameters</text>
<text text-anchor="middle" x="110" y="-161.5" font-family="Arial" font-size="10.00">• CBAM: Woo et al. ECCV 2018</text>
<text text-anchor="middle" x="110" y="-150.5" font-family="Arial" font-size="10.00">• Configuration: cfg_cbam_paper_exact</text>
<text text-anchor="middle" x="110" y="-139.5" font-family="Arial" font-size="10.00">• Purpose: Scientific baseline</text>
</g>
</g>
</svg>
