<?xml version="1.0" encoding="UTF-8" standalone="no"?>
<!DOCTYPE svg PUBLIC "-//W3C//DTD SVG 1.1//EN"
 "http://www.w3.org/Graphics/SVG/1.1/DTD/svg11.dtd">
<!-- Generated by graphviz version 2.43.0 (0)
 -->
<!-- Title: CBamBaseline Pages: 1 -->
<svg width="1910pt" height="458pt"
 viewBox="0.00 0.00 1910.15 458.00" xmlns="http://www.w3.org/2000/svg" xmlns:xlink="http://www.w3.org/1999/xlink">
<g id="graph0" class="graph" transform="scale(1 1) rotate(0) translate(4 454)">
<title>CBamBaseline</title>
<polygon fill="white" stroke="transparent" points="-4,4 -4,-454 1906.15,-454 1906.15,4 -4,4"/>
<text text-anchor="middle" x="951.07" y="-434.8" font-family="Arial Bold" font-size="14.00">FeatherFace CBAM Baseline Architecture (488,664 parameters)</text>
<g id="clust1" class="cluster">
<title>cluster_backbone</title>
<polygon fill="#fff3e0" stroke="#f57c00" points="196.32,-36 196.32,-219 398.32,-219 398.32,-36 196.32,-36"/>
<text text-anchor="middle" x="297.32" y="-203.8" font-family="Arial Bold" font-size="14.00">MobileNetV1&#45;0.25 Backbone</text>
</g>
<g id="clust2" class="cluster">
<title>cluster_backbone_cbam</title>
<polygon fill="#fde7f3" stroke="#e91e63" points="419.32,-28 419.32,-227 607.32,-227 607.32,-28 419.32,-28"/>
<text text-anchor="middle" x="513.32" y="-211.8" font-family="Arial Bold" font-size="14.00">Backbone CBAM Attention</text>
</g>
<g id="clust3" class="cluster">
<title>cluster_fpn</title>
<polygon fill="#e8f5e8" stroke="#4caf50" points="628.32,-36 628.32,-219 906.07,-219 906.07,-36 628.32,-36"/>
<text text-anchor="middle" x="767.2" y="-203.8" font-family="Arial Bold" font-size="14.00">BiFPN Feature Pyramid</text>
</g>
<g id="clust4" class="cluster">
<title>cluster_bifpn_cbam</title>
<polygon fill="#fde7f3" stroke="#e91e63" points="948.83,-12 948.83,-243 1112.83,-243 1112.83,-12 948.83,-12"/>
<text text-anchor="middle" x="1030.83" y="-227.8" font-family="Arial Bold" font-size="14.00">BiFPN CBAM Attention</text>
</g>
<g id="clust5" class="cluster">
<title>cluster_ssh</title>
<polygon fill="#ede7f6" stroke="#673ab7" points="1133.83,-28 1133.83,-227 1287.83,-227 1287.83,-28 1133.83,-28"/>
<text text-anchor="middle" x="1210.83" y="-211.8" font-family="Arial Bold" font-size="14.00">SSH Detection Heads</text>
</g>
<g id="clust6" class="cluster">
<title>cluster_shuffle</title>
<polygon fill="#f3e5f5" stroke="#9c27b0" points="1308.83,-36 1308.83,-219 1514.83,-219 1514.83,-36 1308.83,-36"/>
<text text-anchor="middle" x="1411.83" y="-203.8" font-family="Arial Bold" font-size="14.00">Channel Shuffle Optimization</text>
</g>
<g id="clust7" class="cluster">
<title>cluster_outputs</title>
<polygon fill="#fff8e1" stroke="#ff9800" points="1535.83,-8 1535.83,-207 1669.83,-207 1669.83,-8 1535.83,-8"/>
<text text-anchor="middle" x="1602.83" y="-191.8" font-family="Arial Bold" font-size="14.00">Detection Outputs</text>
</g>
<g id="clust8" class="cluster">
<title>cluster_cbam_detail</title>
<polygon fill="#f0f4ff" stroke="#3f51b5" points="8,-251 8,-419 1894.15,-419 1894.15,-251 8,-251"/>
<text text-anchor="middle" x="951.07" y="-403.8" font-family="Arial Bold" font-size="14.00">CBAM Module Detail</text>
</g>
<g id="clust9" class="cluster">
<title>cluster_cam</title>
<polygon fill="#fde7f3" stroke="#3f51b5" points="216.82,-259 216.82,-388 711.82,-388 711.82,-259 216.82,-259"/>
<text text-anchor="middle" x="464.32" y="-372.8" font-family="Arial Bold" font-size="14.00">Channel Attention Module (CAM)</text>
</g>
<g id="clust10" class="cluster">
<title>cluster_sam</title>
<polygon fill="#e3f2fd" stroke="#3f51b5" points="993.33,-259 993.33,-388 1637.33,-388 1637.33,-259 993.33,-259"/>
<text text-anchor="middle" x="1315.33" y="-372.8" font-family="Arial Bold" font-size="14.00">Spatial Attention Module (SAM)</text>
</g>
<!-- input -->
<g id="node1" class="node">
<title>input</title>
<polygon fill="#e8f4fd" stroke="#1e88e5" points="125.66,-134 57.66,-134 57.66,-98 125.66,-98 125.66,-134"/>
<text text-anchor="middle" x="91.66" y="-119" font-family="Arial" font-size="10.00">Input Image</text>
<text text-anchor="middle" x="91.66" y="-108" font-family="Arial" font-size="10.00">640×640×3</text>
</g>
<!-- mobilenet -->
<g id="node2" class="node">
<title>mobilenet</title>
<polygon fill="#ffe0b2" stroke="black" points="299.32,-136.5 204.32,-136.5 204.32,-95.5 299.32,-95.5 299.32,-136.5"/>
<text text-anchor="middle" x="251.82" y="-124.5" font-family="Arial" font-size="10.00">MobileNetV1&#45;0.25</text>
<text text-anchor="middle" x="251.82" y="-113.5" font-family="Arial" font-size="10.00">213,072 params</text>
<text text-anchor="middle" x="251.82" y="-102.5" font-family="Arial" font-size="10.00">(43.6%)</text>
</g>
<!-- input&#45;&gt;mobilenet -->
<g id="edge15" class="edge">
<title>input&#45;&gt;mobilenet</title>
<path fill="none" stroke="black" d="M125.82,-116C145.53,-116 171.08,-116 193.93,-116"/>
<polygon fill="black" stroke="black" points="194.21,-119.5 204.21,-116 194.21,-112.5 194.21,-119.5"/>
</g>
<!-- stage1 -->
<g id="node3" class="node">
<title>stage1</title>
<polygon fill="#ffcc80" stroke="black" points="390.32,-188 336.32,-188 336.32,-152 390.32,-152 390.32,-188"/>
<text text-anchor="middle" x="363.32" y="-173" font-family="Arial" font-size="10.00">Stage 1</text>
<text text-anchor="middle" x="363.32" y="-162" font-family="Arial" font-size="10.00">P3/8</text>
</g>
<!-- mobilenet&#45;&gt;stage1 -->
<g id="edge16" class="edge">
<title>mobilenet&#45;&gt;stage1</title>
<path fill="none" stroke="black" d="M294.53,-136.57C305.27,-141.86 316.71,-147.51 327.08,-152.62"/>
<polygon fill="black" stroke="black" points="325.74,-155.86 336.25,-157.14 328.83,-149.58 325.74,-155.86"/>
</g>
<!-- stage2 -->
<g id="node4" class="node">
<title>stage2</title>
<polygon fill="#ffcc80" stroke="black" points="390.32,-134 336.32,-134 336.32,-98 390.32,-98 390.32,-134"/>
<text text-anchor="middle" x="363.32" y="-119" font-family="Arial" font-size="10.00">Stage 2</text>
<text text-anchor="middle" x="363.32" y="-108" font-family="Arial" font-size="10.00">P4/16</text>
</g>
<!-- mobilenet&#45;&gt;stage2 -->
<g id="edge17" class="edge">
<title>mobilenet&#45;&gt;stage2</title>
<path fill="none" stroke="black" d="M299.58,-116C308.4,-116 317.52,-116 325.97,-116"/>
<polygon fill="black" stroke="black" points="326.25,-119.5 336.25,-116 326.24,-112.5 326.25,-119.5"/>
</g>
<!-- stage3 -->
<g id="node5" class="node">
<title>stage3</title>
<polygon fill="#ffcc80" stroke="black" points="390.32,-80 336.32,-80 336.32,-44 390.32,-44 390.32,-80"/>
<text text-anchor="middle" x="363.32" y="-65" font-family="Arial" font-size="10.00">Stage 3</text>
<text text-anchor="middle" x="363.32" y="-54" font-family="Arial" font-size="10.00">P5/32</text>
</g>
<!-- mobilenet&#45;&gt;stage3 -->
<g id="edge18" class="edge">
<title>mobilenet&#45;&gt;stage3</title>
<path fill="none" stroke="black" d="M294.53,-95.43C305.27,-90.14 316.71,-84.49 327.08,-79.38"/>
<polygon fill="black" stroke="black" points="328.83,-82.42 336.25,-74.86 325.74,-76.14 328.83,-82.42"/>
</g>
<!-- backbone_cbam1 -->
<g id="node6" class="node">
<title>backbone_cbam1</title>
<polygon fill="#f8bbd9" stroke="black" points="551.32,-195.5 475.32,-195.5 475.32,-154.5 551.32,-154.5 551.32,-195.5"/>
<text text-anchor="middle" x="513.32" y="-183.5" font-family="Arial" font-size="10.00">CBAM</text>
<text text-anchor="middle" x="513.32" y="-172.5" font-family="Arial" font-size="10.00">64 ch</text>
<text text-anchor="middle" x="513.32" y="-161.5" font-family="Arial" font-size="10.00">2,164 params</text>
</g>
<!-- stage1&#45;&gt;backbone_cbam1 -->
<g id="edge19" class="edge">
<title>stage1&#45;&gt;backbone_cbam1</title>
<path fill="none" stroke="black" d="M390.44,-170.88C410.99,-171.58 440.17,-172.56 464.83,-173.4"/>
<polygon fill="black" stroke="black" points="464.97,-176.9 475.08,-173.74 465.2,-169.91 464.97,-176.9"/>
</g>
<!-- backbone_cbam2 -->
<g id="node7" class="node">
<title>backbone_cbam2</title>
<polygon fill="#f8bbd9" stroke="black" points="551.32,-136.5 475.32,-136.5 475.32,-95.5 551.32,-95.5 551.32,-136.5"/>
<text text-anchor="middle" x="513.32" y="-124.5" font-family="Arial" font-size="10.00">CBAM</text>
<text text-anchor="middle" x="513.32" y="-113.5" font-family="Arial" font-size="10.00">128 ch</text>
<text text-anchor="middle" x="513.32" y="-102.5" font-family="Arial" font-size="10.00">2,208 params</text>
</g>
<!-- stage2&#45;&gt;backbone_cbam2 -->
<g id="edge20" class="edge">
<title>stage2&#45;&gt;backbone_cbam2</title>
<path fill="none" stroke="black" d="M390.44,-116C410.99,-116 440.17,-116 464.83,-116"/>
<polygon fill="black" stroke="black" points="465.08,-119.5 475.08,-116 465.08,-112.5 465.08,-119.5"/>
</g>
<!-- backbone_cbam3 -->
<g id="node8" class="node">
<title>backbone_cbam3</title>
<polygon fill="#f8bbd9" stroke="black" points="551.32,-77.5 475.32,-77.5 475.32,-36.5 551.32,-36.5 551.32,-77.5"/>
<text text-anchor="middle" x="513.32" y="-65.5" font-family="Arial" font-size="10.00">CBAM</text>
<text text-anchor="middle" x="513.32" y="-54.5" font-family="Arial" font-size="10.00">256 ch</text>
<text text-anchor="middle" x="513.32" y="-43.5" font-family="Arial" font-size="10.00">2,296 params</text>
</g>
<!-- stage3&#45;&gt;backbone_cbam3 -->
<g id="edge21" class="edge">
<title>stage3&#45;&gt;backbone_cbam3</title>
<path fill="none" stroke="black" d="M390.44,-61.12C410.99,-60.42 440.17,-59.44 464.83,-58.6"/>
<polygon fill="black" stroke="black" points="465.2,-62.09 475.08,-58.26 464.97,-55.1 465.2,-62.09"/>
</g>
<!-- bifpn -->
<g id="node9" class="node">
<title>bifpn</title>
<polygon fill="#c8e6c8" stroke="black" points="717.32,-136.5 636.32,-136.5 636.32,-95.5 717.32,-95.5 717.32,-136.5"/>
<text text-anchor="middle" x="676.82" y="-124.5" font-family="Arial" font-size="10.00">BiFPN</text>
<text text-anchor="middle" x="676.82" y="-113.5" font-family="Arial" font-size="10.00">75,246 params</text>
<text text-anchor="middle" x="676.82" y="-102.5" font-family="Arial" font-size="10.00">(15.4%)</text>
</g>
<!-- backbone_cbam1&#45;&gt;bifpn -->
<g id="edge22" class="edge">
<title>backbone_cbam1&#45;&gt;bifpn</title>
<path fill="none" stroke="black" d="M551.75,-164.36C568.84,-159.24 589.26,-152.75 607.32,-146 613.69,-143.62 620.33,-140.96 626.85,-138.23"/>
<polygon fill="black" stroke="black" points="628.46,-141.35 636.28,-134.2 625.71,-134.91 628.46,-141.35"/>
</g>
<!-- backbone_cbam2&#45;&gt;bifpn -->
<g id="edge23" class="edge">
<title>backbone_cbam2&#45;&gt;bifpn</title>
<path fill="none" stroke="black" d="M551.37,-116C573.54,-116 601.99,-116 626.09,-116"/>
<polygon fill="black" stroke="black" points="626.12,-119.5 636.12,-116 626.12,-112.5 626.12,-119.5"/>
</g>
<!-- backbone_cbam3&#45;&gt;bifpn -->
<g id="edge24" class="edge">
<title>backbone_cbam3&#45;&gt;bifpn</title>
<path fill="none" stroke="black" d="M551.69,-68.22C568.77,-73.57 589.2,-80.25 607.32,-87 613.66,-89.36 620.28,-91.97 626.79,-94.63"/>
<polygon fill="black" stroke="black" points="625.64,-97.94 636.22,-98.53 628.32,-91.47 625.64,-97.94"/>
</g>
<!-- p3_out -->
<g id="node10" class="node">
<title>p3_out</title>
<polygon fill="#a5d6a7" stroke="black" points="898.07,-188 812.07,-188 812.07,-152 898.07,-152 898.07,-188"/>
<text text-anchor="middle" x="855.07" y="-173" font-family="Arial" font-size="10.00">P3 Features</text>
<text text-anchor="middle" x="855.07" y="-162" font-family="Arial" font-size="10.00">out_channel=52</text>
</g>
<!-- bifpn&#45;&gt;p3_out -->
<g id="edge25" class="edge">
<title>bifpn&#45;&gt;p3_out</title>
<path fill="none" stroke="black" d="M717.38,-128.12C742.41,-135.79 775.06,-145.79 802.17,-154.1"/>
<polygon fill="black" stroke="black" points="801.3,-157.49 811.88,-157.07 803.35,-150.8 801.3,-157.49"/>
</g>
<!-- p4_out -->
<g id="node11" class="node">
<title>p4_out</title>
<polygon fill="#a5d6a7" stroke="black" points="898.07,-134 812.07,-134 812.07,-98 898.07,-98 898.07,-134"/>
<text text-anchor="middle" x="855.07" y="-119" font-family="Arial" font-size="10.00">P4 Features</text>
<text text-anchor="middle" x="855.07" y="-108" font-family="Arial" font-size="10.00">out_channel=52</text>
</g>
<!-- bifpn&#45;&gt;p4_out -->
<g id="edge26" class="edge">
<title>bifpn&#45;&gt;p4_out</title>
<path fill="none" stroke="black" d="M717.38,-116C742.3,-116 774.78,-116 801.81,-116"/>
<polygon fill="black" stroke="black" points="801.88,-119.5 811.88,-116 801.88,-112.5 801.88,-119.5"/>
</g>
<!-- p5_out -->
<g id="node12" class="node">
<title>p5_out</title>
<polygon fill="#a5d6a7" stroke="black" points="898.07,-80 812.07,-80 812.07,-44 898.07,-44 898.07,-80"/>
<text text-anchor="middle" x="855.07" y="-65" font-family="Arial" font-size="10.00">P5 Features</text>
<text text-anchor="middle" x="855.07" y="-54" font-family="Arial" font-size="10.00">out_channel=52</text>
</g>
<!-- bifpn&#45;&gt;p5_out -->
<g id="edge27" class="edge">
<title>bifpn&#45;&gt;p5_out</title>
<path fill="none" stroke="black" d="M717.38,-103.88C742.41,-96.21 775.06,-86.21 802.17,-77.9"/>
<polygon fill="black" stroke="black" points="803.35,-81.2 811.88,-74.93 801.3,-74.51 803.35,-81.2"/>
</g>
<!-- bifpn_cbam1 -->
<g id="node13" class="node">
<title>bifpn_cbam1</title>
<polygon fill="#f8bbd9" stroke="black" points="1068.83,-212 992.83,-212 992.83,-160 1068.83,-160 1068.83,-212"/>
<text text-anchor="middle" x="1030.83" y="-200" font-family="Arial" font-size="10.00">CBAM</text>
<text text-anchor="middle" x="1030.83" y="-189" font-family="Arial" font-size="10.00">52 ch</text>
<text text-anchor="middle" x="1030.83" y="-178" font-family="Arial" font-size="10.00">P3</text>
<text text-anchor="middle" x="1030.83" y="-167" font-family="Arial" font-size="10.00">2,152 params</text>
</g>
<!-- p3_out&#45;&gt;bifpn_cbam1 -->
<g id="edge28" class="edge">
<title>p3_out&#45;&gt;bifpn_cbam1</title>
<path fill="none" stroke="black" d="M898.13,-173.87C923.58,-176.22 956.09,-179.21 982.44,-181.64"/>
<polygon fill="black" stroke="black" points="982.3,-185.14 992.58,-182.57 982.95,-178.17 982.3,-185.14"/>
</g>
<!-- bifpn_cbam2 -->
<g id="node14" class="node">
<title>bifpn_cbam2</title>
<polygon fill="#f8bbd9" stroke="black" points="1068.83,-142 992.83,-142 992.83,-90 1068.83,-90 1068.83,-142"/>
<text text-anchor="middle" x="1030.83" y="-130" font-family="Arial" font-size="10.00">CBAM</text>
<text text-anchor="middle" x="1030.83" y="-119" font-family="Arial" font-size="10.00">52 ch</text>
<text text-anchor="middle" x="1030.83" y="-108" font-family="Arial" font-size="10.00">P4</text>
<text text-anchor="middle" x="1030.83" y="-97" font-family="Arial" font-size="10.00">2,152 params</text>
</g>
<!-- p4_out&#45;&gt;bifpn_cbam2 -->
<g id="edge29" class="edge">
<title>p4_out&#45;&gt;bifpn_cbam2</title>
<path fill="none" stroke="black" d="M898.13,-116C923.58,-116 956.09,-116 982.44,-116"/>
<polygon fill="black" stroke="black" points="982.58,-119.5 992.58,-116 982.58,-112.5 982.58,-119.5"/>
</g>
<!-- bifpn_cbam3 -->
<g id="node15" class="node">
<title>bifpn_cbam3</title>
<polygon fill="#f8bbd9" stroke="black" points="1068.83,-72 992.83,-72 992.83,-20 1068.83,-20 1068.83,-72"/>
<text text-anchor="middle" x="1030.83" y="-60" font-family="Arial" font-size="10.00">CBAM</text>
<text text-anchor="middle" x="1030.83" y="-49" font-family="Arial" font-size="10.00">52 ch</text>
<text text-anchor="middle" x="1030.83" y="-38" font-family="Arial" font-size="10.00">P5</text>
<text text-anchor="middle" x="1030.83" y="-27" font-family="Arial" font-size="10.00">2,152 params</text>
</g>
<!-- p5_out&#45;&gt;bifpn_cbam3 -->
<g id="edge30" class="edge">
<title>p5_out&#45;&gt;bifpn_cbam3</title>
<path fill="none" stroke="black" d="M898.13,-58.13C923.58,-55.78 956.09,-52.79 982.44,-50.36"/>
<polygon fill="black" stroke="black" points="982.95,-53.83 992.58,-49.43 982.3,-46.86 982.95,-53.83"/>
</g>
<!-- ssh1 -->
<g id="node16" class="node">
<title>ssh1</title>
<polygon fill="#d1c4e9" stroke="black" points="1250.83,-195.5 1169.83,-195.5 1169.83,-154.5 1250.83,-154.5 1250.83,-195.5"/>
<text text-anchor="middle" x="1210.33" y="-183.5" font-family="Arial" font-size="10.00">SSH1</text>
<text text-anchor="middle" x="1210.33" y="-172.5" font-family="Arial" font-size="10.00">64,185 params</text>
<text text-anchor="middle" x="1210.33" y="-161.5" font-family="Arial" font-size="10.00">(13.1%)</text>
</g>
<!-- bifpn_cbam1&#45;&gt;ssh1 -->
<g id="edge31" class="edge">
<title>bifpn_cbam1&#45;&gt;ssh1</title>
<path fill="none" stroke="black" d="M1069.04,-183.69C1095.29,-182.07 1130.76,-179.87 1159.46,-178.09"/>
<polygon fill="black" stroke="black" points="1159.94,-181.57 1169.7,-177.46 1159.5,-174.58 1159.94,-181.57"/>
</g>
<!-- ssh2 -->
<g id="node17" class="node">
<title>ssh2</title>
<polygon fill="#d1c4e9" stroke="black" points="1250.83,-136.5 1169.83,-136.5 1169.83,-95.5 1250.83,-95.5 1250.83,-136.5"/>
<text text-anchor="middle" x="1210.33" y="-124.5" font-family="Arial" font-size="10.00">SSH2</text>
<text text-anchor="middle" x="1210.33" y="-113.5" font-family="Arial" font-size="10.00">64,185 params</text>
<text text-anchor="middle" x="1210.33" y="-102.5" font-family="Arial" font-size="10.00">(13.1%)</text>
</g>
<!-- bifpn_cbam2&#45;&gt;ssh2 -->
<g id="edge32" class="edge">
<title>bifpn_cbam2&#45;&gt;ssh2</title>
<path fill="none" stroke="black" d="M1069.04,-116C1095.29,-116 1130.76,-116 1159.46,-116"/>
<polygon fill="black" stroke="black" points="1159.7,-119.5 1169.7,-116 1159.7,-112.5 1159.7,-119.5"/>
</g>
<!-- ssh3 -->
<g id="node18" class="node">
<title>ssh3</title>
<polygon fill="#d1c4e9" stroke="black" points="1250.83,-77.5 1169.83,-77.5 1169.83,-36.5 1250.83,-36.5 1250.83,-77.5"/>
<text text-anchor="middle" x="1210.33" y="-65.5" font-family="Arial" font-size="10.00">SSH3</text>
<text text-anchor="middle" x="1210.33" y="-54.5" font-family="Arial" font-size="10.00">64,185 params</text>
<text text-anchor="middle" x="1210.33" y="-43.5" font-family="Arial" font-size="10.00">(13.1%)</text>
</g>
<!-- bifpn_cbam3&#45;&gt;ssh3 -->
<g id="edge33" class="edge">
<title>bifpn_cbam3&#45;&gt;ssh3</title>
<path fill="none" stroke="black" d="M1069.04,-48.31C1095.29,-49.93 1130.76,-52.13 1159.46,-53.91"/>
<polygon fill="black" stroke="black" points="1159.5,-57.42 1169.7,-54.54 1159.94,-50.43 1159.5,-57.42"/>
</g>
<!-- cs1 -->
<g id="node19" class="node">
<title>cs1</title>
<polygon fill="#e1bee7" stroke="black" points="1439.83,-188 1382.83,-188 1382.83,-152 1439.83,-152 1439.83,-188"/>
<text text-anchor="middle" x="1411.33" y="-173" font-family="Arial" font-size="10.00">CS1</text>
<text text-anchor="middle" x="1411.33" y="-162" font-family="Arial" font-size="10.00">0 params</text>
</g>
<!-- ssh1&#45;&gt;cs1 -->
<g id="edge34" class="edge">
<title>ssh1&#45;&gt;cs1</title>
<path fill="none" stroke="black" d="M1251.12,-174C1286.48,-173.11 1337.8,-171.82 1372.54,-170.95"/>
<polygon fill="black" stroke="black" points="1372.85,-174.44 1382.75,-170.69 1372.67,-167.45 1372.85,-174.44"/>
</g>
<!-- cs2 -->
<g id="node20" class="node">
<title>cs2</title>
<polygon fill="#e1bee7" stroke="black" points="1439.83,-134 1382.83,-134 1382.83,-98 1439.83,-98 1439.83,-134"/>
<text text-anchor="middle" x="1411.33" y="-119" font-family="Arial" font-size="10.00">CS2</text>
<text text-anchor="middle" x="1411.33" y="-108" font-family="Arial" font-size="10.00">0 params</text>
</g>
<!-- ssh2&#45;&gt;cs2 -->
<g id="edge35" class="edge">
<title>ssh2&#45;&gt;cs2</title>
<path fill="none" stroke="black" d="M1251.12,-116C1286.48,-116 1337.8,-116 1372.54,-116"/>
<polygon fill="black" stroke="black" points="1372.75,-119.5 1382.75,-116 1372.75,-112.5 1372.75,-119.5"/>
</g>
<!-- cs3 -->
<g id="node21" class="node">
<title>cs3</title>
<polygon fill="#e1bee7" stroke="black" points="1439.83,-80 1382.83,-80 1382.83,-44 1439.83,-44 1439.83,-80"/>
<text text-anchor="middle" x="1411.33" y="-65" font-family="Arial" font-size="10.00">CS3</text>
<text text-anchor="middle" x="1411.33" y="-54" font-family="Arial" font-size="10.00">0 params</text>
</g>
<!-- ssh3&#45;&gt;cs3 -->
<g id="edge36" class="edge">
<title>ssh3&#45;&gt;cs3</title>
<path fill="none" stroke="black" d="M1251.12,-58C1286.48,-58.89 1337.8,-60.18 1372.54,-61.05"/>
<polygon fill="black" stroke="black" points="1372.67,-64.55 1382.75,-61.31 1372.85,-57.56 1372.67,-64.55"/>
</g>
<!-- class_head -->
<g id="node22" class="node">
<title>class_head</title>
<polygon fill="#ffecb3" stroke="black" points="1640.33,-116.5 1564.33,-116.5 1564.33,-75.5 1640.33,-75.5 1640.33,-116.5"/>
<text text-anchor="middle" x="1602.33" y="-104.5" font-family="Arial" font-size="10.00">Classification</text>
<text text-anchor="middle" x="1602.33" y="-93.5" font-family="Arial" font-size="10.00">684 params</text>
<text text-anchor="middle" x="1602.33" y="-82.5" font-family="Arial" font-size="10.00">(0.1%)</text>
</g>
<!-- cs1&#45;&gt;class_head -->
<g id="edge37" class="edge">
<title>cs1&#45;&gt;class_head</title>
<path fill="none" stroke="black" d="M1440,-165.98C1461.3,-162.12 1491.03,-155.06 1514.83,-143 1525.54,-137.57 1525.62,-132.33 1535.83,-126 1541.75,-122.32 1548.21,-118.83 1554.68,-115.6"/>
<polygon fill="black" stroke="black" points="1556.6,-118.56 1564.11,-111.09 1553.57,-112.25 1556.6,-118.56"/>
</g>
<!-- bbox_head -->
<g id="node23" class="node">
<title>bbox_head</title>
<polygon fill="#ffecb3" stroke="black" points="1648.83,-57.5 1555.83,-57.5 1555.83,-16.5 1648.83,-16.5 1648.83,-57.5"/>
<text text-anchor="middle" x="1602.33" y="-45.5" font-family="Arial" font-size="10.00">BBox Regression</text>
<text text-anchor="middle" x="1602.33" y="-34.5" font-family="Arial" font-size="10.00">1,368 params</text>
<text text-anchor="middle" x="1602.33" y="-23.5" font-family="Arial" font-size="10.00">(0.3%)</text>
</g>
<!-- cs1&#45;&gt;bbox_head -->
<g id="edge38" class="edge">
<title>cs1&#45;&gt;bbox_head</title>
<path fill="none" stroke="black" d="M1439.94,-169.96C1462.95,-168.41 1495.06,-162.53 1514.83,-143 1539.75,-118.37 1513.11,-93.68 1535.83,-67 1539.05,-63.21 1542.86,-59.88 1546.98,-56.95"/>
<polygon fill="black" stroke="black" points="1549.16,-59.72 1555.82,-51.48 1545.48,-53.76 1549.16,-59.72"/>
</g>
<!-- landmark_head -->
<g id="node24" class="node">
<title>landmark_head</title>
<polygon fill="#ffecb3" stroke="black" points="1640.33,-175.5 1564.33,-175.5 1564.33,-134.5 1640.33,-134.5 1640.33,-175.5"/>
<text text-anchor="middle" x="1602.33" y="-163.5" font-family="Arial" font-size="10.00">Landmarks</text>
<text text-anchor="middle" x="1602.33" y="-152.5" font-family="Arial" font-size="10.00">3,420 params</text>
<text text-anchor="middle" x="1602.33" y="-141.5" font-family="Arial" font-size="10.00">(0.7%)</text>
</g>
<!-- cs1&#45;&gt;landmark_head -->
<g id="edge39" class="edge">
<title>cs1&#45;&gt;landmark_head</title>
<path fill="none" stroke="black" d="M1439.92,-184.64C1462.94,-194.99 1496.59,-205.74 1525.83,-198 1539.19,-194.46 1552.66,-187.95 1564.45,-181.04"/>
<polygon fill="black" stroke="black" points="1566.42,-183.94 1573.11,-175.72 1562.75,-177.97 1566.42,-183.94"/>
</g>
<!-- cs2&#45;&gt;class_head -->
<g id="edge40" class="edge">
<title>cs2&#45;&gt;class_head</title>
<path fill="none" stroke="black" d="M1440.21,-113.05C1470.12,-109.88 1518.14,-104.8 1553.98,-101.01"/>
<polygon fill="black" stroke="black" points="1554.64,-104.46 1564.21,-99.93 1553.9,-97.5 1554.64,-104.46"/>
</g>
<!-- cs2&#45;&gt;bbox_head -->
<g id="edge41" class="edge">
<title>cs2&#45;&gt;bbox_head</title>
<path fill="none" stroke="black" d="M1440.02,-112.89C1461.6,-109.52 1491.69,-102.65 1514.83,-89 1526.47,-82.13 1524.82,-74.84 1535.83,-67 1539.26,-64.55 1542.93,-62.23 1546.72,-60.03"/>
<polygon fill="black" stroke="black" points="1548.56,-63.02 1555.68,-55.17 1545.22,-56.86 1548.56,-63.02"/>
</g>
<!-- cs2&#45;&gt;landmark_head -->
<g id="edge42" class="edge">
<title>cs2&#45;&gt;landmark_head</title>
<path fill="none" stroke="black" d="M1440.22,-121.71C1461.11,-126.38 1490.2,-133.71 1514.83,-143 1519.48,-144.75 1520.05,-146.64 1524.83,-148 1534.16,-150.66 1544.36,-152.37 1554.19,-153.46"/>
<polygon fill="black" stroke="black" points="1553.96,-156.95 1564.24,-154.38 1554.6,-149.98 1553.96,-156.95"/>
</g>
<!-- cs3&#45;&gt;class_head -->
<g id="edge43" class="edge">
<title>cs3&#45;&gt;class_head</title>
<path fill="none" stroke="black" d="M1440.21,-67.02C1470.12,-72.4 1518.14,-81.03 1553.98,-87.48"/>
<polygon fill="black" stroke="black" points="1553.75,-91 1564.21,-89.32 1554.99,-84.11 1553.75,-91"/>
</g>
<!-- cs3&#45;&gt;bbox_head -->
<g id="edge44" class="edge">
<title>cs3&#45;&gt;bbox_head</title>
<path fill="none" stroke="black" d="M1440.05,-46.78C1462.59,-36 1495.52,-23.8 1525.83,-26 1532.16,-26.46 1538.76,-27.13 1545.31,-27.92"/>
<polygon fill="black" stroke="black" points="1545.16,-31.43 1555.53,-29.24 1546.06,-24.49 1545.16,-31.43"/>
</g>
<!-- cs3&#45;&gt;landmark_head -->
<g id="edge45" class="edge">
<title>cs3&#45;&gt;landmark_head</title>
<path fill="none" stroke="black" d="M1440.14,-63.49C1462.36,-65.96 1493.25,-72.39 1514.83,-89 1529.81,-100.53 1521.81,-113.31 1535.83,-126 1541.4,-131.05 1548,-135.33 1554.83,-138.93"/>
<polygon fill="black" stroke="black" points="1553.68,-142.25 1564.21,-143.41 1556.7,-135.94 1553.68,-142.25"/>
</g>
<!-- output -->
<g id="node25" class="node">
<title>output</title>
<polygon fill="#ffcdd2" stroke="#f44336" points="1851.99,-114 1768.99,-114 1768.99,-78 1851.99,-78 1851.99,-114"/>
<text text-anchor="middle" x="1810.49" y="-99" font-family="Arial" font-size="10.00">Face Detection</text>
<text text-anchor="middle" x="1810.49" y="-88" font-family="Arial" font-size="10.00">Results</text>
</g>
<!-- class_head&#45;&gt;output -->
<g id="edge46" class="edge">
<title>class_head&#45;&gt;output</title>
<path fill="none" stroke="black" d="M1640.66,-96C1673.61,-96 1721.94,-96 1758.46,-96"/>
<polygon fill="black" stroke="black" points="1758.9,-99.5 1768.9,-96 1758.9,-92.5 1758.9,-99.5"/>
</g>
<!-- bbox_head&#45;&gt;output -->
<g id="edge47" class="edge">
<title>bbox_head&#45;&gt;output</title>
<path fill="none" stroke="black" d="M1649.08,-50.09C1681.69,-59.43 1725.51,-71.97 1759.12,-81.58"/>
<polygon fill="black" stroke="black" points="1758.17,-84.95 1768.75,-84.34 1760.1,-78.22 1758.17,-84.95"/>
</g>
<!-- landmark_head&#45;&gt;output -->
<g id="edge48" class="edge">
<title>landmark_head&#45;&gt;output</title>
<path fill="none" stroke="black" d="M1640.66,-144.32C1673.75,-134.85 1722.36,-120.93 1758.93,-110.47"/>
<polygon fill="black" stroke="black" points="1760.25,-113.73 1768.9,-107.61 1758.33,-107 1760.25,-113.73"/>
</g>
<!-- detail_input -->
<g id="node26" class="node">
<title>detail_input</title>
<ellipse fill="#e8eaf6" stroke="black" cx="91.66" cy="-312" rx="75.82" ry="21.43"/>
<text text-anchor="middle" x="91.66" y="-315" font-family="Arial" font-size="10.00">Input Feature</text>
<text text-anchor="middle" x="91.66" y="-304" font-family="Arial" font-size="10.00">X ∈ ℝ^(B×C×H×W)</text>
</g>
<!-- cam_gap -->
<g id="node27" class="node">
<title>cam_gap</title>
<polygon fill="#f8bbd9" stroke="black" points="278.82,-303 224.82,-303 224.82,-267 278.82,-267 278.82,-303"/>
<text text-anchor="middle" x="251.82" y="-282.5" font-family="Arial" font-size="10.00">GAP</text>
</g>
<!-- detail_input&#45;&gt;cam_gap -->
<g id="edge1" class="edge">
<title>detail_input&#45;&gt;cam_gap</title>
<path fill="none" stroke="black" d="M156.99,-301.02C176.54,-297.68 197.33,-294.13 214.36,-291.22"/>
<polygon fill="black" stroke="black" points="215.17,-294.64 224.44,-289.5 213.99,-287.74 215.17,-294.64"/>
</g>
<!-- cam_gmp -->
<g id="node28" class="node">
<title>cam_gmp</title>
<polygon fill="#f8bbd9" stroke="black" points="278.82,-357 224.82,-357 224.82,-321 278.82,-321 278.82,-357"/>
<text text-anchor="middle" x="251.82" y="-336.5" font-family="Arial" font-size="10.00">GMP</text>
</g>
<!-- detail_input&#45;&gt;cam_gmp -->
<g id="edge2" class="edge">
<title>detail_input&#45;&gt;cam_gmp</title>
<path fill="none" stroke="black" d="M156.99,-322.98C176.54,-326.32 197.33,-329.87 214.36,-332.78"/>
<polygon fill="black" stroke="black" points="213.99,-336.26 224.44,-334.5 215.17,-329.36 213.99,-336.26"/>
</g>
<!-- cam_fc1 -->
<g id="node29" class="node">
<title>cam_fc1</title>
<polygon fill="#f8bbd9" stroke="black" points="390.32,-315 336.32,-315 336.32,-279 390.32,-279 390.32,-315"/>
<text text-anchor="middle" x="363.32" y="-300" font-family="Arial" font-size="10.00">FC</text>
<text text-anchor="middle" x="363.32" y="-289" font-family="Arial" font-size="10.00">C/16</text>
</g>
<!-- cam_gap&#45;&gt;cam_fc1 -->
<g id="edge3" class="edge">
<title>cam_gap&#45;&gt;cam_fc1</title>
<path fill="none" stroke="black" d="M279.05,-287.87C293.13,-289.42 310.71,-291.34 326.09,-293.03"/>
<polygon fill="black" stroke="black" points="325.99,-296.54 336.31,-294.15 326.75,-289.58 325.99,-296.54"/>
</g>
<!-- cam_gmp&#45;&gt;cam_fc1 -->
<g id="edge4" class="edge">
<title>cam_gmp&#45;&gt;cam_fc1</title>
<path fill="none" stroke="black" d="M279.05,-328.94C293.27,-323.49 311.05,-316.66 326.53,-310.73"/>
<polygon fill="black" stroke="black" points="328.22,-313.83 336.31,-306.98 325.72,-307.29 328.22,-313.83"/>
</g>
<!-- cam_fc2 -->
<g id="node30" class="node">
<title>cam_fc2</title>
<polygon fill="#f8bbd9" stroke="black" points="540.32,-315 486.32,-315 486.32,-279 540.32,-279 540.32,-315"/>
<text text-anchor="middle" x="513.32" y="-300" font-family="Arial" font-size="10.00">FC</text>
<text text-anchor="middle" x="513.32" y="-289" font-family="Arial" font-size="10.00">C</text>
</g>
<!-- cam_fc1&#45;&gt;cam_fc2 -->
<g id="edge5" class="edge">
<title>cam_fc1&#45;&gt;cam_fc2</title>
<path fill="none" stroke="black" d="M390.44,-297C414.18,-297 449.43,-297 475.92,-297"/>
<polygon fill="black" stroke="black" points="475.97,-300.5 485.97,-297 475.97,-293.5 475.97,-300.5"/>
</g>
<!-- cam_sigmoid -->
<g id="node31" class="node">
<title>cam_sigmoid</title>
<polygon fill="#f8bbd9" stroke="black" points="703.82,-315 649.82,-315 649.82,-279 703.82,-279 703.82,-315"/>
<text text-anchor="middle" x="676.82" y="-294.5" font-family="Arial" font-size="10.00">Sigmoid</text>
</g>
<!-- cam_fc2&#45;&gt;cam_sigmoid -->
<g id="edge6" class="edge">
<title>cam_fc2&#45;&gt;cam_sigmoid</title>
<path fill="none" stroke="black" d="M540.63,-297C567.57,-297 609.65,-297 639.71,-297"/>
<polygon fill="black" stroke="black" points="639.79,-300.5 649.79,-297 639.79,-293.5 639.79,-300.5"/>
</g>
<!-- cam_intermediate -->
<g id="node32" class="node">
<title>cam_intermediate</title>
<ellipse fill="#fff9c4" stroke="black" cx="855.07" cy="-297" rx="64.51" ry="18"/>
<text text-anchor="middle" x="855.07" y="-294.5" font-family="Arial" font-size="10.00">F₁ ∈ ℝ^(B×C×H×W)</text>
</g>
<!-- cam_sigmoid&#45;&gt;cam_intermediate -->
<g id="edge7" class="edge">
<title>cam_sigmoid&#45;&gt;cam_intermediate</title>
<path fill="none" stroke="black" d="M703.83,-297C723.95,-297 752.87,-297 779.97,-297"/>
<polygon fill="black" stroke="black" points="780.24,-300.5 790.24,-297 780.24,-293.5 780.24,-300.5"/>
<text text-anchor="middle" x="753.82" y="-309.8" font-family="Arial" font-size="9.00">Channel</text>
<text text-anchor="middle" x="753.82" y="-299.8" font-family="Arial" font-size="9.00">Attention</text>
</g>
<!-- sam_avgpool -->
<g id="node33" class="node">
<title>sam_avgpool</title>
<polygon fill="#bbdefb" stroke="black" points="1060.33,-303 1001.33,-303 1001.33,-267 1060.33,-267 1060.33,-303"/>
<text text-anchor="middle" x="1030.83" y="-288" font-family="Arial" font-size="10.00">AvgPool</text>
<text text-anchor="middle" x="1030.83" y="-277" font-family="Arial" font-size="10.00">(Channel)</text>
</g>
<!-- cam_intermediate&#45;&gt;sam_avgpool -->
<g id="edge8" class="edge">
<title>cam_intermediate&#45;&gt;sam_avgpool</title>
<path fill="none" stroke="black" d="M918.31,-292.7C942.58,-291.03 969.64,-289.16 991.03,-287.68"/>
<polygon fill="black" stroke="black" points="991.3,-291.17 1001.04,-286.99 990.82,-284.19 991.3,-291.17"/>
</g>
<!-- sam_maxpool -->
<g id="node34" class="node">
<title>sam_maxpool</title>
<polygon fill="#bbdefb" stroke="black" points="1060.33,-357 1001.33,-357 1001.33,-321 1060.33,-321 1060.33,-357"/>
<text text-anchor="middle" x="1030.83" y="-342" font-family="Arial" font-size="10.00">MaxPool</text>
<text text-anchor="middle" x="1030.83" y="-331" font-family="Arial" font-size="10.00">(Channel)</text>
</g>
<!-- cam_intermediate&#45;&gt;sam_maxpool -->
<g id="edge9" class="edge">
<title>cam_intermediate&#45;&gt;sam_maxpool</title>
<path fill="none" stroke="black" d="M904.47,-308.7C931.95,-315.34 965.87,-323.54 991.49,-329.73"/>
<polygon fill="black" stroke="black" points="990.68,-333.14 1001.22,-332.09 992.33,-326.33 990.68,-333.14"/>
</g>
<!-- sam_concat -->
<g id="node35" class="node">
<title>sam_concat</title>
<polygon fill="#bbdefb" stroke="black" points="1237.33,-318 1183.33,-318 1183.33,-282 1237.33,-282 1237.33,-318"/>
<text text-anchor="middle" x="1210.33" y="-297.5" font-family="Arial" font-size="10.00">Concat</text>
</g>
<!-- sam_avgpool&#45;&gt;sam_concat -->
<g id="edge10" class="edge">
<title>sam_avgpool&#45;&gt;sam_concat</title>
<path fill="none" stroke="black" d="M1060.35,-287.41C1090.94,-290 1139.62,-294.11 1172.95,-296.93"/>
<polygon fill="black" stroke="black" points="1172.93,-300.44 1183.19,-297.79 1173.52,-293.46 1172.93,-300.44"/>
</g>
<!-- sam_maxpool&#45;&gt;sam_concat -->
<g id="edge11" class="edge">
<title>sam_maxpool&#45;&gt;sam_concat</title>
<path fill="none" stroke="black" d="M1060.35,-332.73C1091.07,-325.98 1140.04,-315.22 1173.38,-307.9"/>
<polygon fill="black" stroke="black" points="1174.18,-311.31 1183.19,-305.74 1172.67,-304.47 1174.18,-311.31"/>
</g>
<!-- sam_conv7x7 -->
<g id="node36" class="node">
<title>sam_conv7x7</title>
<polygon fill="#bbdefb" stroke="black" points="1438.33,-318 1384.33,-318 1384.33,-282 1438.33,-282 1438.33,-318"/>
<text text-anchor="middle" x="1411.33" y="-303" font-family="Arial" font-size="10.00">Conv2D</text>
<text text-anchor="middle" x="1411.33" y="-292" font-family="Arial" font-size="10.00">7×7</text>
</g>
<!-- sam_concat&#45;&gt;sam_conv7x7 -->
<g id="edge12" class="edge">
<title>sam_concat&#45;&gt;sam_conv7x7</title>
<path fill="none" stroke="black" d="M1237.34,-300C1272.35,-300 1334.79,-300 1374.3,-300"/>
<polygon fill="black" stroke="black" points="1374.3,-303.5 1384.3,-300 1374.3,-296.5 1374.3,-303.5"/>
</g>
<!-- sam_sigmoid -->
<g id="node37" class="node">
<title>sam_sigmoid</title>
<polygon fill="#bbdefb" stroke="black" points="1629.33,-318 1575.33,-318 1575.33,-282 1629.33,-282 1629.33,-318"/>
<text text-anchor="middle" x="1602.33" y="-297.5" font-family="Arial" font-size="10.00">Sigmoid</text>
</g>
<!-- sam_conv7x7&#45;&gt;sam_sigmoid -->
<g id="edge13" class="edge">
<title>sam_conv7x7&#45;&gt;sam_sigmoid</title>
<path fill="none" stroke="black" d="M1438.61,-300C1471.47,-300 1527.91,-300 1564.92,-300"/>
<polygon fill="black" stroke="black" points="1565.27,-303.5 1575.27,-300 1565.27,-296.5 1565.27,-303.5"/>
</g>
<!-- detail_output -->
<g id="node38" class="node">
<title>detail_output</title>
<ellipse fill="#e8eaf6" stroke="black" cx="1810.49" cy="-300" rx="75.82" ry="21.43"/>
<text text-anchor="middle" x="1810.49" y="-303" font-family="Arial" font-size="10.00">Output Feature</text>
<text text-anchor="middle" x="1810.49" y="-292" font-family="Arial" font-size="10.00">Y ∈ ℝ^(B×C×H×W)</text>
</g>
<!-- sam_sigmoid&#45;&gt;detail_output -->
<g id="edge14" class="edge">
<title>sam_sigmoid&#45;&gt;detail_output</title>
<path fill="none" stroke="black" d="M1629.44,-300C1653.4,-300 1690.26,-300 1724.4,-300"/>
<polygon fill="black" stroke="black" points="1724.41,-303.5 1734.41,-300 1724.41,-296.5 1724.41,-303.5"/>
<text text-anchor="middle" x="1698.33" y="-312.8" font-family="Arial" font-size="9.00">Spatial</text>
<text text-anchor="middle" x="1698.33" y="-302.8" font-family="Arial" font-size="9.00">Attention</text>
</g>
</g>
</svg>
