<?xml version="1.0" encoding="UTF-8" standalone="no"?>
<!DOCTYPE svg PUBLIC "-//W3C//DTD SVG 1.1//EN"
 "http://www.w3.org/Graphics/SVG/1.1/DTD/svg11.dtd">
<!-- Generated by graphviz version 2.43.0 (0)
 -->
<!-- Title: ECAInnovation Pages: 1 -->
<svg width="1730pt" height="377pt"
 viewBox="0.00 0.00 1730.00 377.00" xmlns="http://www.w3.org/2000/svg" xmlns:xlink="http://www.w3.org/1999/xlink">
<g id="graph0" class="graph" transform="scale(1 1) rotate(0) translate(4 373)">
<title>ECAInnovation</title>
<polygon fill="white" stroke="transparent" points="-4,4 -4,-373 1726,-373 1726,4 -4,4"/>
<text text-anchor="middle" x="861" y="-353.8" font-family="Arial Bold" font-size="14.00">FeatherFace ECA&#45;Net Innovation Architecture (475,757 parameters)</text>
<g id="clust1" class="cluster">
<title>cluster_backbone</title>
<polygon fill="#fff3e0" stroke="#f57c00" points="232,-16 232,-199 433,-199 433,-16 232,-16"/>
<text text-anchor="middle" x="332.5" y="-183.8" font-family="Arial Bold" font-size="14.00">MobileNetV1&#45;0.25 Backbone</text>
</g>
<g id="clust2" class="cluster">
<title>cluster_fpn</title>
<polygon fill="#e8f5e8" stroke="#4caf50" points="453,-16 453,-199 672,-199 672,-16 453,-16"/>
<text text-anchor="middle" x="562.5" y="-183.8" font-family="Arial Bold" font-size="14.00">BiFPN Feature Pyramid</text>
</g>
<g id="clust3" class="cluster">
<title>cluster_eca</title>
<polygon fill="#e3f2fd" stroke="#2196f3" points="692,-62 692,-153 1057,-153 1057,-62 692,-62"/>
<text text-anchor="middle" x="874.5" y="-137.8" font-family="Arial Bold" font-size="14.00">ECA&#45;Net Attention Innovation</text>
</g>
<g id="clust4" class="cluster">
<title>cluster_ssh</title>
<polygon fill="#ede7f6" stroke="#673ab7" points="1077,-8 1077,-207 1231,-207 1231,-8 1077,-8"/>
<text text-anchor="middle" x="1154" y="-191.8" font-family="Arial Bold" font-size="14.00">SSH Detection Heads</text>
</g>
<g id="clust5" class="cluster">
<title>cluster_shuffle</title>
<polygon fill="#f3e5f5" stroke="#9c27b0" points="1251,-16 1251,-199 1457,-199 1457,-16 1251,-16"/>
<text text-anchor="middle" x="1354" y="-183.8" font-family="Arial Bold" font-size="14.00">Channel Shuffle Optimization</text>
</g>
<g id="clust6" class="cluster">
<title>cluster_outputs</title>
<polygon fill="#fff8e1" stroke="#ff9800" points="1477,-8 1477,-207 1611,-207 1611,-8 1477,-8"/>
<text text-anchor="middle" x="1544" y="-191.8" font-family="Arial Bold" font-size="14.00">Detection Outputs</text>
</g>
<g id="clust7" class="cluster">
<title>cluster_innovation</title>
<polygon fill="#e8f5e8" stroke="#4caf50" points="8,-124 8,-227 212,-227 212,-124 8,-124"/>
<text text-anchor="middle" x="110" y="-211.8" font-family="Arial Bold" font-size="14.00">Innovation Highlights</text>
</g>
<g id="clust8" class="cluster">
<title>cluster_details</title>
<polygon fill="#f5f5f5" stroke="#757575" points="8.5,-235 8.5,-338 211.5,-338 211.5,-235 8.5,-235"/>
<text text-anchor="middle" x="110" y="-322.8" font-family="Arial Bold" font-size="14.00">Scientific Foundation</text>
</g>
<!-- input -->
<g id="node1" class="node">
<title>input</title>
<polygon fill="#e8f4fd" stroke="#1e88e5" points="144,-114 76,-114 76,-78 144,-78 144,-114"/>
<text text-anchor="middle" x="110" y="-99" font-family="Arial" font-size="10.00">Input Image</text>
<text text-anchor="middle" x="110" y="-88" font-family="Arial" font-size="10.00">640×640×3</text>
</g>
<!-- mobilenet -->
<g id="node2" class="node">
<title>mobilenet</title>
<polygon fill="#ffe0b2" stroke="black" points="335,-116.5 240,-116.5 240,-75.5 335,-75.5 335,-116.5"/>
<text text-anchor="middle" x="287.5" y="-104.5" font-family="Arial" font-size="10.00">MobileNetV1&#45;0.25</text>
<text text-anchor="middle" x="287.5" y="-93.5" font-family="Arial" font-size="10.00">213,072 params</text>
<text text-anchor="middle" x="287.5" y="-82.5" font-family="Arial" font-size="10.00">(44.8%)</text>
</g>
<!-- input&#45;&gt;mobilenet -->
<g id="edge1" class="edge">
<title>input&#45;&gt;mobilenet</title>
<path fill="none" stroke="black" d="M144.01,-96C168.06,-96 201.25,-96 229.55,-96"/>
<polygon fill="black" stroke="black" points="229.73,-99.5 239.73,-96 229.73,-92.5 229.73,-99.5"/>
</g>
<!-- stage1 -->
<g id="node3" class="node">
<title>stage1</title>
<polygon fill="#ffcc80" stroke="black" points="425,-60 371,-60 371,-24 425,-24 425,-60"/>
<text text-anchor="middle" x="398" y="-45" font-family="Arial" font-size="10.00">Stage 1</text>
<text text-anchor="middle" x="398" y="-34" font-family="Arial" font-size="10.00">P3/8</text>
</g>
<!-- mobilenet&#45;&gt;stage1 -->
<g id="edge2" class="edge">
<title>mobilenet&#45;&gt;stage1</title>
<path fill="none" stroke="black" d="M329.83,-75.43C340.37,-70.18 351.61,-64.59 361.82,-59.51"/>
<polygon fill="black" stroke="black" points="363.46,-62.6 370.85,-55.01 360.34,-56.34 363.46,-62.6"/>
</g>
<!-- stage2 -->
<g id="node4" class="node">
<title>stage2</title>
<polygon fill="#ffcc80" stroke="black" points="425,-114 371,-114 371,-78 425,-78 425,-114"/>
<text text-anchor="middle" x="398" y="-99" font-family="Arial" font-size="10.00">Stage 2</text>
<text text-anchor="middle" x="398" y="-88" font-family="Arial" font-size="10.00">P4/16</text>
</g>
<!-- mobilenet&#45;&gt;stage2 -->
<g id="edge3" class="edge">
<title>mobilenet&#45;&gt;stage2</title>
<path fill="none" stroke="black" d="M335.14,-96C343.61,-96 352.33,-96 360.45,-96"/>
<polygon fill="black" stroke="black" points="360.72,-99.5 370.72,-96 360.72,-92.5 360.72,-99.5"/>
</g>
<!-- stage3 -->
<g id="node5" class="node">
<title>stage3</title>
<polygon fill="#ffcc80" stroke="black" points="425,-168 371,-168 371,-132 425,-132 425,-168"/>
<text text-anchor="middle" x="398" y="-153" font-family="Arial" font-size="10.00">Stage 3</text>
<text text-anchor="middle" x="398" y="-142" font-family="Arial" font-size="10.00">P5/32</text>
</g>
<!-- mobilenet&#45;&gt;stage3 -->
<g id="edge4" class="edge">
<title>mobilenet&#45;&gt;stage3</title>
<path fill="none" stroke="black" d="M329.83,-116.57C340.37,-121.82 351.61,-127.41 361.82,-132.49"/>
<polygon fill="black" stroke="black" points="360.34,-135.66 370.85,-136.99 363.46,-129.4 360.34,-135.66"/>
</g>
<!-- bifpn -->
<g id="node6" class="node">
<title>bifpn</title>
<polygon fill="#c8e6c8" stroke="black" points="542,-116.5 461,-116.5 461,-75.5 542,-75.5 542,-116.5"/>
<text text-anchor="middle" x="501.5" y="-104.5" font-family="Arial" font-size="10.00">BiFPN</text>
<text text-anchor="middle" x="501.5" y="-93.5" font-family="Arial" font-size="10.00">77,916 params</text>
<text text-anchor="middle" x="501.5" y="-82.5" font-family="Arial" font-size="10.00">(16.4%)</text>
</g>
<!-- stage1&#45;&gt;bifpn -->
<g id="edge5" class="edge">
<title>stage1&#45;&gt;bifpn</title>
<path fill="none" stroke="black" d="M425.14,-55.91C433.6,-60.41 443.26,-65.55 452.77,-70.61"/>
<polygon fill="black" stroke="black" points="451.34,-73.81 461.81,-75.42 454.63,-67.63 451.34,-73.81"/>
</g>
<!-- stage2&#45;&gt;bifpn -->
<g id="edge6" class="edge">
<title>stage2&#45;&gt;bifpn</title>
<path fill="none" stroke="black" d="M425.14,-96C432.91,-96 441.69,-96 450.45,-96"/>
<polygon fill="black" stroke="black" points="450.65,-99.5 460.65,-96 450.65,-92.5 450.65,-99.5"/>
</g>
<!-- stage3&#45;&gt;bifpn -->
<g id="edge7" class="edge">
<title>stage3&#45;&gt;bifpn</title>
<path fill="none" stroke="black" d="M425.14,-136.09C433.6,-131.59 443.26,-126.45 452.77,-121.39"/>
<polygon fill="black" stroke="black" points="454.63,-124.37 461.81,-116.58 451.34,-118.19 454.63,-124.37"/>
</g>
<!-- p3_out -->
<g id="node7" class="node">
<title>p3_out</title>
<polygon fill="#a5d6a7" stroke="black" points="664,-60 578,-60 578,-24 664,-24 664,-60"/>
<text text-anchor="middle" x="621" y="-45" font-family="Arial" font-size="10.00">P3 Features</text>
<text text-anchor="middle" x="621" y="-34" font-family="Arial" font-size="10.00">out_channel=52</text>
</g>
<!-- bifpn&#45;&gt;p3_out -->
<g id="edge8" class="edge">
<title>bifpn&#45;&gt;p3_out</title>
<path fill="none" stroke="black" d="M542.28,-77.72C551.66,-73.41 561.77,-68.76 571.49,-64.29"/>
<polygon fill="black" stroke="black" points="573.03,-67.44 580.66,-60.08 570.11,-61.08 573.03,-67.44"/>
</g>
<!-- p4_out -->
<g id="node8" class="node">
<title>p4_out</title>
<polygon fill="#a5d6a7" stroke="black" points="664,-114 578,-114 578,-78 664,-78 664,-114"/>
<text text-anchor="middle" x="621" y="-99" font-family="Arial" font-size="10.00">P4 Features</text>
<text text-anchor="middle" x="621" y="-88" font-family="Arial" font-size="10.00">out_channel=52</text>
</g>
<!-- bifpn&#45;&gt;p4_out -->
<g id="edge9" class="edge">
<title>bifpn&#45;&gt;p4_out</title>
<path fill="none" stroke="black" d="M542.28,-96C550.42,-96 559.11,-96 567.61,-96"/>
<polygon fill="black" stroke="black" points="567.85,-99.5 577.85,-96 567.85,-92.5 567.85,-99.5"/>
</g>
<!-- p5_out -->
<g id="node9" class="node">
<title>p5_out</title>
<polygon fill="#a5d6a7" stroke="black" points="664,-168 578,-168 578,-132 664,-132 664,-168"/>
<text text-anchor="middle" x="621" y="-153" font-family="Arial" font-size="10.00">P5 Features</text>
<text text-anchor="middle" x="621" y="-142" font-family="Arial" font-size="10.00">out_channel=52</text>
</g>
<!-- bifpn&#45;&gt;p5_out -->
<g id="edge10" class="edge">
<title>bifpn&#45;&gt;p5_out</title>
<path fill="none" stroke="black" d="M542.28,-114.28C551.66,-118.59 561.77,-123.24 571.49,-127.71"/>
<polygon fill="black" stroke="black" points="570.11,-130.92 580.66,-131.92 573.03,-124.56 570.11,-130.92"/>
</g>
<!-- eca_attention -->
<g id="node10" class="node">
<title>eca_attention</title>
<polygon fill="#bbdefb" stroke="black" points="798,-116.5 700,-116.5 700,-75.5 798,-75.5 798,-116.5"/>
<text text-anchor="middle" x="749" y="-104.5" font-family="Arial" font-size="10.00">ECA&#45;Net Attention</text>
<text text-anchor="middle" x="749" y="-93.5" font-family="Arial" font-size="10.00">Efficient Channel</text>
<text text-anchor="middle" x="749" y="-82.5" font-family="Arial" font-size="10.00">O(C) complexity</text>
</g>
<!-- p3_out&#45;&gt;eca_attention -->
<g id="edge11" class="edge">
<title>p3_out&#45;&gt;eca_attention</title>
<path fill="none" stroke="black" d="M664.31,-60.13C672.71,-63.73 681.66,-67.57 690.47,-71.34"/>
<polygon fill="black" stroke="black" points="689.37,-74.68 699.94,-75.4 692.13,-68.25 689.37,-74.68"/>
</g>
<!-- p4_out&#45;&gt;eca_attention -->
<g id="edge12" class="edge">
<title>p4_out&#45;&gt;eca_attention</title>
<path fill="none" stroke="black" d="M664.31,-96C672.53,-96 681.28,-96 689.91,-96"/>
<polygon fill="black" stroke="black" points="689.94,-99.5 699.94,-96 689.94,-92.5 689.94,-99.5"/>
</g>
<!-- p5_out&#45;&gt;eca_attention -->
<g id="edge13" class="edge">
<title>p5_out&#45;&gt;eca_attention</title>
<path fill="none" stroke="black" d="M664.31,-131.87C672.71,-128.27 681.66,-124.43 690.47,-120.66"/>
<polygon fill="black" stroke="black" points="692.13,-123.75 699.94,-116.6 689.37,-117.32 692.13,-123.75"/>
</g>
<!-- eca_module -->
<g id="node11" class="node">
<title>eca_module</title>
<polygon fill="#90caf9" stroke="black" points="931,-122 834,-122 834,-70 931,-70 931,-122"/>
<text text-anchor="middle" x="882.5" y="-110" font-family="Arial" font-size="10.00">ECA Module</text>
<text text-anchor="middle" x="882.5" y="-99" font-family="Arial" font-size="10.00">Adaptive Kernel</text>
<text text-anchor="middle" x="882.5" y="-88" font-family="Arial" font-size="10.00">No Dimensionality</text>
<text text-anchor="middle" x="882.5" y="-77" font-family="Arial" font-size="10.00">Reduction</text>
</g>
<!-- eca_attention&#45;&gt;eca_module -->
<g id="edge14" class="edge">
<title>eca_attention&#45;&gt;eca_module</title>
<path fill="none" stroke="black" d="M798.22,-96C806.45,-96 815.08,-96 823.54,-96"/>
<polygon fill="black" stroke="black" points="823.73,-99.5 833.73,-96 823.73,-92.5 823.73,-99.5"/>
</g>
<!-- local_conv -->
<g id="node12" class="node">
<title>local_conv</title>
<polygon fill="#64b5f6" stroke="black" points="1049,-114 967,-114 967,-78 1049,-78 1049,-114"/>
<text text-anchor="middle" x="1008" y="-99" font-family="Arial" font-size="10.00">Local 1D Conv</text>
<text text-anchor="middle" x="1008" y="-88" font-family="Arial" font-size="10.00">k = f(C)</text>
</g>
<!-- eca_module&#45;&gt;local_conv -->
<g id="edge15" class="edge">
<title>eca_module&#45;&gt;local_conv</title>
<path fill="none" stroke="black" d="M931.25,-96C939.64,-96 948.41,-96 956.87,-96"/>
<polygon fill="black" stroke="black" points="956.99,-99.5 966.99,-96 956.99,-92.5 956.99,-99.5"/>
</g>
<!-- ssh1 -->
<g id="node13" class="node">
<title>ssh1</title>
<polygon fill="#d1c4e9" stroke="black" points="1194,-175.5 1113,-175.5 1113,-134.5 1194,-134.5 1194,-175.5"/>
<text text-anchor="middle" x="1153.5" y="-163.5" font-family="Arial" font-size="10.00">SSH1</text>
<text text-anchor="middle" x="1153.5" y="-152.5" font-family="Arial" font-size="10.00">64,185 params</text>
<text text-anchor="middle" x="1153.5" y="-141.5" font-family="Arial" font-size="10.00">(13.5%)</text>
</g>
<!-- local_conv&#45;&gt;ssh1 -->
<g id="edge16" class="edge">
<title>local_conv&#45;&gt;ssh1</title>
<path fill="none" stroke="black" d="M1049.13,-114.09C1058.26,-118.1 1067.93,-122.26 1077,-126 1085.48,-129.5 1094.56,-133.1 1103.37,-136.53"/>
<polygon fill="black" stroke="black" points="1102.19,-139.82 1112.78,-140.16 1104.71,-133.29 1102.19,-139.82"/>
</g>
<!-- ssh2 -->
<g id="node14" class="node">
<title>ssh2</title>
<polygon fill="#d1c4e9" stroke="black" points="1194,-116.5 1113,-116.5 1113,-75.5 1194,-75.5 1194,-116.5"/>
<text text-anchor="middle" x="1153.5" y="-104.5" font-family="Arial" font-size="10.00">SSH2</text>
<text text-anchor="middle" x="1153.5" y="-93.5" font-family="Arial" font-size="10.00">64,185 params</text>
<text text-anchor="middle" x="1153.5" y="-82.5" font-family="Arial" font-size="10.00">(13.5%)</text>
</g>
<!-- local_conv&#45;&gt;ssh2 -->
<g id="edge17" class="edge">
<title>local_conv&#45;&gt;ssh2</title>
<path fill="none" stroke="black" d="M1049.35,-96C1065.99,-96 1085.42,-96 1102.91,-96"/>
<polygon fill="black" stroke="black" points="1102.94,-99.5 1112.94,-96 1102.94,-92.5 1102.94,-99.5"/>
</g>
<!-- ssh3 -->
<g id="node15" class="node">
<title>ssh3</title>
<polygon fill="#d1c4e9" stroke="black" points="1194,-57.5 1113,-57.5 1113,-16.5 1194,-16.5 1194,-57.5"/>
<text text-anchor="middle" x="1153.5" y="-45.5" font-family="Arial" font-size="10.00">SSH3</text>
<text text-anchor="middle" x="1153.5" y="-34.5" font-family="Arial" font-size="10.00">64,185 params</text>
<text text-anchor="middle" x="1153.5" y="-23.5" font-family="Arial" font-size="10.00">(13.5%)</text>
</g>
<!-- local_conv&#45;&gt;ssh3 -->
<g id="edge18" class="edge">
<title>local_conv&#45;&gt;ssh3</title>
<path fill="none" stroke="black" d="M1049.13,-77.91C1058.26,-73.9 1067.93,-69.74 1077,-66 1085.48,-62.5 1094.56,-58.9 1103.37,-55.47"/>
<polygon fill="black" stroke="black" points="1104.71,-58.71 1112.78,-51.84 1102.19,-52.18 1104.71,-58.71"/>
</g>
<!-- cs1 -->
<g id="node16" class="node">
<title>cs1</title>
<polygon fill="#e1bee7" stroke="black" points="1382,-168 1325,-168 1325,-132 1382,-132 1382,-168"/>
<text text-anchor="middle" x="1353.5" y="-153" font-family="Arial" font-size="10.00">CS1</text>
<text text-anchor="middle" x="1353.5" y="-142" font-family="Arial" font-size="10.00">0 params</text>
</g>
<!-- ssh1&#45;&gt;cs1 -->
<g id="edge19" class="edge">
<title>ssh1&#45;&gt;cs1</title>
<path fill="none" stroke="black" d="M1194.09,-154C1229.17,-153.11 1280.04,-151.83 1314.6,-150.96"/>
<polygon fill="black" stroke="black" points="1314.86,-154.45 1324.77,-150.7 1314.68,-147.45 1314.86,-154.45"/>
</g>
<!-- cs2 -->
<g id="node17" class="node">
<title>cs2</title>
<polygon fill="#e1bee7" stroke="black" points="1382,-114 1325,-114 1325,-78 1382,-78 1382,-114"/>
<text text-anchor="middle" x="1353.5" y="-99" font-family="Arial" font-size="10.00">CS2</text>
<text text-anchor="middle" x="1353.5" y="-88" font-family="Arial" font-size="10.00">0 params</text>
</g>
<!-- ssh2&#45;&gt;cs2 -->
<g id="edge20" class="edge">
<title>ssh2&#45;&gt;cs2</title>
<path fill="none" stroke="black" d="M1194.09,-96C1229.17,-96 1280.04,-96 1314.6,-96"/>
<polygon fill="black" stroke="black" points="1314.77,-99.5 1324.77,-96 1314.77,-92.5 1314.77,-99.5"/>
</g>
<!-- cs3 -->
<g id="node18" class="node">
<title>cs3</title>
<polygon fill="#e1bee7" stroke="black" points="1382,-60 1325,-60 1325,-24 1382,-24 1382,-60"/>
<text text-anchor="middle" x="1353.5" y="-45" font-family="Arial" font-size="10.00">CS3</text>
<text text-anchor="middle" x="1353.5" y="-34" font-family="Arial" font-size="10.00">0 params</text>
</g>
<!-- ssh3&#45;&gt;cs3 -->
<g id="edge21" class="edge">
<title>ssh3&#45;&gt;cs3</title>
<path fill="none" stroke="black" d="M1194.09,-38C1229.17,-38.89 1280.04,-40.17 1314.6,-41.04"/>
<polygon fill="black" stroke="black" points="1314.68,-44.55 1324.77,-41.3 1314.86,-37.55 1314.68,-44.55"/>
</g>
<!-- class_head -->
<g id="node19" class="node">
<title>class_head</title>
<polygon fill="#ffecb3" stroke="black" points="1581.5,-57.5 1505.5,-57.5 1505.5,-16.5 1581.5,-16.5 1581.5,-57.5"/>
<text text-anchor="middle" x="1543.5" y="-45.5" font-family="Arial" font-size="10.00">Classification</text>
<text text-anchor="middle" x="1543.5" y="-34.5" font-family="Arial" font-size="10.00">684 params</text>
<text text-anchor="middle" x="1543.5" y="-23.5" font-family="Arial" font-size="10.00">(0.1%)</text>
</g>
<!-- cs1&#45;&gt;class_head -->
<g id="edge22" class="edge">
<title>cs1&#45;&gt;class_head</title>
<path fill="none" stroke="black" d="M1382.24,-149.58C1405.01,-147.78 1436.72,-141.72 1457,-123 1476.73,-104.79 1458.78,-85.72 1477,-66 1482.34,-60.22 1489.04,-55.52 1496.11,-51.73"/>
<polygon fill="black" stroke="black" points="1497.66,-54.87 1505.17,-47.4 1494.64,-48.55 1497.66,-54.87"/>
</g>
<!-- bbox_head -->
<g id="node20" class="node">
<title>bbox_head</title>
<polygon fill="#ffecb3" stroke="black" points="1590,-175.5 1497,-175.5 1497,-134.5 1590,-134.5 1590,-175.5"/>
<text text-anchor="middle" x="1543.5" y="-163.5" font-family="Arial" font-size="10.00">BBox Regression</text>
<text text-anchor="middle" x="1543.5" y="-152.5" font-family="Arial" font-size="10.00">1,368 params</text>
<text text-anchor="middle" x="1543.5" y="-141.5" font-family="Arial" font-size="10.00">(0.3%)</text>
</g>
<!-- cs1&#45;&gt;bbox_head -->
<g id="edge23" class="edge">
<title>cs1&#45;&gt;bbox_head</title>
<path fill="none" stroke="black" d="M1382.24,-150.74C1409.55,-151.46 1452.03,-152.59 1486.4,-153.51"/>
<polygon fill="black" stroke="black" points="1486.69,-157.02 1496.78,-153.78 1486.87,-150.02 1486.69,-157.02"/>
</g>
<!-- landmark_head -->
<g id="node21" class="node">
<title>landmark_head</title>
<polygon fill="#ffecb3" stroke="black" points="1581.5,-116.5 1505.5,-116.5 1505.5,-75.5 1581.5,-75.5 1581.5,-116.5"/>
<text text-anchor="middle" x="1543.5" y="-104.5" font-family="Arial" font-size="10.00">Landmarks</text>
<text text-anchor="middle" x="1543.5" y="-93.5" font-family="Arial" font-size="10.00">3,420 params</text>
<text text-anchor="middle" x="1543.5" y="-82.5" font-family="Arial" font-size="10.00">(0.7%)</text>
</g>
<!-- cs1&#45;&gt;landmark_head -->
<g id="edge24" class="edge">
<title>cs1&#45;&gt;landmark_head</title>
<path fill="none" stroke="black" d="M1382.01,-143.14C1402.7,-137.88 1431.72,-130.32 1457,-123 1469.51,-119.38 1482.97,-115.24 1495.42,-111.31"/>
<polygon fill="black" stroke="black" points="1496.69,-114.58 1505.16,-108.22 1494.57,-107.91 1496.69,-114.58"/>
</g>
<!-- cs2&#45;&gt;class_head -->
<g id="edge25" class="edge">
<title>cs2&#45;&gt;class_head</title>
<path fill="none" stroke="black" d="M1382.12,-89.52C1402.88,-84.46 1431.92,-76.97 1457,-69 1469.76,-64.94 1483.41,-60.08 1495.97,-55.38"/>
<polygon fill="black" stroke="black" points="1497.21,-58.65 1505.33,-51.84 1494.74,-52.11 1497.21,-58.65"/>
</g>
<!-- cs2&#45;&gt;bbox_head -->
<g id="edge26" class="edge">
<title>cs2&#45;&gt;bbox_head</title>
<path fill="none" stroke="black" d="M1382.12,-102.48C1402.88,-107.54 1431.92,-115.03 1457,-123 1466.84,-126.13 1477.22,-129.74 1487.21,-133.38"/>
<polygon fill="black" stroke="black" points="1486.06,-136.69 1496.65,-136.87 1488.48,-130.12 1486.06,-136.69"/>
</g>
<!-- cs2&#45;&gt;landmark_head -->
<g id="edge27" class="edge">
<title>cs2&#45;&gt;landmark_head</title>
<path fill="none" stroke="black" d="M1382.24,-96C1411.9,-96 1459.45,-96 1495.07,-96"/>
<polygon fill="black" stroke="black" points="1495.24,-99.5 1505.24,-96 1495.24,-92.5 1495.24,-99.5"/>
</g>
<!-- cs3&#45;&gt;class_head -->
<g id="edge28" class="edge">
<title>cs3&#45;&gt;class_head</title>
<path fill="none" stroke="black" d="M1382.24,-41.26C1411.9,-40.47 1459.45,-39.21 1495.07,-38.26"/>
<polygon fill="black" stroke="black" points="1495.34,-41.76 1505.24,-37.99 1495.15,-34.76 1495.34,-41.76"/>
</g>
<!-- cs3&#45;&gt;bbox_head -->
<g id="edge29" class="edge">
<title>cs3&#45;&gt;bbox_head</title>
<path fill="none" stroke="black" d="M1382.24,-42.42C1405.01,-44.22 1436.72,-50.28 1457,-69 1476.73,-87.21 1458.78,-106.28 1477,-126 1480.26,-129.53 1484.02,-132.65 1488.06,-135.41"/>
<polygon fill="black" stroke="black" points="1486.31,-138.43 1496.68,-140.58 1489.91,-132.43 1486.31,-138.43"/>
</g>
<!-- cs3&#45;&gt;landmark_head -->
<g id="edge30" class="edge">
<title>cs3&#45;&gt;landmark_head</title>
<path fill="none" stroke="black" d="M1382.01,-48.86C1402.7,-54.12 1431.72,-61.68 1457,-69 1469.51,-72.62 1482.97,-76.76 1495.42,-80.69"/>
<polygon fill="black" stroke="black" points="1494.57,-84.09 1505.16,-83.78 1496.69,-77.42 1494.57,-84.09"/>
</g>
<!-- output -->
<g id="node22" class="node">
<title>output</title>
<polygon fill="#ffcdd2" stroke="#f44336" points="1722,-114 1639,-114 1639,-78 1722,-78 1722,-114"/>
<text text-anchor="middle" x="1680.5" y="-99" font-family="Arial" font-size="10.00">Face Detection</text>
<text text-anchor="middle" x="1680.5" y="-88" font-family="Arial" font-size="10.00">Results</text>
</g>
<!-- class_head&#45;&gt;output -->
<g id="edge31" class="edge">
<title>class_head&#45;&gt;output</title>
<path fill="none" stroke="black" d="M1581.79,-53.25C1591.31,-57.4 1601.54,-61.86 1611,-66 1617.07,-68.65 1623.45,-71.44 1629.77,-74.21"/>
<polygon fill="black" stroke="black" points="1628.37,-77.42 1638.94,-78.22 1631.18,-71.01 1628.37,-77.42"/>
</g>
<!-- bbox_head&#45;&gt;output -->
<g id="edge32" class="edge">
<title>bbox_head&#45;&gt;output</title>
<path fill="none" stroke="black" d="M1590.29,-135.04C1597.23,-132.01 1604.31,-128.93 1611,-126 1617.07,-123.35 1623.45,-120.56 1629.77,-117.79"/>
<polygon fill="black" stroke="black" points="1631.18,-120.99 1638.94,-113.78 1628.37,-114.58 1631.18,-120.99"/>
</g>
<!-- landmark_head&#45;&gt;output -->
<g id="edge33" class="edge">
<title>landmark_head&#45;&gt;output</title>
<path fill="none" stroke="black" d="M1581.75,-96C1596.22,-96 1613.02,-96 1628.58,-96"/>
<polygon fill="black" stroke="black" points="1628.58,-99.5 1638.58,-96 1628.58,-92.5 1628.58,-99.5"/>
</g>
<!-- innovation -->
<g id="node23" class="node">
<title>innovation</title>
<polygon fill="#c8e6c8" stroke="black" points="198,-195.5 16,-195.5 16,-132.5 204,-132.5 204,-189.5 198,-195.5"/>
<polyline fill="none" stroke="black" points="198,-195.5 198,-189.5 "/>
<polyline fill="none" stroke="black" points="204,-189.5 198,-189.5 "/>
<text text-anchor="middle" x="110" y="-183.5" font-family="Arial" font-size="10.00">ECA&#45;Net Innovation</text>
<text text-anchor="middle" x="110" y="-172.5" font-family="Arial" font-size="10.00">• Parameter Reduction: &#45;12,907 (&#45;2.6%)</text>
<text text-anchor="middle" x="110" y="-161.5" font-family="Arial" font-size="10.00">• Efficiency: 2x faster attention</text>
<text text-anchor="middle" x="110" y="-150.5" font-family="Arial" font-size="10.00">• Complexity: O(C) vs O(C²)</text>
<text text-anchor="middle" x="110" y="-139.5" font-family="Arial" font-size="10.00">• Mobile Optimized: No dim reduction</text>
</g>
<!-- details -->
<g id="node24" class="node">
<title>details</title>
<polygon fill="#eeeeee" stroke="black" points="197.5,-306.5 16.5,-306.5 16.5,-243.5 203.5,-243.5 203.5,-300.5 197.5,-306.5"/>
<polyline fill="none" stroke="black" points="197.5,-306.5 197.5,-300.5 "/>
<polyline fill="none" stroke="black" points="203.5,-300.5 197.5,-300.5 "/>
<text text-anchor="middle" x="110" y="-294.5" font-family="Arial" font-size="10.00">ECA Innovation</text>
<text text-anchor="middle" x="110" y="-283.5" font-family="Arial" font-size="10.00">• Total: 475,757 parameters</text>
<text text-anchor="middle" x="110" y="-272.5" font-family="Arial" font-size="10.00">• ECA&#45;Net: Wang et al. CVPR 2020</text>
<text text-anchor="middle" x="110" y="-261.5" font-family="Arial" font-size="10.00">• Configuration: cfg_v2_eca_innovation</text>
<text text-anchor="middle" x="110" y="-250.5" font-family="Arial" font-size="10.00">• Purpose: Mobile deployment</text>
</g>
</g>
</svg>
