<?xml version="1.0" encoding="UTF-8" standalone="no"?>
<!DOCTYPE svg PUBLIC "-//W3C//DTD SVG 1.1//EN"
 "http://www.w3.org/Graphics/SVG/1.1/DTD/svg11.dtd">
<!-- Generated by graphviz version 2.43.0 (0)
 -->
<!-- Title: ECAcbamArchitecture Pages: 1 -->
<svg width="2198pt" height="581pt"
 viewBox="0.00 0.00 2197.53 581.00" xmlns="http://www.w3.org/2000/svg" xmlns:xlink="http://www.w3.org/1999/xlink">
<g id="graph0" class="graph" transform="scale(1 1) rotate(0) translate(4 577)">
<title>ECAcbamArchitecture</title>
<polygon fill="white" stroke="transparent" points="-4,4 -4,-577 2193.53,-577 2193.53,4 -4,4"/>
<text text-anchor="middle" x="1094.76" y="-557.8" font-family="Arial Bold" font-size="14.00">FeatherFace ECA&#45;CBAM Hybrid Architecture (451,895 parameters)</text>
<g id="clust1" class="cluster">
<title>cluster_backbone</title>
<polygon fill="#fff3e0" stroke="#f57c00" points="241,-36 241,-219 485,-219 485,-36 241,-36"/>
<text text-anchor="middle" x="363" y="-203.8" font-family="Arial Bold" font-size="14.00">MobileNetV1&#45;0.25 Backbone</text>
</g>
<g id="clust2" class="cluster">
<title>cluster_backbone_ecacbam</title>
<polygon fill="#e3f2fd" stroke="#2196f3" points="506,-28 506,-227 774,-227 774,-28 506,-28"/>
<text text-anchor="middle" x="640" y="-211.8" font-family="Arial Bold" font-size="14.00">Backbone ECA&#45;CBAM Hybrid Attention</text>
</g>
<g id="clust3" class="cluster">
<title>cluster_fpn</title>
<polygon fill="#e8f5e8" stroke="#4caf50" points="814.6,-36 814.6,-219 1140.21,-219 1140.21,-36 814.6,-36"/>
<text text-anchor="middle" x="977.41" y="-203.8" font-family="Arial Bold" font-size="14.00">BiFPN Feature Pyramid</text>
</g>
<g id="clust4" class="cluster">
<title>cluster_bifpn_ecacbam</title>
<polygon fill="#e3f2fd" stroke="#2196f3" points="1255.21,-12 1255.21,-243 1499.21,-243 1499.21,-12 1255.21,-12"/>
<text text-anchor="middle" x="1377.21" y="-227.8" font-family="Arial Bold" font-size="14.00">BiFPN ECA&#45;CBAM Hybrid Attention</text>
</g>
<g id="clust5" class="cluster">
<title>cluster_ssh</title>
<polygon fill="#ede7f6" stroke="#673ab7" points="1535.37,-28 1535.37,-227 1689.37,-227 1689.37,-28 1535.37,-28"/>
<text text-anchor="middle" x="1612.37" y="-211.8" font-family="Arial Bold" font-size="14.00">SSH Detection Heads</text>
</g>
<g id="clust6" class="cluster">
<title>cluster_shuffle</title>
<polygon fill="#f3e5f5" stroke="#9c27b0" points="1716.53,-36 1716.53,-219 1922.53,-219 1922.53,-36 1716.53,-36"/>
<text text-anchor="middle" x="1819.53" y="-203.8" font-family="Arial Bold" font-size="14.00">Channel Shuffle Optimization</text>
</g>
<g id="clust7" class="cluster">
<title>cluster_outputs</title>
<polygon fill="#fff8e1" stroke="#ff9800" points="1943.53,-8 1943.53,-207 2077.53,-207 2077.53,-8 1943.53,-8"/>
<text text-anchor="middle" x="2010.53" y="-191.8" font-family="Arial Bold" font-size="14.00">Detection Outputs</text>
</g>
<g id="clust8" class="cluster">
<title>cluster_ecacbam_detail</title>
<polygon fill="#f0f4ff" stroke="#3f51b5" points="8,-251 8,-542 1695.53,-542 1695.53,-251 8,-251"/>
<text text-anchor="middle" x="851.76" y="-526.8" font-family="Arial Bold" font-size="14.00">ECA&#45;CBAM Hybrid Module Detail (Parallel Architecture)</text>
</g>
<g id="clust9" class="cluster">
<title>cluster_eca</title>
<polygon fill="#e8f5e8" stroke="#3f51b5" points="261.5,-311 261.5,-386 675,-386 675,-311 261.5,-311"/>
<text text-anchor="middle" x="468.25" y="-370.8" font-family="Arial Bold" font-size="14.00">ECA Channel Attention (22 params)</text>
</g>
<g id="clust10" class="cluster">
<title>cluster_sam</title>
<polygon fill="#fde7f3" stroke="#3f51b5" points="261,-394 261,-475 675,-475 675,-394 261,-394"/>
<text text-anchor="middle" x="468" y="-459.8" font-family="Arial Bold" font-size="14.00">CBAM SAM (98 params)</text>
</g>
<!-- input -->
<g id="node1" class="node">
<title>input</title>
<polygon fill="#e8f4fd" stroke="#1e88e5" points="130.5,-134 62.5,-134 62.5,-98 130.5,-98 130.5,-134"/>
<text text-anchor="middle" x="96.5" y="-119" font-family="Arial" font-size="10.00">Input Image</text>
<text text-anchor="middle" x="96.5" y="-108" font-family="Arial" font-size="10.00">640×640×3</text>
</g>
<!-- mobilenet -->
<g id="node2" class="node">
<title>mobilenet</title>
<polygon fill="#ffe0b2" stroke="black" points="344,-136.5 249,-136.5 249,-95.5 344,-95.5 344,-136.5"/>
<text text-anchor="middle" x="296.5" y="-124.5" font-family="Arial" font-size="10.00">MobileNetV1&#45;0.25</text>
<text text-anchor="middle" x="296.5" y="-113.5" font-family="Arial" font-size="10.00">213,072 params</text>
<text text-anchor="middle" x="296.5" y="-102.5" font-family="Arial" font-size="10.00">(47.2%)</text>
</g>
<!-- input&#45;&gt;mobilenet -->
<g id="edge1" class="edge">
<title>input&#45;&gt;mobilenet</title>
<path fill="none" stroke="black" d="M130.64,-116C160.1,-116 203.8,-116 238.8,-116"/>
<polygon fill="black" stroke="black" points="238.89,-119.5 248.89,-116 238.89,-112.5 238.89,-119.5"/>
</g>
<!-- stage1 -->
<g id="node3" class="node">
<title>stage1</title>
<polygon fill="#ffcc80" stroke="black" points="477,-134 423,-134 423,-98 477,-98 477,-134"/>
<text text-anchor="middle" x="450" y="-119" font-family="Arial" font-size="10.00">Stage 1</text>
<text text-anchor="middle" x="450" y="-108" font-family="Arial" font-size="10.00">P3/8</text>
</g>
<!-- mobilenet&#45;&gt;stage1 -->
<g id="edge2" class="edge">
<title>mobilenet&#45;&gt;stage1</title>
<path fill="none" stroke="black" d="M344.19,-116C366.25,-116 392.19,-116 412.75,-116"/>
<polygon fill="black" stroke="black" points="412.95,-119.5 422.95,-116 412.95,-112.5 412.95,-119.5"/>
</g>
<!-- stage2 -->
<g id="node4" class="node">
<title>stage2</title>
<polygon fill="#ffcc80" stroke="black" points="477,-80 423,-80 423,-44 477,-44 477,-80"/>
<text text-anchor="middle" x="450" y="-65" font-family="Arial" font-size="10.00">Stage 2</text>
<text text-anchor="middle" x="450" y="-54" font-family="Arial" font-size="10.00">P4/16</text>
</g>
<!-- mobilenet&#45;&gt;stage2 -->
<g id="edge3" class="edge">
<title>mobilenet&#45;&gt;stage2</title>
<path fill="none" stroke="black" d="M344.19,-99.36C366.46,-91.42 392.67,-82.08 413.31,-74.72"/>
<polygon fill="black" stroke="black" points="414.71,-77.94 422.95,-71.28 412.36,-71.34 414.71,-77.94"/>
</g>
<!-- stage3 -->
<g id="node5" class="node">
<title>stage3</title>
<polygon fill="#ffcc80" stroke="black" points="477,-188 423,-188 423,-152 477,-152 477,-188"/>
<text text-anchor="middle" x="450" y="-173" font-family="Arial" font-size="10.00">Stage 3</text>
<text text-anchor="middle" x="450" y="-162" font-family="Arial" font-size="10.00">P5/32</text>
</g>
<!-- mobilenet&#45;&gt;stage3 -->
<g id="edge4" class="edge">
<title>mobilenet&#45;&gt;stage3</title>
<path fill="none" stroke="black" d="M344.19,-132.64C366.46,-140.58 392.67,-149.92 413.31,-157.28"/>
<polygon fill="black" stroke="black" points="412.36,-160.66 422.95,-160.72 414.71,-154.06 412.36,-160.66"/>
</g>
<!-- backbone_ecacbam1 -->
<g id="node6" class="node">
<title>backbone_ecacbam1</title>
<polygon fill="#bbdefb" stroke="black" points="675,-136.5 605,-136.5 605,-95.5 675,-95.5 675,-136.5"/>
<text text-anchor="middle" x="640" y="-124.5" font-family="Arial" font-size="10.00">ECA&#45;CBAM</text>
<text text-anchor="middle" x="640" y="-113.5" font-family="Arial" font-size="10.00">64 ch</text>
<text text-anchor="middle" x="640" y="-102.5" font-family="Arial" font-size="10.00">101 params</text>
</g>
<!-- stage1&#45;&gt;backbone_ecacbam1 -->
<g id="edge5" class="edge">
<title>stage1&#45;&gt;backbone_ecacbam1</title>
<path fill="none" stroke="black" d="M477.14,-116C507.44,-116 557.89,-116 594.43,-116"/>
<polygon fill="black" stroke="black" points="594.8,-119.5 604.8,-116 594.8,-112.5 594.8,-119.5"/>
</g>
<!-- backbone_ecacbam2 -->
<g id="node7" class="node">
<title>backbone_ecacbam2</title>
<polygon fill="#bbdefb" stroke="black" points="675,-77.5 605,-77.5 605,-36.5 675,-36.5 675,-77.5"/>
<text text-anchor="middle" x="640" y="-65.5" font-family="Arial" font-size="10.00">ECA&#45;CBAM</text>
<text text-anchor="middle" x="640" y="-54.5" font-family="Arial" font-size="10.00">128 ch</text>
<text text-anchor="middle" x="640" y="-43.5" font-family="Arial" font-size="10.00">103 params</text>
</g>
<!-- stage2&#45;&gt;backbone_ecacbam2 -->
<g id="edge6" class="edge">
<title>stage2&#45;&gt;backbone_ecacbam2</title>
<path fill="none" stroke="black" d="M477.14,-61.3C507.44,-60.5 557.89,-59.16 594.43,-58.19"/>
<polygon fill="black" stroke="black" points="594.9,-61.67 604.8,-57.91 594.72,-54.68 594.9,-61.67"/>
</g>
<!-- backbone_ecacbam3 -->
<g id="node8" class="node">
<title>backbone_ecacbam3</title>
<polygon fill="#bbdefb" stroke="black" points="675,-195.5 605,-195.5 605,-154.5 675,-154.5 675,-195.5"/>
<text text-anchor="middle" x="640" y="-183.5" font-family="Arial" font-size="10.00">ECA&#45;CBAM</text>
<text text-anchor="middle" x="640" y="-172.5" font-family="Arial" font-size="10.00">256 ch</text>
<text text-anchor="middle" x="640" y="-161.5" font-family="Arial" font-size="10.00">103 params</text>
</g>
<!-- stage3&#45;&gt;backbone_ecacbam3 -->
<g id="edge7" class="edge">
<title>stage3&#45;&gt;backbone_ecacbam3</title>
<path fill="none" stroke="black" d="M477.14,-170.7C507.44,-171.5 557.89,-172.84 594.43,-173.81"/>
<polygon fill="black" stroke="black" points="594.72,-177.32 604.8,-174.09 594.9,-170.33 594.72,-177.32"/>
</g>
<!-- bifpn -->
<g id="node9" class="node">
<title>bifpn</title>
<polygon fill="#c8e6c8" stroke="black" points="903.6,-136.5 822.6,-136.5 822.6,-95.5 903.6,-95.5 903.6,-136.5"/>
<text text-anchor="middle" x="863.1" y="-124.5" font-family="Arial" font-size="10.00">BiFPN</text>
<text text-anchor="middle" x="863.1" y="-113.5" font-family="Arial" font-size="10.00">75,246 params</text>
<text text-anchor="middle" x="863.1" y="-102.5" font-family="Arial" font-size="10.00">(16.7%)</text>
</g>
<!-- backbone_ecacbam1&#45;&gt;bifpn -->
<g id="edge8" class="edge">
<title>backbone_ecacbam1&#45;&gt;bifpn</title>
<path fill="none" stroke="black" d="M675.06,-116C711.69,-116 770.29,-116 812.14,-116"/>
<polygon fill="black" stroke="black" points="812.39,-119.5 822.39,-116 812.39,-112.5 812.39,-119.5"/>
</g>
<!-- backbone_ecacbam2&#45;&gt;bifpn -->
<g id="edge9" class="edge">
<title>backbone_ecacbam2&#45;&gt;bifpn</title>
<path fill="none" stroke="black" d="M675.15,-63.34C702.17,-68.62 740.76,-76.75 774,-86 786.65,-89.52 800.15,-93.83 812.68,-98.07"/>
<polygon fill="black" stroke="black" points="811.9,-101.5 822.49,-101.44 814.17,-94.88 811.9,-101.5"/>
</g>
<!-- backbone_ecacbam3&#45;&gt;bifpn -->
<g id="edge10" class="edge">
<title>backbone_ecacbam3&#45;&gt;bifpn</title>
<path fill="none" stroke="black" d="M675.15,-168.66C702.17,-163.38 740.76,-155.25 774,-146 786.65,-142.48 800.15,-138.17 812.68,-133.93"/>
<polygon fill="black" stroke="black" points="814.17,-137.12 822.49,-130.56 811.9,-130.5 814.17,-137.12"/>
</g>
<!-- p3_out -->
<g id="node10" class="node">
<title>p3_out</title>
<polygon fill="#a5d6a7" stroke="black" points="1132.21,-188 1046.21,-188 1046.21,-152 1132.21,-152 1132.21,-188"/>
<text text-anchor="middle" x="1089.21" y="-173" font-family="Arial" font-size="10.00">P3 Features</text>
<text text-anchor="middle" x="1089.21" y="-162" font-family="Arial" font-size="10.00">out_channel=48</text>
</g>
<!-- bifpn&#45;&gt;p3_out -->
<g id="edge11" class="edge">
<title>bifpn&#45;&gt;p3_out</title>
<path fill="none" stroke="black" d="M903.69,-127.76C920.98,-132.73 941.53,-138.41 960.21,-143 984.99,-149.09 1012.68,-155.03 1035.95,-159.79"/>
<polygon fill="black" stroke="black" points="1035.47,-163.26 1045.96,-161.82 1036.86,-156.4 1035.47,-163.26"/>
</g>
<!-- p4_out -->
<g id="node11" class="node">
<title>p4_out</title>
<polygon fill="#a5d6a7" stroke="black" points="1132.21,-134 1046.21,-134 1046.21,-98 1132.21,-98 1132.21,-134"/>
<text text-anchor="middle" x="1089.21" y="-119" font-family="Arial" font-size="10.00">P4 Features</text>
<text text-anchor="middle" x="1089.21" y="-108" font-family="Arial" font-size="10.00">out_channel=48</text>
</g>
<!-- bifpn&#45;&gt;p4_out -->
<g id="edge12" class="edge">
<title>bifpn&#45;&gt;p4_out</title>
<path fill="none" stroke="black" d="M903.65,-116C940.41,-116 995.41,-116 1035.81,-116"/>
<polygon fill="black" stroke="black" points="1036.01,-119.5 1046.01,-116 1036.01,-112.5 1036.01,-119.5"/>
</g>
<!-- p5_out -->
<g id="node12" class="node">
<title>p5_out</title>
<polygon fill="#a5d6a7" stroke="black" points="1132.21,-80 1046.21,-80 1046.21,-44 1132.21,-44 1132.21,-80"/>
<text text-anchor="middle" x="1089.21" y="-65" font-family="Arial" font-size="10.00">P5 Features</text>
<text text-anchor="middle" x="1089.21" y="-54" font-family="Arial" font-size="10.00">out_channel=48</text>
</g>
<!-- bifpn&#45;&gt;p5_out -->
<g id="edge13" class="edge">
<title>bifpn&#45;&gt;p5_out</title>
<path fill="none" stroke="black" d="M903.69,-104.24C920.98,-99.27 941.53,-93.59 960.21,-89 984.99,-82.91 1012.68,-76.97 1035.95,-72.21"/>
<polygon fill="black" stroke="black" points="1036.86,-75.6 1045.96,-70.18 1035.47,-68.74 1036.86,-75.6"/>
</g>
<!-- bifpn_ecacbam1 -->
<g id="node13" class="node">
<title>bifpn_ecacbam1</title>
<polygon fill="#bbdefb" stroke="black" points="1412.21,-212 1342.21,-212 1342.21,-160 1412.21,-160 1412.21,-212"/>
<text text-anchor="middle" x="1377.21" y="-200" font-family="Arial" font-size="10.00">ECA&#45;CBAM</text>
<text text-anchor="middle" x="1377.21" y="-189" font-family="Arial" font-size="10.00">48 ch</text>
<text text-anchor="middle" x="1377.21" y="-178" font-family="Arial" font-size="10.00">P3</text>
<text text-anchor="middle" x="1377.21" y="-167" font-family="Arial" font-size="10.00">101 params</text>
</g>
<!-- p3_out&#45;&gt;bifpn_ecacbam1 -->
<g id="edge14" class="edge">
<title>p3_out&#45;&gt;bifpn_ecacbam1</title>
<path fill="none" stroke="black" d="M1132.41,-172.36C1185.84,-175.35 1277.46,-180.48 1331.88,-183.52"/>
<polygon fill="black" stroke="black" points="1331.73,-187.02 1341.91,-184.08 1332.13,-180.03 1331.73,-187.02"/>
</g>
<!-- bifpn_ecacbam2 -->
<g id="node14" class="node">
<title>bifpn_ecacbam2</title>
<polygon fill="#bbdefb" stroke="black" points="1412.21,-142 1342.21,-142 1342.21,-90 1412.21,-90 1412.21,-142"/>
<text text-anchor="middle" x="1377.21" y="-130" font-family="Arial" font-size="10.00">ECA&#45;CBAM</text>
<text text-anchor="middle" x="1377.21" y="-119" font-family="Arial" font-size="10.00">48 ch</text>
<text text-anchor="middle" x="1377.21" y="-108" font-family="Arial" font-size="10.00">P4</text>
<text text-anchor="middle" x="1377.21" y="-97" font-family="Arial" font-size="10.00">101 params</text>
</g>
<!-- p4_out&#45;&gt;bifpn_ecacbam2 -->
<g id="edge15" class="edge">
<title>p4_out&#45;&gt;bifpn_ecacbam2</title>
<path fill="none" stroke="black" d="M1132.41,-116C1185.84,-116 1277.46,-116 1331.88,-116"/>
<polygon fill="black" stroke="black" points="1331.91,-119.5 1341.91,-116 1331.91,-112.5 1331.91,-119.5"/>
</g>
<!-- bifpn_ecacbam3 -->
<g id="node15" class="node">
<title>bifpn_ecacbam3</title>
<polygon fill="#bbdefb" stroke="black" points="1412.21,-72 1342.21,-72 1342.21,-20 1412.21,-20 1412.21,-72"/>
<text text-anchor="middle" x="1377.21" y="-60" font-family="Arial" font-size="10.00">ECA&#45;CBAM</text>
<text text-anchor="middle" x="1377.21" y="-49" font-family="Arial" font-size="10.00">48 ch</text>
<text text-anchor="middle" x="1377.21" y="-38" font-family="Arial" font-size="10.00">P5</text>
<text text-anchor="middle" x="1377.21" y="-27" font-family="Arial" font-size="10.00">101 params</text>
</g>
<!-- p5_out&#45;&gt;bifpn_ecacbam3 -->
<g id="edge16" class="edge">
<title>p5_out&#45;&gt;bifpn_ecacbam3</title>
<path fill="none" stroke="black" d="M1132.41,-59.64C1185.84,-56.65 1277.46,-51.52 1331.88,-48.48"/>
<polygon fill="black" stroke="black" points="1332.13,-51.97 1341.91,-47.92 1331.73,-44.98 1332.13,-51.97"/>
</g>
<!-- ssh1 -->
<g id="node16" class="node">
<title>ssh1</title>
<polygon fill="#d1c4e9" stroke="black" points="1652.37,-195.5 1571.37,-195.5 1571.37,-154.5 1652.37,-154.5 1652.37,-195.5"/>
<text text-anchor="middle" x="1611.87" y="-183.5" font-family="Arial" font-size="10.00">SSH1</text>
<text text-anchor="middle" x="1611.87" y="-172.5" font-family="Arial" font-size="10.00">51,765 params</text>
<text text-anchor="middle" x="1611.87" y="-161.5" font-family="Arial" font-size="10.00">(11.5%)</text>
</g>
<!-- bifpn_ecacbam1&#45;&gt;ssh1 -->
<g id="edge17" class="edge">
<title>bifpn_ecacbam1&#45;&gt;ssh1</title>
<path fill="none" stroke="black" d="M1412.54,-184.38C1451.82,-182.52 1516.49,-179.46 1561.25,-177.35"/>
<polygon fill="black" stroke="black" points="1561.51,-180.84 1571.33,-176.87 1561.18,-173.85 1561.51,-180.84"/>
</g>
<!-- ssh2 -->
<g id="node17" class="node">
<title>ssh2</title>
<polygon fill="#d1c4e9" stroke="black" points="1652.37,-136.5 1571.37,-136.5 1571.37,-95.5 1652.37,-95.5 1652.37,-136.5"/>
<text text-anchor="middle" x="1611.87" y="-124.5" font-family="Arial" font-size="10.00">SSH2</text>
<text text-anchor="middle" x="1611.87" y="-113.5" font-family="Arial" font-size="10.00">51,765 params</text>
<text text-anchor="middle" x="1611.87" y="-102.5" font-family="Arial" font-size="10.00">(11.5%)</text>
</g>
<!-- bifpn_ecacbam2&#45;&gt;ssh2 -->
<g id="edge18" class="edge">
<title>bifpn_ecacbam2&#45;&gt;ssh2</title>
<path fill="none" stroke="black" d="M1412.54,-116C1451.82,-116 1516.49,-116 1561.25,-116"/>
<polygon fill="black" stroke="black" points="1561.33,-119.5 1571.33,-116 1561.33,-112.5 1561.33,-119.5"/>
</g>
<!-- ssh3 -->
<g id="node18" class="node">
<title>ssh3</title>
<polygon fill="#d1c4e9" stroke="black" points="1652.37,-77.5 1571.37,-77.5 1571.37,-36.5 1652.37,-36.5 1652.37,-77.5"/>
<text text-anchor="middle" x="1611.87" y="-65.5" font-family="Arial" font-size="10.00">SSH3</text>
<text text-anchor="middle" x="1611.87" y="-54.5" font-family="Arial" font-size="10.00">51,765 params</text>
<text text-anchor="middle" x="1611.87" y="-43.5" font-family="Arial" font-size="10.00">(11.5%)</text>
</g>
<!-- bifpn_ecacbam3&#45;&gt;ssh3 -->
<g id="edge19" class="edge">
<title>bifpn_ecacbam3&#45;&gt;ssh3</title>
<path fill="none" stroke="black" d="M1412.54,-47.62C1451.82,-49.48 1516.49,-52.54 1561.25,-54.65"/>
<polygon fill="black" stroke="black" points="1561.18,-58.15 1571.33,-55.13 1561.51,-51.16 1561.18,-58.15"/>
</g>
<!-- cs1 -->
<g id="node19" class="node">
<title>cs1</title>
<polygon fill="#e1bee7" stroke="black" points="1847.53,-188 1790.53,-188 1790.53,-152 1847.53,-152 1847.53,-188"/>
<text text-anchor="middle" x="1819.03" y="-173" font-family="Arial" font-size="10.00">CS1</text>
<text text-anchor="middle" x="1819.03" y="-162" font-family="Arial" font-size="10.00">0 params</text>
</g>
<!-- ssh1&#45;&gt;cs1 -->
<g id="edge20" class="edge">
<title>ssh1&#45;&gt;cs1</title>
<path fill="none" stroke="black" d="M1652.43,-174.04C1689.31,-173.14 1743.93,-171.81 1780.23,-170.92"/>
<polygon fill="black" stroke="black" points="1780.5,-174.42 1790.41,-170.67 1780.33,-167.42 1780.5,-174.42"/>
</g>
<!-- cs2 -->
<g id="node20" class="node">
<title>cs2</title>
<polygon fill="#e1bee7" stroke="black" points="1847.53,-134 1790.53,-134 1790.53,-98 1847.53,-98 1847.53,-134"/>
<text text-anchor="middle" x="1819.03" y="-119" font-family="Arial" font-size="10.00">CS2</text>
<text text-anchor="middle" x="1819.03" y="-108" font-family="Arial" font-size="10.00">0 params</text>
</g>
<!-- ssh2&#45;&gt;cs2 -->
<g id="edge21" class="edge">
<title>ssh2&#45;&gt;cs2</title>
<path fill="none" stroke="black" d="M1652.43,-116C1689.31,-116 1743.93,-116 1780.23,-116"/>
<polygon fill="black" stroke="black" points="1780.41,-119.5 1790.41,-116 1780.41,-112.5 1780.41,-119.5"/>
</g>
<!-- cs3 -->
<g id="node21" class="node">
<title>cs3</title>
<polygon fill="#e1bee7" stroke="black" points="1847.53,-80 1790.53,-80 1790.53,-44 1847.53,-44 1847.53,-80"/>
<text text-anchor="middle" x="1819.03" y="-65" font-family="Arial" font-size="10.00">CS3</text>
<text text-anchor="middle" x="1819.03" y="-54" font-family="Arial" font-size="10.00">0 params</text>
</g>
<!-- ssh3&#45;&gt;cs3 -->
<g id="edge22" class="edge">
<title>ssh3&#45;&gt;cs3</title>
<path fill="none" stroke="black" d="M1652.43,-57.96C1689.31,-58.86 1743.93,-60.19 1780.23,-61.08"/>
<polygon fill="black" stroke="black" points="1780.33,-64.58 1790.41,-61.33 1780.5,-57.58 1780.33,-64.58"/>
</g>
<!-- class_head -->
<g id="node22" class="node">
<title>class_head</title>
<polygon fill="#ffecb3" stroke="black" points="2048.03,-175.5 1972.03,-175.5 1972.03,-134.5 2048.03,-134.5 2048.03,-175.5"/>
<text text-anchor="middle" x="2010.03" y="-163.5" font-family="Arial" font-size="10.00">Classification</text>
<text text-anchor="middle" x="2010.03" y="-152.5" font-family="Arial" font-size="10.00">552 params</text>
<text text-anchor="middle" x="2010.03" y="-141.5" font-family="Arial" font-size="10.00">(0.1%)</text>
</g>
<!-- cs1&#45;&gt;class_head -->
<g id="edge23" class="edge">
<title>cs1&#45;&gt;class_head</title>
<path fill="none" stroke="black" d="M1847.62,-184.64C1870.64,-194.99 1904.3,-205.74 1933.53,-198 1946.89,-194.46 1960.36,-187.95 1972.15,-181.04"/>
<polygon fill="black" stroke="black" points="1974.12,-183.94 1980.81,-175.72 1970.46,-177.97 1974.12,-183.94"/>
</g>
<!-- bbox_head -->
<g id="node23" class="node">
<title>bbox_head</title>
<polygon fill="#ffecb3" stroke="black" points="2056.53,-116.5 1963.53,-116.5 1963.53,-75.5 2056.53,-75.5 2056.53,-116.5"/>
<text text-anchor="middle" x="2010.03" y="-104.5" font-family="Arial" font-size="10.00">BBox Regression</text>
<text text-anchor="middle" x="2010.03" y="-93.5" font-family="Arial" font-size="10.00">1,104 params</text>
<text text-anchor="middle" x="2010.03" y="-82.5" font-family="Arial" font-size="10.00">(0.2%)</text>
</g>
<!-- cs1&#45;&gt;bbox_head -->
<g id="edge24" class="edge">
<title>cs1&#45;&gt;bbox_head</title>
<path fill="none" stroke="black" d="M1847.7,-165.98C1869.01,-162.12 1898.73,-155.06 1922.53,-143 1933.24,-137.57 1933.32,-132.33 1943.53,-126 1947.06,-123.81 1950.77,-121.69 1954.56,-119.65"/>
<polygon fill="black" stroke="black" points="1956.21,-122.73 1963.5,-115.05 1953.01,-116.51 1956.21,-122.73"/>
</g>
<!-- landmark_head -->
<g id="node24" class="node">
<title>landmark_head</title>
<polygon fill="#ffecb3" stroke="black" points="2048.03,-57.5 1972.03,-57.5 1972.03,-16.5 2048.03,-16.5 2048.03,-57.5"/>
<text text-anchor="middle" x="2010.03" y="-45.5" font-family="Arial" font-size="10.00">Landmarks</text>
<text text-anchor="middle" x="2010.03" y="-34.5" font-family="Arial" font-size="10.00">2,760 params</text>
<text text-anchor="middle" x="2010.03" y="-23.5" font-family="Arial" font-size="10.00">(0.6%)</text>
</g>
<!-- cs1&#45;&gt;landmark_head -->
<g id="edge25" class="edge">
<title>cs1&#45;&gt;landmark_head</title>
<path fill="none" stroke="black" d="M1847.65,-169.97C1870.68,-168.44 1902.8,-162.56 1922.53,-143 1935.12,-130.51 1931.97,-79.45 1943.53,-66 1948.77,-59.9 1955.55,-55.03 1962.75,-51.16"/>
<polygon fill="black" stroke="black" points="1964.47,-54.22 1972.01,-46.77 1961.47,-47.89 1964.47,-54.22"/>
</g>
<!-- cs2&#45;&gt;class_head -->
<g id="edge26" class="edge">
<title>cs2&#45;&gt;class_head</title>
<path fill="none" stroke="black" d="M1847.92,-121.71C1868.81,-126.38 1897.91,-133.71 1922.53,-143 1927.18,-144.75 1927.75,-146.64 1932.53,-148 1941.86,-150.66 1952.06,-152.37 1961.89,-153.46"/>
<polygon fill="black" stroke="black" points="1961.66,-156.95 1971.94,-154.38 1962.31,-149.98 1961.66,-156.95"/>
</g>
<!-- cs2&#45;&gt;bbox_head -->
<g id="edge27" class="edge">
<title>cs2&#45;&gt;bbox_head</title>
<path fill="none" stroke="black" d="M1847.92,-113.05C1875.58,-110.12 1918.74,-105.55 1953.43,-101.88"/>
<polygon fill="black" stroke="black" points="1953.85,-105.36 1963.43,-100.83 1953.12,-98.4 1953.85,-105.36"/>
</g>
<!-- cs2&#45;&gt;landmark_head -->
<g id="edge28" class="edge">
<title>cs2&#45;&gt;landmark_head</title>
<path fill="none" stroke="black" d="M1847.81,-113.03C1869.44,-109.74 1899.54,-102.91 1922.53,-89 1934.37,-81.83 1932.29,-74.09 1943.53,-66 1949.43,-61.75 1956.05,-57.94 1962.75,-54.57"/>
<polygon fill="black" stroke="black" points="1964.33,-57.7 1971.88,-50.27 1961.34,-51.36 1964.33,-57.7"/>
</g>
<!-- cs3&#45;&gt;class_head -->
<g id="edge29" class="edge">
<title>cs3&#45;&gt;class_head</title>
<path fill="none" stroke="black" d="M1847.84,-63.49C1870.06,-65.96 1900.95,-72.39 1922.53,-89 1937.51,-100.53 1929.51,-113.31 1943.53,-126 1949.11,-131.05 1955.71,-135.33 1962.53,-138.93"/>
<polygon fill="black" stroke="black" points="1961.38,-142.25 1971.91,-143.41 1964.4,-135.94 1961.38,-142.25"/>
</g>
<!-- cs3&#45;&gt;bbox_head -->
<g id="edge30" class="edge">
<title>cs3&#45;&gt;bbox_head</title>
<path fill="none" stroke="black" d="M1847.92,-67.02C1875.58,-71.99 1918.74,-79.76 1953.43,-86"/>
<polygon fill="black" stroke="black" points="1952.97,-89.47 1963.43,-87.8 1954.21,-82.58 1952.97,-89.47"/>
</g>
<!-- cs3&#45;&gt;landmark_head -->
<g id="edge31" class="edge">
<title>cs3&#45;&gt;landmark_head</title>
<path fill="none" stroke="black" d="M1847.75,-46.78C1870.3,-36 1903.22,-23.8 1933.53,-26 1942.75,-26.67 1952.55,-27.79 1961.93,-29.07"/>
<polygon fill="black" stroke="black" points="1961.5,-32.54 1971.9,-30.5 1962.5,-25.61 1961.5,-32.54"/>
</g>
<!-- output -->
<g id="node25" class="node">
<title>output</title>
<polygon fill="#ffcdd2" stroke="#f44336" points="2189.53,-114 2106.53,-114 2106.53,-78 2189.53,-78 2189.53,-114"/>
<text text-anchor="middle" x="2148.03" y="-99" font-family="Arial" font-size="10.00">Face Detection</text>
<text text-anchor="middle" x="2148.03" y="-88" font-family="Arial" font-size="10.00">Results</text>
</g>
<!-- class_head&#45;&gt;output -->
<g id="edge32" class="edge">
<title>class_head&#45;&gt;output</title>
<path fill="none" stroke="black" d="M2048.19,-138.88C2063.18,-132.38 2080.71,-124.77 2096.8,-117.79"/>
<polygon fill="black" stroke="black" points="2098.31,-120.95 2106.09,-113.76 2095.52,-114.53 2098.31,-120.95"/>
</g>
<!-- bbox_head&#45;&gt;output -->
<g id="edge33" class="edge">
<title>bbox_head&#45;&gt;output</title>
<path fill="none" stroke="black" d="M2056.69,-96C2069.36,-96 2083.19,-96 2096.13,-96"/>
<polygon fill="black" stroke="black" points="2096.28,-99.5 2106.28,-96 2096.28,-92.5 2096.28,-99.5"/>
</g>
<!-- landmark_head&#45;&gt;output -->
<g id="edge34" class="edge">
<title>landmark_head&#45;&gt;output</title>
<path fill="none" stroke="black" d="M2048.19,-53.12C2063.18,-59.62 2080.71,-67.23 2096.8,-74.21"/>
<polygon fill="black" stroke="black" points="2095.52,-77.47 2106.09,-78.24 2098.31,-71.05 2095.52,-77.47"/>
</g>
<!-- detail_input -->
<g id="node26" class="node">
<title>detail_input</title>
<ellipse fill="#e8eaf6" stroke="black" cx="96.5" cy="-394" rx="75.82" ry="21.43"/>
<text text-anchor="middle" x="96.5" y="-397" font-family="Arial" font-size="10.00">Input Feature</text>
<text text-anchor="middle" x="96.5" y="-386" font-family="Arial" font-size="10.00">X ∈ ℝ^(B×C×H×W)</text>
</g>
<!-- eca_gap -->
<g id="node28" class="node">
<title>eca_gap</title>
<polygon fill="#c8e6c8" stroke="black" points="323.5,-355 269.5,-355 269.5,-319 323.5,-319 323.5,-355"/>
<text text-anchor="middle" x="296.5" y="-334.5" font-family="Arial" font-size="10.00">GAP</text>
</g>
<!-- detail_input&#45;&gt;eca_gap -->
<g id="edge35" class="edge">
<title>detail_input&#45;&gt;eca_gap</title>
<path fill="none" stroke="#4caf50" d="M150.04,-378.87C184.63,-368.92 228.99,-356.15 259.59,-347.34"/>
<polygon fill="#4caf50" stroke="#4caf50" points="260.76,-350.64 269.4,-344.51 258.82,-343.92 260.76,-350.64"/>
<text text-anchor="middle" x="213" y="-367.8" font-family="Arial" font-size="9.00">Channel</text>
</g>
<!-- sam_pool -->
<g id="node32" class="node">
<title>sam_pool</title>
<polygon fill="#f8bbd9" stroke="black" points="324,-443.5 269,-443.5 269,-402.5 324,-402.5 324,-443.5"/>
<text text-anchor="middle" x="296.5" y="-431.5" font-family="Arial" font-size="10.00">AvgPool</text>
<text text-anchor="middle" x="296.5" y="-420.5" font-family="Arial" font-size="10.00">+</text>
<text text-anchor="middle" x="296.5" y="-409.5" font-family="Arial" font-size="10.00">MaxPool</text>
</g>
<!-- detail_input&#45;&gt;sam_pool -->
<g id="edge36" class="edge">
<title>detail_input&#45;&gt;sam_pool</title>
<path fill="none" stroke="#e91e63" d="M163.98,-403.74C195.62,-408.37 232.24,-413.74 258.8,-417.62"/>
<polygon fill="#e91e63" stroke="#e91e63" points="258.4,-421.1 268.8,-419.09 259.42,-414.18 258.4,-421.1"/>
<text text-anchor="middle" x="213" y="-414.8" font-family="Arial" font-size="9.00">Spatial</text>
</g>
<!-- cross_interaction -->
<g id="node36" class="node">
<title>cross_interaction</title>
<polygon fill="#ffe0b2" stroke="black" points="671,-300.5 609,-300.5 609,-259.5 671,-259.5 671,-300.5"/>
<text text-anchor="middle" x="640" y="-288.5" font-family="Arial" font-size="10.00">Cross</text>
<text text-anchor="middle" x="640" y="-277.5" font-family="Arial" font-size="10.00">Interaction</text>
<text text-anchor="middle" x="640" y="-266.5" font-family="Arial" font-size="10.00">30 params</text>
</g>
<!-- detail_input&#45;&gt;cross_interaction -->
<g id="edge37" class="edge">
<title>detail_input&#45;&gt;cross_interaction</title>
<path fill="none" stroke="#ff9800" d="M122.42,-373.89C149.72,-353.11 195.69,-321.7 241,-307 366.42,-266.31 525.42,-271.21 598.68,-276.39"/>
<polygon fill="#ff9800" stroke="#ff9800" points="598.62,-279.9 608.86,-277.15 599.15,-272.92 598.62,-279.9"/>
<text text-anchor="middle" x="383.5" y="-282.8" font-family="Arial" font-size="9.00">Interaction</text>
</g>
<!-- residual -->
<g id="node39" class="node">
<title>residual</title>
<polygon fill="#ffcdd2" stroke="black" points="1377.21,-504 1306.21,-474 1377.21,-444 1448.21,-474 1377.21,-504"/>
<text text-anchor="middle" x="1377.21" y="-477" font-family="Arial" font-size="10.00">Residual</text>
<text text-anchor="middle" x="1377.21" y="-466" font-family="Arial" font-size="10.00">X + α·Fused</text>
</g>
<!-- detail_input&#45;&gt;residual -->
<g id="edge49" class="edge">
<title>detail_input&#45;&gt;residual</title>
<path fill="none" stroke="black" stroke-dasharray="5,2" d="M118.34,-414.38C152.39,-445.42 223.41,-501 295.5,-501 295.5,-501 295.5,-501 1090.21,-501 1167.84,-501 1256.8,-491.02 1314.61,-483.19"/>
<polygon fill="black" stroke="black" points="1315.25,-486.64 1324.68,-481.81 1314.3,-479.7 1315.25,-486.64"/>
<text text-anchor="middle" x="640" y="-503.8" font-family="Arial" font-size="9.00">Residual</text>
</g>
<!-- parallel_label -->
<g id="node27" class="node">
<title>parallel_label</title>
<text text-anchor="middle" x="96.5" y="-289.9" font-family="Arial" font-size="12.00">PARALLEL PROCESSING</text>
</g>
<!-- eca_conv1d -->
<g id="node29" class="node">
<title>eca_conv1d</title>
<polygon fill="#c8e6c8" stroke="black" points="477,-355 423,-355 423,-319 477,-319 477,-355"/>
<text text-anchor="middle" x="450" y="-340" font-family="Arial" font-size="10.00">Conv1D</text>
<text text-anchor="middle" x="450" y="-329" font-family="Arial" font-size="10.00">k=ψ(C)</text>
</g>
<!-- eca_gap&#45;&gt;eca_conv1d -->
<g id="edge38" class="edge">
<title>eca_gap&#45;&gt;eca_conv1d</title>
<path fill="none" stroke="black" d="M323.54,-337C348.15,-337 385.28,-337 412.77,-337"/>
<polygon fill="black" stroke="black" points="412.79,-340.5 422.79,-337 412.79,-333.5 412.79,-340.5"/>
</g>
<!-- eca_sigmoid -->
<g id="node30" class="node">
<title>eca_sigmoid</title>
<polygon fill="#c8e6c8" stroke="black" points="667,-355 613,-355 613,-319 667,-319 667,-355"/>
<text text-anchor="middle" x="640" y="-334.5" font-family="Arial" font-size="10.00">Sigmoid</text>
</g>
<!-- eca_conv1d&#45;&gt;eca_sigmoid -->
<g id="edge39" class="edge">
<title>eca_conv1d&#45;&gt;eca_sigmoid</title>
<path fill="none" stroke="black" d="M477.14,-337C509.74,-337 565.65,-337 602.47,-337"/>
<polygon fill="black" stroke="black" points="602.78,-340.5 612.78,-337 602.78,-333.5 602.78,-340.5"/>
</g>
<!-- eca_output -->
<g id="node31" class="node">
<title>eca_output</title>
<ellipse fill="#c8e6c8" stroke="black" cx="863.1" cy="-355" rx="60.21" ry="21.43"/>
<text text-anchor="middle" x="863.1" y="-358" font-family="Arial" font-size="10.00">ECA(X)</text>
<text text-anchor="middle" x="863.1" y="-347" font-family="Arial" font-size="10.00">ℝ^(B×C×H×W)</text>
</g>
<!-- eca_sigmoid&#45;&gt;eca_output -->
<g id="edge40" class="edge">
<title>eca_sigmoid&#45;&gt;eca_output</title>
<path fill="none" stroke="black" d="M667.23,-339.14C698.26,-341.66 751.11,-345.96 793.95,-349.45"/>
<polygon fill="black" stroke="black" points="793.79,-352.95 804.04,-350.27 794.36,-345.97 793.79,-352.95"/>
</g>
<!-- fusion -->
<g id="node38" class="node">
<title>fusion</title>
<polygon fill="#fff3e0" stroke="black" points="1089.21,-409 960.21,-379 1089.21,-349 1218.21,-379 1089.21,-409"/>
<text text-anchor="middle" x="1089.21" y="-382" font-family="Arial" font-size="10.00">Hybrid Fusion</text>
<text text-anchor="middle" x="1089.21" y="-371" font-family="Arial" font-size="10.00">ECA(X) ⊙ SAM(X) ⊙ I(X)</text>
</g>
<!-- eca_output&#45;&gt;fusion -->
<g id="edge45" class="edge">
<title>eca_output&#45;&gt;fusion</title>
<path fill="none" stroke="black" d="M920.94,-361.09C942.05,-363.35 966.64,-365.98 990.36,-368.52"/>
<polygon fill="black" stroke="black" points="990.15,-372.02 1000.46,-369.6 990.89,-365.06 990.15,-372.02"/>
</g>
<!-- sam_conv7x7 -->
<g id="node33" class="node">
<title>sam_conv7x7</title>
<polygon fill="#f8bbd9" stroke="black" points="477,-439 423,-439 423,-403 477,-403 477,-439"/>
<text text-anchor="middle" x="450" y="-424" font-family="Arial" font-size="10.00">Conv2D</text>
<text text-anchor="middle" x="450" y="-413" font-family="Arial" font-size="10.00">7×7</text>
</g>
<!-- sam_pool&#45;&gt;sam_conv7x7 -->
<g id="edge41" class="edge">
<title>sam_pool&#45;&gt;sam_conv7x7</title>
<path fill="none" stroke="black" d="M324.24,-422.65C348.76,-422.32 385.29,-421.84 412.49,-421.48"/>
<polygon fill="black" stroke="black" points="412.83,-424.98 422.78,-421.35 412.74,-417.98 412.83,-424.98"/>
</g>
<!-- sam_sigmoid -->
<g id="node34" class="node">
<title>sam_sigmoid</title>
<polygon fill="#f8bbd9" stroke="black" points="667,-438 613,-438 613,-402 667,-402 667,-438"/>
<text text-anchor="middle" x="640" y="-417.5" font-family="Arial" font-size="10.00">Sigmoid</text>
</g>
<!-- sam_conv7x7&#45;&gt;sam_sigmoid -->
<g id="edge42" class="edge">
<title>sam_conv7x7&#45;&gt;sam_sigmoid</title>
<path fill="none" stroke="black" d="M477.14,-420.86C509.74,-420.69 565.65,-420.39 602.47,-420.19"/>
<polygon fill="black" stroke="black" points="602.8,-423.69 612.78,-420.14 602.76,-416.69 602.8,-423.69"/>
</g>
<!-- sam_output -->
<g id="node35" class="node">
<title>sam_output</title>
<ellipse fill="#f8bbd9" stroke="black" cx="863.1" cy="-416" rx="60.21" ry="21.43"/>
<text text-anchor="middle" x="863.1" y="-419" font-family="Arial" font-size="10.00">SAM(X)</text>
<text text-anchor="middle" x="863.1" y="-408" font-family="Arial" font-size="10.00">ℝ^(B×C×H×W)</text>
</g>
<!-- sam_sigmoid&#45;&gt;sam_output -->
<g id="edge43" class="edge">
<title>sam_sigmoid&#45;&gt;sam_output</title>
<path fill="none" stroke="black" d="M667.23,-419.53C697.94,-418.97 750.03,-418.03 792.63,-417.26"/>
<polygon fill="black" stroke="black" points="792.74,-420.76 802.68,-417.08 792.61,-413.76 792.74,-420.76"/>
</g>
<!-- sam_output&#45;&gt;fusion -->
<g id="edge46" class="edge">
<title>sam_output&#45;&gt;fusion</title>
<path fill="none" stroke="black" d="M917.78,-407.14C943.27,-402.93 974.34,-397.8 1002.94,-393.08"/>
<polygon fill="black" stroke="black" points="1003.64,-396.51 1012.94,-391.43 1002.5,-389.6 1003.64,-396.51"/>
</g>
<!-- interaction_output -->
<g id="node37" class="node">
<title>interaction_output</title>
<ellipse fill="#ffe0b2" stroke="black" cx="863.1" cy="-292" rx="27" ry="18"/>
<text text-anchor="middle" x="863.1" y="-289.5" font-family="Arial" font-size="10.00">I(X)</text>
</g>
<!-- cross_interaction&#45;&gt;interaction_output -->
<g id="edge44" class="edge">
<title>cross_interaction&#45;&gt;interaction_output</title>
<path fill="none" stroke="black" d="M671.28,-281.64C711.6,-283.83 782.82,-287.7 825.92,-290.04"/>
<polygon fill="black" stroke="black" points="825.8,-293.53 835.98,-290.58 826.18,-286.55 825.8,-293.53"/>
</g>
<!-- interaction_output&#45;&gt;fusion -->
<g id="edge47" class="edge">
<title>interaction_output&#45;&gt;fusion</title>
<path fill="none" stroke="black" d="M886.83,-300.82C920.24,-313.79 983.74,-338.44 1030.54,-356.61"/>
<polygon fill="black" stroke="black" points="1029.37,-359.91 1039.95,-360.27 1031.9,-353.39 1029.37,-359.91"/>
</g>
<!-- fusion&#45;&gt;residual -->
<g id="edge48" class="edge">
<title>fusion&#45;&gt;residual</title>
<path fill="none" stroke="black" d="M1143,-396.54C1195.61,-414.01 1275.77,-440.64 1327.07,-457.68"/>
<polygon fill="black" stroke="black" points="1326.01,-461.02 1336.61,-460.85 1328.22,-454.37 1326.01,-461.02"/>
</g>
<!-- detail_output -->
<g id="node40" class="node">
<title>detail_output</title>
<ellipse fill="#e8eaf6" stroke="black" cx="1611.87" cy="-474" rx="75.82" ry="21.43"/>
<text text-anchor="middle" x="1611.87" y="-477" font-family="Arial" font-size="10.00">Output Feature</text>
<text text-anchor="middle" x="1611.87" y="-466" font-family="Arial" font-size="10.00">Y ∈ ℝ^(B×C×H×W)</text>
</g>
<!-- residual&#45;&gt;detail_output -->
<g id="edge50" class="edge">
<title>residual&#45;&gt;detail_output</title>
<path fill="none" stroke="black" d="M1448.33,-474C1472.78,-474 1500.48,-474 1526,-474"/>
<polygon fill="black" stroke="black" points="1526.04,-477.5 1536.04,-474 1526.04,-470.5 1526.04,-477.5"/>
</g>
</g>
</svg>
