<?xml version="1.0" encoding="UTF-8" standalone="no"?>
<!DOCTYPE svg PUBLIC "-//W3C//DTD SVG 1.1//EN"
 "http://www.w3.org/Graphics/SVG/1.1/DTD/svg11.dtd">
<!-- Generated by graphviz version 14.0.2 (20251019.1705)
 -->
<!-- Title: ECAcbaMParallelArchitecture Pages: 1 -->
<svg width="435pt" height="933pt"
 viewBox="0.00 0.00 435.00 933.00" xmlns="http://www.w3.org/2000/svg" xmlns:xlink="http://www.w3.org/1999/xlink">
<g id="graph0" class="graph" transform="scale(1 1) rotate(0) translate(4 929.42)">
<title>ECAcbaMParallelArchitecture</title>
<polygon fill="white" stroke="none" points="-4,4 -4,-929.42 431,-929.42 431,4 -4,4"/>
<g id="clust1" class="cluster">
<title>cluster_parallel</title>
<polygon fill="none" stroke="#1976d2" stroke-dasharray="5,2" points="8,-438.42 8,-776.42 356,-776.42 356,-438.42 8,-438.42"/>
<text xml:space="preserve" text-anchor="middle" x="182" y="-761.97" font-family="Times New Roman,serif" font-size="11.00">Parallel Independent Processing</text>
</g>
<g id="clust2" class="cluster">
<title>cluster_eca</title>
<polygon fill="#e3f2fd" stroke="#1565c0" points="16,-446.42 16,-746.92 180,-746.92 180,-446.42 16,-446.42"/>
<text xml:space="preserve" text-anchor="middle" x="98" y="-732.47" font-family="Times New Roman,serif" font-size="11.00">ECA Branch (Channel Attention)</text>
</g>
<g id="clust3" class="cluster">
<title>cluster_sam</title>
<polygon fill="#f3e5f5" stroke="#7b1fa2" points="188,-446.42 188,-746.92 348,-746.92 348,-446.42 188,-446.42"/>
<text xml:space="preserve" text-anchor="middle" x="268" y="-732.47" font-family="Times New Roman,serif" font-size="11.00">SAM Branch (Spatial Attention)</text>
</g>
<!-- title -->
<g id="node1" class="node">
<title>title</title>
<path fill="#e8f4f8" stroke="none" d="M360.88,-925.42C360.88,-925.42 149.12,-925.42 149.12,-925.42 143.12,-925.42 137.12,-919.42 137.12,-913.42 137.12,-913.42 137.12,-897.92 137.12,-897.92 137.12,-891.92 143.12,-885.92 149.12,-885.92 149.12,-885.92 360.88,-885.92 360.88,-885.92 366.88,-885.92 372.88,-891.92 372.88,-897.92 372.88,-897.92 372.88,-913.42 372.88,-913.42 372.88,-919.42 366.88,-925.42 360.88,-925.42"/>
<text xml:space="preserve" text-anchor="middle" x="255" y="-908.12" font-family="Arial" font-size="14.00" fill="#1565c0">ECA&#45;CBAM Parallel Hybrid Attention</text>
<text xml:space="preserve" text-anchor="middle" x="255" y="-892.37" font-family="Arial" font-size="14.00" fill="#1565c0">(Wang et al. 2024)</text>
</g>
<!-- input -->
<g id="node2" class="node">
<title>input</title>
<path fill="#b3e5fc" stroke="black" d="M287.38,-848.92C287.38,-848.92 222.62,-848.92 222.62,-848.92 216.62,-848.92 210.62,-842.92 210.62,-836.92 210.62,-836.92 210.62,-824.92 210.62,-824.92 210.62,-818.92 216.62,-812.92 222.62,-812.92 222.62,-812.92 287.38,-812.92 287.38,-812.92 293.38,-812.92 299.38,-818.92 299.38,-824.92 299.38,-824.92 299.38,-836.92 299.38,-836.92 299.38,-842.92 293.38,-848.92 287.38,-848.92"/>
<text xml:space="preserve" text-anchor="middle" x="255" y="-833.42" font-family="Arial" font-size="10.00">Input Features X</text>
<text xml:space="preserve" text-anchor="middle" x="255" y="-821.42" font-family="Arial" font-size="10.00">[B, C, H, W]</text>
</g>
<!-- title&#45;&gt;input -->
<!-- eca_gap -->
<g id="node3" class="node">
<title>eca_gap</title>
<path fill="#bbdefb" stroke="black" d="M159.62,-717.42C159.62,-717.42 66.38,-717.42 66.38,-717.42 60.38,-717.42 54.38,-711.42 54.38,-705.42 54.38,-705.42 54.38,-693.42 54.38,-693.42 54.38,-687.42 60.38,-681.42 66.38,-681.42 66.38,-681.42 159.62,-681.42 159.62,-681.42 165.62,-681.42 171.62,-687.42 171.62,-693.42 171.62,-693.42 171.62,-705.42 171.62,-705.42 171.62,-711.42 165.62,-717.42 159.62,-717.42"/>
<text xml:space="preserve" text-anchor="middle" x="113" y="-701.92" font-family="Arial" font-size="10.00">Global Average Pooling</text>
<text xml:space="preserve" text-anchor="middle" x="113" y="-689.92" font-family="Arial" font-size="10.00">[B, C, 1, 1]</text>
</g>
<!-- input&#45;&gt;eca_gap -->
<g id="edge8" class="edge">
<title>input&#45;&gt;eca_gap</title>
<path fill="none" stroke="#1565c0" d="M229.85,-812.6C215.88,-802.59 198.46,-789.42 184,-776.42 166.61,-760.77 148.63,-741.49 135.12,-726.27"/>
<polygon fill="#1565c0" stroke="#1565c0" points="137.94,-724.18 128.72,-718.97 132.68,-728.79 137.94,-724.18"/>
<text xml:space="preserve" text-anchor="middle" x="224.84" y="-786.37" font-family="Arial" font-size="9.00">Original X</text>
</g>
<!-- sam_pool -->
<g id="node7" class="node">
<title>sam_pool</title>
<path fill="#e1bee7" stroke="black" d="M292.62,-717.42C292.62,-717.42 217.38,-717.42 217.38,-717.42 211.38,-717.42 205.38,-711.42 205.38,-705.42 205.38,-705.42 205.38,-693.42 205.38,-693.42 205.38,-687.42 211.38,-681.42 217.38,-681.42 217.38,-681.42 292.62,-681.42 292.62,-681.42 298.62,-681.42 304.62,-687.42 304.62,-693.42 304.62,-693.42 304.62,-705.42 304.62,-705.42 304.62,-711.42 298.62,-717.42 292.62,-717.42"/>
<text xml:space="preserve" text-anchor="middle" x="255" y="-701.92" font-family="Arial" font-size="10.00">Max &amp; Avg Pooling</text>
<text xml:space="preserve" text-anchor="middle" x="255" y="-689.92" font-family="Arial" font-size="10.00">[B, 2, H, W]</text>
</g>
<!-- input&#45;&gt;sam_pool -->
<g id="edge9" class="edge">
<title>input&#45;&gt;sam_pool</title>
<path fill="none" stroke="#7b1fa2" d="M255,-812.45C255,-791 255,-754.31 255,-728.79"/>
<polygon fill="#7b1fa2" stroke="#7b1fa2" points="258.5,-729.12 255,-719.12 251.5,-729.12 258.5,-729.12"/>
<text xml:space="preserve" text-anchor="middle" x="275.25" y="-786.37" font-family="Arial" font-size="9.00">Original X</text>
</g>
<!-- apply -->
<g id="node12" class="node">
<title>apply</title>
<path fill="#c8e6c9" stroke="black" d="M357.5,-259.25C357.5,-259.25 278.5,-259.25 278.5,-259.25 272.5,-259.25 266.5,-253.25 266.5,-247.25 266.5,-247.25 266.5,-227.25 266.5,-227.25 266.5,-221.25 272.5,-215.25 278.5,-215.25 278.5,-215.25 357.5,-215.25 357.5,-215.25 363.5,-215.25 369.5,-221.25 369.5,-227.25 369.5,-227.25 369.5,-247.25 369.5,-247.25 369.5,-253.25 363.5,-259.25 357.5,-259.25"/>
<text xml:space="preserve" text-anchor="middle" x="318" y="-245.75" font-family="Arial" font-size="10.00">Apply Hybrid Mask</text>
<text xml:space="preserve" text-anchor="middle" x="318" y="-233.75" font-family="Arial" font-size="10.00">Y = X ⊙ M_hybrid</text>
<text xml:space="preserve" text-anchor="middle" x="318" y="-221.75" font-family="Arial" font-size="10.00">[B, C, H, W]</text>
</g>
<!-- input&#45;&gt;apply -->
<g id="edge13" class="edge">
<title>input&#45;&gt;apply</title>
<path fill="none" stroke="#666666" stroke-dasharray="5,2" d="M299.54,-813.3C317.79,-804.63 337.9,-792.45 352,-776.42 375.98,-749.15 382,-736.73 382,-700.42 382,-700.42 382,-700.42 382,-352.83 382,-321.13 363.1,-290.05 345.84,-268.27"/>
<polygon fill="#666666" stroke="#666666" points="348.64,-266.17 339.57,-260.7 343.25,-270.63 348.64,-266.17"/>
<text xml:space="preserve" text-anchor="middle" x="404.5" y="-542.12" font-family="Arial" font-size="9.00">X (original)</text>
</g>
<!-- eca_conv -->
<g id="node4" class="node">
<title>eca_conv</title>
<path fill="#90caf9" stroke="black" d="M159.12,-644.42C159.12,-644.42 68.88,-644.42 68.88,-644.42 62.88,-644.42 56.87,-638.42 56.87,-632.42 56.87,-632.42 56.87,-612.42 56.87,-612.42 56.87,-606.42 62.87,-600.42 68.88,-600.42 68.88,-600.42 159.12,-600.42 159.12,-600.42 165.12,-600.42 171.12,-606.42 171.12,-612.42 171.12,-612.42 171.12,-632.42 171.12,-632.42 171.12,-638.42 165.12,-644.42 159.12,-644.42"/>
<text xml:space="preserve" text-anchor="middle" x="114" y="-630.92" font-family="Arial" font-size="10.00">1D Conv (adaptive k)</text>
<text xml:space="preserve" text-anchor="middle" x="114" y="-618.92" font-family="Arial" font-size="10.00">k = |log₂(C)/γ + β/γ|</text>
<text xml:space="preserve" text-anchor="middle" x="114" y="-606.92" font-family="Arial" font-size="10.00">Params: ~22</text>
</g>
<!-- eca_gap&#45;&gt;eca_conv -->
<g id="edge1" class="edge">
<title>eca_gap&#45;&gt;eca_conv</title>
<path fill="none" stroke="black" d="M113.23,-681.02C113.33,-673.58 113.45,-664.65 113.56,-656.06"/>
<polygon fill="black" stroke="black" points="117.06,-656.29 113.7,-646.25 110.06,-656.2 117.06,-656.29"/>
</g>
<!-- eca_sigmoid -->
<g id="node5" class="node">
<title>eca_sigmoid</title>
<path fill="#64b5f6" stroke="black" d="M133,-563.42C133,-563.42 103,-563.42 103,-563.42 97,-563.42 91,-557.42 91,-551.42 91,-551.42 91,-539.42 91,-539.42 91,-533.42 97,-527.42 103,-527.42 103,-527.42 133,-527.42 133,-527.42 139,-527.42 145,-533.42 145,-539.42 145,-539.42 145,-551.42 145,-551.42 145,-557.42 139,-563.42 133,-563.42"/>
<text xml:space="preserve" text-anchor="middle" x="118" y="-547.92" font-family="Arial" font-size="10.00">Sigmoid</text>
<text xml:space="preserve" text-anchor="middle" x="118" y="-535.92" font-family="Arial" font-size="10.00">σ(·)</text>
</g>
<!-- eca_conv&#45;&gt;eca_sigmoid -->
<g id="edge2" class="edge">
<title>eca_conv&#45;&gt;eca_sigmoid</title>
<path fill="none" stroke="black" d="M115.14,-600.13C115.56,-592.24 116.04,-583.16 116.49,-574.75"/>
<polygon fill="black" stroke="black" points="119.97,-575.16 117.01,-564.99 112.98,-574.79 119.97,-575.16"/>
</g>
<!-- eca_mask -->
<g id="node6" class="node">
<title>eca_mask</title>
<path fill="#42a5f5" stroke="black" d="M158.38,-490.42C158.38,-490.42 81.62,-490.42 81.62,-490.42 75.62,-490.42 69.62,-484.42 69.62,-478.42 69.62,-478.42 69.62,-466.42 69.62,-466.42 69.62,-460.42 75.62,-454.42 81.62,-454.42 81.62,-454.42 158.38,-454.42 158.38,-454.42 164.38,-454.42 170.38,-460.42 170.38,-466.42 170.38,-466.42 170.38,-478.42 170.38,-478.42 170.38,-484.42 164.38,-490.42 158.38,-490.42"/>
<text xml:space="preserve" text-anchor="middle" x="120" y="-474.92" font-family="Arial" font-size="10.00">Channel Mask M_c</text>
<text xml:space="preserve" text-anchor="middle" x="120" y="-462.92" font-family="Arial" font-size="10.00">[B, C, 1, 1]</text>
</g>
<!-- eca_sigmoid&#45;&gt;eca_mask -->
<g id="edge3" class="edge">
<title>eca_sigmoid&#45;&gt;eca_mask</title>
<path fill="none" stroke="black" d="M118.48,-527.23C118.7,-519.55 118.96,-510.31 119.2,-501.66"/>
<polygon fill="black" stroke="black" points="122.69,-502.05 119.48,-491.96 115.7,-501.86 122.69,-502.05"/>
</g>
<!-- fusion -->
<g id="node11" class="node">
<title>fusion</title>
<ellipse fill="#fff9c4" stroke="black" cx="255" cy="-353.83" rx="90.33" ry="48.08"/>
<text xml:space="preserve" text-anchor="middle" x="255" y="-374.33" font-family="Arial" font-size="10.00">Multiplicative Fusion</text>
<text xml:space="preserve" text-anchor="middle" x="255" y="-362.33" font-family="Arial" font-size="10.00">M_hybrid = M_c ⊙ M_s</text>
<text xml:space="preserve" text-anchor="middle" x="255" y="-350.33" font-family="Arial" font-size="10.00">[B, C, H, W]</text>
<text xml:space="preserve" text-anchor="middle" x="255" y="-326.33" font-family="Arial" font-size="10.00">Params: 0 (element&#45;wise)</text>
</g>
<!-- eca_mask&#45;&gt;fusion -->
<g id="edge10" class="edge">
<title>eca_mask&#45;&gt;fusion</title>
<path fill="none" stroke="#1565c0" d="M140.21,-453.96C155.92,-440.4 178.5,-420.9 199.48,-402.78"/>
<polygon fill="#1565c0" stroke="#1565c0" points="201.61,-405.56 206.89,-396.38 197.04,-400.26 201.61,-405.56"/>
<text xml:space="preserve" text-anchor="middle" x="188.04" y="-421.87" font-family="Arial" font-size="9.00">M_c</text>
</g>
<!-- sam_conv -->
<g id="node8" class="node">
<title>sam_conv</title>
<path fill="#ce93d8" stroke="black" d="M276.12,-640.42C276.12,-640.42 233.88,-640.42 233.88,-640.42 227.88,-640.42 221.88,-634.42 221.88,-628.42 221.88,-628.42 221.88,-616.42 221.88,-616.42 221.88,-610.42 227.88,-604.42 233.88,-604.42 233.88,-604.42 276.12,-604.42 276.12,-604.42 282.12,-604.42 288.12,-610.42 288.12,-616.42 288.12,-616.42 288.12,-628.42 288.12,-628.42 288.12,-634.42 282.12,-640.42 276.12,-640.42"/>
<text xml:space="preserve" text-anchor="middle" x="255" y="-624.92" font-family="Arial" font-size="10.00">Conv 7×7</text>
<text xml:space="preserve" text-anchor="middle" x="255" y="-612.92" font-family="Arial" font-size="10.00">Params: 98</text>
</g>
<!-- sam_pool&#45;&gt;sam_conv -->
<g id="edge4" class="edge">
<title>sam_pool&#45;&gt;sam_conv</title>
<path fill="none" stroke="black" d="M255,-681.02C255,-672.41 255,-661.78 255,-652.02"/>
<polygon fill="black" stroke="black" points="258.5,-652.23 255,-642.23 251.5,-652.23 258.5,-652.23"/>
</g>
<!-- sam_sigmoid -->
<g id="node9" class="node">
<title>sam_sigmoid</title>
<path fill="#ba68c8" stroke="black" d="M270,-563.42C270,-563.42 240,-563.42 240,-563.42 234,-563.42 228,-557.42 228,-551.42 228,-551.42 228,-539.42 228,-539.42 228,-533.42 234,-527.42 240,-527.42 240,-527.42 270,-527.42 270,-527.42 276,-527.42 282,-533.42 282,-539.42 282,-539.42 282,-551.42 282,-551.42 282,-557.42 276,-563.42 270,-563.42"/>
<text xml:space="preserve" text-anchor="middle" x="255" y="-547.92" font-family="Arial" font-size="10.00">Sigmoid</text>
<text xml:space="preserve" text-anchor="middle" x="255" y="-535.92" font-family="Arial" font-size="10.00">σ(·)</text>
</g>
<!-- sam_conv&#45;&gt;sam_sigmoid -->
<g id="edge5" class="edge">
<title>sam_conv&#45;&gt;sam_sigmoid</title>
<path fill="none" stroke="black" d="M255,-604.02C255,-595.41 255,-584.78 255,-575.02"/>
<polygon fill="black" stroke="black" points="258.5,-575.23 255,-565.23 251.5,-575.23 258.5,-575.23"/>
</g>
<!-- sam_mask -->
<g id="node10" class="node">
<title>sam_mask</title>
<path fill="#ab47bc" stroke="black" d="M290.38,-490.42C290.38,-490.42 219.62,-490.42 219.62,-490.42 213.62,-490.42 207.62,-484.42 207.62,-478.42 207.62,-478.42 207.62,-466.42 207.62,-466.42 207.62,-460.42 213.62,-454.42 219.62,-454.42 219.62,-454.42 290.38,-454.42 290.38,-454.42 296.38,-454.42 302.38,-460.42 302.38,-466.42 302.38,-466.42 302.38,-478.42 302.38,-478.42 302.38,-484.42 296.38,-490.42 290.38,-490.42"/>
<text xml:space="preserve" text-anchor="middle" x="255" y="-474.92" font-family="Arial" font-size="10.00">Spatial Mask M_s</text>
<text xml:space="preserve" text-anchor="middle" x="255" y="-462.92" font-family="Arial" font-size="10.00">[B, 1, H, W]</text>
</g>
<!-- sam_sigmoid&#45;&gt;sam_mask -->
<g id="edge6" class="edge">
<title>sam_sigmoid&#45;&gt;sam_mask</title>
<path fill="none" stroke="black" d="M255,-527.23C255,-519.64 255,-510.52 255,-501.96"/>
<polygon fill="black" stroke="black" points="258.5,-501.96 255,-491.96 251.5,-501.96 258.5,-501.96"/>
</g>
<!-- sam_mask&#45;&gt;fusion -->
<g id="edge11" class="edge">
<title>sam_mask&#45;&gt;fusion</title>
<path fill="none" stroke="#7b1fa2" d="M255,-453.96C255,-443.03 255,-428.24 255,-413.43"/>
<polygon fill="#7b1fa2" stroke="#7b1fa2" points="258.5,-413.68 255,-403.68 251.5,-413.68 258.5,-413.68"/>
<text xml:space="preserve" text-anchor="middle" x="263.62" y="-421.87" font-family="Arial" font-size="9.00">M_s</text>
</g>
<!-- fusion&#45;&gt;apply -->
<g id="edge12" class="edge">
<title>fusion&#45;&gt;apply</title>
<path fill="none" stroke="black" d="M280.08,-307.22C287.02,-294.6 294.39,-281.2 300.76,-269.6"/>
<polygon fill="black" stroke="black" points="303.82,-271.3 305.58,-260.85 297.69,-267.92 303.82,-271.3"/>
<text xml:space="preserve" text-anchor="middle" x="314.95" y="-279.2" font-family="Arial" font-size="9.00">M_hybrid</text>
</g>
<!-- output -->
<g id="node13" class="node">
<title>output</title>
<path fill="#a5d6a7" stroke="black" d="M381.88,-178.25C381.88,-178.25 254.12,-178.25 254.12,-178.25 248.12,-178.25 242.12,-172.25 242.12,-166.25 242.12,-166.25 242.12,-146.25 242.12,-146.25 242.12,-140.25 248.12,-134.25 254.12,-134.25 254.12,-134.25 381.88,-134.25 381.88,-134.25 387.88,-134.25 393.88,-140.25 393.88,-146.25 393.88,-146.25 393.88,-166.25 393.88,-166.25 393.88,-172.25 387.88,-178.25 381.88,-178.25"/>
<text xml:space="preserve" text-anchor="middle" x="318" y="-164.75" font-family="Arial" font-size="10.00">Output Y</text>
<text xml:space="preserve" text-anchor="middle" x="318" y="-152.75" font-family="Arial" font-size="10.00">[B, C, H, W]</text>
<text xml:space="preserve" text-anchor="middle" x="318" y="-140.75" font-family="Arial" font-size="10.00">Channel + Spatial Recalibrated</text>
</g>
<!-- apply&#45;&gt;output -->
<g id="edge14" class="edge">
<title>apply&#45;&gt;output</title>
<path fill="none" stroke="black" d="M318,-215.08C318,-207.29 318,-198.27 318,-189.71"/>
<polygon fill="black" stroke="black" points="321.5,-189.99 318,-179.99 314.5,-189.99 321.5,-189.99"/>
</g>
<!-- info -->
<g id="node14" class="node">
<title>info</title>
<polygon fill="#fffde7" stroke="black" points="407.38,-97.25 222.62,-97.25 222.62,0 413.38,0 413.38,-91.25 407.38,-97.25"/>
<polyline fill="none" stroke="black" points="407.38,-97.25 407.38,-91.25"/>
<polyline fill="none" stroke="black" points="413.38,-91.25 407.38,-91.25"/>
<text xml:space="preserve" text-anchor="middle" x="318" y="-84.7" font-family="Arial" font-size="9.00">Advantages (Wang et al. 2024):</text>
<text xml:space="preserve" text-anchor="middle" x="318" y="-74.2" font-family="Arial" font-size="9.00">✓ Both modules see unfiltered input X</text>
<text xml:space="preserve" text-anchor="middle" x="318" y="-62.95" font-family="Arial" font-size="9.00">✓ Independent parallel computation</text>
<text xml:space="preserve" text-anchor="middle" x="318" y="-51.7" font-family="Arial" font-size="9.00">✓ Better complementarity (M_c ⊙ M_s)</text>
<text xml:space="preserve" text-anchor="middle" x="318" y="-40.45" font-family="Arial" font-size="9.00">✓ Reduced module interference</text>
<text xml:space="preserve" text-anchor="middle" x="318" y="-29.2" font-family="Arial" font-size="9.00">✓ Improved gradient flow</text>
<text xml:space="preserve" text-anchor="middle" x="318" y="-17.95" font-family="Arial" font-size="9.00">✓ +6.5% mAP vs Sequential</text>
<text xml:space="preserve" text-anchor="middle" x="318" y="-6.7" font-family="Arial" font-size="9.00">✓ 0 fusion parameters</text>
</g>
<!-- output&#45;&gt;info -->
</g>
</svg>
