<?xml version="1.0" encoding="UTF-8" standalone="no"?>
<!DOCTYPE svg PUBLIC "-//W3C//DTD SVG 1.1//EN"
 "http://www.w3.org/Graphics/SVG/1.1/DTD/svg11.dtd">
<!-- Generated by graphviz version 14.0.2 (20251019.1705)
 -->
<!-- Title: ECAcbamArchitecture Pages: 1 -->
<svg width="1379pt" height="256pt"
 viewBox="0.00 0.00 1379.00 256.00" xmlns="http://www.w3.org/2000/svg" xmlns:xlink="http://www.w3.org/1999/xlink">
<g id="graph0" class="graph" transform="scale(1 1) rotate(0) translate(4 251.75)">
<title>ECAcbamArchitecture</title>
<polygon fill="white" stroke="none" points="-4,4 -4,-251.75 1375.34,-251.75 1375.34,4 -4,4"/>
<text xml:space="preserve" text-anchor="middle" x="685.67" y="-230.45" font-family="Arial Bold" font-size="14.00">FeatherFace ECA&#45;CBAM Sequential Architecture (476,345 parameters)</text>
<g id="clust1" class="cluster">
<title>cluster_backbone</title>
<polygon fill="#fff3e0" stroke="black" points="123.81,-20 123.81,-204 348.06,-204 348.06,-20 123.81,-20"/>
<text xml:space="preserve" text-anchor="middle" x="235.94" y="-186.7" font-family="Arial Bold" font-size="14.00">MobileNetV1&#45;0.25 Backbone</text>
</g>
<g id="clust2" class="cluster">
<title>cluster_backbone_att</title>
<polygon fill="#e3f2fd" stroke="black" points="368.06,-8 368.06,-216 660.81,-216 660.81,-8 368.06,-8"/>
<text xml:space="preserve" text-anchor="middle" x="514.44" y="-198.7" font-family="Arial Bold" font-size="14.00">Backbone ECA&#45;CBAM Sequential Attention</text>
</g>
<g id="clust3" class="cluster">
<title>cluster_fpn</title>
<polygon fill="#e8f5e8" stroke="black" points="680.81,-20 680.81,-204 937.56,-204 937.56,-20 680.81,-20"/>
<text xml:space="preserve" text-anchor="middle" x="809.19" y="-186.7" font-family="Arial Bold" font-size="14.00">BiFPN Feature Pyramid (52 channels)</text>
</g>
<g id="clust4" class="cluster">
<title>cluster_bifpn_att</title>
<polygon fill="#e3f2fd" stroke="black" points="957.56,-8 957.56,-216 1226.31,-216 1226.31,-8 957.56,-8"/>
<text xml:space="preserve" text-anchor="middle" x="1091.94" y="-198.7" font-family="Arial Bold" font-size="14.00">BiFPN ECA&#45;CBAM Sequential Attention</text>
</g>
<!-- input -->
<g id="node1" class="node">
<title>input</title>
<ellipse fill="#e8f4fd" stroke="black" cx="47.91" cy="-100" rx="47.91" ry="22.63"/>
<text xml:space="preserve" text-anchor="middle" x="47.91" y="-102.5" font-family="Arial" font-size="10.00">Input Image</text>
<text xml:space="preserve" text-anchor="middle" x="47.91" y="-90.5" font-family="Arial" font-size="10.00">640x640x3</text>
</g>
<!-- mobilenet -->
<g id="node2" class="node">
<title>mobilenet</title>
<polygon fill="#ffe0b2" stroke="black" points="225.81,-118 131.81,-118 131.81,-82 225.81,-82 225.81,-118"/>
<text xml:space="preserve" text-anchor="middle" x="178.81" y="-102.5" font-family="Arial" font-size="10.00">MobileNetV1&#45;0.25</text>
<text xml:space="preserve" text-anchor="middle" x="178.81" y="-90.5" font-family="Arial" font-size="10.00">213,072 params</text>
</g>
<!-- input&#45;&gt;mobilenet -->
<g id="edge1" class="edge">
<title>input&#45;&gt;mobilenet</title>
<path fill="none" stroke="black" d="M96.17,-100C103.9,-100 111.98,-100 119.92,-100"/>
<polygon fill="black" stroke="black" points="119.9,-103.5 129.9,-100 119.9,-96.5 119.9,-103.5"/>
</g>
<!-- stage1 -->
<g id="node3" class="node">
<title>stage1</title>
<polygon fill="#ffcc80" stroke="black" points="337.44,-64 264.44,-64 264.44,-28 337.44,-28 337.44,-64"/>
<text xml:space="preserve" text-anchor="middle" x="300.94" y="-48.5" font-family="Arial" font-size="10.00">Stage 1 P3/8</text>
<text xml:space="preserve" text-anchor="middle" x="300.94" y="-36.5" font-family="Arial" font-size="10.00">64 channels</text>
</g>
<!-- mobilenet&#45;&gt;stage1 -->
<g id="edge2" class="edge">
<title>mobilenet&#45;&gt;stage1</title>
<path fill="none" stroke="black" d="M220.82,-81.57C231.32,-76.85 242.69,-71.74 253.44,-66.9"/>
<polygon fill="black" stroke="black" points="254.87,-70.1 262.56,-62.8 252,-63.71 254.87,-70.1"/>
</g>
<!-- stage2 -->
<g id="node4" class="node">
<title>stage2</title>
<polygon fill="#ffcc80" stroke="black" points="340.06,-118 261.81,-118 261.81,-82 340.06,-82 340.06,-118"/>
<text xml:space="preserve" text-anchor="middle" x="300.94" y="-102.5" font-family="Arial" font-size="10.00">Stage 2 P4/16</text>
<text xml:space="preserve" text-anchor="middle" x="300.94" y="-90.5" font-family="Arial" font-size="10.00">128 channels</text>
</g>
<!-- mobilenet&#45;&gt;stage2 -->
<g id="edge5" class="edge">
<title>mobilenet&#45;&gt;stage2</title>
<path fill="none" stroke="black" d="M226.26,-100C234.06,-100 242.19,-100 250.08,-100"/>
<polygon fill="black" stroke="black" points="249.89,-103.5 259.89,-100 249.89,-96.5 249.89,-103.5"/>
</g>
<!-- stage3 -->
<g id="node5" class="node">
<title>stage3</title>
<polygon fill="#ffcc80" stroke="black" points="340.06,-172 261.81,-172 261.81,-136 340.06,-136 340.06,-172"/>
<text xml:space="preserve" text-anchor="middle" x="300.94" y="-156.5" font-family="Arial" font-size="10.00">Stage 3 P5/32</text>
<text xml:space="preserve" text-anchor="middle" x="300.94" y="-144.5" font-family="Arial" font-size="10.00">256 channels</text>
</g>
<!-- mobilenet&#45;&gt;stage3 -->
<g id="edge8" class="edge">
<title>mobilenet&#45;&gt;stage3</title>
<path fill="none" stroke="black" d="M220.82,-118.43C230.6,-122.83 241.14,-127.57 251.24,-132.11"/>
<polygon fill="black" stroke="black" points="249.61,-135.21 260.17,-136.12 252.48,-128.83 249.61,-135.21"/>
</g>
<!-- backbone_att1 -->
<g id="node6" class="node">
<title>backbone_att1</title>
<polygon fill="#bbdefb" stroke="black" points="550.44,-60 477.44,-60 477.44,-16 550.44,-16 550.44,-60"/>
<text xml:space="preserve" text-anchor="middle" x="513.94" y="-46.5" font-family="Arial" font-size="10.00">ECA&#45;&gt;SAM</text>
<text xml:space="preserve" text-anchor="middle" x="513.94" y="-34.5" font-family="Arial" font-size="10.00">64 ch</text>
<text xml:space="preserve" text-anchor="middle" x="513.94" y="-22.5" font-family="Arial" font-size="10.00">~120 params</text>
</g>
<!-- stage1&#45;&gt;backbone_att1 -->
<g id="edge3" class="edge">
<title>stage1&#45;&gt;backbone_att1</title>
<path fill="none" stroke="black" d="M337.73,-44.64C372.89,-43.31 426.76,-41.27 465.48,-39.8"/>
<polygon fill="black" stroke="black" points="465.6,-43.3 475.46,-39.42 465.33,-36.3 465.6,-43.3"/>
</g>
<!-- backbone_att2 -->
<g id="node7" class="node">
<title>backbone_att2</title>
<polygon fill="#bbdefb" stroke="black" points="550.44,-122 477.44,-122 477.44,-78 550.44,-78 550.44,-122"/>
<text xml:space="preserve" text-anchor="middle" x="513.94" y="-108.5" font-family="Arial" font-size="10.00">ECA&#45;&gt;SAM</text>
<text xml:space="preserve" text-anchor="middle" x="513.94" y="-96.5" font-family="Arial" font-size="10.00">128 ch</text>
<text xml:space="preserve" text-anchor="middle" x="513.94" y="-84.5" font-family="Arial" font-size="10.00">~120 params</text>
</g>
<!-- stage2&#45;&gt;backbone_att2 -->
<g id="edge6" class="edge">
<title>stage2&#45;&gt;backbone_att2</title>
<path fill="none" stroke="black" d="M340.15,-100C375.45,-100 428,-100 465.87,-100"/>
<polygon fill="black" stroke="black" points="465.61,-103.5 475.61,-100 465.61,-96.5 465.61,-103.5"/>
</g>
<!-- backbone_att3 -->
<g id="node8" class="node">
<title>backbone_att3</title>
<polygon fill="#bbdefb" stroke="black" points="550.44,-184 477.44,-184 477.44,-140 550.44,-140 550.44,-184"/>
<text xml:space="preserve" text-anchor="middle" x="513.94" y="-170.5" font-family="Arial" font-size="10.00">ECA&#45;&gt;SAM</text>
<text xml:space="preserve" text-anchor="middle" x="513.94" y="-158.5" font-family="Arial" font-size="10.00">256 ch</text>
<text xml:space="preserve" text-anchor="middle" x="513.94" y="-146.5" font-family="Arial" font-size="10.00">~120 params</text>
</g>
<!-- stage3&#45;&gt;backbone_att3 -->
<g id="edge9" class="edge">
<title>stage3&#45;&gt;backbone_att3</title>
<path fill="none" stroke="black" d="M340.15,-155.45C375.45,-156.79 428,-158.78 465.87,-160.22"/>
<polygon fill="black" stroke="black" points="465.48,-163.7 475.61,-160.58 465.75,-156.71 465.48,-163.7"/>
</g>
<!-- bifpn -->
<g id="node9" class="node">
<title>bifpn</title>
<polygon fill="#c8e6c8" stroke="black" points="798.94,-118 713.19,-118 713.19,-82 798.94,-82 798.94,-118"/>
<text xml:space="preserve" text-anchor="middle" x="756.06" y="-102.5" font-family="Arial" font-size="10.00">BiFPN</text>
<text xml:space="preserve" text-anchor="middle" x="756.06" y="-90.5" font-family="Arial" font-size="10.00">189,840 params</text>
</g>
<!-- backbone_att1&#45;&gt;bifpn -->
<g id="edge4" class="edge">
<title>backbone_att1&#45;&gt;bifpn</title>
<path fill="none" stroke="black" d="M550.87,-44.51C580.55,-50.16 623.69,-58.98 660.81,-69 674.46,-72.68 689.04,-77.19 702.56,-81.61"/>
<polygon fill="black" stroke="black" points="701.1,-84.82 711.7,-84.65 703.31,-78.18 701.1,-84.82"/>
</g>
<!-- backbone_att2&#45;&gt;bifpn -->
<g id="edge7" class="edge">
<title>backbone_att2&#45;&gt;bifpn</title>
<path fill="none" stroke="black" d="M550.89,-100C590.81,-100 655.67,-100 701.56,-100"/>
<polygon fill="black" stroke="black" points="701.28,-103.5 711.28,-100 701.28,-96.5 701.28,-103.5"/>
</g>
<!-- backbone_att3&#45;&gt;bifpn -->
<g id="edge10" class="edge">
<title>backbone_att3&#45;&gt;bifpn</title>
<path fill="none" stroke="black" d="M550.87,-155.49C580.55,-149.84 623.69,-141.02 660.81,-131 674.46,-127.32 689.04,-122.81 702.56,-118.39"/>
<polygon fill="black" stroke="black" points="703.31,-121.82 711.7,-115.35 701.1,-115.18 703.31,-121.82"/>
</g>
<!-- p3 -->
<g id="node10" class="node">
<title>p3</title>
<polygon fill="#a5d6a7" stroke="black" points="904.19,-64 834.94,-64 834.94,-28 904.19,-28 904.19,-64"/>
<text xml:space="preserve" text-anchor="middle" x="869.56" y="-48.5" font-family="Arial" font-size="10.00">P3 Features</text>
<text xml:space="preserve" text-anchor="middle" x="869.56" y="-36.5" font-family="Arial" font-size="10.00">52 channels</text>
</g>
<!-- bifpn&#45;&gt;p3 -->
<g id="edge11" class="edge">
<title>bifpn&#45;&gt;p3</title>
<path fill="none" stroke="black" d="M795.12,-81.57C804.57,-76.99 814.78,-72.05 824.5,-67.34"/>
<polygon fill="black" stroke="black" points="825.94,-70.53 833.42,-63.02 822.89,-64.23 825.94,-70.53"/>
</g>
<!-- p4 -->
<g id="node11" class="node">
<title>p4</title>
<polygon fill="#a5d6a7" stroke="black" points="904.19,-118 834.94,-118 834.94,-82 904.19,-82 904.19,-118"/>
<text xml:space="preserve" text-anchor="middle" x="869.56" y="-102.5" font-family="Arial" font-size="10.00">P4 Features</text>
<text xml:space="preserve" text-anchor="middle" x="869.56" y="-90.5" font-family="Arial" font-size="10.00">52 channels</text>
</g>
<!-- bifpn&#45;&gt;p4 -->
<g id="edge14" class="edge">
<title>bifpn&#45;&gt;p4</title>
<path fill="none" stroke="black" d="M799.22,-100C807.09,-100 815.35,-100 823.31,-100"/>
<polygon fill="black" stroke="black" points="823.17,-103.5 833.17,-100 823.17,-96.5 823.17,-103.5"/>
</g>
<!-- p5 -->
<g id="node12" class="node">
<title>p5</title>
<polygon fill="#a5d6a7" stroke="black" points="904.19,-172 834.94,-172 834.94,-136 904.19,-136 904.19,-172"/>
<text xml:space="preserve" text-anchor="middle" x="869.56" y="-156.5" font-family="Arial" font-size="10.00">P5 Features</text>
<text xml:space="preserve" text-anchor="middle" x="869.56" y="-144.5" font-family="Arial" font-size="10.00">52 channels</text>
</g>
<!-- bifpn&#45;&gt;p5 -->
<g id="edge17" class="edge">
<title>bifpn&#45;&gt;p5</title>
<path fill="none" stroke="black" d="M795.12,-118.43C804.57,-123.01 814.78,-127.95 824.5,-132.66"/>
<polygon fill="black" stroke="black" points="822.89,-135.77 833.42,-136.98 825.94,-129.47 822.89,-135.77"/>
</g>
<!-- bifpn_att1 -->
<g id="node13" class="node">
<title>bifpn_att1</title>
<polygon fill="#bbdefb" stroke="black" points="1127.94,-60 1054.94,-60 1054.94,-16 1127.94,-16 1127.94,-60"/>
<text xml:space="preserve" text-anchor="middle" x="1091.44" y="-46.5" font-family="Arial" font-size="10.00">ECA&#45;&gt;SAM</text>
<text xml:space="preserve" text-anchor="middle" x="1091.44" y="-34.5" font-family="Arial" font-size="10.00">52 ch P3</text>
<text xml:space="preserve" text-anchor="middle" x="1091.44" y="-22.5" font-family="Arial" font-size="10.00">~120 params</text>
</g>
<!-- p3&#45;&gt;bifpn_att1 -->
<g id="edge12" class="edge">
<title>p3&#45;&gt;bifpn_att1</title>
<path fill="none" stroke="black" d="M904.44,-44.77C941.65,-43.41 1001.68,-41.23 1043.44,-39.71"/>
<polygon fill="black" stroke="black" points="1043.32,-43.22 1053.19,-39.36 1043.07,-36.22 1043.32,-43.22"/>
</g>
<!-- bifpn_att2 -->
<g id="node14" class="node">
<title>bifpn_att2</title>
<polygon fill="#bbdefb" stroke="black" points="1127.94,-122 1054.94,-122 1054.94,-78 1127.94,-78 1127.94,-122"/>
<text xml:space="preserve" text-anchor="middle" x="1091.44" y="-108.5" font-family="Arial" font-size="10.00">ECA&#45;&gt;SAM</text>
<text xml:space="preserve" text-anchor="middle" x="1091.44" y="-96.5" font-family="Arial" font-size="10.00">52 ch P4</text>
<text xml:space="preserve" text-anchor="middle" x="1091.44" y="-84.5" font-family="Arial" font-size="10.00">~120 params</text>
</g>
<!-- p4&#45;&gt;bifpn_att2 -->
<g id="edge15" class="edge">
<title>p4&#45;&gt;bifpn_att2</title>
<path fill="none" stroke="black" d="M904.44,-100C941.65,-100 1001.68,-100 1043.44,-100"/>
<polygon fill="black" stroke="black" points="1043.19,-103.5 1053.19,-100 1043.19,-96.5 1043.19,-103.5"/>
</g>
<!-- bifpn_att3 -->
<g id="node15" class="node">
<title>bifpn_att3</title>
<polygon fill="#bbdefb" stroke="black" points="1127.94,-184 1054.94,-184 1054.94,-140 1127.94,-140 1127.94,-184"/>
<text xml:space="preserve" text-anchor="middle" x="1091.44" y="-170.5" font-family="Arial" font-size="10.00">ECA&#45;&gt;SAM</text>
<text xml:space="preserve" text-anchor="middle" x="1091.44" y="-158.5" font-family="Arial" font-size="10.00">52 ch P5</text>
<text xml:space="preserve" text-anchor="middle" x="1091.44" y="-146.5" font-family="Arial" font-size="10.00">~120 params</text>
</g>
<!-- p5&#45;&gt;bifpn_att3 -->
<g id="edge18" class="edge">
<title>p5&#45;&gt;bifpn_att3</title>
<path fill="none" stroke="black" d="M904.44,-155.23C941.65,-156.59 1001.68,-158.77 1043.44,-160.29"/>
<polygon fill="black" stroke="black" points="1043.07,-163.78 1053.19,-160.64 1043.32,-156.78 1043.07,-163.78"/>
</g>
<!-- output -->
<g id="node16" class="node">
<title>output</title>
<ellipse fill="#ffcdd2" stroke="black" cx="1312.83" cy="-100" rx="58.51" ry="22.63"/>
<text xml:space="preserve" text-anchor="middle" x="1312.83" y="-102.5" font-family="Arial" font-size="10.00">Face Detection</text>
<text xml:space="preserve" text-anchor="middle" x="1312.83" y="-90.5" font-family="Arial" font-size="10.00">Results</text>
</g>
<!-- bifpn_att1&#45;&gt;output -->
<g id="edge13" class="edge">
<title>bifpn_att1&#45;&gt;output</title>
<path fill="none" stroke="black" d="M1128.26,-45.07C1155.39,-50.72 1193.48,-59.29 1226.31,-69 1237.33,-72.26 1248.99,-76.17 1260.04,-80.1"/>
<polygon fill="black" stroke="black" points="1258.82,-83.38 1269.42,-83.49 1261.2,-76.8 1258.82,-83.38"/>
</g>
<!-- bifpn_att2&#45;&gt;output -->
<g id="edge16" class="edge">
<title>bifpn_att2&#45;&gt;output</title>
<path fill="none" stroke="black" d="M1128.17,-100C1158.98,-100 1204.36,-100 1242.31,-100"/>
<polygon fill="black" stroke="black" points="1242.3,-103.5 1252.3,-100 1242.3,-96.5 1242.3,-103.5"/>
</g>
<!-- bifpn_att3&#45;&gt;output -->
<g id="edge19" class="edge">
<title>bifpn_att3&#45;&gt;output</title>
<path fill="none" stroke="black" d="M1128.26,-154.93C1155.39,-149.28 1193.48,-140.71 1226.31,-131 1237.33,-127.74 1248.99,-123.83 1260.04,-119.9"/>
<polygon fill="black" stroke="black" points="1261.2,-123.2 1269.42,-116.51 1258.82,-116.62 1261.2,-123.2"/>
</g>
</g>
</svg>
