<?xml version="1.0" encoding="UTF-8" standalone="no"?>
<!DOCTYPE svg PUBLIC "-//W3C//DTD SVG 1.1//EN"
 "http://www.w3.org/Graphics/SVG/1.1/DTD/svg11.dtd">
<!-- Generated by graphviz version 2.43.0 (0)
 -->
<!-- Title: ECAcbamArchitecture Pages: 1 -->
<svg width="1997pt" height="410pt"
 viewBox="0.00 0.00 1997.15 410.00" xmlns="http://www.w3.org/2000/svg" xmlns:xlink="http://www.w3.org/1999/xlink">
<g id="graph0" class="graph" transform="scale(1 1) rotate(0) translate(4 406)">
<title>ECAcbamArchitecture</title>
<polygon fill="white" stroke="transparent" points="-4,4 -4,-406 1993.15,-406 1993.15,4 -4,4"/>
<text text-anchor="middle" x="994.57" y="-386.8" font-family="Arial Bold" font-size="14.00">FeatherFace ECA&#45;CBAM Hybrid Architecture (451,895 parameters)</text>
<g id="clust1" class="cluster">
<title>cluster_backbone</title>
<polygon fill="#fff3e0" stroke="#f57c00" points="196.32,-36 196.32,-219 398.32,-219 398.32,-36 196.32,-36"/>
<text text-anchor="middle" x="297.32" y="-203.8" font-family="Arial Bold" font-size="14.00">MobileNetV1&#45;0.25 Backbone</text>
</g>
<g id="clust2" class="cluster">
<title>cluster_backbone_ecacbam</title>
<polygon fill="#e3f2fd" stroke="#2196f3" points="419.32,-28 419.32,-227 687.32,-227 687.32,-28 419.32,-28"/>
<text text-anchor="middle" x="553.32" y="-211.8" font-family="Arial Bold" font-size="14.00">Backbone ECA&#45;CBAM Hybrid Attention</text>
</g>
<g id="clust3" class="cluster">
<title>cluster_fpn</title>
<polygon fill="#e8f5e8" stroke="#4caf50" points="768.57,-36 768.57,-219 1012.83,-219 1012.83,-36 768.57,-36"/>
<text text-anchor="middle" x="890.7" y="-203.8" font-family="Arial Bold" font-size="14.00">BiFPN Feature Pyramid</text>
</g>
<g id="clust4" class="cluster">
<title>cluster_bifpn_ecacbam</title>
<polygon fill="#e3f2fd" stroke="#2196f3" points="1033.83,-12 1033.83,-243 1277.83,-243 1277.83,-12 1033.83,-12"/>
<text text-anchor="middle" x="1155.83" y="-227.8" font-family="Arial Bold" font-size="14.00">BiFPN ECA&#45;CBAM Hybrid Attention</text>
</g>
<g id="clust5" class="cluster">
<title>cluster_ssh</title>
<polygon fill="#ede7f6" stroke="#673ab7" points="1298.83,-28 1298.83,-227 1452.83,-227 1452.83,-28 1298.83,-28"/>
<text text-anchor="middle" x="1375.83" y="-211.8" font-family="Arial Bold" font-size="14.00">SSH Detection Heads</text>
</g>
<g id="clust6" class="cluster">
<title>cluster_shuffle</title>
<polygon fill="#f3e5f5" stroke="#9c27b0" points="1516.99,-36 1516.99,-219 1722.99,-219 1722.99,-36 1516.99,-36"/>
<text text-anchor="middle" x="1619.99" y="-203.8" font-family="Arial Bold" font-size="14.00">Channel Shuffle Optimization</text>
</g>
<g id="clust7" class="cluster">
<title>cluster_outputs</title>
<polygon fill="#fff8e1" stroke="#ff9800" points="1743.15,-8 1743.15,-207 1877.15,-207 1877.15,-8 1743.15,-8"/>
<text text-anchor="middle" x="1810.15" y="-191.8" font-family="Arial Bold" font-size="14.00">Detection Outputs</text>
</g>
<g id="clust8" class="cluster">
<title>cluster_ecacbam_detail</title>
<polygon fill="#f0f4ff" stroke="#3f51b5" points="8,-251 8,-371 1703.15,-371 1703.15,-251 8,-251"/>
<text text-anchor="middle" x="855.57" y="-355.8" font-family="Arial Bold" font-size="14.00">ECA&#45;CBAM Hybrid Module Detail</text>
</g>
<g id="clust9" class="cluster">
<title>cluster_eca</title>
<polygon fill="#e8f5e8" stroke="#3f51b5" points="216.82,-262 216.82,-337 588.32,-337 588.32,-262 216.82,-262"/>
<text text-anchor="middle" x="402.57" y="-321.8" font-family="Arial Bold" font-size="14.00">ECA Channel Attention</text>
</g>
<g id="clust10" class="cluster">
<title>cluster_sam</title>
<polygon fill="#fde7f3" stroke="#3f51b5" points="926.33,-259 926.33,-340 1410.33,-340 1410.33,-259 926.33,-259"/>
<text text-anchor="middle" x="1168.33" y="-324.8" font-family="Arial Bold" font-size="14.00">CBAM SAM</text>
</g>
<!-- input -->
<g id="node1" class="node">
<title>input</title>
<polygon fill="#e8f4fd" stroke="#1e88e5" points="125.66,-134 57.66,-134 57.66,-98 125.66,-98 125.66,-134"/>
<text text-anchor="middle" x="91.66" y="-119" font-family="Arial" font-size="10.00">Input Image</text>
<text text-anchor="middle" x="91.66" y="-108" font-family="Arial" font-size="10.00">640×640×3</text>
</g>
<!-- mobilenet -->
<g id="node2" class="node">
<title>mobilenet</title>
<polygon fill="#ffe0b2" stroke="black" points="299.32,-136.5 204.32,-136.5 204.32,-95.5 299.32,-95.5 299.32,-136.5"/>
<text text-anchor="middle" x="251.82" y="-124.5" font-family="Arial" font-size="10.00">MobileNetV1&#45;0.25</text>
<text text-anchor="middle" x="251.82" y="-113.5" font-family="Arial" font-size="10.00">213,072 params</text>
<text text-anchor="middle" x="251.82" y="-102.5" font-family="Arial" font-size="10.00">(47.2%)</text>
</g>
<!-- input&#45;&gt;mobilenet -->
<g id="edge1" class="edge">
<title>input&#45;&gt;mobilenet</title>
<path fill="none" stroke="black" d="M125.82,-116C145.53,-116 171.08,-116 193.93,-116"/>
<polygon fill="black" stroke="black" points="194.21,-119.5 204.21,-116 194.21,-112.5 194.21,-119.5"/>
</g>
<!-- stage1 -->
<g id="node3" class="node">
<title>stage1</title>
<polygon fill="#ffcc80" stroke="black" points="390.32,-134 336.32,-134 336.32,-98 390.32,-98 390.32,-134"/>
<text text-anchor="middle" x="363.32" y="-119" font-family="Arial" font-size="10.00">Stage 1</text>
<text text-anchor="middle" x="363.32" y="-108" font-family="Arial" font-size="10.00">P3/8</text>
</g>
<!-- mobilenet&#45;&gt;stage1 -->
<g id="edge2" class="edge">
<title>mobilenet&#45;&gt;stage1</title>
<path fill="none" stroke="black" d="M299.58,-116C308.4,-116 317.52,-116 325.97,-116"/>
<polygon fill="black" stroke="black" points="326.25,-119.5 336.25,-116 326.24,-112.5 326.25,-119.5"/>
</g>
<!-- stage2 -->
<g id="node4" class="node">
<title>stage2</title>
<polygon fill="#ffcc80" stroke="black" points="390.32,-80 336.32,-80 336.32,-44 390.32,-44 390.32,-80"/>
<text text-anchor="middle" x="363.32" y="-65" font-family="Arial" font-size="10.00">Stage 2</text>
<text text-anchor="middle" x="363.32" y="-54" font-family="Arial" font-size="10.00">P4/16</text>
</g>
<!-- mobilenet&#45;&gt;stage2 -->
<g id="edge3" class="edge">
<title>mobilenet&#45;&gt;stage2</title>
<path fill="none" stroke="black" d="M294.53,-95.43C305.27,-90.14 316.71,-84.49 327.08,-79.38"/>
<polygon fill="black" stroke="black" points="328.83,-82.42 336.25,-74.86 325.74,-76.14 328.83,-82.42"/>
</g>
<!-- stage3 -->
<g id="node5" class="node">
<title>stage3</title>
<polygon fill="#ffcc80" stroke="black" points="390.32,-188 336.32,-188 336.32,-152 390.32,-152 390.32,-188"/>
<text text-anchor="middle" x="363.32" y="-173" font-family="Arial" font-size="10.00">Stage 3</text>
<text text-anchor="middle" x="363.32" y="-162" font-family="Arial" font-size="10.00">P5/32</text>
</g>
<!-- mobilenet&#45;&gt;stage3 -->
<g id="edge4" class="edge">
<title>mobilenet&#45;&gt;stage3</title>
<path fill="none" stroke="black" d="M294.53,-136.57C305.27,-141.86 316.71,-147.51 327.08,-152.62"/>
<polygon fill="black" stroke="black" points="325.74,-155.86 336.25,-157.14 328.83,-149.58 325.74,-155.86"/>
</g>
<!-- backbone_ecacbam1 -->
<g id="node6" class="node">
<title>backbone_ecacbam1</title>
<polygon fill="#bbdefb" stroke="black" points="588.32,-136.5 518.32,-136.5 518.32,-95.5 588.32,-95.5 588.32,-136.5"/>
<text text-anchor="middle" x="553.32" y="-124.5" font-family="Arial" font-size="10.00">ECA&#45;CBAM</text>
<text text-anchor="middle" x="553.32" y="-113.5" font-family="Arial" font-size="10.00">64 ch</text>
<text text-anchor="middle" x="553.32" y="-102.5" font-family="Arial" font-size="10.00">101 params</text>
</g>
<!-- stage1&#45;&gt;backbone_ecacbam1 -->
<g id="edge5" class="edge">
<title>stage1&#45;&gt;backbone_ecacbam1</title>
<path fill="none" stroke="black" d="M390.46,-116C420.76,-116 471.22,-116 507.75,-116"/>
<polygon fill="black" stroke="black" points="508.13,-119.5 518.13,-116 508.13,-112.5 508.13,-119.5"/>
</g>
<!-- backbone_ecacbam2 -->
<g id="node7" class="node">
<title>backbone_ecacbam2</title>
<polygon fill="#bbdefb" stroke="black" points="588.32,-77.5 518.32,-77.5 518.32,-36.5 588.32,-36.5 588.32,-77.5"/>
<text text-anchor="middle" x="553.32" y="-65.5" font-family="Arial" font-size="10.00">ECA&#45;CBAM</text>
<text text-anchor="middle" x="553.32" y="-54.5" font-family="Arial" font-size="10.00">128 ch</text>
<text text-anchor="middle" x="553.32" y="-43.5" font-family="Arial" font-size="10.00">103 params</text>
</g>
<!-- stage2&#45;&gt;backbone_ecacbam2 -->
<g id="edge6" class="edge">
<title>stage2&#45;&gt;backbone_ecacbam2</title>
<path fill="none" stroke="black" d="M390.46,-61.3C420.76,-60.5 471.22,-59.16 507.75,-58.19"/>
<polygon fill="black" stroke="black" points="508.22,-61.67 518.13,-57.91 508.04,-54.68 508.22,-61.67"/>
</g>
<!-- backbone_ecacbam3 -->
<g id="node8" class="node">
<title>backbone_ecacbam3</title>
<polygon fill="#bbdefb" stroke="black" points="588.32,-195.5 518.32,-195.5 518.32,-154.5 588.32,-154.5 588.32,-195.5"/>
<text text-anchor="middle" x="553.32" y="-183.5" font-family="Arial" font-size="10.00">ECA&#45;CBAM</text>
<text text-anchor="middle" x="553.32" y="-172.5" font-family="Arial" font-size="10.00">256 ch</text>
<text text-anchor="middle" x="553.32" y="-161.5" font-family="Arial" font-size="10.00">103 params</text>
</g>
<!-- stage3&#45;&gt;backbone_ecacbam3 -->
<g id="edge7" class="edge">
<title>stage3&#45;&gt;backbone_ecacbam3</title>
<path fill="none" stroke="black" d="M390.46,-170.7C420.76,-171.5 471.22,-172.84 507.75,-173.81"/>
<polygon fill="black" stroke="black" points="508.04,-177.32 518.13,-174.09 508.22,-170.33 508.04,-177.32"/>
</g>
<!-- bifpn -->
<g id="node9" class="node">
<title>bifpn</title>
<polygon fill="#c8e6c8" stroke="black" points="857.57,-136.5 776.57,-136.5 776.57,-95.5 857.57,-95.5 857.57,-136.5"/>
<text text-anchor="middle" x="817.07" y="-124.5" font-family="Arial" font-size="10.00">BiFPN</text>
<text text-anchor="middle" x="817.07" y="-113.5" font-family="Arial" font-size="10.00">75,246 params</text>
<text text-anchor="middle" x="817.07" y="-102.5" font-family="Arial" font-size="10.00">(16.7%)</text>
</g>
<!-- backbone_ecacbam1&#45;&gt;bifpn -->
<g id="edge8" class="edge">
<title>backbone_ecacbam1&#45;&gt;bifpn</title>
<path fill="none" stroke="black" d="M588.54,-116C633.88,-116 714.19,-116 766.26,-116"/>
<polygon fill="black" stroke="black" points="766.28,-119.5 776.28,-116 766.28,-112.5 766.28,-119.5"/>
</g>
<!-- backbone_ecacbam2&#45;&gt;bifpn -->
<g id="edge9" class="edge">
<title>backbone_ecacbam2&#45;&gt;bifpn</title>
<path fill="none" stroke="black" d="M588.52,-64.32C615.4,-70.1 653.78,-78.44 687.32,-86 713.47,-91.9 742.57,-98.66 766.47,-104.27"/>
<polygon fill="black" stroke="black" points="765.84,-107.72 776.38,-106.6 767.44,-100.9 765.84,-107.72"/>
</g>
<!-- backbone_ecacbam3&#45;&gt;bifpn -->
<g id="edge10" class="edge">
<title>backbone_ecacbam3&#45;&gt;bifpn</title>
<path fill="none" stroke="black" d="M588.52,-167.68C615.4,-161.9 653.78,-153.56 687.32,-146 713.47,-140.1 742.57,-133.34 766.47,-127.73"/>
<polygon fill="black" stroke="black" points="767.44,-131.1 776.38,-125.4 765.84,-124.28 767.44,-131.1"/>
</g>
<!-- p3_out -->
<g id="node10" class="node">
<title>p3_out</title>
<polygon fill="#a5d6a7" stroke="black" points="1004.83,-188 918.83,-188 918.83,-152 1004.83,-152 1004.83,-188"/>
<text text-anchor="middle" x="961.83" y="-173" font-family="Arial" font-size="10.00">P3 Features</text>
<text text-anchor="middle" x="961.83" y="-162" font-family="Arial" font-size="10.00">out_channel=48</text>
</g>
<!-- bifpn&#45;&gt;p3_out -->
<g id="edge11" class="edge">
<title>bifpn&#45;&gt;p3_out</title>
<path fill="none" stroke="black" d="M857.84,-131.04C873.7,-137.04 892.17,-144.03 909.06,-150.42"/>
<polygon fill="black" stroke="black" points="908.19,-153.83 918.78,-154.1 910.67,-147.28 908.19,-153.83"/>
</g>
<!-- p4_out -->
<g id="node11" class="node">
<title>p4_out</title>
<polygon fill="#a5d6a7" stroke="black" points="1004.83,-134 918.83,-134 918.83,-98 1004.83,-98 1004.83,-134"/>
<text text-anchor="middle" x="961.83" y="-119" font-family="Arial" font-size="10.00">P4 Features</text>
<text text-anchor="middle" x="961.83" y="-108" font-family="Arial" font-size="10.00">out_channel=48</text>
</g>
<!-- bifpn&#45;&gt;p4_out -->
<g id="edge12" class="edge">
<title>bifpn&#45;&gt;p4_out</title>
<path fill="none" stroke="black" d="M857.84,-116C873.55,-116 891.83,-116 908.58,-116"/>
<polygon fill="black" stroke="black" points="908.78,-119.5 918.78,-116 908.78,-112.5 908.78,-119.5"/>
</g>
<!-- p5_out -->
<g id="node12" class="node">
<title>p5_out</title>
<polygon fill="#a5d6a7" stroke="black" points="1004.83,-80 918.83,-80 918.83,-44 1004.83,-44 1004.83,-80"/>
<text text-anchor="middle" x="961.83" y="-65" font-family="Arial" font-size="10.00">P5 Features</text>
<text text-anchor="middle" x="961.83" y="-54" font-family="Arial" font-size="10.00">out_channel=48</text>
</g>
<!-- bifpn&#45;&gt;p5_out -->
<g id="edge13" class="edge">
<title>bifpn&#45;&gt;p5_out</title>
<path fill="none" stroke="black" d="M857.84,-100.96C873.7,-94.96 892.17,-87.97 909.06,-81.58"/>
<polygon fill="black" stroke="black" points="910.67,-84.72 918.78,-77.9 908.19,-78.17 910.67,-84.72"/>
</g>
<!-- bifpn_ecacbam1 -->
<g id="node13" class="node">
<title>bifpn_ecacbam1</title>
<polygon fill="#bbdefb" stroke="black" points="1190.83,-212 1120.83,-212 1120.83,-160 1190.83,-160 1190.83,-212"/>
<text text-anchor="middle" x="1155.83" y="-200" font-family="Arial" font-size="10.00">ECA&#45;CBAM</text>
<text text-anchor="middle" x="1155.83" y="-189" font-family="Arial" font-size="10.00">48 ch</text>
<text text-anchor="middle" x="1155.83" y="-178" font-family="Arial" font-size="10.00">P3</text>
<text text-anchor="middle" x="1155.83" y="-167" font-family="Arial" font-size="10.00">101 params</text>
</g>
<!-- p3_out&#45;&gt;bifpn_ecacbam1 -->
<g id="edge14" class="edge">
<title>p3_out&#45;&gt;bifpn_ecacbam1</title>
<path fill="none" stroke="black" d="M1004.96,-173.51C1036.2,-176.11 1078.7,-179.66 1110.46,-182.3"/>
<polygon fill="black" stroke="black" points="1110.53,-185.82 1120.78,-183.16 1111.11,-178.84 1110.53,-185.82"/>
</g>
<!-- bifpn_ecacbam2 -->
<g id="node14" class="node">
<title>bifpn_ecacbam2</title>
<polygon fill="#bbdefb" stroke="black" points="1190.83,-142 1120.83,-142 1120.83,-90 1190.83,-90 1190.83,-142"/>
<text text-anchor="middle" x="1155.83" y="-130" font-family="Arial" font-size="10.00">ECA&#45;CBAM</text>
<text text-anchor="middle" x="1155.83" y="-119" font-family="Arial" font-size="10.00">48 ch</text>
<text text-anchor="middle" x="1155.83" y="-108" font-family="Arial" font-size="10.00">P4</text>
<text text-anchor="middle" x="1155.83" y="-97" font-family="Arial" font-size="10.00">101 params</text>
</g>
<!-- p4_out&#45;&gt;bifpn_ecacbam2 -->
<g id="edge15" class="edge">
<title>p4_out&#45;&gt;bifpn_ecacbam2</title>
<path fill="none" stroke="black" d="M1004.96,-116C1036.2,-116 1078.7,-116 1110.46,-116"/>
<polygon fill="black" stroke="black" points="1110.78,-119.5 1120.78,-116 1110.78,-112.5 1110.78,-119.5"/>
</g>
<!-- bifpn_ecacbam3 -->
<g id="node15" class="node">
<title>bifpn_ecacbam3</title>
<polygon fill="#bbdefb" stroke="black" points="1190.83,-72 1120.83,-72 1120.83,-20 1190.83,-20 1190.83,-72"/>
<text text-anchor="middle" x="1155.83" y="-60" font-family="Arial" font-size="10.00">ECA&#45;CBAM</text>
<text text-anchor="middle" x="1155.83" y="-49" font-family="Arial" font-size="10.00">48 ch</text>
<text text-anchor="middle" x="1155.83" y="-38" font-family="Arial" font-size="10.00">P5</text>
<text text-anchor="middle" x="1155.83" y="-27" font-family="Arial" font-size="10.00">101 params</text>
</g>
<!-- p5_out&#45;&gt;bifpn_ecacbam3 -->
<g id="edge16" class="edge">
<title>p5_out&#45;&gt;bifpn_ecacbam3</title>
<path fill="none" stroke="black" d="M1004.96,-58.49C1036.2,-55.89 1078.7,-52.34 1110.46,-49.7"/>
<polygon fill="black" stroke="black" points="1111.11,-53.16 1120.78,-48.84 1110.53,-46.18 1111.11,-53.16"/>
</g>
<!-- ssh1 -->
<g id="node16" class="node">
<title>ssh1</title>
<polygon fill="#d1c4e9" stroke="black" points="1415.83,-195.5 1334.83,-195.5 1334.83,-154.5 1415.83,-154.5 1415.83,-195.5"/>
<text text-anchor="middle" x="1375.33" y="-183.5" font-family="Arial" font-size="10.00">SSH1</text>
<text text-anchor="middle" x="1375.33" y="-172.5" font-family="Arial" font-size="10.00">51,765 params</text>
<text text-anchor="middle" x="1375.33" y="-161.5" font-family="Arial" font-size="10.00">(11.5%)</text>
</g>
<!-- bifpn_ecacbam1&#45;&gt;ssh1 -->
<g id="edge17" class="edge">
<title>bifpn_ecacbam1&#45;&gt;ssh1</title>
<path fill="none" stroke="black" d="M1191.29,-184.26C1227.18,-182.44 1283.74,-179.58 1324.49,-177.52"/>
<polygon fill="black" stroke="black" points="1324.68,-181.02 1334.49,-177.01 1324.33,-174.02 1324.68,-181.02"/>
</g>
<!-- ssh2 -->
<g id="node17" class="node">
<title>ssh2</title>
<polygon fill="#d1c4e9" stroke="black" points="1415.83,-136.5 1334.83,-136.5 1334.83,-95.5 1415.83,-95.5 1415.83,-136.5"/>
<text text-anchor="middle" x="1375.33" y="-124.5" font-family="Arial" font-size="10.00">SSH2</text>
<text text-anchor="middle" x="1375.33" y="-113.5" font-family="Arial" font-size="10.00">51,765 params</text>
<text text-anchor="middle" x="1375.33" y="-102.5" font-family="Arial" font-size="10.00">(11.5%)</text>
</g>
<!-- bifpn_ecacbam2&#45;&gt;ssh2 -->
<g id="edge18" class="edge">
<title>bifpn_ecacbam2&#45;&gt;ssh2</title>
<path fill="none" stroke="black" d="M1191.29,-116C1227.1,-116 1283.5,-116 1324.24,-116"/>
<polygon fill="black" stroke="black" points="1324.49,-119.5 1334.49,-116 1324.49,-112.5 1324.49,-119.5"/>
</g>
<!-- ssh3 -->
<g id="node18" class="node">
<title>ssh3</title>
<polygon fill="#d1c4e9" stroke="black" points="1415.83,-77.5 1334.83,-77.5 1334.83,-36.5 1415.83,-36.5 1415.83,-77.5"/>
<text text-anchor="middle" x="1375.33" y="-65.5" font-family="Arial" font-size="10.00">SSH3</text>
<text text-anchor="middle" x="1375.33" y="-54.5" font-family="Arial" font-size="10.00">51,765 params</text>
<text text-anchor="middle" x="1375.33" y="-43.5" font-family="Arial" font-size="10.00">(11.5%)</text>
</g>
<!-- bifpn_ecacbam3&#45;&gt;ssh3 -->
<g id="edge19" class="edge">
<title>bifpn_ecacbam3&#45;&gt;ssh3</title>
<path fill="none" stroke="black" d="M1191.29,-47.74C1227.18,-49.56 1283.74,-52.42 1324.49,-54.48"/>
<polygon fill="black" stroke="black" points="1324.33,-57.98 1334.49,-54.99 1324.68,-50.98 1324.33,-57.98"/>
</g>
<!-- cs1 -->
<g id="node19" class="node">
<title>cs1</title>
<polygon fill="#e1bee7" stroke="black" points="1647.99,-188 1590.99,-188 1590.99,-152 1647.99,-152 1647.99,-188"/>
<text text-anchor="middle" x="1619.49" y="-173" font-family="Arial" font-size="10.00">CS1</text>
<text text-anchor="middle" x="1619.49" y="-162" font-family="Arial" font-size="10.00">0 params</text>
</g>
<!-- ssh1&#45;&gt;cs1 -->
<g id="edge20" class="edge">
<title>ssh1&#45;&gt;cs1</title>
<path fill="none" stroke="black" d="M1416.04,-174.18C1461.63,-173.24 1535.86,-171.71 1580.65,-170.78"/>
<polygon fill="black" stroke="black" points="1580.9,-174.28 1590.82,-170.57 1580.75,-167.28 1580.9,-174.28"/>
</g>
<!-- cs2 -->
<g id="node20" class="node">
<title>cs2</title>
<polygon fill="#e1bee7" stroke="black" points="1647.99,-134 1590.99,-134 1590.99,-98 1647.99,-98 1647.99,-134"/>
<text text-anchor="middle" x="1619.49" y="-119" font-family="Arial" font-size="10.00">CS2</text>
<text text-anchor="middle" x="1619.49" y="-108" font-family="Arial" font-size="10.00">0 params</text>
</g>
<!-- ssh2&#45;&gt;cs2 -->
<g id="edge21" class="edge">
<title>ssh2&#45;&gt;cs2</title>
<path fill="none" stroke="black" d="M1416.04,-116C1461.63,-116 1535.86,-116 1580.65,-116"/>
<polygon fill="black" stroke="black" points="1580.82,-119.5 1590.82,-116 1580.82,-112.5 1580.82,-119.5"/>
</g>
<!-- cs3 -->
<g id="node21" class="node">
<title>cs3</title>
<polygon fill="#e1bee7" stroke="black" points="1647.99,-80 1590.99,-80 1590.99,-44 1647.99,-44 1647.99,-80"/>
<text text-anchor="middle" x="1619.49" y="-65" font-family="Arial" font-size="10.00">CS3</text>
<text text-anchor="middle" x="1619.49" y="-54" font-family="Arial" font-size="10.00">0 params</text>
</g>
<!-- ssh3&#45;&gt;cs3 -->
<g id="edge22" class="edge">
<title>ssh3&#45;&gt;cs3</title>
<path fill="none" stroke="black" d="M1416.04,-57.82C1461.63,-58.76 1535.86,-60.29 1580.65,-61.22"/>
<polygon fill="black" stroke="black" points="1580.75,-64.72 1590.82,-61.43 1580.9,-57.72 1580.75,-64.72"/>
</g>
<!-- class_head -->
<g id="node22" class="node">
<title>class_head</title>
<polygon fill="#ffecb3" stroke="black" points="1847.65,-175.5 1771.65,-175.5 1771.65,-134.5 1847.65,-134.5 1847.65,-175.5"/>
<text text-anchor="middle" x="1809.65" y="-163.5" font-family="Arial" font-size="10.00">Classification</text>
<text text-anchor="middle" x="1809.65" y="-152.5" font-family="Arial" font-size="10.00">552 params</text>
<text text-anchor="middle" x="1809.65" y="-141.5" font-family="Arial" font-size="10.00">(0.1%)</text>
</g>
<!-- cs1&#45;&gt;class_head -->
<g id="edge23" class="edge">
<title>cs1&#45;&gt;class_head</title>
<path fill="none" stroke="black" d="M1648.33,-184.82C1671.16,-195.08 1704.31,-205.64 1733.15,-198 1746.51,-194.46 1759.98,-187.95 1771.77,-181.04"/>
<polygon fill="black" stroke="black" points="1773.74,-183.94 1780.43,-175.72 1770.07,-177.97 1773.74,-183.94"/>
</g>
<!-- bbox_head -->
<g id="node23" class="node">
<title>bbox_head</title>
<polygon fill="#ffecb3" stroke="black" points="1856.15,-116.5 1763.15,-116.5 1763.15,-75.5 1856.15,-75.5 1856.15,-116.5"/>
<text text-anchor="middle" x="1809.65" y="-104.5" font-family="Arial" font-size="10.00">BBox Regression</text>
<text text-anchor="middle" x="1809.65" y="-93.5" font-family="Arial" font-size="10.00">1,104 params</text>
<text text-anchor="middle" x="1809.65" y="-82.5" font-family="Arial" font-size="10.00">(0.2%)</text>
</g>
<!-- cs1&#45;&gt;bbox_head -->
<g id="edge24" class="edge">
<title>cs1&#45;&gt;bbox_head</title>
<path fill="none" stroke="black" d="M1648.23,-166.11C1669.57,-162.33 1699.31,-155.3 1722.99,-143 1733.39,-137.6 1733.25,-132.28 1743.15,-126 1746.65,-123.78 1750.35,-121.63 1754.13,-119.57"/>
<polygon fill="black" stroke="black" points="1755.79,-122.65 1763.05,-114.93 1752.57,-116.44 1755.79,-122.65"/>
</g>
<!-- landmark_head -->
<g id="node24" class="node">
<title>landmark_head</title>
<polygon fill="#ffecb3" stroke="black" points="1847.65,-57.5 1771.65,-57.5 1771.65,-16.5 1847.65,-16.5 1847.65,-57.5"/>
<text text-anchor="middle" x="1809.65" y="-45.5" font-family="Arial" font-size="10.00">Landmarks</text>
<text text-anchor="middle" x="1809.65" y="-34.5" font-family="Arial" font-size="10.00">2,760 params</text>
<text text-anchor="middle" x="1809.65" y="-23.5" font-family="Arial" font-size="10.00">(0.6%)</text>
</g>
<!-- cs1&#45;&gt;landmark_head -->
<g id="edge25" class="edge">
<title>cs1&#45;&gt;landmark_head</title>
<path fill="none" stroke="black" d="M1648.16,-170.02C1671.22,-168.52 1703.35,-162.66 1722.99,-143 1747.98,-117.97 1720.22,-92.94 1743.15,-66 1748.36,-59.87 1755.12,-54.99 1762.32,-51.12"/>
<polygon fill="black" stroke="black" points="1764.04,-54.17 1771.57,-46.73 1761.04,-47.85 1764.04,-54.17"/>
</g>
<!-- cs2&#45;&gt;class_head -->
<g id="edge26" class="edge">
<title>cs2&#45;&gt;class_head</title>
<path fill="none" stroke="black" d="M1648.04,-121.36C1669.01,-125.89 1698.36,-133.21 1722.99,-143 1727.3,-144.71 1727.71,-146.65 1732.15,-148 1741.43,-150.82 1751.61,-152.61 1761.43,-153.72"/>
<polygon fill="black" stroke="black" points="1761.21,-157.21 1771.49,-154.64 1761.85,-150.24 1761.21,-157.21"/>
</g>
<!-- cs2&#45;&gt;bbox_head -->
<g id="edge27" class="edge">
<title>cs2&#45;&gt;bbox_head</title>
<path fill="none" stroke="black" d="M1648.25,-113.05C1675.58,-110.14 1718.1,-105.62 1752.5,-101.97"/>
<polygon fill="black" stroke="black" points="1753.31,-105.4 1762.89,-100.86 1752.57,-98.44 1753.31,-105.4"/>
</g>
<!-- cs2&#45;&gt;landmark_head -->
<g id="edge28" class="edge">
<title>cs2&#45;&gt;landmark_head</title>
<path fill="none" stroke="black" d="M1648.34,-113.16C1670.02,-109.94 1700.14,-103.14 1722.99,-89 1734.54,-81.84 1732.2,-74.05 1743.15,-66 1749,-61.7 1755.6,-57.84 1762.29,-54.47"/>
<polygon fill="black" stroke="black" points="1763.87,-57.59 1771.42,-50.15 1760.88,-51.26 1763.87,-57.59"/>
</g>
<!-- cs3&#45;&gt;class_head -->
<g id="edge29" class="edge">
<title>cs3&#45;&gt;class_head</title>
<path fill="none" stroke="black" d="M1648.38,-63.39C1670.64,-65.8 1701.55,-72.2 1722.99,-89 1737.73,-100.55 1729.37,-113.31 1743.15,-126 1748.68,-131.1 1755.26,-135.41 1762.08,-139.01"/>
<polygon fill="black" stroke="black" points="1760.92,-142.34 1771.45,-143.5 1763.94,-136.02 1760.92,-142.34"/>
</g>
<!-- cs3&#45;&gt;bbox_head -->
<g id="edge30" class="edge">
<title>cs3&#45;&gt;bbox_head</title>
<path fill="none" stroke="black" d="M1648.25,-67.02C1675.7,-71.98 1718.47,-79.7 1752.94,-85.93"/>
<polygon fill="black" stroke="black" points="1752.42,-89.4 1762.89,-87.73 1753.67,-82.51 1752.42,-89.4"/>
</g>
<!-- cs3&#45;&gt;landmark_head -->
<g id="edge31" class="edge">
<title>cs3&#45;&gt;landmark_head</title>
<path fill="none" stroke="black" d="M1647.99,-46.79C1670.36,-36.01 1703.04,-23.82 1733.15,-26 1742.36,-26.67 1752.17,-27.79 1761.55,-29.07"/>
<polygon fill="black" stroke="black" points="1761.12,-32.54 1771.51,-30.5 1762.11,-25.61 1761.12,-32.54"/>
</g>
<!-- output -->
<g id="node25" class="node">
<title>output</title>
<polygon fill="#ffcdd2" stroke="#f44336" points="1989.15,-114 1906.15,-114 1906.15,-78 1989.15,-78 1989.15,-114"/>
<text text-anchor="middle" x="1947.65" y="-99" font-family="Arial" font-size="10.00">Face Detection</text>
<text text-anchor="middle" x="1947.65" y="-88" font-family="Arial" font-size="10.00">Results</text>
</g>
<!-- class_head&#45;&gt;output -->
<g id="edge32" class="edge">
<title>class_head&#45;&gt;output</title>
<path fill="none" stroke="black" d="M1847.81,-138.88C1862.8,-132.38 1880.33,-124.77 1896.42,-117.79"/>
<polygon fill="black" stroke="black" points="1897.92,-120.95 1905.7,-113.76 1895.14,-114.53 1897.92,-120.95"/>
</g>
<!-- bbox_head&#45;&gt;output -->
<g id="edge33" class="edge">
<title>bbox_head&#45;&gt;output</title>
<path fill="none" stroke="black" d="M1856.31,-96C1868.98,-96 1882.8,-96 1895.75,-96"/>
<polygon fill="black" stroke="black" points="1895.9,-99.5 1905.9,-96 1895.9,-92.5 1895.9,-99.5"/>
</g>
<!-- landmark_head&#45;&gt;output -->
<g id="edge34" class="edge">
<title>landmark_head&#45;&gt;output</title>
<path fill="none" stroke="black" d="M1847.81,-53.12C1862.8,-59.62 1880.33,-67.23 1896.42,-74.21"/>
<polygon fill="black" stroke="black" points="1895.14,-77.47 1905.7,-78.24 1897.92,-71.05 1895.14,-77.47"/>
</g>
<!-- detail_input -->
<g id="node26" class="node">
<title>detail_input</title>
<ellipse fill="#e8eaf6" stroke="black" cx="91.66" cy="-288" rx="75.82" ry="21.43"/>
<text text-anchor="middle" x="91.66" y="-291" font-family="Arial" font-size="10.00">Input Feature</text>
<text text-anchor="middle" x="91.66" y="-280" font-family="Arial" font-size="10.00">X ∈ ℝ^(B×C×H×W)</text>
</g>
<!-- eca_gap -->
<g id="node27" class="node">
<title>eca_gap</title>
<polygon fill="#c8e6c8" stroke="black" points="278.82,-306 224.82,-306 224.82,-270 278.82,-270 278.82,-306"/>
<text text-anchor="middle" x="251.82" y="-285.5" font-family="Arial" font-size="10.00">GAP</text>
</g>
<!-- detail_input&#45;&gt;eca_gap -->
<g id="edge35" class="edge">
<title>detail_input&#45;&gt;eca_gap</title>
<path fill="none" stroke="black" d="M167.57,-288C183.86,-288 200.38,-288 214.37,-288"/>
<polygon fill="black" stroke="black" points="214.53,-291.5 224.53,-288 214.53,-284.5 214.53,-291.5"/>
</g>
<!-- eca_conv1d -->
<g id="node28" class="node">
<title>eca_conv1d</title>
<polygon fill="#c8e6c8" stroke="black" points="390.32,-306 336.32,-306 336.32,-270 390.32,-270 390.32,-306"/>
<text text-anchor="middle" x="363.32" y="-291" font-family="Arial" font-size="10.00">Conv1D</text>
<text text-anchor="middle" x="363.32" y="-280" font-family="Arial" font-size="10.00">k=ψ(C)</text>
</g>
<!-- eca_gap&#45;&gt;eca_conv1d -->
<g id="edge36" class="edge">
<title>eca_gap&#45;&gt;eca_conv1d</title>
<path fill="none" stroke="black" d="M279.05,-288C293.13,-288 310.71,-288 326.09,-288"/>
<polygon fill="black" stroke="black" points="326.31,-291.5 336.31,-288 326.31,-284.5 326.31,-291.5"/>
</g>
<!-- eca_sigmoid -->
<g id="node29" class="node">
<title>eca_sigmoid</title>
<polygon fill="#c8e6c8" stroke="black" points="580.32,-306 526.32,-306 526.32,-270 580.32,-270 580.32,-306"/>
<text text-anchor="middle" x="553.32" y="-285.5" font-family="Arial" font-size="10.00">Sigmoid</text>
</g>
<!-- eca_conv1d&#45;&gt;eca_sigmoid -->
<g id="edge37" class="edge">
<title>eca_conv1d&#45;&gt;eca_sigmoid</title>
<path fill="none" stroke="black" d="M390.46,-288C423.06,-288 478.97,-288 515.8,-288"/>
<polygon fill="black" stroke="black" points="516.1,-291.5 526.1,-288 516.1,-284.5 516.1,-291.5"/>
</g>
<!-- eca_intermediate -->
<g id="node30" class="node">
<title>eca_intermediate</title>
<ellipse fill="#fff9c4" stroke="black" cx="817.07" cy="-288" rx="64.51" ry="18"/>
<text text-anchor="middle" x="817.07" y="-285.5" font-family="Arial" font-size="10.00">F₁ ∈ ℝ^(B×C×H×W)</text>
</g>
<!-- eca_sigmoid&#45;&gt;eca_intermediate -->
<g id="edge38" class="edge">
<title>eca_sigmoid&#45;&gt;eca_intermediate</title>
<path fill="none" stroke="black" d="M580.38,-288C617.67,-288 687.74,-288 741.82,-288"/>
<polygon fill="black" stroke="black" points="742.07,-291.5 752.07,-288 742.07,-284.5 742.07,-291.5"/>
<text text-anchor="middle" x="715.82" y="-300.8" font-family="Arial" font-size="9.00">Channel</text>
<text text-anchor="middle" x="715.82" y="-290.8" font-family="Arial" font-size="9.00">Attention</text>
</g>
<!-- sam_pool -->
<g id="node31" class="node">
<title>sam_pool</title>
<polygon fill="#f8bbd9" stroke="black" points="989.33,-308.5 934.33,-308.5 934.33,-267.5 989.33,-267.5 989.33,-308.5"/>
<text text-anchor="middle" x="961.83" y="-296.5" font-family="Arial" font-size="10.00">AvgPool</text>
<text text-anchor="middle" x="961.83" y="-285.5" font-family="Arial" font-size="10.00">+</text>
<text text-anchor="middle" x="961.83" y="-274.5" font-family="Arial" font-size="10.00">MaxPool</text>
</g>
<!-- eca_intermediate&#45;&gt;sam_pool -->
<g id="edge39" class="edge">
<title>eca_intermediate&#45;&gt;sam_pool</title>
<path fill="none" stroke="black" d="M881.93,-288C896.32,-288 911.11,-288 923.95,-288"/>
<polygon fill="black" stroke="black" points="924.22,-291.5 934.22,-288 924.22,-284.5 924.22,-291.5"/>
</g>
<!-- sam_conv7x7 -->
<g id="node32" class="node">
<title>sam_conv7x7</title>
<polygon fill="#f8bbd9" stroke="black" points="1182.83,-306 1128.83,-306 1128.83,-270 1182.83,-270 1182.83,-306"/>
<text text-anchor="middle" x="1155.83" y="-291" font-family="Arial" font-size="10.00">Conv2D</text>
<text text-anchor="middle" x="1155.83" y="-280" font-family="Arial" font-size="10.00">7×7</text>
</g>
<!-- sam_pool&#45;&gt;sam_conv7x7 -->
<g id="edge40" class="edge">
<title>sam_pool&#45;&gt;sam_conv7x7</title>
<path fill="none" stroke="black" d="M989.52,-288C1023.15,-288 1081.06,-288 1118.64,-288"/>
<polygon fill="black" stroke="black" points="1118.66,-291.5 1128.66,-288 1118.66,-284.5 1118.66,-291.5"/>
</g>
<!-- sam_sigmoid -->
<g id="node33" class="node">
<title>sam_sigmoid</title>
<polygon fill="#f8bbd9" stroke="black" points="1402.33,-306 1348.33,-306 1348.33,-270 1402.33,-270 1402.33,-306"/>
<text text-anchor="middle" x="1375.33" y="-285.5" font-family="Arial" font-size="10.00">Sigmoid</text>
</g>
<!-- sam_conv7x7&#45;&gt;sam_sigmoid -->
<g id="edge41" class="edge">
<title>sam_conv7x7&#45;&gt;sam_sigmoid</title>
<path fill="none" stroke="black" d="M1183.06,-288C1221.68,-288 1293.98,-288 1337.78,-288"/>
<polygon fill="black" stroke="black" points="1338,-291.5 1348,-288 1338,-284.5 1338,-291.5"/>
</g>
<!-- detail_output -->
<g id="node34" class="node">
<title>detail_output</title>
<ellipse fill="#e8eaf6" stroke="black" cx="1619.49" cy="-288" rx="75.82" ry="21.43"/>
<text text-anchor="middle" x="1619.49" y="-291" font-family="Arial" font-size="10.00">Output Feature</text>
<text text-anchor="middle" x="1619.49" y="-280" font-family="Arial" font-size="10.00">Y ∈ ℝ^(B×C×H×W)</text>
</g>
<!-- sam_sigmoid&#45;&gt;detail_output -->
<g id="edge42" class="edge">
<title>sam_sigmoid&#45;&gt;detail_output</title>
<path fill="none" stroke="black" d="M1402.7,-288C1433.93,-288 1487.5,-288 1533.45,-288"/>
<polygon fill="black" stroke="black" points="1533.73,-291.5 1543.73,-288 1533.73,-284.5 1533.73,-291.5"/>
<text text-anchor="middle" x="1481.33" y="-300.8" font-family="Arial" font-size="9.00">Spatial</text>
<text text-anchor="middle" x="1481.33" y="-290.8" font-family="Arial" font-size="9.00">Attention</text>
</g>
</g>
</svg>
