<?xml version="1.0" encoding="UTF-8" standalone="no"?>
<!DOCTYPE svg PUBLIC "-//W3C//DTD SVG 1.1//EN"
 "http://www.w3.org/Graphics/SVG/1.1/DTD/svg11.dtd">
<!-- Generated by graphviz version 14.0.2 (20251019.1705)
 -->
<!-- Title: FeatherFaceCompletePipeline Pages: 1 -->
<svg width="402pt" height="1377pt"
 viewBox="0.00 0.00 402.00 1377.00" xmlns="http://www.w3.org/2000/svg" xmlns:xlink="http://www.w3.org/1999/xlink">
<g id="graph0" class="graph" transform="scale(1 1) rotate(0) translate(4 1372.84)">
<title>FeatherFaceCompletePipeline</title>
<polygon fill="white" stroke="none" points="-4,4 -4,-1372.84 398,-1372.84 398,4 -4,4"/>
<g id="clust1" class="cluster">
<title>cluster_backbone</title>
<polygon fill="#e3f2fd" stroke="#1976d2" points="29,-744.77 29,-1229.34 328,-1229.34 328,-744.77 29,-744.77"/>
<text xml:space="preserve" text-anchor="middle" x="178.5" y="-1212.04" font-family="Times New Roman,serif" font-size="14.00">MobileNet&#45;0.25 Backbone</text>
</g>
<g id="clust2" class="cluster">
<title>cluster_bifpn</title>
<polygon fill="#f3e5f5" stroke="#7b1fa2" points="10,-458.75 10,-717.02 384,-717.02 384,-458.75 10,-458.75"/>
<text xml:space="preserve" text-anchor="middle" x="197" y="-699.72" font-family="Times New Roman,serif" font-size="14.00">BiFPN (Bidirectional Feature Pyramid)</text>
</g>
<g id="clust3" class="cluster">
<title>cluster_heads</title>
<polygon fill="#fff9c4" stroke="#f57f17" points="56,-286.75 56,-439.75 338,-439.75 338,-286.75 56,-286.75"/>
<text xml:space="preserve" text-anchor="middle" x="197" y="-422.45" font-family="Times New Roman,serif" font-size="14.00">SSH Detection Heads + Channel Shuffle</text>
</g>
<!-- title -->
<g id="node1" class="node">
<title>title</title>
<path fill="lightgrey" stroke="none" d="M338.12,-1368.84C338.12,-1368.84 85.88,-1368.84 85.88,-1368.84 79.88,-1368.84 73.88,-1362.84 73.88,-1356.84 73.88,-1356.84 73.88,-1341.34 73.88,-1341.34 73.88,-1335.34 79.88,-1329.34 85.88,-1329.34 85.88,-1329.34 338.12,-1329.34 338.12,-1329.34 344.12,-1329.34 350.12,-1335.34 350.12,-1341.34 350.12,-1341.34 350.12,-1356.84 350.12,-1356.84 350.12,-1362.84 344.12,-1368.84 338.12,-1368.84"/>
<text xml:space="preserve" text-anchor="middle" x="212" y="-1351.54" font-family="Arial" font-size="14.00" fill="#1565c0">FeatherFace Complete Detection Pipeline</text>
<text xml:space="preserve" text-anchor="middle" x="212" y="-1335.79" font-family="Arial" font-size="14.00" fill="#1565c0">with ECA&#45;CBAM Parallel Attention Modules</text>
</g>
<!-- input -->
<g id="node2" class="node">
<title>input</title>
<path fill="#b3e5fc" stroke="black" d="M232,-1292.34C232,-1292.34 192,-1292.34 192,-1292.34 186,-1292.34 180,-1286.34 180,-1280.34 180,-1280.34 180,-1268.34 180,-1268.34 180,-1262.34 186,-1256.34 192,-1256.34 192,-1256.34 232,-1256.34 232,-1256.34 238,-1256.34 244,-1262.34 244,-1268.34 244,-1268.34 244,-1280.34 244,-1280.34 244,-1286.34 238,-1292.34 232,-1292.34"/>
<text xml:space="preserve" text-anchor="middle" x="212" y="-1276.29" font-family="Arial" font-size="9.00">Input Image</text>
<text xml:space="preserve" text-anchor="middle" x="212" y="-1265.79" font-family="Arial" font-size="9.00">640×640×3</text>
</g>
<!-- title&#45;&gt;input -->
<!-- stage1 -->
<g id="node3" class="node">
<title>stage1</title>
<path fill="#bbdefb" stroke="black" d="M233.13,-1196.84C233.13,-1196.84 190.88,-1196.84 190.88,-1196.84 184.88,-1196.84 178.88,-1190.84 178.88,-1184.84 178.88,-1184.84 178.88,-1172.84 178.88,-1172.84 178.88,-1166.84 184.88,-1160.84 190.88,-1160.84 190.88,-1160.84 233.13,-1160.84 233.13,-1160.84 239.13,-1160.84 245.13,-1166.84 245.13,-1172.84 245.13,-1172.84 245.13,-1184.84 245.13,-1184.84 245.13,-1190.84 239.13,-1196.84 233.13,-1196.84"/>
<text xml:space="preserve" text-anchor="middle" x="212" y="-1180.79" font-family="Arial" font-size="9.00">Stage 1</text>
<text xml:space="preserve" text-anchor="middle" x="212" y="-1170.29" font-family="Arial" font-size="9.00">64 channels</text>
</g>
<!-- input&#45;&gt;stage1 -->
<g id="edge20" class="edge">
<title>input&#45;&gt;stage1</title>
<path fill="none" stroke="black" d="M212,-1256.19C212,-1242.83 212,-1223.99 212,-1208.37"/>
<polygon fill="black" stroke="black" points="215.5,-1208.71 212,-1198.71 208.5,-1208.71 215.5,-1208.71"/>
</g>
<!-- att1 -->
<g id="node4" class="node">
<title>att1</title>
<ellipse fill="#90caf9" stroke="black" cx="266" cy="-1087.95" rx="53.74" ry="35.89"/>
<text xml:space="preserve" text-anchor="middle" x="266" y="-1100.77" font-family="Arial" font-size="9.00">Attention</text>
<text xml:space="preserve" text-anchor="middle" x="266" y="-1090.27" font-family="Arial" font-size="9.00">Module 1</text>
<text xml:space="preserve" text-anchor="middle" x="266" y="-1079.77" font-family="Arial" font-size="9.00">(ECA∥SAM)</text>
<text xml:space="preserve" text-anchor="middle" x="266" y="-1068.52" font-family="Arial" font-size="9.00">120 params</text>
</g>
<!-- stage1&#45;&gt;att1 -->
<g id="edge1" class="edge">
<title>stage1&#45;&gt;att1</title>
<path fill="none" stroke="black" d="M222.41,-1160.7C227.57,-1152.2 234.06,-1141.53 240.43,-1131.03"/>
<polygon fill="black" stroke="black" points="243.23,-1133.17 245.43,-1122.8 237.25,-1129.53 243.23,-1133.17"/>
</g>
<!-- stage2 -->
<g id="node6" class="node">
<title>stage2</title>
<path fill="#bbdefb" stroke="black" d="M182.75,-1105.95C182.75,-1105.95 135.25,-1105.95 135.25,-1105.95 129.25,-1105.95 123.25,-1099.95 123.25,-1093.95 123.25,-1093.95 123.25,-1081.95 123.25,-1081.95 123.25,-1075.95 129.25,-1069.95 135.25,-1069.95 135.25,-1069.95 182.75,-1069.95 182.75,-1069.95 188.75,-1069.95 194.75,-1075.95 194.75,-1081.95 194.75,-1081.95 194.75,-1093.95 194.75,-1093.95 194.75,-1099.95 188.75,-1105.95 182.75,-1105.95"/>
<text xml:space="preserve" text-anchor="middle" x="159" y="-1089.9" font-family="Arial" font-size="9.00">Stage 2</text>
<text xml:space="preserve" text-anchor="middle" x="159" y="-1079.4" font-family="Arial" font-size="9.00">128 channels</text>
</g>
<!-- stage1&#45;&gt;stage2 -->
<!-- c1 -->
<g id="node5" class="node">
<title>c1</title>
<path fill="#64b5f6" stroke="black" d="M307.88,-997.18C307.88,-997.18 264.12,-997.18 264.12,-997.18 258.12,-997.18 252.12,-991.18 252.12,-985.18 252.12,-985.18 252.12,-973.18 252.12,-973.18 252.12,-967.18 258.12,-961.18 264.12,-961.18 264.12,-961.18 307.88,-961.18 307.88,-961.18 313.88,-961.18 319.88,-967.18 319.88,-973.18 319.88,-973.18 319.88,-985.18 319.88,-985.18 319.88,-991.18 313.88,-997.18 307.88,-997.18"/>
<text xml:space="preserve" text-anchor="middle" x="286" y="-981.13" font-family="Arial" font-size="9.00">C1&#39; Features</text>
<text xml:space="preserve" text-anchor="middle" x="286" y="-970.63" font-family="Arial" font-size="9.00">64 ch</text>
</g>
<!-- att1&#45;&gt;c1 -->
<g id="edge2" class="edge">
<title>att1&#45;&gt;c1</title>
<path fill="none" stroke="black" d="M272.55,-1051.99C275.19,-1037.88 278.2,-1021.81 280.7,-1008.45"/>
<polygon fill="black" stroke="black" points="284.07,-1009.49 282.47,-999.02 277.19,-1008.21 284.07,-1009.49"/>
</g>
<!-- p3 -->
<g id="node12" class="node">
<title>p3</title>
<path fill="#e1bee7" stroke="black" d="M323,-684.52C323,-684.52 293,-684.52 293,-684.52 287,-684.52 281,-678.52 281,-672.52 281,-672.52 281,-660.52 281,-660.52 281,-654.52 287,-648.52 293,-648.52 293,-648.52 323,-648.52 323,-648.52 329,-648.52 335,-654.52 335,-660.52 335,-660.52 335,-672.52 335,-672.52 335,-678.52 329,-684.52 323,-684.52"/>
<text xml:space="preserve" text-anchor="middle" x="308" y="-668.47" font-family="Arial" font-size="9.00">P3</text>
<text xml:space="preserve" text-anchor="middle" x="308" y="-657.97" font-family="Arial" font-size="9.00">52 ch</text>
</g>
<!-- c1&#45;&gt;p3 -->
<g id="edge13" class="edge">
<title>c1&#45;&gt;p3</title>
<path fill="none" stroke="black" stroke-dasharray="5,2" d="M287.21,-961.03C290.82,-910.13 301.49,-759.47 305.98,-696.11"/>
<polygon fill="black" stroke="black" points="309.44,-696.73 306.66,-686.51 302.46,-696.23 309.44,-696.73"/>
<text xml:space="preserve" text-anchor="middle" x="303.7" y="-808.92" font-family="Arial" font-size="8.00">TD</text>
</g>
<!-- att2 -->
<g id="node7" class="node">
<title>att2</title>
<ellipse fill="#90caf9" stroke="black" cx="180" cy="-979.18" rx="53.74" ry="35.89"/>
<text xml:space="preserve" text-anchor="middle" x="180" y="-992" font-family="Arial" font-size="9.00">Attention</text>
<text xml:space="preserve" text-anchor="middle" x="180" y="-981.5" font-family="Arial" font-size="9.00">Module 2</text>
<text xml:space="preserve" text-anchor="middle" x="180" y="-971" font-family="Arial" font-size="9.00">(ECA∥SAM)</text>
<text xml:space="preserve" text-anchor="middle" x="180" y="-959.75" font-family="Arial" font-size="9.00">120 params</text>
</g>
<!-- stage2&#45;&gt;att2 -->
<g id="edge3" class="edge">
<title>stage2&#45;&gt;att2</title>
<path fill="none" stroke="black" d="M162.37,-1069.8C164.71,-1057.94 167.93,-1041.56 170.98,-1026.05"/>
<polygon fill="black" stroke="black" points="174.37,-1026.96 172.86,-1016.47 167.5,-1025.61 174.37,-1026.96"/>
</g>
<!-- stage3 -->
<g id="node9" class="node">
<title>stage3</title>
<path fill="#bbdefb" stroke="black" d="M96.75,-997.18C96.75,-997.18 49.25,-997.18 49.25,-997.18 43.25,-997.18 37.25,-991.18 37.25,-985.18 37.25,-985.18 37.25,-973.18 37.25,-973.18 37.25,-967.18 43.25,-961.18 49.25,-961.18 49.25,-961.18 96.75,-961.18 96.75,-961.18 102.75,-961.18 108.75,-967.18 108.75,-973.18 108.75,-973.18 108.75,-985.18 108.75,-985.18 108.75,-991.18 102.75,-997.18 96.75,-997.18"/>
<text xml:space="preserve" text-anchor="middle" x="73" y="-981.13" font-family="Arial" font-size="9.00">Stage 3</text>
<text xml:space="preserve" text-anchor="middle" x="73" y="-970.63" font-family="Arial" font-size="9.00">256 channels</text>
</g>
<!-- stage2&#45;&gt;stage3 -->
<!-- c2 -->
<g id="node8" class="node">
<title>c2</title>
<path fill="#64b5f6" stroke="black" d="M218.88,-888.41C218.88,-888.41 175.13,-888.41 175.13,-888.41 169.13,-888.41 163.13,-882.41 163.13,-876.41 163.13,-876.41 163.13,-864.41 163.13,-864.41 163.13,-858.41 169.13,-852.41 175.13,-852.41 175.13,-852.41 218.88,-852.41 218.88,-852.41 224.88,-852.41 230.88,-858.41 230.88,-864.41 230.88,-864.41 230.88,-876.41 230.88,-876.41 230.88,-882.41 224.88,-888.41 218.88,-888.41"/>
<text xml:space="preserve" text-anchor="middle" x="197" y="-872.36" font-family="Arial" font-size="9.00">C2&#39; Features</text>
<text xml:space="preserve" text-anchor="middle" x="197" y="-861.86" font-family="Arial" font-size="9.00">128 ch</text>
</g>
<!-- att2&#45;&gt;c2 -->
<g id="edge4" class="edge">
<title>att2&#45;&gt;c2</title>
<path fill="none" stroke="black" d="M185.57,-943.22C187.79,-929.25 190.32,-913.36 192.43,-900.09"/>
<polygon fill="black" stroke="black" points="195.88,-900.68 194,-890.26 188.97,-899.58 195.88,-900.68"/>
</g>
<!-- p4 -->
<g id="node15" class="node">
<title>p4</title>
<path fill="#e1bee7" stroke="black" d="M212,-684.52C212,-684.52 182,-684.52 182,-684.52 176,-684.52 170,-678.52 170,-672.52 170,-672.52 170,-660.52 170,-660.52 170,-654.52 176,-648.52 182,-648.52 182,-648.52 212,-648.52 212,-648.52 218,-648.52 224,-654.52 224,-660.52 224,-660.52 224,-672.52 224,-672.52 224,-678.52 218,-684.52 212,-684.52"/>
<text xml:space="preserve" text-anchor="middle" x="197" y="-668.47" font-family="Arial" font-size="9.00">P4</text>
<text xml:space="preserve" text-anchor="middle" x="197" y="-657.97" font-family="Arial" font-size="9.00">52 ch</text>
</g>
<!-- c2&#45;&gt;p4 -->
<g id="edge14" class="edge">
<title>c2&#45;&gt;p4</title>
<path fill="none" stroke="black" stroke-dasharray="5,2" d="M197,-852.19C197,-817.57 197,-739.15 197,-696.49"/>
<polygon fill="black" stroke="black" points="200.5,-696.49 197,-686.49 193.5,-696.49 200.5,-696.49"/>
<text xml:space="preserve" text-anchor="middle" x="202.63" y="-768.05" font-family="Arial" font-size="8.00">TD</text>
</g>
<!-- att3 -->
<g id="node10" class="node">
<title>att3</title>
<ellipse fill="#90caf9" stroke="black" cx="91" cy="-870.41" rx="53.74" ry="35.89"/>
<text xml:space="preserve" text-anchor="middle" x="91" y="-883.23" font-family="Arial" font-size="9.00">Attention</text>
<text xml:space="preserve" text-anchor="middle" x="91" y="-872.73" font-family="Arial" font-size="9.00">Module 3</text>
<text xml:space="preserve" text-anchor="middle" x="91" y="-862.23" font-family="Arial" font-size="9.00">(ECA∥SAM)</text>
<text xml:space="preserve" text-anchor="middle" x="91" y="-850.98" font-family="Arial" font-size="9.00">120 params</text>
</g>
<!-- stage3&#45;&gt;att3 -->
<g id="edge5" class="edge">
<title>stage3&#45;&gt;att3</title>
<path fill="none" stroke="black" d="M75.89,-961.02C77.89,-949.16 80.65,-932.79 83.27,-917.28"/>
<polygon fill="black" stroke="black" points="86.67,-918.15 84.88,-907.71 79.77,-916.98 86.67,-918.15"/>
</g>
<!-- c3 -->
<g id="node11" class="node">
<title>c3</title>
<path fill="#64b5f6" stroke="black" d="M110.88,-788.77C110.88,-788.77 67.13,-788.77 67.13,-788.77 61.13,-788.77 55.13,-782.77 55.13,-776.77 55.13,-776.77 55.13,-764.77 55.13,-764.77 55.13,-758.77 61.13,-752.77 67.13,-752.77 67.13,-752.77 110.88,-752.77 110.88,-752.77 116.88,-752.77 122.88,-758.77 122.88,-764.77 122.88,-764.77 122.88,-776.77 122.88,-776.77 122.88,-782.77 116.88,-788.77 110.88,-788.77"/>
<text xml:space="preserve" text-anchor="middle" x="89" y="-772.72" font-family="Arial" font-size="9.00">C3&#39; Features</text>
<text xml:space="preserve" text-anchor="middle" x="89" y="-762.22" font-family="Arial" font-size="9.00">256 ch</text>
</g>
<!-- att3&#45;&gt;c3 -->
<g id="edge6" class="edge">
<title>att3&#45;&gt;c3</title>
<path fill="none" stroke="black" d="M90.28,-834.16C90.05,-823.17 89.81,-811.18 89.59,-800.67"/>
<polygon fill="black" stroke="black" points="93.09,-800.61 89.39,-790.68 86.09,-800.75 93.09,-800.61"/>
</g>
<!-- p5 -->
<g id="node18" class="node">
<title>p5</title>
<path fill="#e1bee7" stroke="black" d="M93,-684.52C93,-684.52 63,-684.52 63,-684.52 57,-684.52 51,-678.52 51,-672.52 51,-672.52 51,-660.52 51,-660.52 51,-654.52 57,-648.52 63,-648.52 63,-648.52 93,-648.52 93,-648.52 99,-648.52 105,-654.52 105,-660.52 105,-660.52 105,-672.52 105,-672.52 105,-678.52 99,-684.52 93,-684.52"/>
<text xml:space="preserve" text-anchor="middle" x="78" y="-668.47" font-family="Arial" font-size="9.00">P5</text>
<text xml:space="preserve" text-anchor="middle" x="78" y="-657.97" font-family="Arial" font-size="9.00">52 ch</text>
</g>
<!-- c3&#45;&gt;p5 -->
<g id="edge15" class="edge">
<title>c3&#45;&gt;p5</title>
<path fill="none" stroke="black" stroke-dasharray="5,2" d="M87.13,-752.43C85.48,-737.08 83.04,-714.37 81.1,-696.3"/>
<polygon fill="black" stroke="black" points="84.59,-696.02 80.04,-686.46 77.63,-696.77 84.59,-696.02"/>
<text xml:space="preserve" text-anchor="middle" x="90.75" y="-727.17" font-family="Arial" font-size="8.00">BU</text>
</g>
<!-- att4 -->
<g id="node13" class="node">
<title>att4</title>
<ellipse fill="#ce93d8" stroke="black" cx="322" cy="-575.64" rx="53.74" ry="35.89"/>
<text xml:space="preserve" text-anchor="middle" x="322" y="-588.46" font-family="Arial" font-size="9.00">Attention</text>
<text xml:space="preserve" text-anchor="middle" x="322" y="-577.96" font-family="Arial" font-size="9.00">Module 4</text>
<text xml:space="preserve" text-anchor="middle" x="322" y="-567.46" font-family="Arial" font-size="9.00">(ECA∥SAM)</text>
<text xml:space="preserve" text-anchor="middle" x="322" y="-556.21" font-family="Arial" font-size="9.00">120 params</text>
</g>
<!-- p3&#45;&gt;att4 -->
<g id="edge7" class="edge">
<title>p3&#45;&gt;att4</title>
<path fill="none" stroke="black" d="M310.7,-648.38C311.86,-641 313.29,-631.96 314.72,-622.83"/>
<polygon fill="black" stroke="black" points="318.14,-623.67 316.23,-613.24 311.22,-622.58 318.14,-623.67"/>
</g>
<!-- p3_out -->
<g id="node14" class="node">
<title>p3_out</title>
<path fill="#ba68c8" stroke="black" d="M328,-502.75C328,-502.75 298,-502.75 298,-502.75 292,-502.75 286,-496.75 286,-490.75 286,-490.75 286,-478.75 286,-478.75 286,-472.75 292,-466.75 298,-466.75 298,-466.75 328,-466.75 328,-466.75 334,-466.75 340,-472.75 340,-478.75 340,-478.75 340,-490.75 340,-490.75 340,-496.75 334,-502.75 328,-502.75"/>
<text xml:space="preserve" text-anchor="middle" x="313" y="-486.7" font-family="Arial" font-size="9.00">P3&#39;</text>
<text xml:space="preserve" text-anchor="middle" x="313" y="-476.2" font-family="Arial" font-size="9.00">52 ch</text>
</g>
<!-- att4&#45;&gt;p3_out -->
<g id="edge8" class="edge">
<title>att4&#45;&gt;p3_out</title>
<path fill="none" stroke="black" d="M318.44,-539.51C317.59,-531.13 316.7,-522.29 315.89,-514.25"/>
<polygon fill="black" stroke="black" points="319.37,-513.93 314.88,-504.33 312.41,-514.64 319.37,-513.93"/>
</g>
<!-- head1 -->
<g id="node21" class="node">
<title>head1</title>
<path fill="#fff59d" stroke="black" d="M316.5,-407.25C316.5,-407.25 273.5,-407.25 273.5,-407.25 267.5,-407.25 261.5,-401.25 261.5,-395.25 261.5,-395.25 261.5,-383.25 261.5,-383.25 261.5,-377.25 267.5,-371.25 273.5,-371.25 273.5,-371.25 316.5,-371.25 316.5,-371.25 322.5,-371.25 328.5,-377.25 328.5,-383.25 328.5,-383.25 328.5,-395.25 328.5,-395.25 328.5,-401.25 322.5,-407.25 316.5,-407.25"/>
<text xml:space="preserve" text-anchor="middle" x="295" y="-391.2" font-family="Arial" font-size="9.00">SSH Head 1</text>
<text xml:space="preserve" text-anchor="middle" x="295" y="-380.7" font-family="Arial" font-size="9.00">+ Shuffle</text>
</g>
<!-- p3_out&#45;&gt;head1 -->
<g id="edge23" class="edge">
<title>p3_out&#45;&gt;head1</title>
<path fill="none" stroke="black" d="M309.7,-466.6C307.13,-453.24 303.5,-434.4 300.49,-418.78"/>
<polygon fill="black" stroke="black" points="303.96,-418.25 298.63,-409.09 297.08,-419.57 303.96,-418.25"/>
</g>
<!-- att5 -->
<g id="node16" class="node">
<title>att5</title>
<ellipse fill="#ce93d8" stroke="black" cx="197" cy="-575.64" rx="53.74" ry="35.89"/>
<text xml:space="preserve" text-anchor="middle" x="197" y="-588.46" font-family="Arial" font-size="9.00">Attention</text>
<text xml:space="preserve" text-anchor="middle" x="197" y="-577.96" font-family="Arial" font-size="9.00">Module 5</text>
<text xml:space="preserve" text-anchor="middle" x="197" y="-567.46" font-family="Arial" font-size="9.00">(ECA∥SAM)</text>
<text xml:space="preserve" text-anchor="middle" x="197" y="-556.21" font-family="Arial" font-size="9.00">120 params</text>
</g>
<!-- p4&#45;&gt;att5 -->
<g id="edge9" class="edge">
<title>p4&#45;&gt;att5</title>
<path fill="none" stroke="black" d="M197,-648.38C197,-641.08 197,-632.16 197,-623.13"/>
<polygon fill="black" stroke="black" points="200.5,-623.26 197,-613.26 193.5,-623.26 200.5,-623.26"/>
</g>
<!-- p4_out -->
<g id="node17" class="node">
<title>p4_out</title>
<path fill="#ba68c8" stroke="black" d="M212,-502.75C212,-502.75 182,-502.75 182,-502.75 176,-502.75 170,-496.75 170,-490.75 170,-490.75 170,-478.75 170,-478.75 170,-472.75 176,-466.75 182,-466.75 182,-466.75 212,-466.75 212,-466.75 218,-466.75 224,-472.75 224,-478.75 224,-478.75 224,-490.75 224,-490.75 224,-496.75 218,-502.75 212,-502.75"/>
<text xml:space="preserve" text-anchor="middle" x="197" y="-486.7" font-family="Arial" font-size="9.00">P4&#39;</text>
<text xml:space="preserve" text-anchor="middle" x="197" y="-476.2" font-family="Arial" font-size="9.00">52 ch</text>
</g>
<!-- att5&#45;&gt;p4_out -->
<g id="edge10" class="edge">
<title>att5&#45;&gt;p4_out</title>
<path fill="none" stroke="black" d="M197,-539.25C197,-531.02 197,-522.36 197,-514.46"/>
<polygon fill="black" stroke="black" points="200.5,-514.72 197,-504.72 193.5,-514.72 200.5,-514.72"/>
</g>
<!-- head2 -->
<g id="node23" class="node">
<title>head2</title>
<path fill="#fff59d" stroke="black" d="M218.5,-407.25C218.5,-407.25 175.5,-407.25 175.5,-407.25 169.5,-407.25 163.5,-401.25 163.5,-395.25 163.5,-395.25 163.5,-383.25 163.5,-383.25 163.5,-377.25 169.5,-371.25 175.5,-371.25 175.5,-371.25 218.5,-371.25 218.5,-371.25 224.5,-371.25 230.5,-377.25 230.5,-383.25 230.5,-383.25 230.5,-395.25 230.5,-395.25 230.5,-401.25 224.5,-407.25 218.5,-407.25"/>
<text xml:space="preserve" text-anchor="middle" x="197" y="-391.2" font-family="Arial" font-size="9.00">SSH Head 2</text>
<text xml:space="preserve" text-anchor="middle" x="197" y="-380.7" font-family="Arial" font-size="9.00">+ Shuffle</text>
</g>
<!-- p4_out&#45;&gt;head2 -->
<g id="edge24" class="edge">
<title>p4_out&#45;&gt;head2</title>
<path fill="none" stroke="black" d="M197,-466.6C197,-453.24 197,-434.4 197,-418.78"/>
<polygon fill="black" stroke="black" points="200.5,-419.12 197,-409.12 193.5,-419.12 200.5,-419.12"/>
</g>
<!-- att6 -->
<g id="node19" class="node">
<title>att6</title>
<ellipse fill="#ce93d8" stroke="black" cx="72" cy="-575.64" rx="53.74" ry="35.89"/>
<text xml:space="preserve" text-anchor="middle" x="72" y="-588.46" font-family="Arial" font-size="9.00">Attention</text>
<text xml:space="preserve" text-anchor="middle" x="72" y="-577.96" font-family="Arial" font-size="9.00">Module 6</text>
<text xml:space="preserve" text-anchor="middle" x="72" y="-567.46" font-family="Arial" font-size="9.00">(ECA∥SAM)</text>
<text xml:space="preserve" text-anchor="middle" x="72" y="-556.21" font-family="Arial" font-size="9.00">120 params</text>
</g>
<!-- p5&#45;&gt;att6 -->
<g id="edge11" class="edge">
<title>p5&#45;&gt;att6</title>
<path fill="none" stroke="black" d="M76.84,-648.38C76.35,-641.08 75.75,-632.16 75.14,-623.13"/>
<polygon fill="black" stroke="black" points="78.64,-623 74.47,-613.26 71.65,-623.47 78.64,-623"/>
</g>
<!-- p5_out -->
<g id="node20" class="node">
<title>p5_out</title>
<path fill="#ba68c8" stroke="black" d="M93,-502.75C93,-502.75 63,-502.75 63,-502.75 57,-502.75 51,-496.75 51,-490.75 51,-490.75 51,-478.75 51,-478.75 51,-472.75 57,-466.75 63,-466.75 63,-466.75 93,-466.75 93,-466.75 99,-466.75 105,-472.75 105,-478.75 105,-478.75 105,-490.75 105,-490.75 105,-496.75 99,-502.75 93,-502.75"/>
<text xml:space="preserve" text-anchor="middle" x="78" y="-486.7" font-family="Arial" font-size="9.00">P5&#39;</text>
<text xml:space="preserve" text-anchor="middle" x="78" y="-476.2" font-family="Arial" font-size="9.00">52 ch</text>
</g>
<!-- att6&#45;&gt;p5_out -->
<g id="edge12" class="edge">
<title>att6&#45;&gt;p5_out</title>
<path fill="none" stroke="black" d="M74.37,-539.51C74.94,-531.13 75.53,-522.29 76.08,-514.25"/>
<polygon fill="black" stroke="black" points="79.56,-514.55 76.75,-504.34 72.58,-514.08 79.56,-514.55"/>
</g>
<!-- head3 -->
<g id="node25" class="node">
<title>head3</title>
<path fill="#fff59d" stroke="black" d="M120.5,-407.25C120.5,-407.25 77.5,-407.25 77.5,-407.25 71.5,-407.25 65.5,-401.25 65.5,-395.25 65.5,-395.25 65.5,-383.25 65.5,-383.25 65.5,-377.25 71.5,-371.25 77.5,-371.25 77.5,-371.25 120.5,-371.25 120.5,-371.25 126.5,-371.25 132.5,-377.25 132.5,-383.25 132.5,-383.25 132.5,-395.25 132.5,-395.25 132.5,-401.25 126.5,-407.25 120.5,-407.25"/>
<text xml:space="preserve" text-anchor="middle" x="99" y="-391.2" font-family="Arial" font-size="9.00">SSH Head 3</text>
<text xml:space="preserve" text-anchor="middle" x="99" y="-380.7" font-family="Arial" font-size="9.00">+ Shuffle</text>
</g>
<!-- p5_out&#45;&gt;head3 -->
<g id="edge25" class="edge">
<title>p5_out&#45;&gt;head3</title>
<path fill="none" stroke="black" d="M81.85,-466.6C84.85,-453.24 89.08,-434.4 92.59,-418.78"/>
<polygon fill="black" stroke="black" points="95.99,-419.61 94.77,-409.08 89.16,-418.07 95.99,-419.61"/>
</g>
<!-- det1 -->
<g id="node22" class="node">
<title>det1</title>
<path fill="#fff176" stroke="black" d="M318.38,-334.25C318.38,-334.25 265.62,-334.25 265.62,-334.25 259.62,-334.25 253.62,-328.25 253.62,-322.25 253.62,-322.25 253.62,-306.75 253.62,-306.75 253.62,-300.75 259.62,-294.75 265.62,-294.75 265.62,-294.75 318.38,-294.75 318.38,-294.75 324.38,-294.75 330.38,-300.75 330.38,-306.75 330.38,-306.75 330.38,-322.25 330.38,-322.25 330.38,-328.25 324.38,-334.25 318.38,-334.25"/>
<text xml:space="preserve" text-anchor="middle" x="292" y="-321.7" font-family="Arial" font-size="9.00">Small Faces</text>
<text xml:space="preserve" text-anchor="middle" x="292" y="-311.2" font-family="Arial" font-size="9.00">Cls + BBox</text>
<text xml:space="preserve" text-anchor="middle" x="292" y="-300.7" font-family="Arial" font-size="9.00">+ 5 Landmarks</text>
</g>
<!-- head1&#45;&gt;det1 -->
<g id="edge16" class="edge">
<title>head1&#45;&gt;det1</title>
<path fill="none" stroke="black" d="M294.29,-371.01C293.98,-363.5 293.61,-354.47 293.25,-345.89"/>
<polygon fill="black" stroke="black" points="296.76,-346.02 292.85,-336.18 289.77,-346.31 296.76,-346.02"/>
</g>
<!-- nms -->
<g id="node27" class="node">
<title>nms</title>
<path fill="#c8e6c9" stroke="black" d="M224.5,-257.75C224.5,-257.75 169.5,-257.75 169.5,-257.75 163.5,-257.75 157.5,-251.75 157.5,-245.75 157.5,-245.75 157.5,-230.25 157.5,-230.25 157.5,-224.25 163.5,-218.25 169.5,-218.25 169.5,-218.25 224.5,-218.25 224.5,-218.25 230.5,-218.25 236.5,-224.25 236.5,-230.25 236.5,-230.25 236.5,-245.75 236.5,-245.75 236.5,-251.75 230.5,-257.75 224.5,-257.75"/>
<text xml:space="preserve" text-anchor="middle" x="197" y="-245.2" font-family="Arial" font-size="9.00">NMS</text>
<text xml:space="preserve" text-anchor="middle" x="197" y="-234.7" font-family="Arial" font-size="9.00">(Non&#45;Maximum</text>
<text xml:space="preserve" text-anchor="middle" x="197" y="-224.2" font-family="Arial" font-size="9.00">Suppression)</text>
</g>
<!-- det1&#45;&gt;nms -->
<g id="edge26" class="edge">
<title>det1&#45;&gt;nms</title>
<path fill="none" stroke="black" d="M267.54,-294.31C256.23,-285.45 242.63,-274.79 230.41,-265.2"/>
<polygon fill="black" stroke="black" points="232.6,-262.47 222.57,-259.05 228.28,-267.98 232.6,-262.47"/>
</g>
<!-- det2 -->
<g id="node24" class="node">
<title>det2</title>
<path fill="#fff176" stroke="black" d="M223.38,-334.25C223.38,-334.25 170.63,-334.25 170.63,-334.25 164.63,-334.25 158.63,-328.25 158.63,-322.25 158.63,-322.25 158.63,-306.75 158.63,-306.75 158.63,-300.75 164.63,-294.75 170.63,-294.75 170.63,-294.75 223.38,-294.75 223.38,-294.75 229.38,-294.75 235.38,-300.75 235.38,-306.75 235.38,-306.75 235.38,-322.25 235.38,-322.25 235.38,-328.25 229.38,-334.25 223.38,-334.25"/>
<text xml:space="preserve" text-anchor="middle" x="197" y="-321.7" font-family="Arial" font-size="9.00">Medium Faces</text>
<text xml:space="preserve" text-anchor="middle" x="197" y="-311.2" font-family="Arial" font-size="9.00">Cls + BBox</text>
<text xml:space="preserve" text-anchor="middle" x="197" y="-300.7" font-family="Arial" font-size="9.00">+ 5 Landmarks</text>
</g>
<!-- head2&#45;&gt;det2 -->
<g id="edge17" class="edge">
<title>head2&#45;&gt;det2</title>
<path fill="none" stroke="black" d="M197,-371.01C197,-363.5 197,-354.47 197,-345.89"/>
<polygon fill="black" stroke="black" points="200.5,-346.18 197,-336.18 193.5,-346.18 200.5,-346.18"/>
</g>
<!-- det2&#45;&gt;nms -->
<g id="edge27" class="edge">
<title>det2&#45;&gt;nms</title>
<path fill="none" stroke="black" d="M197,-294.31C197,-286.75 197,-277.88 197,-269.49"/>
<polygon fill="black" stroke="black" points="200.5,-269.63 197,-259.63 193.5,-269.63 200.5,-269.63"/>
</g>
<!-- det3 -->
<g id="node26" class="node">
<title>det3</title>
<path fill="#fff176" stroke="black" d="M128.38,-334.25C128.38,-334.25 75.63,-334.25 75.63,-334.25 69.63,-334.25 63.63,-328.25 63.63,-322.25 63.63,-322.25 63.63,-306.75 63.63,-306.75 63.63,-300.75 69.63,-294.75 75.63,-294.75 75.63,-294.75 128.38,-294.75 128.38,-294.75 134.38,-294.75 140.38,-300.75 140.38,-306.75 140.38,-306.75 140.38,-322.25 140.38,-322.25 140.38,-328.25 134.38,-334.25 128.38,-334.25"/>
<text xml:space="preserve" text-anchor="middle" x="102" y="-321.7" font-family="Arial" font-size="9.00">Large Faces</text>
<text xml:space="preserve" text-anchor="middle" x="102" y="-311.2" font-family="Arial" font-size="9.00">Cls + BBox</text>
<text xml:space="preserve" text-anchor="middle" x="102" y="-300.7" font-family="Arial" font-size="9.00">+ 5 Landmarks</text>
</g>
<!-- head3&#45;&gt;det3 -->
<g id="edge18" class="edge">
<title>head3&#45;&gt;det3</title>
<path fill="none" stroke="black" d="M99.71,-371.01C100.02,-363.5 100.39,-354.47 100.75,-345.89"/>
<polygon fill="black" stroke="black" points="104.23,-346.31 101.15,-336.18 97.24,-346.02 104.23,-346.31"/>
</g>
<!-- det3&#45;&gt;nms -->
<g id="edge28" class="edge">
<title>det3&#45;&gt;nms</title>
<path fill="none" stroke="black" d="M126.46,-294.31C137.77,-285.45 151.37,-274.79 163.59,-265.2"/>
<polygon fill="black" stroke="black" points="165.72,-267.98 171.43,-259.05 161.4,-262.47 165.72,-267.98"/>
</g>
<!-- output -->
<g id="node28" class="node">
<title>output</title>
<path fill="#a5d6a7" stroke="black" d="M226,-181.25C226,-181.25 168,-181.25 168,-181.25 162,-181.25 156,-175.25 156,-169.25 156,-169.25 156,-153.75 156,-153.75 156,-147.75 162,-141.75 168,-141.75 168,-141.75 226,-141.75 226,-141.75 232,-141.75 238,-147.75 238,-153.75 238,-153.75 238,-169.25 238,-169.25 238,-175.25 232,-181.25 226,-181.25"/>
<text xml:space="preserve" text-anchor="middle" x="197" y="-168.7" font-family="Arial" font-size="9.00">Final Detections</text>
<text xml:space="preserve" text-anchor="middle" x="197" y="-158.2" font-family="Arial" font-size="9.00">BBox + Conf</text>
<text xml:space="preserve" text-anchor="middle" x="197" y="-147.7" font-family="Arial" font-size="9.00">+ 5 Landmarks</text>
</g>
<!-- nms&#45;&gt;output -->
<g id="edge29" class="edge">
<title>nms&#45;&gt;output</title>
<path fill="none" stroke="black" d="M197,-217.81C197,-210.25 197,-201.38 197,-192.99"/>
<polygon fill="black" stroke="black" points="200.5,-193.13 197,-183.13 193.5,-193.13 200.5,-193.13"/>
</g>
<!-- info -->
<g id="node29" class="node">
<title>info</title>
<polygon fill="#fffde7" stroke="black" points="388,-104.75 0,-104.75 0,0 394,0 394,-98.75 388,-104.75"/>
<polyline fill="none" stroke="black" points="388,-104.75 388,-98.75"/>
<polyline fill="none" stroke="black" points="394,-98.75 388,-98.75"/>
<text xml:space="preserve" text-anchor="middle" x="197" y="-92.2" font-family="Arial" font-size="9.00">Total Attention Modules: 6</text>
<text xml:space="preserve" text-anchor="middle" x="197" y="-81.7" font-family="Arial" font-size="9.00">━━━━━━━━━━━━━━━━━━━━━━━━</text>
<text xml:space="preserve" text-anchor="middle" x="197" y="-70.45" font-family="Arial" font-size="9.00">• 3 in Backbone (64, 128, 256 ch)</text>
<text xml:space="preserve" text-anchor="middle" x="197" y="-59.95" font-family="Arial" font-size="9.00">• 3 in BiFPN (52, 52, 52 ch)</text>
<text xml:space="preserve" text-anchor="middle" x="197" y="-49.45" font-family="Arial" font-size="9.00">• Each: ~120 params (ECA 22 + SAM 98)</text>
<text xml:space="preserve" text-anchor="middle" x="197" y="-38.95" font-family="Arial" font-size="9.00">• Architecture: Parallel (ECA ∥ SAM)</text>
<text xml:space="preserve" text-anchor="middle" x="197" y="-27.7" font-family="Arial" font-size="9.00">• Fusion: Multiplicative (M_c ⊙ M_s)</text>
<text xml:space="preserve" text-anchor="middle" x="197" y="-16.45" font-family="Arial" font-size="9.00">• Total Model: 476,345 parameters</text>
<text xml:space="preserve" text-anchor="middle" x="197" y="-5.95" font-family="Arial" font-size="9.00">• Target mAP: 89.2% (WIDERFace)</text>
</g>
<!-- output&#45;&gt;info -->
</g>
</svg>
