<?xml version="1.0" encoding="UTF-8" standalone="no"?>
<!DOCTYPE svg PUBLIC "-//W3C//DTD SVG 1.1//EN"
 "http://www.w3.org/Graphics/SVG/1.1/DTD/svg11.dtd">
<!-- Generated by graphviz version 2.43.0 (0)
 -->
<!-- Title: FeatherFaceODConv Pages: 1 -->
<svg width="1732pt" height="747pt"
 viewBox="0.00 0.00 1732.00 747.00" xmlns="http://www.w3.org/2000/svg" xmlns:xlink="http://www.w3.org/1999/xlink">
<g id="graph0" class="graph" transform="scale(1 1) rotate(0) translate(4 743)">
<title>FeatherFaceODConv</title>
<polygon fill="white" stroke="transparent" points="-4,4 -4,-743 1728,-743 1728,4 -4,4"/>
<g id="clust1" class="cluster">
<title>cluster_input</title>
<polygon fill="#f8f9fa" stroke="lightgray" points="79.5,-166 79.5,-241 185.5,-241 185.5,-166 79.5,-166"/>
<text text-anchor="middle" x="132.5" y="-225.8" font-family="Arial" font-size="14.00">Input Pipeline</text>
</g>
<g id="clust2" class="cluster">
<title>cluster_backbone</title>
<polygon fill="#e8f4fd" stroke="lightblue" points="285,-58 285,-256 458,-256 458,-58 285,-58"/>
<text text-anchor="middle" x="371.5" y="-240.8" font-family="Arial" font-size="14.00">MobileNet&#45;0.25 Backbone</text>
<text text-anchor="middle" x="371.5" y="-225.8" font-family="Arial" font-size="14.00">(~213K params)</text>
</g>
<g id="clust3" class="cluster">
<title>cluster_odconv_backbone</title>
<polygon fill="#fff3e0" stroke="orange" points="478,-8 478,-266 667,-266 667,-8 478,-8"/>
<text text-anchor="middle" x="572.5" y="-250.8" font-family="Arial" font-size="14.00">ODConv Backbone Attention</text>
<text text-anchor="middle" x="572.5" y="-235.8" font-family="Arial" font-size="14.00">4D Multidimensional</text>
</g>
<g id="clust4" class="cluster">
<title>cluster_bifpn</title>
<polygon fill="#e8f5e8" stroke="green" points="687,-38 687,-236 937,-236 937,-38 687,-38"/>
<text text-anchor="middle" x="812" y="-220.8" font-family="Arial" font-size="14.00">BiFPN Feature Aggregation</text>
<text text-anchor="middle" x="812" y="-205.8" font-family="Arial" font-size="14.00">(~93K params)</text>
</g>
<g id="clust5" class="cluster">
<title>cluster_odconv_bifpn</title>
<polygon fill="#fff3e0" stroke="orange" points="957,-8 957,-266 1125,-266 1125,-8 957,-8"/>
<text text-anchor="middle" x="1041" y="-250.8" font-family="Arial" font-size="14.00">ODConv BiFPN Attention</text>
<text text-anchor="middle" x="1041" y="-235.8" font-family="Arial" font-size="14.00">4D Multidimensional</text>
</g>
<g id="clust6" class="cluster">
<title>cluster_ssh</title>
<polygon fill="#f3e5f5" stroke="purple" points="1145,-38 1145,-236 1293,-236 1293,-38 1145,-38"/>
<text text-anchor="middle" x="1219" y="-220.8" font-family="Arial" font-size="14.00">SSH Detection Heads</text>
<text text-anchor="middle" x="1219" y="-205.8" font-family="Arial" font-size="14.00">(~165K params)</text>
</g>
<g id="clust7" class="cluster">
<title>cluster_shuffle</title>
<polygon fill="#e0f2f1" stroke="teal" points="1313,-38 1313,-236 1433,-236 1433,-38 1313,-38"/>
<text text-anchor="middle" x="1373" y="-220.8" font-family="Arial" font-size="14.00">Channel Shuffle</text>
<text text-anchor="middle" x="1373" y="-205.8" font-family="Arial" font-size="14.00">(~10K params)</text>
</g>
<g id="clust8" class="cluster">
<title>cluster_heads</title>
<polygon fill="#ffebee" stroke="red" points="1453,-38 1453,-236 1570,-236 1570,-38 1453,-38"/>
<text text-anchor="middle" x="1511.5" y="-220.8" font-family="Arial" font-size="14.00">Detection Heads</text>
<text text-anchor="middle" x="1511.5" y="-205.8" font-family="Arial" font-size="14.00">(~5.5K params)</text>
</g>
<g id="clust9" class="cluster">
<title>cluster_output</title>
<polygon fill="#f8f9fa" stroke="lightgray" points="1590,-88 1590,-171 1716,-171 1716,-88 1590,-88"/>
<text text-anchor="middle" x="1653" y="-155.8" font-family="Arial" font-size="14.00">Output</text>
</g>
<g id="clust10" class="cluster">
<title>cluster_innovation</title>
<polygon fill="#fef7e0" stroke="darkorange" points="23.5,-249 23.5,-442 242.5,-442 242.5,-249 23.5,-249"/>
<text text-anchor="middle" x="133" y="-426.8" font-family="Arial" font-size="14.00">🚀 ODConv Innovation vs CBAM</text>
</g>
<g id="clust11" class="cluster">
<title>cluster_performance</title>
<polygon fill="#e8f5e8" stroke="darkgreen" points="0,-450 0,-586 266,-586 266,-450 0,-450"/>
<text text-anchor="middle" x="133" y="-570.8" font-family="Arial" font-size="14.00">📊 Expected Performance (WIDERFace)</text>
</g>
<g id="clust12" class="cluster">
<title>cluster_legend</title>
<polygon fill="#fafafa" stroke="gray" points="35,-594 35,-731 230,-731 230,-594 35,-594"/>
<text text-anchor="middle" x="132.5" y="-715.8" font-family="Arial" font-size="14.00">Legend</text>
</g>
<!-- input -->
<g id="node1" class="node">
<title>input</title>
<polygon fill="#e3f2fd" stroke="black" points="177.5,-210 87.5,-210 87.5,-174 177.5,-174 177.5,-210"/>
<text text-anchor="middle" x="132.5" y="-195.2" font-family="Arial" font-size="11.00">Input Image</text>
<text text-anchor="middle" x="132.5" y="-183.2" font-family="Arial" font-size="11.00">[B, 3, 640, 640]</text>
</g>
<!-- stage1 -->
<g id="node2" class="node">
<title>stage1</title>
<polygon fill="#bbdefb" stroke="black" points="420,-210 323,-210 323,-174 420,-174 420,-210"/>
<text text-anchor="middle" x="371.5" y="-195.2" font-family="Arial" font-size="11.00">Stage 1</text>
<text text-anchor="middle" x="371.5" y="-183.2" font-family="Arial" font-size="11.00">[B, 64, H/8, W/8]</text>
</g>
<!-- input&#45;&gt;stage1 -->
<g id="edge1" class="edge">
<title>input&#45;&gt;stage1</title>
<path fill="none" stroke="black" d="M177.52,-192C215.61,-192 270.97,-192 312.63,-192"/>
<polygon fill="black" stroke="black" points="312.64,-195.5 322.64,-192 312.64,-188.5 312.64,-195.5"/>
</g>
<!-- odconv1 -->
<g id="node5" class="node">
<title>odconv1</title>
<polygon fill="#ffcc02" stroke="black" points="632,-220 512,-220 512,-164 632,-164 632,-220"/>
<text text-anchor="middle" x="572" y="-207.2" font-family="Arial" font-size="11.00">ODConv 4D</text>
<text text-anchor="middle" x="572" y="-195.2" font-family="Arial" font-size="11.00">64 channels</text>
<text text-anchor="middle" x="572" y="-183.2" font-family="Arial" font-size="11.00">Spatial + Input Ch</text>
<text text-anchor="middle" x="572" y="-171.2" font-family="Arial" font-size="11.00">+ Output Ch + Kernel</text>
</g>
<!-- stage1&#45;&gt;odconv1 -->
<g id="edge2" class="edge">
<title>stage1&#45;&gt;odconv1</title>
<path fill="none" stroke="black" d="M420.05,-192C444.45,-192 474.65,-192 501.61,-192"/>
<polygon fill="black" stroke="black" points="501.76,-195.5 511.76,-192 501.76,-188.5 501.76,-195.5"/>
</g>
<!-- stage2 -->
<g id="node3" class="node">
<title>stage2</title>
<polygon fill="#bbdefb" stroke="black" points="429,-156 314,-156 314,-120 429,-120 429,-156"/>
<text text-anchor="middle" x="371.5" y="-141.2" font-family="Arial" font-size="11.00">Stage 2</text>
<text text-anchor="middle" x="371.5" y="-129.2" font-family="Arial" font-size="11.00">[B, 128, H/16, W/16]</text>
</g>
<!-- odconv2 -->
<g id="node6" class="node">
<title>odconv2</title>
<polygon fill="#ffcc02" stroke="black" points="632,-146 512,-146 512,-90 632,-90 632,-146"/>
<text text-anchor="middle" x="572" y="-133.2" font-family="Arial" font-size="11.00">ODConv 4D</text>
<text text-anchor="middle" x="572" y="-121.2" font-family="Arial" font-size="11.00">128 channels</text>
<text text-anchor="middle" x="572" y="-109.2" font-family="Arial" font-size="11.00">Spatial + Input Ch</text>
<text text-anchor="middle" x="572" y="-97.2" font-family="Arial" font-size="11.00">+ Output Ch + Kernel</text>
</g>
<!-- stage2&#45;&gt;odconv2 -->
<g id="edge4" class="edge">
<title>stage2&#45;&gt;odconv2</title>
<path fill="none" stroke="black" d="M429.12,-132.3C451.78,-130.01 478.1,-127.36 501.87,-124.96"/>
<polygon fill="black" stroke="black" points="502.29,-128.44 511.89,-123.96 501.59,-121.48 502.29,-128.44"/>
</g>
<!-- stage3 -->
<g id="node4" class="node">
<title>stage3</title>
<polygon fill="#bbdefb" stroke="black" points="429,-102 314,-102 314,-66 429,-66 429,-102"/>
<text text-anchor="middle" x="371.5" y="-87.2" font-family="Arial" font-size="11.00">Stage 3</text>
<text text-anchor="middle" x="371.5" y="-75.2" font-family="Arial" font-size="11.00">[B, 256, H/32, W/32]</text>
</g>
<!-- odconv3 -->
<g id="node7" class="node">
<title>odconv3</title>
<polygon fill="#ffcc02" stroke="black" points="632,-72 512,-72 512,-16 632,-16 632,-72"/>
<text text-anchor="middle" x="572" y="-59.2" font-family="Arial" font-size="11.00">ODConv 4D</text>
<text text-anchor="middle" x="572" y="-47.2" font-family="Arial" font-size="11.00">256 channels</text>
<text text-anchor="middle" x="572" y="-35.2" font-family="Arial" font-size="11.00">Spatial + Input Ch</text>
<text text-anchor="middle" x="572" y="-23.2" font-family="Arial" font-size="11.00">+ Output Ch + Kernel</text>
</g>
<!-- stage3&#45;&gt;odconv3 -->
<g id="edge6" class="edge">
<title>stage3&#45;&gt;odconv3</title>
<path fill="none" stroke="black" d="M429.12,-72.59C451.78,-68.02 478.1,-62.72 501.87,-57.93"/>
<polygon fill="black" stroke="black" points="502.78,-61.32 511.89,-55.91 501.39,-54.46 502.78,-61.32"/>
</g>
<!-- odconv1&#45;&gt;stage2 -->
<g id="edge3" class="edge">
<title>odconv1&#45;&gt;stage2</title>
<path fill="none" stroke="black" d="M511.89,-175.92C488.97,-169.68 462.61,-162.51 439.03,-156.1"/>
<polygon fill="black" stroke="black" points="439.68,-152.65 429.12,-153.4 437.85,-159.4 439.68,-152.65"/>
</g>
<!-- bifpn -->
<g id="node8" class="node">
<title>bifpn</title>
<polygon fill="#c8e6c9" stroke="black" points="784,-146 695,-146 695,-90 784,-90 784,-146"/>
<text text-anchor="middle" x="739.5" y="-133.2" font-family="Arial" font-size="11.00">BiFPN</text>
<text text-anchor="middle" x="739.5" y="-121.2" font-family="Arial" font-size="11.00">3 levels</text>
<text text-anchor="middle" x="739.5" y="-109.2" font-family="Arial" font-size="11.00">Bidirectional</text>
<text text-anchor="middle" x="739.5" y="-97.2" font-family="Arial" font-size="11.00">Feature Fusion</text>
</g>
<!-- odconv1&#45;&gt;bifpn -->
<g id="edge7" class="edge">
<title>odconv1&#45;&gt;bifpn</title>
<path fill="none" stroke="black" d="M632.06,-169.83C643.73,-165.14 655.82,-160.08 667,-155 673.16,-152.2 679.54,-149.14 685.84,-146.02"/>
<polygon fill="black" stroke="black" points="687.63,-149.04 694.99,-141.42 684.48,-142.79 687.63,-149.04"/>
</g>
<!-- odconv2&#45;&gt;stage3 -->
<g id="edge5" class="edge">
<title>odconv2&#45;&gt;stage3</title>
<path fill="none" stroke="black" d="M511.89,-107.87C488.97,-103.95 462.61,-99.44 439.03,-95.4"/>
<polygon fill="black" stroke="black" points="439.56,-91.94 429.12,-93.7 438.38,-98.84 439.56,-91.94"/>
</g>
<!-- odconv2&#45;&gt;bifpn -->
<g id="edge8" class="edge">
<title>odconv2&#45;&gt;bifpn</title>
<path fill="none" stroke="black" d="M632.28,-118C649.41,-118 668,-118 684.77,-118"/>
<polygon fill="black" stroke="black" points="684.95,-121.5 694.95,-118 684.95,-114.5 684.95,-121.5"/>
</g>
<!-- odconv3&#45;&gt;bifpn -->
<g id="edge9" class="edge">
<title>odconv3&#45;&gt;bifpn</title>
<path fill="none" stroke="black" d="M632.06,-66.17C643.73,-70.86 655.82,-75.92 667,-81 673.16,-83.8 679.54,-86.86 685.84,-89.98"/>
<polygon fill="black" stroke="black" points="684.48,-93.21 694.99,-94.58 687.63,-86.96 684.48,-93.21"/>
</g>
<!-- p3 -->
<g id="node9" class="node">
<title>p3</title>
<polygon fill="#a5d6a7" stroke="black" points="923,-82 826,-82 826,-46 923,-46 923,-82"/>
<text text-anchor="middle" x="874.5" y="-67.2" font-family="Arial" font-size="11.00">P3</text>
<text text-anchor="middle" x="874.5" y="-55.2" font-family="Arial" font-size="11.00">[B, 52, H/8, W/8]</text>
</g>
<!-- bifpn&#45;&gt;p3 -->
<g id="edge10" class="edge">
<title>bifpn&#45;&gt;p3</title>
<path fill="none" stroke="black" d="M784.05,-100.32C795.41,-95.71 807.78,-90.68 819.61,-85.88"/>
<polygon fill="black" stroke="black" points="820.99,-89.1 828.94,-82.09 818.36,-82.61 820.99,-89.1"/>
</g>
<!-- p4 -->
<g id="node10" class="node">
<title>p4</title>
<polygon fill="#a5d6a7" stroke="black" points="929,-136 820,-136 820,-100 929,-100 929,-136"/>
<text text-anchor="middle" x="874.5" y="-121.2" font-family="Arial" font-size="11.00">P4</text>
<text text-anchor="middle" x="874.5" y="-109.2" font-family="Arial" font-size="11.00">[B, 52, H/16, W/16]</text>
</g>
<!-- bifpn&#45;&gt;p4 -->
<g id="edge11" class="edge">
<title>bifpn&#45;&gt;p4</title>
<path fill="none" stroke="black" d="M784.05,-118C792.22,-118 800.91,-118 809.55,-118"/>
<polygon fill="black" stroke="black" points="809.63,-121.5 819.63,-118 809.63,-114.5 809.63,-121.5"/>
</g>
<!-- p5 -->
<g id="node11" class="node">
<title>p5</title>
<polygon fill="#a5d6a7" stroke="black" points="929,-190 820,-190 820,-154 929,-154 929,-190"/>
<text text-anchor="middle" x="874.5" y="-175.2" font-family="Arial" font-size="11.00">P5</text>
<text text-anchor="middle" x="874.5" y="-163.2" font-family="Arial" font-size="11.00">[B, 52, H/32, W/32]</text>
</g>
<!-- bifpn&#45;&gt;p5 -->
<g id="edge12" class="edge">
<title>bifpn&#45;&gt;p5</title>
<path fill="none" stroke="black" d="M784.05,-135.68C795.41,-140.29 807.78,-145.32 819.61,-150.12"/>
<polygon fill="black" stroke="black" points="818.36,-153.39 828.94,-153.91 820.99,-146.9 818.36,-153.39"/>
</g>
<!-- odconv_p3 -->
<g id="node12" class="node">
<title>odconv_p3</title>
<polygon fill="#ffcc02" stroke="black" points="1101,-72 981,-72 981,-16 1101,-16 1101,-72"/>
<text text-anchor="middle" x="1041" y="-59.2" font-family="Arial" font-size="11.00">ODConv 4D</text>
<text text-anchor="middle" x="1041" y="-47.2" font-family="Arial" font-size="11.00">52 channels</text>
<text text-anchor="middle" x="1041" y="-35.2" font-family="Arial" font-size="11.00">Spatial + Input Ch</text>
<text text-anchor="middle" x="1041" y="-23.2" font-family="Arial" font-size="11.00">+ Output Ch + Kernel</text>
</g>
<!-- p3&#45;&gt;odconv_p3 -->
<g id="edge13" class="edge">
<title>p3&#45;&gt;odconv_p3</title>
<path fill="none" stroke="black" d="M923.08,-58.22C937.87,-56.42 954.49,-54.4 970.45,-52.46"/>
<polygon fill="black" stroke="black" points="971.32,-55.88 980.83,-51.19 970.48,-48.93 971.32,-55.88"/>
</g>
<!-- odconv_p4 -->
<g id="node13" class="node">
<title>odconv_p4</title>
<polygon fill="#ffcc02" stroke="black" points="1101,-146 981,-146 981,-90 1101,-90 1101,-146"/>
<text text-anchor="middle" x="1041" y="-133.2" font-family="Arial" font-size="11.00">ODConv 4D</text>
<text text-anchor="middle" x="1041" y="-121.2" font-family="Arial" font-size="11.00">52 channels</text>
<text text-anchor="middle" x="1041" y="-109.2" font-family="Arial" font-size="11.00">Spatial + Input Ch</text>
<text text-anchor="middle" x="1041" y="-97.2" font-family="Arial" font-size="11.00">+ Output Ch + Kernel</text>
</g>
<!-- p4&#45;&gt;odconv_p4 -->
<g id="edge14" class="edge">
<title>p4&#45;&gt;odconv_p4</title>
<path fill="none" stroke="black" d="M929.36,-118C942.51,-118 956.75,-118 970.5,-118"/>
<polygon fill="black" stroke="black" points="970.9,-121.5 980.9,-118 970.9,-114.5 970.9,-121.5"/>
</g>
<!-- odconv_p5 -->
<g id="node14" class="node">
<title>odconv_p5</title>
<polygon fill="#ffcc02" stroke="black" points="1101,-220 981,-220 981,-164 1101,-164 1101,-220"/>
<text text-anchor="middle" x="1041" y="-207.2" font-family="Arial" font-size="11.00">ODConv 4D</text>
<text text-anchor="middle" x="1041" y="-195.2" font-family="Arial" font-size="11.00">52 channels</text>
<text text-anchor="middle" x="1041" y="-183.2" font-family="Arial" font-size="11.00">Spatial + Input Ch</text>
<text text-anchor="middle" x="1041" y="-171.2" font-family="Arial" font-size="11.00">+ Output Ch + Kernel</text>
</g>
<!-- p5&#45;&gt;odconv_p5 -->
<g id="edge15" class="edge">
<title>p5&#45;&gt;odconv_p5</title>
<path fill="none" stroke="black" d="M929.36,-178.55C942.63,-180.16 957.03,-181.91 970.91,-183.6"/>
<polygon fill="black" stroke="black" points="970.55,-187.08 980.9,-184.81 971.4,-180.13 970.55,-187.08"/>
</g>
<!-- ssh1 -->
<g id="node15" class="node">
<title>ssh1</title>
<polygon fill="#ce93d8" stroke="black" points="1257,-82 1180,-82 1180,-46 1257,-46 1257,-82"/>
<text text-anchor="middle" x="1218.5" y="-67.2" font-family="Arial" font-size="11.00">SSH + DCN</text>
<text text-anchor="middle" x="1218.5" y="-55.2" font-family="Arial" font-size="11.00">P3 features</text>
</g>
<!-- odconv_p3&#45;&gt;ssh1 -->
<g id="edge16" class="edge">
<title>odconv_p3&#45;&gt;ssh1</title>
<path fill="none" stroke="black" d="M1101.42,-50.77C1123.72,-53.31 1148.76,-56.17 1169.86,-58.57"/>
<polygon fill="black" stroke="black" points="1169.54,-62.06 1179.87,-59.71 1170.33,-55.1 1169.54,-62.06"/>
</g>
<!-- ssh2 -->
<g id="node16" class="node">
<title>ssh2</title>
<polygon fill="#ce93d8" stroke="black" points="1257,-136 1180,-136 1180,-100 1257,-100 1257,-136"/>
<text text-anchor="middle" x="1218.5" y="-121.2" font-family="Arial" font-size="11.00">SSH + DCN</text>
<text text-anchor="middle" x="1218.5" y="-109.2" font-family="Arial" font-size="11.00">P4 features</text>
</g>
<!-- odconv_p4&#45;&gt;ssh2 -->
<g id="edge17" class="edge">
<title>odconv_p4&#45;&gt;ssh2</title>
<path fill="none" stroke="black" d="M1101.42,-118C1123.72,-118 1148.76,-118 1169.86,-118"/>
<polygon fill="black" stroke="black" points="1169.87,-121.5 1179.87,-118 1169.87,-114.5 1169.87,-121.5"/>
</g>
<!-- ssh3 -->
<g id="node17" class="node">
<title>ssh3</title>
<polygon fill="#ce93d8" stroke="black" points="1257,-190 1180,-190 1180,-154 1257,-154 1257,-190"/>
<text text-anchor="middle" x="1218.5" y="-175.2" font-family="Arial" font-size="11.00">SSH + DCN</text>
<text text-anchor="middle" x="1218.5" y="-163.2" font-family="Arial" font-size="11.00">P5 features</text>
</g>
<!-- odconv_p5&#45;&gt;ssh3 -->
<g id="edge18" class="edge">
<title>odconv_p5&#45;&gt;ssh3</title>
<path fill="none" stroke="black" d="M1101.42,-185.23C1123.72,-182.69 1148.76,-179.83 1169.86,-177.43"/>
<polygon fill="black" stroke="black" points="1170.33,-180.9 1179.87,-176.29 1169.54,-173.94 1170.33,-180.9"/>
</g>
<!-- cs1 -->
<g id="node18" class="node">
<title>cs1</title>
<polygon fill="#80cbc4" stroke="black" points="1425,-82 1321,-82 1321,-46 1425,-46 1425,-82"/>
<text text-anchor="middle" x="1373" y="-67.2" font-family="Arial" font-size="11.00">ChannelShuffle2</text>
<text text-anchor="middle" x="1373" y="-55.2" font-family="Arial" font-size="11.00">Information Mixing</text>
</g>
<!-- ssh1&#45;&gt;cs1 -->
<g id="edge19" class="edge">
<title>ssh1&#45;&gt;cs1</title>
<path fill="none" stroke="black" d="M1257.2,-64C1273.35,-64 1292.62,-64 1310.73,-64"/>
<polygon fill="black" stroke="black" points="1310.93,-67.5 1320.93,-64 1310.93,-60.5 1310.93,-67.5"/>
</g>
<!-- cs2 -->
<g id="node19" class="node">
<title>cs2</title>
<polygon fill="#80cbc4" stroke="black" points="1425,-136 1321,-136 1321,-100 1425,-100 1425,-136"/>
<text text-anchor="middle" x="1373" y="-121.2" font-family="Arial" font-size="11.00">ChannelShuffle2</text>
<text text-anchor="middle" x="1373" y="-109.2" font-family="Arial" font-size="11.00">Information Mixing</text>
</g>
<!-- ssh2&#45;&gt;cs2 -->
<g id="edge20" class="edge">
<title>ssh2&#45;&gt;cs2</title>
<path fill="none" stroke="black" d="M1257.2,-118C1273.35,-118 1292.62,-118 1310.73,-118"/>
<polygon fill="black" stroke="black" points="1310.93,-121.5 1320.93,-118 1310.93,-114.5 1310.93,-121.5"/>
</g>
<!-- cs3 -->
<g id="node20" class="node">
<title>cs3</title>
<polygon fill="#80cbc4" stroke="black" points="1425,-190 1321,-190 1321,-154 1425,-154 1425,-190"/>
<text text-anchor="middle" x="1373" y="-175.2" font-family="Arial" font-size="11.00">ChannelShuffle2</text>
<text text-anchor="middle" x="1373" y="-163.2" font-family="Arial" font-size="11.00">Information Mixing</text>
</g>
<!-- ssh3&#45;&gt;cs3 -->
<g id="edge21" class="edge">
<title>ssh3&#45;&gt;cs3</title>
<path fill="none" stroke="black" d="M1257.2,-172C1273.35,-172 1292.62,-172 1310.73,-172"/>
<polygon fill="black" stroke="black" points="1310.93,-175.5 1320.93,-172 1310.93,-168.5 1310.93,-175.5"/>
</g>
<!-- cls_head -->
<g id="node21" class="node">
<title>cls_head</title>
<polygon fill="#ef9a9a" stroke="black" points="1562,-82 1461,-82 1461,-46 1562,-46 1562,-82"/>
<text text-anchor="middle" x="1511.5" y="-67.2" font-family="Arial" font-size="11.00">Classification</text>
<text text-anchor="middle" x="1511.5" y="-55.2" font-family="Arial" font-size="11.00">Face/Background</text>
</g>
<!-- cs1&#45;&gt;cls_head -->
<g id="edge22" class="edge">
<title>cs1&#45;&gt;cls_head</title>
<path fill="none" stroke="black" d="M1425.22,-64C1433.5,-64 1442.14,-64 1450.6,-64"/>
<polygon fill="black" stroke="black" points="1450.81,-67.5 1460.81,-64 1450.81,-60.5 1450.81,-67.5"/>
</g>
<!-- bbox_head -->
<g id="node22" class="node">
<title>bbox_head</title>
<polygon fill="#ef9a9a" stroke="black" points="1553.5,-190 1469.5,-190 1469.5,-154 1553.5,-154 1553.5,-190"/>
<text text-anchor="middle" x="1511.5" y="-175.2" font-family="Arial" font-size="11.00">Bounding Box</text>
<text text-anchor="middle" x="1511.5" y="-163.2" font-family="Arial" font-size="11.00">Regression</text>
</g>
<!-- cs1&#45;&gt;bbox_head -->
<g id="edge23" class="edge">
<title>cs1&#45;&gt;bbox_head</title>
<path fill="none" stroke="black" d="M1422.58,-82.18C1426.39,-84.77 1429.93,-87.7 1433,-91 1450.41,-109.76 1435.68,-126.16 1453,-145 1455.39,-147.6 1458.07,-149.96 1460.95,-152.12"/>
<polygon fill="black" stroke="black" points="1459.16,-155.14 1469.46,-157.66 1462.98,-149.27 1459.16,-155.14"/>
</g>
<!-- ldm_head -->
<g id="node23" class="node">
<title>ldm_head</title>
<polygon fill="#ef9a9a" stroke="black" points="1544,-136 1479,-136 1479,-100 1544,-100 1544,-136"/>
<text text-anchor="middle" x="1511.5" y="-121.2" font-family="Arial" font-size="11.00">Landmark</text>
<text text-anchor="middle" x="1511.5" y="-109.2" font-family="Arial" font-size="11.00">Detection</text>
</g>
<!-- cs1&#45;&gt;ldm_head -->
<g id="edge24" class="edge">
<title>cs1&#45;&gt;ldm_head</title>
<path fill="none" stroke="black" d="M1419.83,-82.13C1435.87,-88.47 1453.76,-95.55 1469.38,-101.73"/>
<polygon fill="black" stroke="black" points="1468.2,-105.03 1478.78,-105.45 1470.77,-98.52 1468.2,-105.03"/>
</g>
<!-- cs2&#45;&gt;cls_head -->
<g id="edge25" class="edge">
<title>cs2&#45;&gt;cls_head</title>
<path fill="none" stroke="black" d="M1419.83,-99.87C1431.09,-95.42 1443.26,-90.6 1454.91,-85.99"/>
<polygon fill="black" stroke="black" points="1456.55,-89.11 1464.56,-82.18 1453.97,-82.6 1456.55,-89.11"/>
</g>
<!-- cs2&#45;&gt;bbox_head -->
<g id="edge26" class="edge">
<title>cs2&#45;&gt;bbox_head</title>
<path fill="none" stroke="black" d="M1419.83,-136.13C1432.67,-141.21 1446.7,-146.76 1459.8,-151.94"/>
<polygon fill="black" stroke="black" points="1458.56,-155.22 1469.15,-155.64 1461.14,-148.71 1458.56,-155.22"/>
</g>
<!-- cs2&#45;&gt;ldm_head -->
<g id="edge27" class="edge">
<title>cs2&#45;&gt;ldm_head</title>
<path fill="none" stroke="black" d="M1425.22,-118C1439.56,-118 1454.98,-118 1468.71,-118"/>
<polygon fill="black" stroke="black" points="1468.84,-121.5 1478.84,-118 1468.84,-114.5 1468.84,-121.5"/>
</g>
<!-- cs3&#45;&gt;cls_head -->
<g id="edge28" class="edge">
<title>cs3&#45;&gt;cls_head</title>
<path fill="none" stroke="black" d="M1422.58,-153.82C1426.39,-151.23 1429.93,-148.3 1433,-145 1450.41,-126.24 1435.68,-109.84 1453,-91 1453.76,-90.17 1454.56,-89.36 1455.38,-88.57"/>
<polygon fill="black" stroke="black" points="1457.83,-91.1 1463.43,-82.1 1453.44,-85.64 1457.83,-91.1"/>
</g>
<!-- cs3&#45;&gt;bbox_head -->
<g id="edge29" class="edge">
<title>cs3&#45;&gt;bbox_head</title>
<path fill="none" stroke="black" d="M1425.22,-172C1436.22,-172 1447.86,-172 1458.88,-172"/>
<polygon fill="black" stroke="black" points="1459.22,-175.5 1469.22,-172 1459.22,-168.5 1459.22,-175.5"/>
</g>
<!-- cs3&#45;&gt;ldm_head -->
<g id="edge30" class="edge">
<title>cs3&#45;&gt;ldm_head</title>
<path fill="none" stroke="black" d="M1419.83,-153.87C1435.87,-147.53 1453.76,-140.45 1469.38,-134.27"/>
<polygon fill="black" stroke="black" points="1470.77,-137.48 1478.78,-130.55 1468.2,-130.97 1470.77,-137.48"/>
</g>
<!-- output -->
<g id="node24" class="node">
<title>output</title>
<polygon fill="#e3f2fd" stroke="black" points="1708,-140 1598,-140 1598,-96 1708,-96 1708,-140"/>
<text text-anchor="middle" x="1653" y="-127.2" font-family="Arial" font-size="11.00">Detection Results</text>
<text text-anchor="middle" x="1653" y="-115.2" font-family="Arial" font-size="11.00">BBox + Confidence</text>
<text text-anchor="middle" x="1653" y="-103.2" font-family="Arial" font-size="11.00">+ Landmarks</text>
</g>
<!-- cls_head&#45;&gt;output -->
<g id="edge31" class="edge">
<title>cls_head&#45;&gt;output</title>
<path fill="none" stroke="black" d="M1559.34,-82.13C1568.7,-85.75 1578.67,-89.62 1588.48,-93.41"/>
<polygon fill="black" stroke="black" points="1587.22,-96.68 1597.81,-97.02 1589.75,-90.15 1587.22,-96.68"/>
</g>
<!-- bbox_head&#45;&gt;output -->
<g id="edge32" class="edge">
<title>bbox_head&#45;&gt;output</title>
<path fill="none" stroke="black" d="M1553.6,-156.09C1564.57,-151.84 1576.69,-147.15 1588.56,-142.56"/>
<polygon fill="black" stroke="black" points="1589.93,-145.78 1598,-138.9 1587.41,-139.25 1589.93,-145.78"/>
</g>
<!-- ldm_head&#45;&gt;output -->
<g id="edge33" class="edge">
<title>ldm_head&#45;&gt;output</title>
<path fill="none" stroke="black" d="M1544.15,-118C1557.02,-118 1572.38,-118 1587.42,-118"/>
<polygon fill="black" stroke="black" points="1587.75,-121.5 1597.75,-118 1587.75,-114.5 1587.75,-121.5"/>
</g>
<!-- innovation -->
<g id="node25" class="node">
<title>innovation</title>
<polygon fill="#ffd54f" stroke="black" points="231.5,-410.5 33.5,-410.5 33.5,-257.5 231.5,-257.5 231.5,-410.5"/>
<text text-anchor="middle" x="132.5" y="-398.5" font-family="Arial" font-size="10.00">4D Attention Mechanism</text>
<text text-anchor="middle" x="132.5" y="-387.5" font-family="Arial" font-size="10.00">✓ Spatial: Location&#45;wise</text>
<text text-anchor="middle" x="132.5" y="-376.5" font-family="Arial" font-size="10.00">✓ Input Channel: Channel&#45;wise input</text>
<text text-anchor="middle" x="132.5" y="-365.5" font-family="Arial" font-size="10.00">✓ Output Channel: Channel&#45;wise output</text>
<text text-anchor="middle" x="132.5" y="-354.5" font-family="Arial" font-size="10.00">✓ Kernel: Kernel&#45;wise</text>
<text text-anchor="middle" x="132.5" y="-331.5" font-family="Arial" font-size="10.00">vs CBAM (2D only):</text>
<text text-anchor="middle" x="132.5" y="-320.5" font-family="Arial" font-size="10.00">✓ Channel attention</text>
<text text-anchor="middle" x="132.5" y="-309.5" font-family="Arial" font-size="10.00">✓ Spatial attention</text>
<text text-anchor="middle" x="132.5" y="-286.5" font-family="Arial" font-size="10.00">Performance: +3.77&#45;5.71% ImageNet</text>
<text text-anchor="middle" x="132.5" y="-275.5" font-family="Arial" font-size="10.00">Parameters: ~485K vs 488.7K CBAM</text>
<text text-anchor="middle" x="132.5" y="-264.5" font-family="Arial" font-size="10.00">Complexity: Superior long&#45;range modeling</text>
</g>
<!-- performance -->
<g id="node26" class="node">
<title>performance</title>
<polygon fill="#c8e6c9" stroke="black" points="232,-554.5 33,-554.5 33,-457.5 232,-457.5 232,-554.5"/>
<text text-anchor="middle" x="132.5" y="-542.5" font-family="Arial" font-size="10.00">Easy: 94.0% (+1.3% vs CBAM 92.7%)</text>
<text text-anchor="middle" x="132.5" y="-531.5" font-family="Arial" font-size="10.00">Medium: 92.0% (+1.3% vs CBAM 90.7%)</text>
<text text-anchor="middle" x="132.5" y="-520.5" font-family="Arial" font-size="10.00">Hard: 80.5% (+2.2% vs CBAM 78.3%)</text>
<text text-anchor="middle" x="132.5" y="-509.5" font-family="Arial" font-size="10.00">Overall: 88.8% (+1.6% vs CBAM 87.2%)</text>
<text text-anchor="middle" x="132.5" y="-486.5" font-family="Arial" font-size="10.00">Scientific Foundation:</text>
<text text-anchor="middle" x="132.5" y="-475.5" font-family="Arial" font-size="10.00">Li et al. ICLR 2022 (Spotlight)</text>
<text text-anchor="middle" x="132.5" y="-464.5" font-family="Arial" font-size="10.00">Systematic Literature Review 2025</text>
</g>
<!-- legend -->
<g id="node27" class="node">
<title>legend</title>
<polygon fill="#f5f5f5" stroke="black" points="222,-700 43,-700 43,-602 222,-602 222,-700"/>
<text text-anchor="middle" x="132.5" y="-688.8" font-family="Arial" font-size="9.00">🔵 Backbone: MobileNet&#45;0.25</text>
<text text-anchor="middle" x="132.5" y="-678.8" font-family="Arial" font-size="9.00">🟠 ODConv: 4D Attention (6 modules)</text>
<text text-anchor="middle" x="132.5" y="-668.8" font-family="Arial" font-size="9.00">🟢 BiFPN: Feature Aggregation</text>
<text text-anchor="middle" x="132.5" y="-658.8" font-family="Arial" font-size="9.00">🟣 SSH: Detection + DCN</text>
<text text-anchor="middle" x="132.5" y="-648.8" font-family="Arial" font-size="9.00">🟦 Shuffle: Channel Information Mixing</text>
<text text-anchor="middle" x="132.5" y="-638.8" font-family="Arial" font-size="9.00">🔴 Heads: Classification + Regression</text>
<text text-anchor="middle" x="132.5" y="-618.8" font-family="Arial" font-size="9.00">Total: ~485K parameters</text>
<text text-anchor="middle" x="132.5" y="-608.8" font-family="Arial" font-size="9.00">vs CBAM baseline: 488.7K (&#45;3.7K)</text>
</g>
</g>
</svg>
