<?xml version="1.0" encoding="UTF-8" standalone="no"?>
<!DOCTYPE svg PUBLIC "-//W3C//DTD SVG 1.1//EN"
 "http://www.w3.org/Graphics/SVG/1.1/DTD/svg11.dtd">
<!-- Generated by graphviz version 2.43.0 (0)
 -->
<!-- Title: ScientificComparison Pages: 1 -->
<svg width="1298pt" height="785pt"
 viewBox="0.00 0.00 1298.00 785.00" xmlns="http://www.w3.org/2000/svg" xmlns:xlink="http://www.w3.org/1999/xlink">
<g id="graph0" class="graph" transform="scale(1 1) rotate(0) translate(4 781)">
<title>ScientificComparison</title>
<polygon fill="white" stroke="transparent" points="-4,4 -4,-781 1294,-781 1294,4 -4,4"/>
<text text-anchor="middle" x="645" y="-760.2" font-family="Arial Bold" font-size="16.00">FeatherFace Scientific Comparison: CBAM Baseline vs ECA&#45;Net Innovation</text>
<g id="clust1" class="cluster">
<title>cluster_cbam</title>
<polygon fill="#fde7f3" stroke="#e91e63" points="8,-204 8,-724 320,-724 320,-204 8,-204"/>
<text text-anchor="middle" x="164" y="-707.2" font-family="Arial Bold" font-size="16.00">CBAM Baseline (Scientific Foundation)</text>
</g>
<g id="clust2" class="cluster">
<title>cluster_eca</title>
<polygon fill="#e3f2fd" stroke="#2196f3" points="750,-204 750,-724 1084,-724 1084,-204 750,-204"/>
<text text-anchor="middle" x="917" y="-707.2" font-family="Arial Bold" font-size="16.00">ECA&#45;Net Innovation (Mobile Optimization)</text>
</g>
<g id="clust3" class="cluster">
<title>cluster_comparison</title>
<polygon fill="#f5f5f5" stroke="#757575" points="344,-8 344,-196 726,-196 726,-8 344,-8"/>
<text text-anchor="middle" x="535" y="-179.2" font-family="Arial Bold" font-size="16.00">Scientific Comparison Results</text>
</g>
<g id="clust4" class="cluster">
<title>cluster_foundation</title>
<polygon fill="#fff8e1" stroke="#ff9800" points="328,-472 328,-555 742,-555 742,-472 328,-472"/>
<text text-anchor="middle" x="535" y="-538.2" font-family="Arial Bold" font-size="16.00">Research Foundation</text>
</g>
<g id="clust5" class="cluster">
<title>cluster_experiment</title>
<polygon fill="#e8f5e8" stroke="#4caf50" points="410,-348 410,-464 655,-464 655,-348 410,-348"/>
<text text-anchor="middle" x="532.5" y="-447.2" font-family="Arial Bold" font-size="16.00">Controlled Experiment Design</text>
</g>
<g id="clust6" class="cluster">
<title>cluster_innovation</title>
<polygon fill="#fff3e0" stroke="#ff5722" points="1092,-627 1092,-743 1282,-743 1282,-627 1092,-627"/>
<text text-anchor="middle" x="1187" y="-726.2" font-family="Arial Bold" font-size="16.00">Key Innovation Impact</text>
</g>
<!-- cbam_input -->
<g id="node1" class="node">
<title>cbam_input</title>
<polygon fill="#f8bbd9" stroke="black" points="294.5,-690 229.5,-690 229.5,-654 294.5,-654 294.5,-690"/>
<text text-anchor="middle" x="262" y="-675" font-family="Arial" font-size="10.00">Input</text>
<text text-anchor="middle" x="262" y="-664" font-family="Arial" font-size="10.00">640×640×3</text>
</g>
<!-- cbam_backbone -->
<g id="node2" class="node">
<title>cbam_backbone</title>
<polygon fill="#f8bbd9" stroke="black" points="309.5,-599 214.5,-599 214.5,-563 309.5,-563 309.5,-599"/>
<text text-anchor="middle" x="262" y="-584" font-family="Arial" font-size="10.00">MobileNetV1&#45;0.25</text>
<text text-anchor="middle" x="262" y="-573" font-family="Arial" font-size="10.00">213,072 params</text>
</g>
<!-- cbam_input&#45;&gt;cbam_backbone -->
<g id="edge1" class="edge">
<title>cbam_input&#45;&gt;cbam_backbone</title>
<path fill="none" stroke="black" d="M262,-653.84C262,-641.28 262,-623.98 262,-609.5"/>
<polygon fill="black" stroke="black" points="265.5,-609.11 262,-599.11 258.5,-609.11 265.5,-609.11"/>
</g>
<!-- cbam_bifpn -->
<g id="node3" class="node">
<title>cbam_bifpn</title>
<polygon fill="#f8bbd9" stroke="black" points="302.5,-518.5 221.5,-518.5 221.5,-482.5 302.5,-482.5 302.5,-518.5"/>
<text text-anchor="middle" x="262" y="-503.5" font-family="Arial" font-size="10.00">BiFPN</text>
<text text-anchor="middle" x="262" y="-492.5" font-family="Arial" font-size="10.00">77,916 params</text>
</g>
<!-- cbam_backbone&#45;&gt;cbam_bifpn -->
<g id="edge2" class="edge">
<title>cbam_backbone&#45;&gt;cbam_bifpn</title>
<path fill="none" stroke="black" d="M262,-562.97C262,-552.99 262,-540.15 262,-528.8"/>
<polygon fill="black" stroke="black" points="265.5,-528.5 262,-518.5 258.5,-528.5 265.5,-528.5"/>
</g>
<!-- cbam_attention -->
<g id="node4" class="node">
<title>cbam_attention</title>
<polygon fill="#f48fb1" stroke="black" points="309.5,-413.5 214.5,-413.5 214.5,-372.5 309.5,-372.5 309.5,-413.5"/>
<text text-anchor="middle" x="262" y="-401.5" font-family="Arial" font-size="10.00">CBAM Attention</text>
<text text-anchor="middle" x="262" y="-390.5" font-family="Arial" font-size="10.00">Channel + Spatial</text>
<text text-anchor="middle" x="262" y="-379.5" font-family="Arial" font-size="10.00">O(C²) complexity</text>
</g>
<!-- cbam_bifpn&#45;&gt;cbam_attention -->
<g id="edge3" class="edge">
<title>cbam_bifpn&#45;&gt;cbam_attention</title>
<path fill="none" stroke="black" d="M262,-482.08C262,-466.25 262,-442.57 262,-423.75"/>
<polygon fill="black" stroke="black" points="265.5,-423.6 262,-413.6 258.5,-423.6 265.5,-423.6"/>
</g>
<!-- cbam_ssh -->
<g id="node5" class="node">
<title>cbam_ssh</title>
<polygon fill="#f8bbd9" stroke="black" points="302,-320 216,-320 216,-284 302,-284 302,-320"/>
<text text-anchor="middle" x="259" y="-305" font-family="Arial" font-size="10.00">SSH Heads</text>
<text text-anchor="middle" x="259" y="-294" font-family="Arial" font-size="10.00">192,555 params</text>
</g>
<!-- cbam_attention&#45;&gt;cbam_ssh -->
<g id="edge4" class="edge">
<title>cbam_attention&#45;&gt;cbam_ssh</title>
<path fill="none" stroke="black" d="M261.33,-372.25C260.92,-359.96 260.38,-343.99 259.93,-330.48"/>
<polygon fill="black" stroke="black" points="263.42,-330.17 259.58,-320.29 256.42,-330.4 263.42,-330.17"/>
</g>
<!-- cbam_output -->
<g id="node6" class="node">
<title>cbam_output</title>
<polygon fill="#f8bbd9" stroke="black" points="312,-248 204,-248 204,-212 312,-212 312,-248"/>
<text text-anchor="middle" x="258" y="-233" font-family="Arial" font-size="10.00">Detection Results</text>
<text text-anchor="middle" x="258" y="-222" font-family="Arial" font-size="10.00">488,664 total params</text>
</g>
<!-- cbam_ssh&#45;&gt;cbam_output -->
<g id="edge5" class="edge">
<title>cbam_ssh&#45;&gt;cbam_output</title>
<path fill="none" stroke="black" d="M258.75,-283.7C258.64,-275.98 258.51,-266.71 258.39,-258.11"/>
<polygon fill="black" stroke="black" points="261.89,-258.05 258.24,-248.1 254.89,-258.15 261.89,-258.05"/>
</g>
<!-- comparison_table -->
<g id="node13" class="node">
<title>comparison_table</title>
<polygon fill="lightgrey" stroke="transparent" points="718,-162 352,-162 352,-16 718,-16 718,-162"/>
<polygon fill="white" stroke="transparent" points="360,-20 360,-158 710,-158 710,-20 360,-20"/>
<polygon fill="#e0e0e0" stroke="transparent" points="361,-140 361,-157 461,-157 461,-140 361,-140"/>
<polygon fill="none" stroke="black" points="361,-140 361,-157 461,-157 461,-140 361,-140"/>
<text text-anchor="start" x="396.5" y="-147" font-family="Arial" font-weight="bold" font-size="10.00">Metric</text>
<polygon fill="#fde7f3" stroke="transparent" points="461,-140 461,-157 546,-157 546,-140 461,-140"/>
<polygon fill="none" stroke="black" points="461,-140 461,-157 546,-157 546,-140 461,-140"/>
<text text-anchor="start" x="466" y="-147" font-family="Arial" font-weight="bold" font-size="10.00">CBAM Baseline</text>
<polygon fill="#e3f2fd" stroke="transparent" points="546,-140 546,-157 627,-157 627,-140 546,-140"/>
<polygon fill="none" stroke="black" points="546,-140 546,-157 627,-157 627,-140 546,-140"/>
<text text-anchor="start" x="549.5" y="-147" font-family="Arial" font-weight="bold" font-size="10.00">ECA Innovation</text>
<polygon fill="#e8f5e8" stroke="transparent" points="627,-140 627,-157 709,-157 709,-140 627,-140"/>
<polygon fill="none" stroke="black" points="627,-140 627,-157 709,-157 709,-140 627,-140"/>
<text text-anchor="start" x="637" y="-147" font-family="Arial" font-weight="bold" font-size="10.00">Improvement</text>
<polygon fill="none" stroke="black" points="361,-123 361,-140 461,-140 461,-123 361,-123"/>
<text text-anchor="start" x="385.5" y="-129" font-family="Arial" font-size="10.00">Parameters</text>
<polygon fill="none" stroke="black" points="461,-123 461,-140 546,-140 546,-123 461,-123"/>
<text text-anchor="start" x="486" y="-129" font-family="Arial" font-size="10.00">488,664</text>
<polygon fill="none" stroke="black" points="546,-123 546,-140 627,-140 627,-123 546,-123"/>
<text text-anchor="start" x="569" y="-129" font-family="Arial" font-size="10.00">475,757</text>
<polygon fill="none" stroke="black" points="627,-123 627,-140 709,-140 709,-123 627,-123"/>
<text text-anchor="start" x="634.5" y="-129" font-family="Arial" font-size="10.00">&#45;12,907 (&#45;2.6%)</text>
<polygon fill="none" stroke="black" points="361,-106 361,-123 461,-123 461,-106 361,-106"/>
<text text-anchor="start" x="379.5" y="-112" font-family="Arial" font-size="10.00">Attention Type</text>
<polygon fill="none" stroke="black" points="461,-106 461,-123 546,-123 546,-106 461,-106"/>
<text text-anchor="start" x="464" y="-112" font-family="Arial" font-size="10.00">Channel + Spatial</text>
<polygon fill="none" stroke="black" points="546,-106 546,-123 627,-123 627,-106 546,-106"/>
<text text-anchor="start" x="549" y="-112" font-family="Arial" font-size="10.00">Efficient Channel</text>
<polygon fill="none" stroke="black" points="627,-106 627,-123 709,-123 709,-106 627,-106"/>
<text text-anchor="start" x="630" y="-112" font-family="Arial" font-size="10.00">Mobile Optimized</text>
<polygon fill="none" stroke="black" points="361,-89 361,-106 461,-106 461,-89 361,-89"/>
<text text-anchor="start" x="386" y="-95" font-family="Arial" font-size="10.00">Complexity</text>
<polygon fill="none" stroke="black" points="461,-89 461,-106 546,-106 546,-89 461,-89"/>
<text text-anchor="start" x="491" y="-95" font-family="Arial" font-size="10.00">O(C²)</text>
<polygon fill="none" stroke="black" points="546,-89 546,-106 627,-106 627,-89 546,-89"/>
<text text-anchor="start" x="575.5" y="-95" font-family="Arial" font-size="10.00">O(C)</text>
<polygon fill="none" stroke="black" points="627,-89 627,-106 709,-106 709,-89 627,-89"/>
<text text-anchor="start" x="647" y="-95" font-family="Arial" font-size="10.00">2x Faster</text>
<polygon fill="none" stroke="black" points="361,-72 361,-89 461,-89 461,-72 361,-72"/>
<text text-anchor="start" x="370" y="-78" font-family="Arial" font-size="10.00">WIDERFace Easy</text>
<polygon fill="none" stroke="black" points="461,-72 461,-89 546,-89 546,-72 461,-72"/>
<text text-anchor="start" x="477" y="-78" font-family="Arial" font-size="10.00">92.7% mAP</text>
<polygon fill="none" stroke="black" points="546,-72 546,-89 627,-89 627,-72 546,-72"/>
<text text-anchor="start" x="560" y="-78" font-family="Arial" font-size="10.00">92.7% mAP</text>
<polygon fill="none" stroke="black" points="627,-72 627,-89 709,-89 709,-72 627,-72"/>
<text text-anchor="start" x="644" y="-78" font-family="Arial" font-size="10.00">Maintained</text>
<polygon fill="none" stroke="black" points="361,-55 361,-72 461,-72 461,-55 361,-55"/>
<text text-anchor="start" x="364" y="-61" font-family="Arial" font-size="10.00">WIDERFace Medium</text>
<polygon fill="none" stroke="black" points="461,-55 461,-72 546,-72 546,-55 461,-55"/>
<text text-anchor="start" x="477" y="-61" font-family="Arial" font-size="10.00">90.7% mAP</text>
<polygon fill="none" stroke="black" points="546,-55 546,-72 627,-72 627,-55 546,-55"/>
<text text-anchor="start" x="560" y="-61" font-family="Arial" font-size="10.00">90.7% mAP</text>
<polygon fill="none" stroke="black" points="627,-55 627,-72 709,-72 709,-55 627,-55"/>
<text text-anchor="start" x="644" y="-61" font-family="Arial" font-size="10.00">Maintained</text>
<polygon fill="none" stroke="black" points="361,-38 361,-55 461,-55 461,-38 361,-38"/>
<text text-anchor="start" x="370.5" y="-44" font-family="Arial" font-size="10.00">WIDERFace Hard</text>
<polygon fill="none" stroke="black" points="461,-38 461,-55 546,-55 546,-38 461,-38"/>
<text text-anchor="start" x="477" y="-44" font-family="Arial" font-size="10.00">78.3% mAP</text>
<polygon fill="none" stroke="black" points="546,-38 546,-55 627,-55 627,-38 546,-38"/>
<text text-anchor="start" x="560" y="-44" font-family="Arial" font-size="10.00">78.3% mAP</text>
<polygon fill="none" stroke="black" points="627,-38 627,-55 709,-55 709,-38 627,-38"/>
<text text-anchor="start" x="644" y="-44" font-family="Arial" font-size="10.00">Maintained</text>
<polygon fill="none" stroke="black" points="361,-21 361,-38 461,-38 461,-21 361,-21"/>
<text text-anchor="start" x="379.5" y="-27" font-family="Arial" font-size="10.00">Mobile Deploy</text>
<polygon fill="none" stroke="black" points="461,-21 461,-38 546,-38 546,-21 461,-21"/>
<text text-anchor="start" x="483.5" y="-27" font-family="Arial" font-size="10.00">Standard</text>
<polygon fill="none" stroke="black" points="546,-21 546,-38 627,-38 627,-21 546,-21"/>
<text text-anchor="start" x="564" y="-27" font-family="Arial" font-size="10.00">Optimized</text>
<polygon fill="none" stroke="black" points="627,-21 627,-38 709,-38 709,-21 627,-21"/>
<text text-anchor="start" x="646" y="-27" font-family="Arial" font-size="10.00">Enhanced</text>
<polygon fill="none" stroke="black" points="360,-20 360,-158 710,-158 710,-20 360,-20"/>
</g>
<!-- cbam_output&#45;&gt;comparison_table -->
<g id="edge11" class="edge">
<title>cbam_output&#45;&gt;comparison_table</title>
<path fill="none" stroke="#e91e63" stroke-dasharray="5,2" d="M291.97,-211.96C315.31,-200.24 348.12,-183.78 382.09,-166.73"/>
<polygon fill="#e91e63" stroke="#e91e63" points="383.86,-169.76 391.23,-162.15 380.72,-163.5 383.86,-169.76"/>
</g>
<!-- eca_input -->
<g id="node7" class="node">
<title>eca_input</title>
<polygon fill="#bbdefb" stroke="black" points="841.5,-690 776.5,-690 776.5,-654 841.5,-654 841.5,-690"/>
<text text-anchor="middle" x="809" y="-675" font-family="Arial" font-size="10.00">Input</text>
<text text-anchor="middle" x="809" y="-664" font-family="Arial" font-size="10.00">640×640×3</text>
</g>
<!-- eca_backbone -->
<g id="node8" class="node">
<title>eca_backbone</title>
<polygon fill="#bbdefb" stroke="black" points="856.5,-599 761.5,-599 761.5,-563 856.5,-563 856.5,-599"/>
<text text-anchor="middle" x="809" y="-584" font-family="Arial" font-size="10.00">MobileNetV1&#45;0.25</text>
<text text-anchor="middle" x="809" y="-573" font-family="Arial" font-size="10.00">213,072 params</text>
</g>
<!-- eca_input&#45;&gt;eca_backbone -->
<g id="edge6" class="edge">
<title>eca_input&#45;&gt;eca_backbone</title>
<path fill="none" stroke="black" d="M809,-653.84C809,-641.28 809,-623.98 809,-609.5"/>
<polygon fill="black" stroke="black" points="812.5,-609.11 809,-599.11 805.5,-609.11 812.5,-609.11"/>
</g>
<!-- eca_bifpn -->
<g id="node9" class="node">
<title>eca_bifpn</title>
<polygon fill="#bbdefb" stroke="black" points="849.5,-518.5 768.5,-518.5 768.5,-482.5 849.5,-482.5 849.5,-518.5"/>
<text text-anchor="middle" x="809" y="-503.5" font-family="Arial" font-size="10.00">BiFPN</text>
<text text-anchor="middle" x="809" y="-492.5" font-family="Arial" font-size="10.00">77,916 params</text>
</g>
<!-- eca_backbone&#45;&gt;eca_bifpn -->
<g id="edge7" class="edge">
<title>eca_backbone&#45;&gt;eca_bifpn</title>
<path fill="none" stroke="black" d="M809,-562.97C809,-552.99 809,-540.15 809,-528.8"/>
<polygon fill="black" stroke="black" points="812.5,-528.5 809,-518.5 805.5,-528.5 812.5,-528.5"/>
</g>
<!-- eca_attention -->
<g id="node10" class="node">
<title>eca_attention</title>
<polygon fill="#90caf9" stroke="black" points="858,-413.5 760,-413.5 760,-372.5 858,-372.5 858,-413.5"/>
<text text-anchor="middle" x="809" y="-401.5" font-family="Arial" font-size="10.00">ECA&#45;Net Attention</text>
<text text-anchor="middle" x="809" y="-390.5" font-family="Arial" font-size="10.00">Efficient Channel</text>
<text text-anchor="middle" x="809" y="-379.5" font-family="Arial" font-size="10.00">O(C) complexity</text>
</g>
<!-- eca_bifpn&#45;&gt;eca_attention -->
<g id="edge8" class="edge">
<title>eca_bifpn&#45;&gt;eca_attention</title>
<path fill="none" stroke="black" d="M809,-482.08C809,-466.25 809,-442.57 809,-423.75"/>
<polygon fill="black" stroke="black" points="812.5,-423.6 809,-413.6 805.5,-423.6 812.5,-423.6"/>
</g>
<!-- eca_ssh -->
<g id="node11" class="node">
<title>eca_ssh</title>
<polygon fill="#bbdefb" stroke="black" points="853,-320 767,-320 767,-284 853,-284 853,-320"/>
<text text-anchor="middle" x="810" y="-305" font-family="Arial" font-size="10.00">SSH Heads</text>
<text text-anchor="middle" x="810" y="-294" font-family="Arial" font-size="10.00">192,555 params</text>
</g>
<!-- eca_attention&#45;&gt;eca_ssh -->
<g id="edge9" class="edge">
<title>eca_attention&#45;&gt;eca_ssh</title>
<path fill="none" stroke="black" d="M809.22,-372.25C809.36,-359.96 809.54,-343.99 809.69,-330.48"/>
<polygon fill="black" stroke="black" points="813.19,-330.33 809.81,-320.29 806.19,-330.25 813.19,-330.33"/>
</g>
<!-- eca_output -->
<g id="node12" class="node">
<title>eca_output</title>
<polygon fill="#bbdefb" stroke="black" points="866,-248 758,-248 758,-212 866,-212 866,-248"/>
<text text-anchor="middle" x="812" y="-233" font-family="Arial" font-size="10.00">Detection Results</text>
<text text-anchor="middle" x="812" y="-222" font-family="Arial" font-size="10.00">475,757 total params</text>
</g>
<!-- eca_ssh&#45;&gt;eca_output -->
<g id="edge10" class="edge">
<title>eca_ssh&#45;&gt;eca_output</title>
<path fill="none" stroke="black" d="M810.49,-283.7C810.71,-275.98 810.98,-266.71 811.23,-258.11"/>
<polygon fill="black" stroke="black" points="814.72,-258.2 811.51,-248.1 807.73,-258 814.72,-258.2"/>
</g>
<!-- eca_output&#45;&gt;comparison_table -->
<g id="edge12" class="edge">
<title>eca_output&#45;&gt;comparison_table</title>
<path fill="none" stroke="#2196f3" stroke-dasharray="5,2" d="M778.03,-211.96C754.69,-200.24 721.88,-183.78 687.91,-166.73"/>
<polygon fill="#2196f3" stroke="#2196f3" points="689.28,-163.5 678.77,-162.15 686.14,-169.76 689.28,-163.5"/>
</g>
<!-- cbam_paper -->
<g id="node14" class="node">
<title>cbam_paper</title>
<polygon fill="#ffecb3" stroke="black" points="452,-521 336,-521 336,-480 452,-480 452,-521"/>
<text text-anchor="middle" x="394" y="-509" font-family="Arial" font-size="10.00">CBAM</text>
<text text-anchor="middle" x="394" y="-498" font-family="Arial" font-size="10.00">Woo et al. ECCV 2018</text>
<text text-anchor="middle" x="394" y="-487" font-family="Arial" font-size="10.00">7,000+ citations</text>
</g>
<!-- cbam_paper&#45;&gt;cbam_attention -->
<g id="edge13" class="edge">
<title>cbam_paper&#45;&gt;cbam_attention</title>
<path fill="none" stroke="#ff9800" stroke-dasharray="1,5" d="M369.48,-479.9C348.41,-463.06 317.84,-438.63 294.69,-420.13"/>
<polygon fill="#ff9800" stroke="#ff9800" points="296.83,-417.36 286.84,-413.85 292.46,-422.83 296.83,-417.36"/>
</g>
<!-- eca_paper -->
<g id="node15" class="node">
<title>eca_paper</title>
<polygon fill="#ffecb3" stroke="black" points="734,-521 612,-521 612,-480 734,-480 734,-521"/>
<text text-anchor="middle" x="673" y="-509" font-family="Arial" font-size="10.00">ECA&#45;Net</text>
<text text-anchor="middle" x="673" y="-498" font-family="Arial" font-size="10.00">Wang et al. CVPR 2020</text>
<text text-anchor="middle" x="673" y="-487" font-family="Arial" font-size="10.00">1,500+ citations</text>
</g>
<!-- eca_paper&#45;&gt;eca_attention -->
<g id="edge14" class="edge">
<title>eca_paper&#45;&gt;eca_attention</title>
<path fill="none" stroke="#ff9800" stroke-dasharray="1,5" d="M698.26,-479.9C719.98,-463.06 751.47,-438.63 775.32,-420.13"/>
<polygon fill="#ff9800" stroke="#ff9800" points="777.66,-422.74 783.41,-413.85 773.37,-417.21 777.66,-422.74"/>
</g>
<!-- featherface_paper -->
<g id="node16" class="node">
<title>featherface_paper</title>
<polygon fill="#ffecb3" stroke="black" points="594,-521 470,-521 470,-480 594,-480 594,-521"/>
<text text-anchor="middle" x="532" y="-509" font-family="Arial" font-size="10.00">FeatherFace</text>
<text text-anchor="middle" x="532" y="-498" font-family="Arial" font-size="10.00">Electronics 2025</text>
<text text-anchor="middle" x="532" y="-487" font-family="Arial" font-size="10.00">Baseline Implementation</text>
</g>
<!-- experiment -->
<g id="node17" class="node">
<title>experiment</title>
<polygon fill="#c8e6c8" stroke="black" points="618.5,-430 439.5,-430 439.5,-356 624.5,-356 624.5,-424 618.5,-430"/>
<polyline fill="none" stroke="black" points="618.5,-430 618.5,-424 "/>
<polyline fill="none" stroke="black" points="624.5,-424 618.5,-424 "/>
<text text-anchor="middle" x="532" y="-418" font-family="Arial" font-size="10.00">Scientific Rigor</text>
<text text-anchor="middle" x="532" y="-407" font-family="Arial" font-size="10.00">• Single Variable: Attention mechanism</text>
<text text-anchor="middle" x="532" y="-396" font-family="Arial" font-size="10.00">• Identical: out_channel=52</text>
<text text-anchor="middle" x="532" y="-385" font-family="Arial" font-size="10.00">• Same Training: Direct supervision</text>
<text text-anchor="middle" x="532" y="-374" font-family="Arial" font-size="10.00">• No Distillation: Clean comparison</text>
<text text-anchor="middle" x="532" y="-363" font-family="Arial" font-size="10.00">• Reproducible: Exact configurations</text>
</g>
<!-- featherface_paper&#45;&gt;experiment -->
<g id="edge15" class="edge">
<title>featherface_paper&#45;&gt;experiment</title>
<path fill="none" stroke="#ff9800" stroke-dasharray="1,5" d="M532,-479.66C532,-468.62 532,-454.39 532,-440.7"/>
<polygon fill="#ff9800" stroke="#ff9800" points="535.5,-440.41 532,-430.41 528.5,-440.41 535.5,-440.41"/>
</g>
<!-- innovation -->
<g id="node18" class="node">
<title>innovation</title>
<polygon fill="#ffe0b2" stroke="black" points="1267.5,-709 1100.5,-709 1100.5,-635 1273.5,-635 1273.5,-703 1267.5,-709"/>
<polyline fill="none" stroke="black" points="1267.5,-709 1267.5,-703 "/>
<polyline fill="none" stroke="black" points="1273.5,-703 1267.5,-703 "/>
<text text-anchor="middle" x="1187" y="-697" font-family="Arial" font-size="10.00">Mobile Optimization</text>
<text text-anchor="middle" x="1187" y="-686" font-family="Arial" font-size="10.00">• Parameter Efficiency: &#45;2.6%</text>
<text text-anchor="middle" x="1187" y="-675" font-family="Arial" font-size="10.00">• Computational Speed: 2x faster</text>
<text text-anchor="middle" x="1187" y="-664" font-family="Arial" font-size="10.00">• Memory Footprint: Reduced</text>
<text text-anchor="middle" x="1187" y="-653" font-family="Arial" font-size="10.00">• Deployment Ready: Edge devices</text>
<text text-anchor="middle" x="1187" y="-642" font-family="Arial" font-size="10.00">• Scientific Validation: Controlled</text>
</g>
</g>
</svg>
