<?xml version="1.0" encoding="UTF-8" standalone="no"?>
<!DOCTYPE svg PUBLIC "-//W3C//DTD SVG 1.1//EN"
 "http://www.w3.org/Graphics/SVG/1.1/DTD/svg11.dtd">
<!-- Generated by graphviz version 14.0.2 (20251019.1705)
 -->
<!-- Title: SequentialVsParallel Pages: 1 -->
<svg width="1124pt" height="416pt"
 viewBox="0.00 0.00 1124.00 416.00" xmlns="http://www.w3.org/2000/svg" xmlns:xlink="http://www.w3.org/1999/xlink">
<g id="graph0" class="graph" transform="scale(1 1) rotate(0) translate(4 412)">
<title>SequentialVsParallel</title>
<polygon fill="white" stroke="none" points="-4,4 -4,-412 1120.31,-412 1120.31,4 -4,4"/>
<g id="clust1" class="cluster">
<title>cluster_sequential</title>
<polygon fill="#ffe0e0" stroke="#c62828" points="326,-277 326,-400 1041.43,-400 1041.43,-277 326,-277"/>
<text xml:space="preserve" text-anchor="middle" x="683.72" y="-382.7" font-family="Times New Roman,serif" font-size="14.00">Sequential (ECA → SAM)</text>
<text xml:space="preserve" text-anchor="middle" x="683.72" y="-366.2" font-family="Times New Roman,serif" font-size="14.00">476,345 params | 82.7% mAP</text>
</g>
<g id="clust2" class="cluster">
<title>cluster_parallel</title>
<polygon fill="#e0f2f1" stroke="#00695c" points="417,-8 417,-155 1043.68,-155 1043.68,-8 417,-8"/>
<text xml:space="preserve" text-anchor="middle" x="730.34" y="-137.7" font-family="Times New Roman,serif" font-size="14.00">Parallel (ECA ∥ SAM)</text>
<text xml:space="preserve" text-anchor="middle" x="730.34" y="-121.2" font-family="Times New Roman,serif" font-size="14.00">476,345 params | 89.2% mAP (target)</text>
</g>
<!-- title -->
<g id="node1" class="node">
<title>title</title>
<path fill="lightgrey" stroke="none" d="M286,-255C286,-255 12,-255 12,-255 6,-255 0,-249 0,-243 0,-243 0,-231 0,-231 0,-225 6,-219 12,-219 12,-219 286,-219 286,-219 292,-219 298,-225 298,-231 298,-231 298,-243 298,-243 298,-249 292,-255 286,-255"/>
<text xml:space="preserve" text-anchor="middle" x="149" y="-231.57" font-family="Arial" font-size="14.00" fill="#1565c0">Sequential vs Parallel Architecture Comparison</text>
</g>
<!-- seq_input -->
<g id="node2" class="node">
<title>seq_input</title>
<path fill="#ffcdd2" stroke="black" d="M377,-321C377,-321 346,-321 346,-321 340,-321 334,-315 334,-309 334,-309 334,-297 334,-297 334,-291 340,-285 346,-285 346,-285 377,-285 377,-285 383,-285 389,-291 389,-297 389,-297 389,-309 389,-309 389,-315 383,-321 377,-321"/>
<text xml:space="preserve" text-anchor="middle" x="361.5" y="-304.95" font-family="Arial" font-size="9.00">X</text>
<text xml:space="preserve" text-anchor="middle" x="361.5" y="-294.45" font-family="Arial" font-size="9.00">[B,C,H,W]</text>
</g>
<!-- title&#45;&gt;seq_input -->
<!-- par_input -->
<g id="node8" class="node">
<title>par_input</title>
<path fill="#b2dfdb" stroke="black" d="M468,-106C468,-106 437,-106 437,-106 431,-106 425,-100 425,-94 425,-94 425,-82 425,-82 425,-76 431,-70 437,-70 437,-70 468,-70 468,-70 474,-70 480,-76 480,-82 480,-82 480,-94 480,-94 480,-100 474,-106 468,-106"/>
<text xml:space="preserve" text-anchor="middle" x="452.5" y="-89.95" font-family="Arial" font-size="9.00">X</text>
<text xml:space="preserve" text-anchor="middle" x="452.5" y="-79.45" font-family="Arial" font-size="9.00">[B,C,H,W]</text>
</g>
<!-- title&#45;&gt;par_input -->
<!-- seq_eca -->
<g id="node3" class="node">
<title>seq_eca</title>
<path fill="#ef9a9a" stroke="black" d="M467.5,-321C467.5,-321 437.5,-321 437.5,-321 431.5,-321 425.5,-315 425.5,-309 425.5,-309 425.5,-297 425.5,-297 425.5,-291 431.5,-285 437.5,-285 437.5,-285 467.5,-285 467.5,-285 473.5,-285 479.5,-291 479.5,-297 479.5,-297 479.5,-309 479.5,-309 479.5,-315 473.5,-321 467.5,-321"/>
<text xml:space="preserve" text-anchor="middle" x="452.5" y="-304.95" font-family="Arial" font-size="9.00">ECA</text>
<text xml:space="preserve" text-anchor="middle" x="452.5" y="-294.45" font-family="Arial" font-size="9.00">M_c</text>
</g>
<!-- seq_input&#45;&gt;seq_eca -->
<g id="edge1" class="edge">
<title>seq_input&#45;&gt;seq_eca</title>
<path fill="none" stroke="black" d="M389.2,-303C396.93,-303 405.51,-303 413.78,-303"/>
<polygon fill="black" stroke="black" points="413.61,-306.5 423.61,-303 413.61,-299.5 413.61,-306.5"/>
</g>
<!-- seq_feca -->
<g id="node4" class="node">
<title>seq_feca</title>
<path fill="#e57373" stroke="black" d="M563.5,-321C563.5,-321 528,-321 528,-321 522,-321 516,-315 516,-309 516,-309 516,-297 516,-297 516,-291 522,-285 528,-285 528,-285 563.5,-285 563.5,-285 569.5,-285 575.5,-291 575.5,-297 575.5,-297 575.5,-309 575.5,-309 575.5,-315 569.5,-321 563.5,-321"/>
<text xml:space="preserve" text-anchor="middle" x="545.75" y="-305.32" font-family="Arial" font-size="9.00">F_eca =</text>
<text xml:space="preserve" text-anchor="middle" x="545.75" y="-294.82" font-family="Arial" font-size="9.00">X ⊙ M_c</text>
</g>
<!-- seq_eca&#45;&gt;seq_feca -->
<g id="edge2" class="edge">
<title>seq_eca&#45;&gt;seq_feca</title>
<path fill="none" stroke="black" d="M479.89,-303C487.48,-303 495.93,-303 504.16,-303"/>
<polygon fill="black" stroke="black" points="504.02,-306.5 514.02,-303 504.02,-299.5 504.02,-306.5"/>
</g>
<!-- seq_sam -->
<g id="node5" class="node">
<title>seq_sam</title>
<path fill="#ef5350" stroke="black" d="M676.53,-321C676.53,-321 646.53,-321 646.53,-321 640.53,-321 634.53,-315 634.53,-309 634.53,-309 634.53,-297 634.53,-297 634.53,-291 640.53,-285 646.53,-285 646.53,-285 676.53,-285 676.53,-285 682.53,-285 688.53,-291 688.53,-297 688.53,-297 688.53,-309 688.53,-309 688.53,-315 682.53,-321 676.53,-321"/>
<text xml:space="preserve" text-anchor="middle" x="661.53" y="-304.95" font-family="Arial" font-size="9.00">SAM</text>
<text xml:space="preserve" text-anchor="middle" x="661.53" y="-294.45" font-family="Arial" font-size="9.00">M_s</text>
</g>
<!-- seq_feca&#45;&gt;seq_sam -->
<g id="edge3" class="edge">
<title>seq_feca&#45;&gt;seq_sam</title>
<path fill="none" stroke="black" d="M575.76,-303C590.13,-303 607.66,-303 623.04,-303"/>
<polygon fill="black" stroke="black" points="622.79,-306.5 632.79,-303 622.79,-299.5 622.79,-306.5"/>
</g>
<!-- seq_output -->
<g id="node6" class="node">
<title>seq_output</title>
<path fill="#f44336" stroke="black" d="M815.31,-321C815.31,-321 760.31,-321 760.31,-321 754.31,-321 748.31,-315 748.31,-309 748.31,-309 748.31,-297 748.31,-297 748.31,-291 754.31,-285 760.31,-285 760.31,-285 815.31,-285 815.31,-285 821.31,-285 827.31,-291 827.31,-297 827.31,-297 827.31,-309 827.31,-309 827.31,-315 821.31,-321 815.31,-321"/>
<text xml:space="preserve" text-anchor="middle" x="787.81" y="-305.32" font-family="Arial" font-size="9.00">Y =</text>
<text xml:space="preserve" text-anchor="middle" x="787.81" y="-294.82" font-family="Arial" font-size="9.00">F_eca ⊙ M_s</text>
</g>
<!-- seq_sam&#45;&gt;seq_output -->
<g id="edge4" class="edge">
<title>seq_sam&#45;&gt;seq_output</title>
<path fill="none" stroke="black" d="M688.88,-303C702.89,-303 720.58,-303 737.06,-303"/>
<polygon fill="black" stroke="black" points="736.7,-306.5 746.7,-303 736.7,-299.5 736.7,-306.5"/>
</g>
<!-- seq_info -->
<g id="node7" class="node">
<title>seq_info</title>
<polygon fill="#ffebee" stroke="black" points="1027.43,-351.25 946.93,-351.25 946.93,-284.75 1033.43,-284.75 1033.43,-345.25 1027.43,-351.25"/>
<polyline fill="none" stroke="black" points="1027.43,-351.25 1027.43,-345.25"/>
<polyline fill="none" stroke="black" points="1033.43,-345.25 1027.43,-345.25"/>
<text xml:space="preserve" text-anchor="middle" x="990.18" y="-339.65" font-family="Arial" font-size="8.00">⚠ SAM sees</text>
<text xml:space="preserve" text-anchor="middle" x="990.18" y="-329.9" font-family="Arial" font-size="8.00">filtered features</text>
<text xml:space="preserve" text-anchor="middle" x="990.18" y="-320.15" font-family="Arial" font-size="8.00">⚠ Sequential</text>
<text xml:space="preserve" text-anchor="middle" x="990.18" y="-310.4" font-family="Arial" font-size="8.00">interference</text>
<text xml:space="preserve" text-anchor="middle" x="990.18" y="-300.65" font-family="Arial" font-size="8.00">⚠ Information</text>
<text xml:space="preserve" text-anchor="middle" x="990.18" y="-290.9" font-family="Arial" font-size="8.00">loss</text>
</g>
<!-- seq_output&#45;&gt;seq_info -->
<!-- key -->
<g id="node14" class="node">
<title>key</title>
<path fill="#fff9c4" stroke="black" d="M1104.31,-266.62C1104.31,-266.62 876.06,-266.62 876.06,-266.62 870.06,-266.62 864.06,-260.62 864.06,-254.62 864.06,-254.62 864.06,-175.38 864.06,-175.38 864.06,-169.38 870.06,-163.38 876.06,-163.38 876.06,-163.38 1104.31,-163.38 1104.31,-163.38 1110.31,-163.38 1116.31,-169.38 1116.31,-175.38 1116.31,-175.38 1116.31,-254.62 1116.31,-254.62 1116.31,-260.62 1110.31,-266.62 1104.31,-266.62"/>
<text xml:space="preserve" text-anchor="middle" x="990.18" y="-253.12" font-family="Arial" font-size="10.00">Key Differences:</text>
<text xml:space="preserve" text-anchor="middle" x="990.18" y="-241.12" font-family="Arial" font-size="10.00">━━━━━━━━━━━━━━━</text>
<text xml:space="preserve" text-anchor="middle" x="990.18" y="-229.88" font-family="Arial" font-size="10.00">Sequential: ECA first, SAM on filtered</text>
<text xml:space="preserve" text-anchor="middle" x="990.18" y="-217.88" font-family="Arial" font-size="10.00">Parallel: Both on original, fused masks</text>
<text xml:space="preserve" text-anchor="middle" x="990.18" y="-193.88" font-family="Arial" font-size="10.00">Parameter Count: IDENTICAL (476,345)</text>
<text xml:space="preserve" text-anchor="middle" x="990.18" y="-181.88" font-family="Arial" font-size="10.00">Performance: Parallel +6.5% mAP</text>
<text xml:space="preserve" text-anchor="middle" x="990.18" y="-169.88" font-family="Arial" font-size="10.00">Fusion: Multiplicative (0 params)</text>
</g>
<!-- seq_output&#45;&gt;key -->
<!-- par_eca -->
<g id="node9" class="node">
<title>par_eca</title>
<path fill="#80cbc4" stroke="black" d="M560.75,-52C560.75,-52 530.75,-52 530.75,-52 524.75,-52 518.75,-46 518.75,-40 518.75,-40 518.75,-28 518.75,-28 518.75,-22 524.75,-16 530.75,-16 530.75,-16 560.75,-16 560.75,-16 566.75,-16 572.75,-22 572.75,-28 572.75,-28 572.75,-40 572.75,-40 572.75,-46 566.75,-52 560.75,-52"/>
<text xml:space="preserve" text-anchor="middle" x="545.75" y="-35.95" font-family="Arial" font-size="9.00">ECA</text>
<text xml:space="preserve" text-anchor="middle" x="545.75" y="-25.45" font-family="Arial" font-size="9.00">M_c</text>
</g>
<!-- par_input&#45;&gt;par_eca -->
<g id="edge6" class="edge">
<title>par_input&#45;&gt;par_eca</title>
<path fill="none" stroke="black" d="M480.38,-72.09C489.19,-66.88 499.12,-61.01 508.49,-55.46"/>
<polygon fill="black" stroke="black" points="510.25,-58.49 517.07,-50.38 506.68,-52.46 510.25,-58.49"/>
</g>
<!-- par_sam -->
<g id="node10" class="node">
<title>par_sam</title>
<path fill="#4db6ac" stroke="black" d="M560.75,-106C560.75,-106 530.75,-106 530.75,-106 524.75,-106 518.75,-100 518.75,-94 518.75,-94 518.75,-82 518.75,-82 518.75,-76 524.75,-70 530.75,-70 530.75,-70 560.75,-70 560.75,-70 566.75,-70 572.75,-76 572.75,-82 572.75,-82 572.75,-94 572.75,-94 572.75,-100 566.75,-106 560.75,-106"/>
<text xml:space="preserve" text-anchor="middle" x="545.75" y="-89.95" font-family="Arial" font-size="9.00">SAM</text>
<text xml:space="preserve" text-anchor="middle" x="545.75" y="-79.45" font-family="Arial" font-size="9.00">M_s</text>
</g>
<!-- par_input&#45;&gt;par_sam -->
<g id="edge8" class="edge">
<title>par_input&#45;&gt;par_sam</title>
<path fill="none" stroke="black" d="M480.38,-88C488.72,-88 498.06,-88 506.99,-88"/>
<polygon fill="black" stroke="black" points="506.86,-91.5 516.86,-88 506.86,-84.5 506.86,-91.5"/>
</g>
<!-- par_fusion -->
<g id="node11" class="node">
<title>par_fusion</title>
<ellipse fill="#26a69a" stroke="black" cx="661.53" cy="-76" rx="50.03" ry="21.04"/>
<text xml:space="preserve" text-anchor="middle" x="661.53" y="-78.33" font-family="Arial" font-size="9.00">M_hybrid =</text>
<text xml:space="preserve" text-anchor="middle" x="661.53" y="-67.83" font-family="Arial" font-size="9.00">M_c ⊙ M_s</text>
</g>
<!-- par_eca&#45;&gt;par_fusion -->
<g id="edge7" class="edge">
<title>par_eca&#45;&gt;par_fusion</title>
<path fill="none" stroke="black" d="M573.14,-43.74C584.85,-48.06 599,-53.29 612.47,-58.26"/>
<polygon fill="black" stroke="black" points="611.06,-61.47 621.66,-61.65 613.49,-54.9 611.06,-61.47"/>
</g>
<!-- par_sam&#45;&gt;par_fusion -->
<g id="edge9" class="edge">
<title>par_sam&#45;&gt;par_fusion</title>
<path fill="none" stroke="black" d="M573.14,-85.22C581.72,-84.31 591.63,-83.27 601.61,-82.21"/>
<polygon fill="black" stroke="black" points="601.77,-85.72 611.35,-81.19 601.04,-78.76 601.77,-85.72"/>
</g>
<!-- par_output -->
<g id="node12" class="node">
<title>par_output</title>
<path fill="#00897b" stroke="black" d="M816.06,-94C816.06,-94 759.56,-94 759.56,-94 753.56,-94 747.56,-88 747.56,-82 747.56,-82 747.56,-70 747.56,-70 747.56,-64 753.56,-58 759.56,-58 759.56,-58 816.06,-58 816.06,-58 822.06,-58 828.06,-64 828.06,-70 828.06,-70 828.06,-82 828.06,-82 828.06,-88 822.06,-94 816.06,-94"/>
<text xml:space="preserve" text-anchor="middle" x="787.81" y="-78.33" font-family="Arial" font-size="9.00">Y =</text>
<text xml:space="preserve" text-anchor="middle" x="787.81" y="-67.83" font-family="Arial" font-size="9.00">X ⊙ M_hybrid</text>
</g>
<!-- par_fusion&#45;&gt;par_output -->
<g id="edge10" class="edge">
<title>par_fusion&#45;&gt;par_output</title>
<path fill="none" stroke="black" d="M712,-76C719.83,-76 727.93,-76 735.78,-76"/>
<polygon fill="black" stroke="black" points="735.55,-79.5 745.55,-76 735.55,-72.5 735.55,-79.5"/>
</g>
<!-- par_info -->
<g id="node13" class="node">
<title>par_info</title>
<polygon fill="#e0f7fa" stroke="black" points="1029.68,-106.12 944.68,-106.12 944.68,-29.88 1035.68,-29.88 1035.68,-100.12 1029.68,-106.12"/>
<polyline fill="none" stroke="black" points="1029.68,-106.12 1029.68,-100.12"/>
<polyline fill="none" stroke="black" points="1035.68,-100.12 1029.68,-100.12"/>
<text xml:space="preserve" text-anchor="middle" x="990.18" y="-94.53" font-family="Arial" font-size="8.00">✓ Both see</text>
<text xml:space="preserve" text-anchor="middle" x="990.18" y="-84.78" font-family="Arial" font-size="8.00">original X</text>
<text xml:space="preserve" text-anchor="middle" x="990.18" y="-75.03" font-family="Arial" font-size="8.00">✓ Independent</text>
<text xml:space="preserve" text-anchor="middle" x="990.18" y="-65.28" font-family="Arial" font-size="8.00">computation</text>
<text xml:space="preserve" text-anchor="middle" x="990.18" y="-55.52" font-family="Arial" font-size="8.00">✓ Better</text>
<text xml:space="preserve" text-anchor="middle" x="990.18" y="-45.77" font-family="Arial" font-size="8.00">complementarity</text>
<text xml:space="preserve" text-anchor="middle" x="990.18" y="-36.02" font-family="Arial" font-size="8.00">✓ +6.5% mAP</text>
</g>
<!-- par_output&#45;&gt;par_info -->
<!-- par_output&#45;&gt;key -->
</g>
</svg>
